<?xml version="1.0" encoding="UTF-8"?>
<svg version="1.1" viewBox="0 0 868 864" width="217" height="216" xmlns="http://www.w3.org/2000/svg">
<path transform="translate(424,4)" d="m0 0h19l33 2 36 5 20 4 30 8 37 13 34 16 15 8 22 13 17 12 16 12 9 7 10 9 11 9 15 15 8 10 10 10 9 11 13 17 12 18 12 20 12 23 10 21 11 29 9 29 7 32 5 33 2 20v47l-4 34-6 35-8 31-10 29-11 26-14 28-10 17-16 24-12 16-8 10-9 10-11 13-18 18-11 9-13 11-19 14-16 11-25 15-23 12-27 12-30 11-38 10-26 5-34 5-12 1h-42l-23-2-44-7-26-6-24-7-30-11-24-11-16-8-18-10-22-14-19-14-12-9-7-7-12-9-25-25-7-9-11-12-8-11-9-12-10-15-11-18-13-24-11-24-10-27-8-25-7-29-6-39-2-16v-61l7-47 8-34 7-23 11-29 13-28 12-22 11-18 11-16 12-16 9-11 12-12 8-10 18-18 10-8 11-10 14-10 16-12 28-17 27-14 19-9 30-11 19-6 32-8 38-6 20-2z" fill="#8C8166"/>
<path transform="translate(313,110)" d="m0 0 15 1 23 6 26 10 24 11 16 8 18 10 14 9-1-4v-5h23l9 4 5 3v-3l12 1 23 4 26 9v4l-10 10 7-6 3-1v-2l9-4 10-8 24-16 11-7 16-8 24-11 17-5h9l9 3 2 2 1 5-3 7-5 4-84 42-9 5-8 6-7 8-3 1v2l-3 3 18-12 5-1 12 7 14 12 8 10 7 11 2 5-6 4-4 2h-3l-6-9-7-8-9-6-8-4-3-1h-9l-9 4-5 5-5 10-2 15 2 20 10 50 3 28 5 40-5 2-10-2 1 3 14 3 13 5 12 5 20 7 15 6 18 8 9 3 17 8 18 10 8 5 21 12 13 10 5 4 7 8 9 11 8 16 1 4v9l-4 11-7 9-8 6-7 3h-18l-13-4-14-7-24-15-18-13-12-8-10-8-27-18-5-4-11-6-14-9h-7l10 7 6 4 3 3 7 3 2 4-4 1h10l-3 17-2 9-2 15-2 3-20 5-17 3-3 1-19 1v-9l10-27 5-10 2-3h-15l5 11-2 13-8 23-3 3-8 1h-12l-7 1-8-1h-9l-1-1-17-3-10-3-2-5-3 2-9-1-15-6-12-5-27-13-4-4 3-10 12-23 8-8 9-4 2-2v-3l-4-3v-2l-5-2-16-13-2-1v-2h-2v-2h-2v-2h-2l-7-8-8-10-9-12-6-7-8-5-3-1h-9l-9 5-7 8-4 9 6-9 7-8 6-4h5l4 4 1 3v19l-2 12-5 10-15 20-5-1-6-7-4-6v-7l-3 10 1 49 4 19 2 14v-7l-1-1v-14l5-1 21 4 14 9 7 6 8 7 8 11 6 14-4-18 6 2 16 8 11 8 11 11 6 9 2 8-1 1h-7l-13-4-20-4-12-4-10-4-3-2-9-3-17-7 12 6 21 9 1 4-3 18-2 4-2 7-5 6-5 2h-5l-2-1 6 10 7 8 10 5 16 4 39-1 11-2 18-4 9-3-12 2-5 2h-8l-1-7 5-18 5-15 5-1 22 1h44l1 2 4-3 13-2 18-3 3-1 16-2 9-2h6l-4 17-6 18-3 5h-23l-31-3-7 1 4 1-1 6-4 5-3 4h-2l-2 5-7 9-8 8-19 14-7 4h-2v2l8-4 4-1v-2l19-13 13-13 10-16 6-8 21 1 10 1h21l10-3 10-6 8-7 8-14 8-19 9-34 4-24 1-3 5 2 5 5 1 4v9l-6 42-5 21-5 15-9 16-9 11-8 7-9 4-9 2h-21l-15-3h-3l5 3 10 5-2 4-9 11-8 7-15 10-17 9-21 7-36 8-26 9-10 5-6 4-3 1v2h-2v2l-5 2-6-1-14-5-15-7 1-3 14-8 9-4-6 2-10 4-10 6h-6l-21-10-14-9-11-8-17-12-8-7-9-11-7-10-9-15-1-5 14-11 8-17 4-8 5-16 2-12v-12l-2-16-3-12-12-24-10-15-8-14-7-11-10-17-5-12-5-14-4-15-4-21-1-12v-11l2-13 1-12 2-10 3-13 5-8 10-25 13-23 9-12 10-13 11-12 7-8 10-8 13-10 9-7 10-5 10-6 24-8 13-3 9 1 12 5 7 1v-2l-5-2-16-8-21-9-24-9-27-9-8-6-1-7 5-6z" fill="#A93155"/>
<path transform="translate(424,4)" d="m0 0h19l33 2 36 5 20 4 30 8 37 13 34 16 15 8 22 13 17 12 16 12 9 7 10 9 11 9 15 15 8 10 10 10 9 11 13 17 12 18 12 20 12 23 10 21 11 29 9 29 7 32 5 33 2 20v47l-4 34-6 35-8 31-10 29-11 26-14 28-10 17-16 24-12 16-8 10-9 10-11 13-18 18-11 9-13 11-19 14-16 11-25 15-23 12-27 12-30 11-38 10-26 5-34 5-12 1h-42l-23-2-44-7-26-6-24-7-30-11-24-11-16-8-18-10-22-14-19-14-12-9-7-7-12-9-25-25-7-9-11-12-8-11-9-12-10-15-11-18-13-24-11-24-10-27-8-25-7-29-6-39-2-16v-61l7-47 8-34 7-23 11-29 13-28 12-22 11-18 11-16 12-16 9-11 12-12 8-10 18-18 10-8 11-10 14-10 16-12 28-17 27-14 19-9 30-11 19-6 32-8 38-6 20-2zm-4 3-6 1-16 1-35 4-29 6-26 7-23 8-25 11-16 7-19 9-16 11-15 9-32 24-10 9-37 37-7 8-7 7-9 12-19 28-7 12-9 16-7 12-8 17-7 15-6 16-5 15-4 16-8 36-2 16-1 3-3 37v20l1 28 2 21 1 8 2 14 5 23 7 26 5 17 5 12 8 20 8 17 10 19 7 14 2 1 6 12 11 13 3 5 8 9 4 7 8 10 5 4-3-9-8-21-3-12-2-13 18-36 4-5 12-23 8-11 4-6 7-9 7-8 7-7 13-5 10-1h4 9l9 3 12 3 17 6 11 5 13 5 8 4h5l2-4 2-16v-8l-5-20-5-13-8-14-11-18-7-11-5-8-11-19-4-8-5-14-4-10-5-24-2-12v-26l2-9v-4h-2l2-7 1-1 1-10 3-4v-4l-19-3-5-5-3-7v-9l5-16 7-11-1-4-12-6-24-8-16-5-6-5-2-7 1-13 5-20 8-17 10-14 12-14 9-8 7-3h5l14 10 10 7 12 9 11 8 10 7 4 1 2-6 2-10 7-8 7-4 11-1 7 3 5 5 5 8 3 9v9l2 1 14-9 17-8 16-6 9-3 1-3-6-3-5-2h-5v-2l-15-6-18-5-12-5-6-5-2-4v-9l3-5 10-5 3-1h10l20 5 21 7 35 15 19 10 8 4 6 1 2 4h17l23 2 27 4 21 5 16 5 12 4h6l7-7 11-7 17-12 14-8 10-6 16-7 14-6 10-3 12-1 8 2 6 4 3 5v9l-7 9-16 8-24 13-16 8-17 8-17 10v4l11 7 10 9 5 4 11 15 5 9 6-2 11-5 4-1v2l-5 2-13 7 1 5 5 10 4 1 12-5 8-3-4 4-11 5-5 2 1 5 6 12 2 1 15-4h2l1 2-8 1-10 3 2 10 4 17 3 17 1 16v30l8 5 13 10 6 7 7 10 3 12v19l-1 14 16 9 10 7 11 8 16 16 11 16 5 12 1 11-3 10-6 9-10 10-8 4-5 1h-16l-16-4-17-9-16-9-10-7-6-4-10-7h-2l-2 18-3 13-2 17-2 7-2 10-6 21-6 12-12 17-7 6-10 6-5 2-10 2-16 1-5 5-7 9-8 7-14 10-13 9-21 9-5 2 2 4 13 12 3 3h2l2 4h2v2l5 5 7 9 8 13 5 11 1 5v19l-10 18-13 20-12 17-6 9v2l13-2 25-4 36-10 22-8 29-12 16-8 11-6 26-16 16-11 16-12 13-11 12-11 5-4 17-17 7-8 8-9 7-9 12-16 7-10 7-11 13-21 8-15 13-29 11-29 10-36 5-27 4-27 1-11v-65l-4-33-5-26-7-27-10-32-11-26-10-19-8-16-20-30-11-16-11-13-9-11-35-35-8-7-11-9-14-10-10-8-24-15-22-12-12-6-22-10-33-12-21-6-27-7-24-4-28-3-14-1zm-107 103-8 3-4 5 1 7 8 6 41 14 29 12 16 8 5 3h2v2l-10-2-9-4-9-1-23 6-14 5-17 10-7 4-10 8-9 7-13 11-12 14-7 8-12 16-15 26-11 27-5 9-2 11-2 9-2 20-1 5v11l2 16 3 17 4 15 7 20 9 17 7 11 8 13 9 15 9 14 7 16 2 7 3 11 1 11v12l-3 15-6 18-8 16-4 6-12 9 3 9 7 11 8 11 8 10 8 7 18 13 10 7 11 7 24 12h6l6-4 18-8 1 1-10 4-12 7v4l21 9 9 3 7-1 2-1v-2h2v-2l4-2 10-6 19-7 15-5 33-7 21-7 17-9 15-10 8-7 11-13-1-3-13-6-1-1 15 2 3 1h21l12-3 9-5 8-8 9-13 7-14 5-15 4-18 4-26 2-16v-9l-3-7-6-4h-2l-3 17-6 26-6 21-8 18-7 12-9 8-14 7-5 1h-21l-25-2h-6l-8 11-9 14-13 13-18 12v2l-4 1-8 4v-2l5-2 11-7 14-11 9-9 6-9v-2l4-2 6-9v-4l-4-1 8-1 30 3h23l4-7 7-23 2-10-10 1-10 2-11 1-13 3-18 2-6 3-1 1-1-2h-44l-25-1-3 3-7 24-2 7 1 7h8l5-2 9-1-13 4-22 4-39 1-16-4-10-5-10-12-3-7 2 2 8-1 8-8 5-20 1-11-12-6-21-9h2l18 8 7 2 9 4 11 4 16 4 10 2 10 3h7l1-2-3-8-7-10-11-11-12-8-16-7-3-1 4 18-7-16-8-10-8-7-10-8-10-6-21-4-5 1v14l1 1v7l-4-25-2-8-1-49 3-10v7l7 10 5 4 4-1 16-22 3-7 2-12v-19l-3-5-2-2-7 1-10 9-7 12 3-8 4-6 7-6 6-3h9l8 4 6 5 13 17 7 9 7 8h2v2h2v2h2v2l14 11 7 5h2l2 4 2 1v4l-9 4-8 7-5 8-9 17-3 10 6 5 25 12 25 10 6 2 7-1 1-1 2 5 10 3 17 3 1 1h14l8 1 7-1h12l5-3 4-9 6-19 1-9-5-11h15l-6 10-8 22-3 8v9l19-1 13-3 14-3 13-3 2-3 2-15 3-12 2-14h-10l4-1-2-4-9-4-5-5-11-7v-1h6l19 12 10 6 10 7 19 13 9 7 16 11 17 12 18 11 14 8 11 4 5 1h18l12-6 8-9 5-10 1-4v-9l-4-11-6-10-8-10-9-10-16-12-25-14-13-8-21-11-9-4-10-3-20-9-28-10-28-11-11-2-1-3 11 2 4-2-7-56-2-17-7-35-3-16-1-16 2-13 5-10 5-5 9-4h9l9 4 8 5 7 6 8 11 1 2 4-1 8-4 1-2-5-9-8-11-8-9-13-10-9-5-6 2-17 11 3-3v-2l4-2 6-7 8-6 11-6 74-37 11-6 4-5 1-5-2-5-5-3-5-1h-9l-17 5-24 11-19 10-19 12-14 10-10 8-8 3v2l-4 2-5 4 10-10-1-3-26-9-30-5h-5v3l-9-5-5-2h-23v5l1 4-21-13-21-11-21-10-19-8-20-7-19-5z" fill="#0B0809"/>
<path transform="translate(424,4)" d="m0 0h19l33 2 36 5 20 4 30 8 37 13 34 16 15 8 22 13 17 12 16 12 9 7 10 9 11 9 15 15 8 10 10 10 9 11 13 17 12 18 12 20 12 23 10 21 11 29 9 29 7 32 5 33 2 20v47l-4 34-6 35-8 31-10 29-11 26-14 28-10 17-16 24-12 16-8 10-9 10-11 13-18 18-11 9-13 11-19 14-16 11-25 15-23 12-27 12-30 11-38 10-26 5-12 2h-7l4-9 11-16 12-18 7-11 3-6-9 9-16 8-9 3h-7l3 5 4 4v17h-2l-1-12-3-6-9-3-14 1v-2l-21-2-23-3-17-4-17-6-5-3 1 8-4-2v-6l-9-3-5-1h-7l-10 4-13 11-9 7-11 10-4 7-6-1-17-6-8-4-14-6 4-1 27 11 10 3 8-7 15-14 11-9 6-6 8-3-19-10-15-7-8-5-8-4-26-16v13l-2 1-1-10-3-6-5-6v-2l-6-2-6-3-1-2-6-1 1-5-4-2-14-12-10-10-8-7-15-15-6-7-3-5v-2l-3 1-3-7-4-4-5-8-3-4v-2h2l2 4 5 4 4 4 8 11 12 13 7 7 4 5 8 7 12 12 11 9 9 8 19 14 20 13 24 14 23 12 15 7 28 10 28 9 25 4 16 1h22l16-2 12-4 11-6 11-10 7-10 2-5v-9l-5-15-6-10-9-12-14-14-16-14h-7l-19 4-21 6-12 5-12 6-10 7-8 1-9-3-20-8v-3l9 3 9 4 9 3 9-1v-2h2v-2l5-4 16-8 27-9 33-7 21-7 17-9 15-10 8-7 10-12v-2l-13-6-2-3 16 2 3 1h21l12-3 9-5 7-7 9-13 7-14 5-15 4-18 4-26 2-16v-9l-2-6-8-5-3 22-6 24-5 18-8 18-7 12-10 9-14 7-5 1h-21l-25-2h-6l-10 15-7 10-13 13-16 11h-2v2l-9 5h-3v-2l13-8 16-12 9-9 7-11 4-4 5-7 1-4-5-1v-1l9-1 30 3h23l4-10 6-19 2-9-9 1-10 2-11 1-13 3-18 2-6 3-2 3v-5l-18 1h-26l-27-1-3 13-5 15-1 9v3l12-2 7-2 10-1-3 2-17 5-22 4-39 1-16-4-10-5-8-9-6-10 1-2 2 2 8-1 7-7 5-20 1-11-25-11-10-5 3-1 20 9 7 2 9 4 11 4 16 4 10 2 10 3h7l-3-9-7-10-10-10-12-8-16-7-3-2 5 16-1 4-8-18-8-10-7-6-10-8-10-6-21-4h-5l1 14 1 1v11l-2-4-4-25-2-8-1-49 4-15h1v12l7 10 4 3 4-1 7-10 8-11 3-7 2-12v-19l-3-5-1-1-7 1-9 8-8 13-1-2 4-9 7-8 8-5 2-1h9l8 4 7 6 13 17 7 9 6 6v2h2v2h2v2h2v2l4 2 15 12 4 2 5 5-1 5-9 4-8 7-12 22-4 10 2 4 19 10 20 8 12 5 8 3 7-1 2-1 1 5 10 3 17 3 1 1h14l8 1 7-1h12l5-3 9-27 1-9-4-8v-3l16-1-7 14-10 27-1 9 19-2 13-3 14-3 13-3 2-8 2-12 2-9 2-12 1-2-3 1h-8l1-2h4l-3-4-9-4-4-4-11-7-2-3h8l19 12 10 6 10 7 19 13 9 7 16 11 17 12 18 11 14 8 11 4 5 1h18l5-1-1 2-5 2h-18v2l-10-2-16-8-20-11-10-7-18-12-1 18-3 13-2 17-2 7-2 10-6 21-6 12-12 17-8 7-10 6-5 2-10 2-18 1-2 4-8 10-8 7-14 10-13 9-21 9-5 1 5 6 8 7 7 6 4 4v2l4 2 9 12 8 13 5 11 1 5v19l-10 18-13 20-12 17-7 11 20-4 18-3 36-10 22-8 29-12 16-8 11-6 26-16 16-11 16-12 13-11 12-11 5-5 13-12 12-13 6-7 7-9 12-16 7-10 7-11 13-21 8-15 13-29 11-29 10-36 5-27 4-27 1-11v-65l-4-33-5-26-7-27-10-32-11-26-10-19-8-16-20-30-11-16-11-13-9-11-34-34-8-7-11-9-14-10-10-8-24-15-22-12-12-6-22-10-33-12-21-6-27-7-24-4-28-3-14-1h-33l-6 1-16 1-35 4-29 6-26 7-23 8-25 11-16 7-19 9-16 11-15 9-12 9-8 4-7 4-7 6h-3l2-4 16-12 14-10 19-12 21-12 26-13 25-10 33-11 32-8 38-6 20-2z" fill="#070506"/>
<path transform="translate(186,556)" d="m0 0 18 1 17 4 24 9 21 9 6 3 2 4-5 14-11 17-5 5-6 4 3 10 8 13 2 5 4 2 11 15 3 2v2l5 2 6 5v2h2l3 3 21 14 2 1v2l5 2 20 10 20 8 18 7 9 3 8-1 15-10 15-6 13-5 21-5 10-2h7l10 9 15 14 8 8 9 13 6 12 3 10v9l-4 8-8 10-10 9-15 7-12 3-11 1h-22l-24-2-20-4-36-12-24-9-28-14-27-16-24-16-21-16-12-11-8-7-12-12-6-5-7-8-9-9-11-14-11-17-8-15-5-15-1-4-1-21 8-16 7-8 8-6 7-4z" fill="#D3CEC8"/>
<path transform="translate(313,110)" d="m0 0 15 1 23 6 26 10 24 11 16 8 18 10 14 9-1-4v-5h23l9 4 5 3v-3l12 1 23 4 26 9v4l-10 10 7-6 3-1v-2l9-4 10-8 24-16 11-7 16-8 24-11 17-5h9l9 3 2 2 1 5-3 7-5 4-84 42-9 5-8 6-7 8-3 1v2l-3 3 18-12 5-1 12 7 14 12 8 10 7 11 2 5-6 4-4 2h-3l-6-9-7-8-9-6-8-4-3-1h-9l-9 4-5 5-5 10-2 15 2 20 10 50 3 28 5 40-5 2-10-2 1 3 14 3 13 5 4 3h-9l-5 1-10-3-1-2h-4l-2-3-4-1-4-4v-4h-2l-2-7-2-8v-3l-2-11 1-4-2-2v-6l-1-1v-7l2-5h-2l-1-11 2-4-3 1v-5l-2-1v-10l-2-2-1-5 1-3h-2l-4-18-3-1-1-5h2l-1-6v-3h-2l2-6-1-1-2-13-4 2-1 3-2-3-6 2v-3l-9-2 2-1v-2l-4 1-4-1v3l-4 1-1-2 3-3-6-2-2 4h-3v3l-1 5 4 2v3l4 1h-3l3 9-1 2 4 2 3 6v4h2l3 5 2 4 2 2-1 6-3-4-11-21-9-16-9-13-7-8-1-3-4-2-10-9-10-6-13-6-7-2 4-1v-8l-4-1-2 1-2-2h3v-2l-5 2-5 1v-2l-5 1-1-2 1-2 7-1v-2l-5 1v-3h-5l-9-6-1-2-8-4-5 1v-2l-5 2-13-1 4-2 19-5 9 1 12 5 7 1v-2l-5-2-16-8-21-9-24-9-27-9-8-6-1-7 5-6z" fill="#9A3251"/>
<path transform="translate(396,205)" d="m0 0h17l12 4 9 5 10 8 6 4 7 8 8 8 11 17 10 18 6 12 4 9 3 7 4 17 2 5 4 21 2 17 1 27-7-1-20-7-21-6-2-3-3-19-1-2-2-17-4-4-14-7 1-5 12-12-2-10-5-13-11-21-7-5-7-1-3 1-2 8v7l5 28 2 9 1 10 3 12 2 9 2 16 1 6-1 7-2 1-39 2-1-1-5-27-1-8v-11h-2l-1-5-1-14-2-7-4-23-6-24v-20l4-10 9-10 3-1 2-4 9-4z" fill="#D9B86B"/>
<path transform="translate(272,756)" d="m0 0 5 2 23 14 11 6 7 4 19 9 12 6-2 3-8 3-7 7-11 9-15 14h-2l-2 4-4 1-28-11-9-3 31 13 12 4 2-5 6-7 8-7 11-9 12-9 8-3h7l10 3 4 2 2 7h1v-7l5 2 21 7 18 4 18 2 22 2v2l13-1 9 3 4 7v12h2l-1-17-6-6v-3l10-2 11-4 12-7 8-8 1 2-6 10-16 24-12 17-3 7-1 2-27 3h-42l-23-2-44-7-26-6-24-7-30-11-16-7 3-3 1-7 11-29 3-7z" fill="#302225"/>
<path transform="translate(424,4)" d="m0 0h19l33 2 36 5 20 4 30 8 37 13 34 16 15 8 22 13 17 12 16 12 9 7 10 9 11 9 15 15 8 10 10 10 9 11 13 17 12 18 12 20 12 23 10 21 11 29 9 29 7 32 5 33 2 20v47l-4 34-6 35-8 31-10 29-11 26-14 28-10 17-16 24-12 16-8 10-9 10-11 13-18 18-11 9-13 11-19 14-16 11-25 15-23 12-27 12-30 11-38 10-26 5-12 2h-7l4-9 11-16 12-18 7-11 3-6-9 9-16 8-9 3h-7l3 5 4 4v17h-2l-1-12-3-6-9-3-14 1v-2l-21-2-23-3-17-4-17-6-5-3 1 8-4-2v-6l-9-3-5-1h-7l-10 4-13 11-9 7-11 10-4 7-6-1-17-6-8-4-14-6 4-1 27 11 10 3 8-7 15-14 11-9 6-6 8-3-19-10-15-7-8-5-8-4-26-16v13l-2 1-1-10-3-6-5-6v-2l-6-2-6-3-1-2-6-1 1-5-4-2-14-12-10-10-8-7-15-15-6-7-3-5v-2l-3 1-3-7-4-4-5-8-3-4v-2h2l2 4 5 4 4 4 8 11 12 13 7 7 4 5 8 7 12 12 11 9 9 8 19 14 20 13 24 14 23 12 15 7 28 10 28 9 25 4 16 1h22l16-2 12-4 11-6 11-10 7-10 2-5v-9l-5-15-6-10-9-12-14-14-16-14h-7l-19 4-21 6-12 5-12 6-10 7-8 1-9-3-20-8v-3l9 3 9 4 9 3 9-1v-2h2v-2l5-4 16-8 27-9 33-7 21-7 17-9 15-10 8-7 10-12v-2l-13-6-2-3 16 2 3 1h21l12-3 9-5 7-7 9-13 7-14 5-15 4-18 4-26 2-16v-9l-2-6-8-5-1 10h-3v-15l-4-2-15-9-5-2-1 13-4 20h-3l1-11 3-12 2-12 1-2-3 1h-8l1-2h4l-3-4-9-4-4-4-11-7-2-3h8l19 12 10 6 10 7 19 13 9 7 16 11 17 12 18 11 14 8 11 4 5 1h18l5-1-1 2-5 2h-18v2l-10-2-16-8-20-11-10-7-18-12-1 18-3 13-2 17-2 7-2 10-6 21-6 12-12 17-8 7-10 6-5 2-10 2-18 1-2 4-8 10-8 7-14 10-13 9-21 9-5 1 5 6 8 7 7 6 4 4v2l4 2 9 12 8 13 5 11 1 5v19l-10 18-13 20-12 17-7 11 20-4 18-3 36-10 22-8 29-12 16-8 11-6 26-16 16-11 16-12 13-11 12-11 5-5 13-12 12-13 6-7 7-9 12-16 7-10 7-11 13-21 8-15 13-29 11-29 10-36 5-27 4-27 1-11v-65l-4-33-5-26-7-27-10-32-11-26-10-19-8-16-20-30-11-16-11-13-9-11-34-34-8-7-11-9-14-10-10-8-24-15-22-12-12-6-22-10-33-12-21-6-27-7-24-4-28-3-14-1h-33l-6 1-16 1-35 4-29 6-26 7-23 8-25 11-16 7-19 9-16 11-15 9-12 9-8 4-7 4-7 6h-3l2-4 16-12 14-10 19-12 21-12 26-13 25-10 33-11 32-8 38-6 20-2z" fill="#0D0A0C"/>
<path transform="translate(624,508)" d="m0 0 5 2 5 5 1 4v9l-6 42-5 21-5 15-9 16-9 11-8 7-9 4-9 2h-21l-15-3h-3l5 3 10 5-2 4-9 11-8 7-15 10-17 9-21 7-36 8-26 9-10 5-6 4-3 1v2h-2v2l-5 2-6-1-14-5-15-7 1-3 14-8 13-5 8-3 9-3 10-4 6-2 13-5h3v-2l26-13 4-3h3v-2l19-13 13-13 10-16 6-8 21 1 10 1h21l10-3 10-6 8-7 8-14 8-19 9-34 4-24z" fill="#D1CCC5"/>
<path transform="translate(566,221)" d="m0 0h11l12 6 10 9 10 13 6 10 7 17 6 21 5 26 4 28 3 28v5l-1 1-32 1h-14l-1-2-5-40-11-6-6-4 6-8 7-6 3-2-1-6-4-10-4-16-4-9-6-9-6-5-12-3-1-2v-12l3-10 6-9z" fill="#D9B86C"/>
<path transform="translate(313,110)" d="m0 0 15 1 23 6 26 10 24 11 16 8 18 10 22 14 12 9 11 9 17 14 10 9 7 8 4 8 2 12-8-5-16-11-18-13-18-11-28-16-6-4-16-7-30-15-19-8-24-9-27-9-8-6-1-7 5-6z" fill="#567FC3"/>
<path transform="translate(396,201)" d="m0 0h16l12 4 15 8 10 8 7 6 7 8 11 16 12 22 10 19 6 15 4 13 4 19 4 35 2 23h2v2l-5-2-21-9-21-6-20-3-13-1-8-2-29 2-12 1-5-1-1-13-2-12-2-15-2-6-4-28-1-17-15 2h-11l-15-3-9-3v-1l9 1h29l9-3v-5h-2v-4h-21l-17-5-4-2 3-1 16 3 13 1 7-2-2-13-27-9-7-4 3-1 21 5h8l1-9 4-10 8-11 11-8 7-3zm0 4-11 4-4 3v2l-4 2-8 9-4 10v20l7 28 4 25 1 1 1 14 1 5h2v11l4 24 2 11 5 1 35-2 2-1 1-9-2-8-2-16-3-15-1-2-2-14-4-20-2-13v-7l2-8 7-1 8 4 6 9 9 18 5 16-1 4-12 12 1 5 16 8 2 8 1 11 2 8 2 13 4 4 23 6 19 7h4l-1-27-3-23-4-19-3-9-2-9-4-10-6-12-10-19-12-19-9-10-12-12-11-8-8-5-10-4-4-1z" fill="#080507"/>
<path transform="translate(639,282)" d="m0 0 4 1 4 11 5 26 2 16 1 15v24l9 3 12 8 10 12 5 10 1 7v14l-2 9-2 3-6-2-32-15-31-12-31-11-14-5 2-4 24-4 12-1h26l5 1-4-38-4-27-2-14-5-22 1-3z" fill="#D0CBC4"/>
<path transform="translate(424,4)" d="m0 0h19l33 2 36 5 20 4 30 8 37 13 34 16 15 8 22 13 17 12 16 12 9 7 10 9 11 9 15 15 8 10 10 10 9 11 13 17 12 18 12 20 12 23 10 21 11 29 9 29 7 32 5 33 2 20v47l-4 34-6 35-8 31-10 29-11 26-14 28-10 17-16 24-12 16-8 10-9 10-11 13-18 18-11 9-13 11-19 14-16 11-25 15-23 12-27 12-30 11-38 10-26 5h-4v-2l-2-1 35-6 36-10 22-8 29-12 16-8 11-6 26-16 16-11 16-12 13-11 12-11 5-5 13-12 12-13 6-7 7-9 12-16 7-10 7-11 13-21 8-15 13-29 11-29 10-36 5-27 4-27 1-11v-65l-4-33-5-26-7-27-10-32-11-26-10-19-8-16-20-30-11-16-11-13-9-11-34-34-8-7-11-9-14-10-10-8-24-15-22-12-12-6-22-10-33-12-21-6-27-7-24-4-28-3-14-1h-33l-6 1-16 1-35 4-29 6-26 7-23 8-25 11-16 7-19 9-16 11-15 9-12 9-8 4-7 4-7 6h-3l2-4 16-12 14-10 19-12 21-12 26-13 25-10 33-11 32-8 38-6 20-2z" fill="#161414"/>
<path transform="translate(182,677)" d="m0 0 4 2 16 17 11 11 8 7 8 8 11 9 3 2v2l-15 5-14 10-12 11-15 14-5 2-14-9-16-12v-10l6-15 3-10 9-17 2-2 5-13z" fill="#628DD4"/>
<path transform="translate(657,120)" d="m0 0h9l9 3 2 2 1 5-3 7-5 4-84 42-9 5-9 7-18 13-15 14-11 11-7-15v-5h2l2-5 12-11 9-10 5-5 8-7 10-8 24-16 11-7 16-8 24-11z" fill="#9A3151"/>
<path transform="translate(160,643)" d="m0 0 3 1 1 4 8 11 5 10v12l-4 11-9 19-4 8-6 15-4 15-2 3-4-2-7-8-9-12-8-15-11-27-3-10v-3l9-2 10-7 13-10 15-10z" fill="#A93154"/>
<path transform="translate(577,195)" d="m0 0 6 2 10 7 11 9 9 11 7 11 2 5-6 4-4 2h-3l-6-9-7-8-9-6-8-4-3-1h-9l-9 4-5 5-5 10-2 15 2 20 10 50 3 28 5 40-5 2-12-3-2-9-3-39-4-28-5-19-3-18-1-1-2-11-1-1-1-8-1-1v-17l3-5 10-10 11-9 12-9 12-8z" fill="#CFCAC3"/>
<path transform="translate(238,740)" d="m0 0h11l12 6 7 9 1 4v14l-4 15-9 22-4 8-3 1-28-14-19-12-13-9v-2l-3-1 1-4 10-9 7-7 11-9 11-8z" fill="#A93154"/>
<path transform="translate(174,94)" d="m0 0 2 1-20 16-40 40-7 8-7 7-9 12-19 28-7 12-9 16-7 12-8 17-7 15-6 16-5 15-4 16-8 36-2 16-1 3-3 37v20l1 28 2 21 1 8 2 14 5 23 7 26 5 17 5 12 8 20 8 17 10 19 6 11v3l3 1 6 12 11 13 3 5 8 9 4 7 7 9 4 4 2-1 7 12 4 6 1 4-7-6-7-7-7-9-11-12-8-11-9-12-10-15-11-18-13-24-11-24-10-27-8-25-7-29-6-39-2-16v-61l7-47 8-34 7-23 11-29 13-28 12-22 11-18 11-16 12-16 9-11 12-12 8-10 18-18 10-8 6-6 7-1 9-8z" fill="#272727"/>
<path transform="translate(448,156)" d="m0 0h23l9 4 5 3v-3l12 1 23 4 26 9v4l-10 10 7-6 3-1v-2l5-1-4 5-5 5-14 15-6 5-3 5h-2l3 9 4 10 20-20 10-8 11-8h3l-7 7h-2v2l-9 9-14 12-8 8-1 3v17l1 1 1 8 2 4 1 8 2 7 5 25 2 6 3 22v12l-2-2-3-25-5-20-3-18-6-21-1-9-2-8h-2l-4-4-15-11-20-13-15-10-17-10-11-6-15-8-25-11v-1l8-1 22 10 13 8 26 15 18 12 18 13 10 7 6 4-3-14-6-9-10-10-14-11-14-12-18-13-4-4-2-4z" fill="#230C14"/>
<path transform="translate(409,458)" d="m0 0 7 1 8 5 15 8 16 7 4 4 1 5v12l-4 6-9 22-3 4-9-1-15-6-12-5-27-13-4-4 3-10 12-23 8-8z" fill="#C8BAAB"/>
<path transform="translate(355,416)" d="m0 0h11l5 4 7 8 6 8 3 11 1 12v16l-9 17-4 9-5-1-19-12-12-10-13-10-10-10 1-5 7-11 9-12 4-5 9-6z" fill="#C8BAAC"/>
<path transform="translate(305,500)" d="m0 0 13 2 13 3 12 8 7 6 8 7 8 11 6 14-4-18 6 2 16 8 11 8 11 11 6 9 2 8-1 1h-7l-13-4-20-4-12-4-10-4-3-2-9-3-16-7-6-3-7-3-6-4-3-7-2-16-2-4v-14z" fill="#DB929D"/>
<path transform="translate(272,756)" d="m0 0 5 2 23 14 11 6 7 4 19 9 12 6-2 3-8 3-7 7-11 9-15 14h-2l-2 4-4 1-28-11-11-5-4-1 1-7 11-29 3-7z" fill="#628DD4"/>
<path transform="translate(477,486)" d="m0 0 16 1 18 2 15 2 5 4 3 7-2 13-8 23-3 3-8 1h-12l-7 1-8-1h-9l-1-1-17-3-10-3-1-5 6-17 9-16 4-5 4-4z" fill="#C7B9AB"/>
<path transform="translate(365,569)" d="m0 0 44 11 27 6v6l-9 27-5 8-4 2-3 3-12 1h-25l-8-1-6-8-4-8-1-16 1-7v-8l4-15z" fill="#C8B9AB"/>
<path transform="translate(547,259)" d="m0 0 12 2 6 4 6 7 5 9 5 15 3 12 3 6-1 5-9 7-6 8 12 7 5 3 4 31 1 11h31v1l-31 3-17 3-2 3h2v2h-8l-10-3-7-2v-3l11 1 3-1-7-56-2-17-9-45z" fill="#080607"/>
<path transform="translate(376,807)" d="m0 0 9 3 20 6 14 3 18 2 22 2-4 5-12 9-5 5h-2v2l-5 5-8 9-1 2h-7l-4-1h-10l-28-3 1-9 2-10z" fill="#628DD4"/>
<path transform="translate(592,486)" d="m0 0h3l-3 17-2 9-2 15-2 3-20 5-17 3-3 1-19 1v-9l10-27 5-10 2-2 43-5z" fill="#C7B9AB"/>
<path transform="translate(351,801)" d="m0 0h7l10 3 4 2 2 9 1 1v17l-2 12-5 10-21-3-33-8-10-4 4-7 14-13 9-7 12-9z" fill="#A93154"/>
<path transform="translate(440,587)" d="m0 0 25 1h44l-1 8-5 13-7 3-5 2-10 1v2l-10 2-17 5-12 2-5 2h-8l-1-7 5-18 5-15z" fill="#C8B9AB"/>
<path transform="translate(825,254)" d="m0 0 4 2 11 26 12 36 7 29 6 36 3 27v47l-4 34-6 35-8 31-10 29-11 26-14 28-10 17-16 24-12 16-8 10-9 10-11 13-18 18-11 9-13 11-19 14-16 11-25 15-23 12-27 12-30 11-38 10-26 5h-4v-2l-2-1 35-6 36-10 22-8 29-12 16-8 11-6 26-16 16-11 16-12 13-11 12-11 5-5 13-12 12-13 6-7 7-9 12-16 7-10 7-11 13-21 8-15 13-29 11-29 10-36 5-27 4-27 1-11v-65l-4-33-5-26-7-27-10-32-11-26z" fill="#1F1D1C"/>
<path transform="translate(573,577)" d="m0 0h6l-4 17-6 18-3 5h-23l-31-3h-8l1-6 5-18 4-3 13-2 18-3 3-1 16-2z" fill="#C8B9AB"/>
<path transform="translate(564,411)" d="m0 0 11 1 7 2 18 6 22 9 25 12 35 17 25 16 14 12 5 6 1 6-3 3-5-1-17-11-16-10-10-7-13-8-14-8-19-10-17-9-27-12-22-9-2-3z" fill="#D5C2B5"/>
<path transform="translate(170,164)" d="m0 0 10 3 24 11 11 6 9 6 1 4-8 10-7 10-4-1-25-10-18-7-11-4 1-5 8-12 6-8z" fill="#ACA89E"/>
<path transform="translate(149,583)" d="m0 0 1 2-2 7v12l3 14 8 20-13 10-16 12-10 8-6 3h-6l-4-3 1-8 12-23 6-11 8-14 6-11 7-10z" fill="#638DD2"/>
<path transform="translate(329,240)" d="m0 0 33 11 1 1 2 13-3 2-9 1-20-3-7-1 15 5 5 1 21 1v4h2l1 5-5 3-5 1h-29-3l11 3 7 1h11l6-1h9l4 31 3 17 3 15 1 11 2 11v5l5 1h11l-4 2-4 1-9-1-4-3v-4h-2v-17h-2l-1-5-1-7-2-4-2-2v-4l2-3-4-5v-6l1-1-1-10v-2l-2-9-5-5-14 1-4-2-9-3-10-3-7-4v-2l9-1 4 1-1-3 1-1-2-1v-3l-7-2v-3l-2-7 10 2h7l5-4h2l-3-6-3-2v-2l-8-7z" fill="#9A3150"/>
<path transform="translate(396,201)" d="m0 0h16l12 4 15 8 10 8 7 6 7 8 11 16 12 22 10 19 6 15 4 13 4 19 4 35 2 23h2v2l-5-2-21-9-21-6-12-2 4-1 1-2 21 6 20 7 7 2-1-5-1-22-3-23-4-19-3-9-2-9-4-10-6-12-10-19-12-19-9-10-7-7v-2l-4-2-11-8-8-5-10-4-4-1h-17l-11 4-8 7-7 8-4 10v20l7 28 4 25 1 1 1 19h2l3 24 3 17-1 3h-2l-3-16-1-11-2-10-3-17-3-24v-7l-15 2h-11l-15-3-9-3v-1l9 1h29l9-3v-5h-2v-4h-21l-17-5-4-2 3-1 16 3 13 1 7-2-2-13-27-9-7-4 3-1 21 5h8l1-9 4-10 8-11 11-8 7-3z" fill="#150C0F"/>
<path transform="translate(559,653)" d="m0 0 6 1-2 7-2 4h-2l-2 4-6 7h-3v2l-9 7h-3v2l-10 5-8 6-10 5h-10l-5 2-1 3 4 2 5 4 5 6 3 2v2l4 2 3 4v2l4 2 8 10 11 18 5 13 1 8v9l-7 14-10 14-7 10-8 13-3 6-3 5-13 2 2-5 13-19 9-13 11-18 6-11v-19l-3-9-8-16-9-12-4-5-2-1v-2l-4-2v-2l-4-2-9-9-7-6v-2l24-10 9-6 16-11 3-1 5-1 5-6 6-5 1-2-1-1 3-3 3-1z" fill="#AFAA9F"/>
<path transform="translate(244,184)" d="m0 0h5l4 5-1 8-5 15-12 18-6 7-8 7-7 7-8 4-3-3-1-6 5-16 5-13 7-12 6-8 9-8z" fill="#567FC3"/>
<path transform="translate(328,382)" d="m0 0h9l8 4 7 6 13 17 7 9 6 6v2h2v2h2v2h2v2l4 2 15 12 4 2 5 5-1 5-9 4-8 7-12 22-3 8h-3l2-7 9-17v-20l-3-16-3-6-10-11-5-5h-11l-11 4-9 7-14 20-3 3v-4l8-11 5-7 3-7 2-12v-19l-3-5-1-1-7 1-9 8-8 13-1-2 4-9 7-8 8-5z" fill="#0A0608"/>
<path transform="translate(313,549)" d="m0 0 9 1 9 4 28 12 3 2-2 15-2 8-3 9-5 6-5 2h-5l-13-23-8-15v-5h-2l-4-12z" fill="#C8B9AB"/>
<path transform="translate(327,384)" d="m0 0h5l4 4 1 3v19l-2 12-5 10-15 20-5-1-6-7-3-5 1-14 3-11 4-10 7-11 9-8z" fill="#C6B7A9"/>
<path transform="translate(465,824)" d="m0 0h7l9 3 3 5v15l-3 10-2 2-9 1h-45l3-6h2l2-4 14-14 16-11z" fill="#A93154"/>
<path transform="translate(641,520)" d="m0 0 5 2 5 4-1 5-1 14-1 3-1 11h-2l-1 9-2 14-2 4-1 9-3 8-4 13-3 3-5 8-8 11-7 7-10 5-7 3-2 1-14 1v-4l1-1 10-2 9-5 9-7 9-12 7-11 6-16 4-15 2-13 1-1 3-23 2-7z" fill="#AAA59A"/>
<path transform="translate(485,160)" d="m0 0 12 1 23 4 26 9v4l-15 15-7 9h-2l-2 4-3 3h-2l-3-4-4-10-9-14-8-12-6-7z" fill="#D2CDC6"/>
<path transform="translate(412,454)" d="m0 0 6 4 22 12 16 7 27 7 32 4 13 1h13l7-1-1-4 1-9v-21l4 1 14 7-1 2h-4l10 7 6 4 3 3 7 3 2 4-4 1 2 2-37 4h-5l-1-1h-15l-1 2-2-1-33-4-16-1-8 3-10 15-6 13-4 12-4 1 2-5 10-24 2-2v-12l-2-6-5-3-16-8-15-8-10-5z" fill="#0B0809"/>
<path transform="translate(523,693)" d="m0 0h2v9l-1 2h-2v2l3-1v2l-5-1-4-1-4 2-1 4h5 3l6 1 6 4 6 7v4l2 1 1 8-2 2 1 3 4 2v4l-3 1v2l3-1v7h3l1 3-2 3 1 3-2 1 2 5h-4l-4-9-14-22-6-7-5-5-5-6-7-6-5-5-4-3 1-4 5-2h10l11-6z" fill="#958C73"/>
<path transform="translate(826,612)" d="m0 0 1 4-12 24-10 17-16 24-12 16-8 10-9 10-11 13-18 18-11 9-13 11-19 14-16 11-25 15-23 12-27 12-30 11-38 10-26 5h-4v-2l-2-1 35-6 36-10 22-8 29-12 16-8 11-6 26-16 16-11 16-12 13-11 12-11 5-5 13-12 12-13 6-7 7-9 12-16 7-10 7-11 13-21 8-15 6-12z" fill="#1A1817"/>
<path transform="translate(326,551)" d="m0 0 5 1 18 8 7 2 9 4 11 4 16 4 10 2 13 4-1 2-30-7-19-5-4 15v11l-1 4 1 16 7 13 2 2 8 1h25l14-1 1-3 5-3 4-8 7-24 2-6 2 1-3 13-5 15-1 9v3l12-2 7-2 10-1-3 2-17 5-22 4-39 1-16-4-10-5-8-9-6-10 1-2 2 2 8-1 7-7 5-20 1-11-25-11-10-5z" fill="#0D080A"/>
<path transform="translate(666,455)" d="m0 0 9 2v2l7-1 25 16 14 12 5 6 1 6-3 3-5-1-17-11-16-10-10-7-13-8-3-3 3-2 1-3z" fill="#D6BFB3"/>
<path transform="translate(681,120)" d="m0 0 5 2 3 6 3 3-1 8-2 4-8 7-4 2-7-1v2h-2l-1 3-9 3h-4l-1 4-7 3-9 6-6 3-10 4-7 4-11 7-5 3-3 1 1 4 1 2-5-2-7-5 1-3 23-13 21-10 19-10 16-8 11-6 7-9v-9z" fill="#A09886"/>
<path transform="translate(611,43)" d="m0 0 5 1 25 12 26 15 20 14 16 12 9 7 10 9 11 9 15 15 8 10 10 10 9 11 13 17 12 18 12 20 12 23 4 9-4-2-9-17-7-14-20-30-11-16-11-13-9-11-34-34-8-7-11-9-14-10-10-8-24-15-22-12-12-6-11-5z" fill="#171615"/>
<path transform="translate(298,494)" d="m0 0 2 4 4 25 2-4 2 16 4 8 7 4 9 3-4 2-5-2-6-1 4 13v3h2l2 7 9 17 9 15-1 3 6 10 7 8 11 6v2h-3l-1 2v-2l-4-1-8-5v-2l-4-2-4-4v-2h-2l-1-5h-2l-1-4h2v-2h-2l-4-10-9-17-8-18-2-5-4-1 1-2h-3v2l-6-1v-2l3-3 1-5 3-1v2h2l-3-7-2-4-2 1-1-12h-2l1-5v-2l1-3-3-8 1-8h2z" fill="#963450"/>
<path transform="translate(678,274)" d="m0 0h2l-2 4-10 2-3 1v2l-3 3 1 2h-2l2 7 1 2-2 1 3 12 2 12v15l-1 2 4 1 1 27-3 7-6-2-2-2v-30l-1-16-3-17-5-21-1-6 14-4z" fill="#B0AA9F"/>
<path transform="translate(458,157)" d="m0 0h14l8 3 5 5 8 11 13 20 6 12-6-2-2-4-5-2-6-5-5-5-14-12-17-12v-2l-5-2 3-4z" fill="#9A3251"/>
<path transform="translate(241,735)" d="m0 0 2 1 1 1 5 2v1l-15 2-10 4-14 11-15 14-8 7v3l2 1v2l4 2 20 13 16 9 20 10 3-1 3-7 11-28 2-9 1-13h1l1 18-4 10-11 29v5l-6 1-19-9-24-14-19-12-19-14-12-9-2-3 3-2 10 7 14 9 6-3 17-16 10-9 13-9z" fill="#170D10"/>
<path transform="translate(596,490)" d="m0 0 5 1 15 9 5 5v10l-2 6-15 5-9 2h-5l1-12 4-19z" fill="#C4B6A7"/>
<path transform="translate(448,156)" d="m0 0h23v1l-13 1-5 3 5 5 17 12 10 9 8 6v2l4 2 7 5 4 4h2l-6-12-19-28v-3l4 2 7 10 10 15 6 11 2 5 1 3 4-1 3-6h2l2-4 8-9 5-3 5-5h2v-2l5-1-4 5-5 5-14 15-6 5-3 5h-2l3 9 3 7-1 3-2-5h-3l-6-11-11-11-14-11-14-12-18-13-4-4-2-4z" fill="#241018"/>
<path transform="translate(735,471)" d="m0 0 5 2 2 1v3h2l7 8 7 7 8 12 8 14 1 5v8l-4 13-9 12-5 4-9 3-7 2-4 2h-5l-7-2v-2l-2-1 16-3 9-5 11-11 6-12 1-11-4-13-7-12-9-11-11-11z" fill="#C4B7AA"/>
<path transform="translate(424,4)" d="m0 0h19l33 2 36 5 20 4 30 8 37 13 13 6-1 3-9-3-24-9-27-9-16-4-22-5-27-4-33-3h-33l-6 1-16 1-19 2h-8v-2l-2-1 21-3z" fill="#1D1B1A"/>
<path transform="translate(327,384)" d="m0 0h5l4 4v12l-2 2-4-1-4 1-1 4h-3l-1 2 2 1-2 2-2 5-6 11-4 5-2 7h-2v2l-4-2 1-14 3-11 4-10 7-11 9-8z" fill="#D2CCC4"/>
<path transform="translate(603,570)" d="m0 0h4l-1 5-5 12-10 15-9 8-8 4-3-1 2-8 5-16 2-11 4-3z" fill="#CCC6BE"/>
<path transform="translate(373,420)" d="m0 0 5 4v2h2v2h2v2h2v2l4 2 15 12 4 2 5 5-1 5-9 4-8 7-12 22-3 8h-3l2-7 9-17v-20l-3-16-3-6-8-9z" fill="#0B0709"/>
<path transform="translate(551,460)" d="m0 0 5 1 21 14 3 3 7 3 2 4-9 2-21 2-10-1v-10z" fill="#CDC7BF"/>
<path transform="translate(443,217)" d="m0 0 5 3 8 7 7 8 11 16 12 22 10 19 6 15 4 13 4 19 4 35 2 23h2v2l-5-2-21-9-21-6-12-2 4-1 1-2 21 6 20 7 7 2-1-5-1-22-3-23-4-19-3-9-2-9-4-10-6-12-10-19-12-19-9-10-7-7v-2l-4-2-5-5z" fill="#501A28"/>
<path transform="translate(641,520)" d="m0 0 5 2 5 4-1 5-1 14-1 3-1 11h-2l-1 9-2 14-3 5-4-1 1-3-4 2v-10l2-7 3-23 2-7z" fill="#ACA79D"/>
<path transform="translate(605,569)" d="m0 0 5 1-3 9-8 17-7 9-10 8-11 5-5 1h-21l-25-2h-6l-10 15-7 10-13 13-16 11h-2v2l-9 5h-3v-2l13-8 16-12 9-9 7-11 4-4 5-7 1-4-5-1v-1l9-1 30 3h23l4-10 6-19 1-7 3-1-1 10-7 22v2l7-2 10-8 7-10 6-10 5-13z" fill="#131112"/>
<path transform="translate(521,799)" d="m0 0 1 2-6 10-16 24-12 17-2 3-1-2 2-4 1-10-2-10-6-6v-3l10-2 11-4 12-7z" fill="#567FC4"/>
<path transform="translate(559,653)" d="m0 0 6 1-2 7-2 4h-2l-2 4-6 7h-3v2l-9 7h-3v2l-10 5-8 6-10 5-7-1v-3l-4-1 16-7 12-9 10-7 7-1 5-6 6-5 1-2-1-1 3-3 3-1z" fill="#ADA89F"/>
<path transform="translate(396,201)" d="m0 0h16l12 4 15 8 4 3-1 3 2 2-4-1-9-7-11-5-7-2h-17l-11 4-8 7-7 8-4 10-2 15-11-1-18-6-7-4 3-1 21 5h8l1-9 4-10 8-11 11-8 7-3z" fill="#13090D"/>
<path transform="translate(740,459)" d="m0 0 1 2h2l1 2 6 1 3 2 1 6h2v2l3 1 3 3v2l5 1v6h3l3 6 1-2 2 1-3 7h-2l-1 2-2-1-2 4-3-3-8-11-11-11 2-1-1-4-3-1v-2l-1-1-2-4h-2v-5z" fill="#958C73"/>
<path transform="translate(744,489)" d="m0 0 5 2 3 2v2l3-1 7 11 4 10 1 11-3 10-6 9-11 11-8 4-5 1h-16l-3-1v-2l18-1 5-2 3-3 8-6 7-10 3-9v-9l-4-11-6-10-5-7z" fill="#0E080A"/>
<path transform="translate(251,630)" d="m0 0 2 4 9 15 8 11 7 8v2l4 2 9 8 32 22 26 13h6l6-4 18-8 3 1-2 2-10 4-12 7v2l3 1v3l-11-3-9-4-11-6-7-3-5-3v-2l-6-2-8-6-12-8v-2h-2l-5-5-6-4-7-8-8-11-4-4-8-13-3-5 1-2z" fill="#4B1C28"/>
<path transform="translate(375,806)" d="m0 0 2 1v30l-4 19h9l10 2-1 3-12-1-36-6-36-9-37-13-18-8 1-2 6-1 2 2 4 3 15 6 12 5 8 3h6l11 4 35 8 16 3 2-7 2-3 2-12v-17-3h1z" fill="#261519"/>
<path transform="translate(329,240)" d="m0 0 33 11 1 1 2 13-3 2-9 1-20-3-5-1 1-2h7l5-4h2l-3-6-3-2v-2l-8-7z" fill="#9A3251"/>
<path transform="translate(564,411)" d="m0 0 11 1 7 2 18 6 15 6v2l3 1v2l3 1 1 3 5 1 3 5-4 1-1-3h-2v-2l-3 1-5-3-4-1v-2l-9-2-5-3-9-1-19-8-6-3v-3z" fill="#D6C6C1"/>
<path transform="translate(403,169)" d="m0 0 6 1 22 11 17 10 19 11 18 12 18 13 10 7 6 4v-7h1l1 9-3 1-9-6-11-8-17-11-15-10-17-10-11-6-15-8-25-11v-1z" fill="#2A131B"/>
<path transform="translate(672,376)" d="m0 0 5 2 6 5 5 6 6 5 4 6 4 4v7l1 3h2l1 4v19l-4 2 2 4-2 6-6-2 1-14v-20l-3-11-7-10-7-8-8-6z" fill="#ACA69B"/>
<path transform="translate(495,699)" d="m0 0h6v3l-8 3-1 3 4 2 5 4 5 6 3 2v2l4 2 3 4v2l4 2 8 10 11 18 3 9-2 1 1 8-1 7-3 1-1-13-3-11-8-16-9-13-5-6-2-1v-2l-4-2v-2l-4-2-9-9-7-6v-2z" fill="#C4BBAE"/>
<path transform="translate(331,414)" d="m0 0 4 1v7l-5 10-15 20-5-1-5-6h2l5-10h2v-2l7-2v-6l4-7 2 1z" fill="#C4B7A8"/>
<path transform="translate(641,161)" d="m0 0h6l-5 5-5 2-9 5-6 2-2 5-11 6-8 6-6 2 1 4 1 2-5-2-7-5 1-3 23-13 21-10z" fill="#ABA69A"/>
<path transform="translate(178,687)" d="m0 0 2 1 1 4 2 1-1 4-4-1-2 4 5 1-3 4h2v4l-4-1-1 1h-5l-1 9 1 4-2-1v-2l-4 4-1 9v7l2 1v2h-2v-2h-3v2l-3 3 1-1 2 1-5 8 4-1 1 3-1 4h2l1 4-6-4-4-3v-10l6-15 3-10 9-17 2-2 5-13z" fill="#577FC2"/>
<path transform="translate(615,638)" d="m0 0v3l-2 4-4 4h-7l-2 6h-4v3l-4 1-1 2-1-1-9 2v-2h-4l-3 3-4-1v-3h2l-1-2h-5l-2 2v-3l1-2h-6v3l-4 2 1 2h-2l-2 4-5 4-5 6-5 1 2-4 7-6 10-13 2-1 18-1v3l14-1 5-3 11-4z" fill="#948B72"/>
<path transform="translate(639,282)" d="m0 0 4 1 3 8v3l-5 2 3 9v4h-3l-3 9h-1l-1 5h-1l-2-14-5-22 1-3z" fill="#CCC0AF"/>
<path transform="translate(768,530)" d="m0 0h2v8l-4 8-4 6h-2v2l-3 2v4l-9 3-7 2-4 2h-5l-7-2v-2l-2-1 16-3 9-5 11-11 6-12z" fill="#ACA79C"/>
<path transform="translate(508,593)" d="m0 0 1 4-3 11-1 7 4 1-1 6-4 5-3 4h-2l-2 5-2 2-2-1v-7l1-3-1-5h2v-3h2v-2l-5 4v-3l-3 1-1-1-11 1-16 4-3-1 15-5h8v-2l12-3 6-2 4-1 3-11z" fill="#8C2E49"/>
<path transform="translate(825,254)" d="m0 0 4 2 11 26 12 36 7 29 5 29v13h-1v-6h-2l-4-25-4-20-8-30-10-30-9-21z" fill="#22201E"/>
<path transform="translate(300,594)" d="m0 0h2l2 14 5 15 6 12 8 9 11 8 12 5 6 2 7 1h22l19-3 4 1-13 4-9 1h-27l-12-3-12-6-13-10v-2h-2l-9-13-6-15-1-7z" fill="#300D19"/>
<path transform="translate(627,287)" d="m0 0h2l6 26 3 21 4 33 1 10v11l-36-2v-1l32-1-1-16-4-33-6-33 1-6-2-5z" fill="#201317"/>
<path transform="translate(402,461)" d="m0 0h6l1 5-2 6h-4l-2 3h2l-1 3h-2v3l-6 5-1 6v2h-3l-1 2v-2h-2v2l-2-1-2-4 1-6 9-16 7-7z" fill="#CFC9C1"/>
<path transform="translate(312,341)" d="m0 0h11l11 2 2 2h-24l-12 4-8 6-6 8-5 11-3 16-1 3-1 11-3-4v-9l4-20 4-9 7-10 7-6 11-4z" fill="#280C16"/>
<path transform="translate(465,824)" d="m0 0h7l9 3 3 5v15l-3 10-2 2-9 1h-45l3-6h2l2-4 14-14 5-2v2l-3 2-2 5 2 1-1 4h-9l-3 4-2-1 1 2 3 1h3l4 1v2h2v2h12v-2h18l4-1v-8l1-3-1-15-5-3-10-2z" fill="#9A3151"/>
<path transform="translate(539,771)" d="m0 0h4l2 12v9l-7 14-6 2-2 6-2 3-7 1-2 1 2-5 8-13 6-11 1-15h1v13l3-3v-10z" fill="#AEAAA0"/>
<path transform="translate(756,149)" d="m0 0 4 2 13 14 14 19 13 19 12 20 12 23 4 9-4-2-9-17-7-14-20-30-11-16-11-13-9-11z" fill="#1D1A18"/>
<path transform="translate(597,588)" d="m0 0 1 3-7 11-9 8-8 4-3-1 2-8 4-14 3-1 5 2h4z" fill="#CDC7BF"/>
<path transform="translate(409,458)" d="m0 0 7 1 8 5 15 8 13 6-1 4 4 3h-4l-3-2v-2h-2v-3l-2 7h-2v2l-3-1 1-5h-2l-1-3h-2v-3l-4 1-1-2-4 1-5-5-7-1-1 2-3-7 3-1v-4z" fill="#B9B0A4"/>
<path transform="translate(487,607)" d="m0 0h5l1 4 3 1-5 2-10 1v2l-10 2-17 5-10 1 2-4 3-5 1-1h9v-2l3-1 18-1 2 2 1-3z" fill="#B8ADA1"/>
<path transform="translate(548,454)" d="m0 0 4 1 14 7-1 2h-6l-8-4v12l-2 16h10l25-2 3 2-37 4h-5l-1-1h-15l-1 2-2-1-33-4-15-2-2-3 39 5 13 1h13l7-1-1-4 1-9z" fill="#29131A"/>
<path transform="translate(137,606)" d="m0 0 3 3-2 1-1 3-2 1-3 6-5 9h-2v3l-2 2-2 7-3 4-2 5h-2v6l-4 2v6l4-1 2 1-3 3-4 1 5 2v1h-6l-4-3 1-8 12-23 6-11 8-14 3-4h3z" fill="#5680C5"/>
<path transform="translate(663,338)" d="m0 0 7 2 1 27-3 7-6-2-2-2 1-29z" fill="#9F9683"/>
<path transform="translate(176,666)" d="m0 0 2 1 3 6h2l3 4-1 2-3-1-6 16-4 9-5 8-7 15-3 9-4 11-1 10-2-1v-2l-3-1 2-3 5-17 8-20 12-24 2-7z" fill="#29161D"/>
<path transform="translate(862,383)" d="m0 0h3l3 27v47l-1 11h-2v7h-1l-1-74z" fill="#2C2823"/>
<path transform="translate(298,494)" d="m0 0 2 4 4 25 2-4 2 16 4 8 7 4v1h-7v5l-2-1-3-9-5-6-1-3-2 1-1-12h-2l1-5v-2l1-3-3-8 1-8h2z" fill="#97314F"/>
<path transform="translate(441,378)" d="m0 0h10l25 4 24 8 9 4-4 2-10-3-4 1-8-3-12-2-6-2v-2l-4-1-2-1h-8l-5-3-5-1z" fill="#9A3151"/>
<path transform="translate(567,217)" d="m0 0h9l9 4 8 5 8 7 1 3h-4l-10-9-11-5h-11l-9 6-6 10-2 8v13h-2v7h-1l-1-16 2-13 5-10 5-5 4-3z" fill="#0E0C0D"/>
<path transform="translate(424,4)" d="m0 0h19l22 1 1 3h-46l-6 1-16 1-19 2h-8v-2l-2-1 21-3z" fill="#282726"/>
<path transform="translate(313,549)" d="m0 0 9 1 9 4 28 12 3 2-2 15h-1v-10l-1 2-4-2-2-4-5-1-2-4-13-6-4 1h-8v-2h-2l-1 5-2-2-2-7z" fill="#B2A99B"/>
<path transform="translate(826,612)" d="m0 0 1 4-12 24-10 17-16 24-12 16-8 10h-3l2-4 13-17 10-14 7-11 13-21 8-15 6-12z" fill="#191716"/>
<path transform="translate(592,486)" d="m0 0h3l-1 5-4 3-6 1-4-1-9 1h-14l-8 5h-4v-2l-4 1 1-5 2-2 43-5z" fill="#CEC7BD"/>
<path transform="translate(436,587)" d="m0 0 2 1-3 13-5 15-1 9v3l12-2 7-2 10-1-3 2-17 5-22 4-39 1-10-2v-1h36l14-1 1-3 5-3 4-8 7-24z" fill="#10070B"/>
<path transform="translate(424,608)" d="m0 0h6l-3 11-5 8-4 2-3 3-12 1h-25v-1l19-1 1-1h17l-2-7 2-4h-2l-1-4 2-2h3v-3l6-1z" fill="#BCB4A7"/>
<path transform="translate(76,670)" d="m0 0 5 5 6 7 3 5 8 9 4 7 7 9 4 4 2-1 7 12 4 6 1 4-7-6-7-7-7-9-11-12 1-3-6-7-7-11-7-10z" fill="#2A2929"/>
<path transform="translate(311,394)" d="m0 0 1 2-4 9-1 8-3 7-3 18h-1v-7l-2 7-2-2-1-5-4 2h-2v-5h6l-1-1-1-3 1-4h2v-4h2l2-7 3-1v-5l3-4z" fill="#983551"/>
<path transform="translate(661,252)" d="m0 0h10l-1 4-12 5h-3l-2 4h-2v8l1 3-3 2-5-8-3-7 1-4 13-5z" fill="#A39A8A"/>
<path transform="translate(216,62)" d="m0 0 2 1-5 5-6 4h-2l-1 4-14 9-11 8-9 4-10 8h-3l2-4 16-12 14-10 19-12z" fill="#191614"/>
<path transform="translate(241,735)" d="m0 0 2 1 1 1 5 2v1l-15 2-10 4-14 11-15 14-8 7v6l-7-4-1-3 8-3 7-7 8-7 8-8 16-12 11-4z" fill="#2D171E"/>
<path transform="translate(396,201)" d="m0 0h16l12 4 15 8 4 3-1 3 2 2-4-1-9-7-11-5-7-2h-17l-11 4-5 4v-3l-3-1 7-5 7-3z" fill="#280B15"/>
<path transform="translate(548,178)" d="m0 0 3 1-7 6-9 11-15 15-1 2h-2l3 9 3 7-1 3-2-5h-3l-6-11-1-4 3-5h2v2l4-1 3-6h2l2-4 8-9 5-3 5-5h2v-2z" fill="#250D16"/>
<path transform="translate(344,800)" d="m0 0 7 1-4 2-10 6-13 11-16 14-4 7-6-1-17-6-8-4-14-6 4-1 27 11 10 3 8-7 15-14 11-9 6-6z" fill="#241319"/>
<path transform="translate(641,520)" d="m0 0 5 2 5 4-1 5-1 14-3 7h-4v-5-2h-2v5h-2l2-22z" fill="#C0B8AD"/>
<path transform="translate(678,274)" d="m0 0h2l-2 4-10 2-3 1v2l-3 3 1 2h-2l2 7 1 2-2 1 1 7-3-1-1-3-2-2h2l-1-5-2-2h-2l-1 3-3-12v-3l14-4z" fill="#9F9684"/>
<path transform="translate(315,782)" d="m0 0 5 1 17 8 12 6-2 3-8 3-1 1h-7l-1-4-1-3v-3l-3 1-4-4v-2l-4-2-3-3z" fill="#5880C3"/>
<path transform="translate(590,426)" d="m0 0h7l5 3 9 3v2l7 1 3 2 5 2 1 2 2-1-3-3-6-1v-4l-5-5 5 1 17 8-3 3 4 4-4 3 2 2-4-1-15-8-27-12z" fill="#D6BFB2"/>
<path transform="translate(272,756)" d="m0 0 5 2 3 3 1 5-4 4h-2l-4 18-2 6-3 5-6 15-2 3v2h-3l3-10 9-24 3-7z" fill="#567FC4"/>
<path transform="translate(526,235)" d="m0 0 1 2v17l1 1 1 8 2 4 1 8 2 7 5 25 2 6 3 22v12l-2-2-3-25-5-20-3-18-6-21-1-13 1-12z" fill="#55232E"/>
<path transform="translate(569,408)" d="m0 0h7l5 3v-2h6v-1l9 1 7 3v2l4 2 3 3-6 1-7-3v2l-12-3-9-2-7-2-3-1v-2z" fill="#A6485D"/>
<path transform="translate(585,833)" d="m0 0h5l-1 2-22 8-38 10-26 5h-4v-2l-2-1 35-6 36-10z" fill="#1B1919"/>
<path transform="translate(654,232)" d="m0 0h4l-1 4-11 6-7 5 2 5 5 1-2 3-6 1-4-7-3-6v-3l13-7 8-1z" fill="#A19887"/>
<path transform="translate(157,760)" d="m0 0 9 5 5 4 11 7-2 4 5 2h4v2l4 2 11 7-1 3 5 2-1 2-19-12-19-14-12-9-2-3z" fill="#2D2929"/>
<path transform="translate(326,551)" d="m0 0 5 1 18 8 7 2 9 4 11 4 16 4 10 2 13 4-1 2-30-7-19-5-4 15v6l-4 2 3-14 1-11-25-11-10-5z" fill="#2E121B"/>
<path transform="translate(608,638)" d="m0 0h4 2l-2 4-6 5-12 5-4 2-14 1v-4l1-1 10-2 9-5 4-3z" fill="#C1B4A6"/>
<path transform="translate(504,614)" d="m0 0 6 1v4l2 1-10 15-6 8-12 12-16 11h-2v2l-9 5h-3v-2l13-8 16-12 9-9 7-11 4-4 5-7 1-4-5-1z" fill="#4E1827"/>
<path transform="translate(553,527)" d="m0 0h8l7 2h2l4-2 1 2-2 1 4 2-11 3-17 3-3 1h-10l2-4 5 1v-2h2v-3l6 2 2-1v-2h-2v-2z" fill="#ADA79B"/>
<path transform="translate(152,626)" d="m0 0h2l5 12-11 8-6 2-6 3-5 1 2-6 2-1 3 1-1-5h3v3h2l1-3 2-1 1-5 2-4h2v-2l2-2z" fill="#567FC3"/>
<path transform="translate(505,670)" d="m0 0h7l4 2v3l4-1-2 6h-3l-4 1v2l-6 2-1 3-4-2v-5l-3-1 1-2h2l-1-3 3-1 1-3h2z" fill="#C1B7AB"/>
<path transform="translate(630,263)" d="m0 0 5 1 5 11-1 3-5 2h-7l-5-11v-3z" fill="#BDB2A4"/>
<path transform="translate(487,832)" d="m0 0h1l1 8-1 9-2 5 1 2-3 5-15 2h-42l-1-2 43-1 1-1 9-1 3-7 1-4 1-13h1v12h2z" fill="#211317"/>
<path transform="translate(621,245)" d="m0 0 5 1 5 10v3l-8 3-5-1-5-9 2-4z" fill="#B9B1A4"/>
<path transform="translate(344,420)" d="m0 0h4v5h2l1-3h2v6l-1 2-5 2h-4v-2h-2v4h-2l1 4-1 7-5-4v-6l-1-2 2-6z" fill="#CFC5B6"/>
<path transform="translate(484,163)" d="m0 0 4 1 8 11 10 15 6 11 2 6-3 5-4-2v-2l-3-1-5-6h3l6 5h2l-6-12-19-28z" fill="#52222D"/>
<path transform="translate(375,806)" d="m0 0 2 1v30l-4 19h9l10 2-1 3-12-1-14-2 3-2 1-6 3-5 2-12v-17-3h1z" fill="#311F24"/>
<path transform="translate(466,6)" d="m0 0h10l36 5 20 4 3 2 3 3-10-2-27-5-34-4z" fill="#1F1D1D"/>
<path transform="translate(372,287)" d="m0 0 2 3 3 18 1 1 1 19h2l3 24 3 17-1 3h-2l-3-16-1-11-2-10-3-17-3-24z" fill="#561E2C"/>
<path transform="translate(403,169)" d="m0 0 6 1 22 11 17 10 7 4-3 1-8-4-6-2-15-8-25-11v-1z" fill="#250F17"/>
<path transform="translate(544,490)" d="m0 0v3l-5 8-8 22-3 8-1 9-3-2 3-12 5-15 1-9-4-8v-3z" fill="#0E0C0D"/>
<path transform="translate(635,437)" d="m0 0 6 1 39 19v2l-3 1-2-1v-2l-3 1-5-3v-2l-3 1-10-4h-4v-3l-8-1v-2l-5-2-4-4z" fill="#D6C5C1"/>
<path transform="translate(251,630)" d="m0 0 2 4 9 15 8 11 7 8v2l4 2 10 9v2l-4-2-9-6-7-8-8-11-4-4-8-13-3-5 1-2z" fill="#270E17"/>
<path transform="translate(521,799)" d="m0 0 1 2-6 10-16 24-1-2 1-3-1-3h-2l-1-4 2-1 4 1 2-3 1-8 9-6z" fill="#5A7EBC"/>
<path transform="translate(300,315)" d="m0 0h5l-2 2-13 4-9 6-8 7-8 13-2 4h-2l1-6 7-14 10-9 8-4z" fill="#2D0C17"/>
<path transform="translate(535,806)" d="m0 0 1 3-14 19-3 5-3 1-1-1-2 4h-2l-1-6 8-12 3-2h7l2-6z" fill="#BBB3A7"/>
<path transform="translate(703,481)" d="m0 0h7v3l3 1 1 3 4 2 2 4 5 1 1-1 1 4-3 3-5-1-17-11 3-1-2-4z" fill="#D5C1B2"/>
<path transform="translate(576,397)" d="m0 0 6 1 23 8 5 5 10 3v2l2 1-6-1-25-9-20-8v-1z" fill="#230B14"/>
<path transform="translate(735,471)" d="m0 0 5 2 2 1v3h2l7 8 7 7 8 12 2 5v10l2 6h-2l-1 5-1-4-1-11-5-12-9-13-9-10-7-7z" fill="#BBADA2"/>
<path transform="translate(376,809)" d="m0 0h2l2 8 2 1-1 6 1 11-4 12-1-1 1 5 2 2 3 1v1l5 1v1l-15-1 1-9 2-10z" fill="#567FC4"/>
<path transform="translate(573,577)" d="m0 0h6l-2 10-11 1-3-1v-2h-2v3h-2l-1-5-6 1-4-1 2-2 19-3z" fill="#D5C9BA"/>
<path transform="translate(639,538)" d="m0 0h1l-1 8-1 4h2v-5l3-1v3l1 4h3v8h-2l-1 3-4-1v2h-2v2h2v4l-6 1v5h-1v-6l1-1 3-23z" fill="#9F9684"/>
<path transform="translate(396,145)" d="m0 0 5 2 8 2v2h4v4l4 3 1 5-3 1v2l-2-1 1-2h-2l-1 2-4-4v-3l-6-3-1-2-1-3h-2l-1 3h-1l-1-6z" fill="#628DD4"/>
<path transform="translate(665,149)" d="m0 0 4 1-8 4-4 5h-3l-1 4-7 3-9 6-6 3-7 3-3-1 3-3 12-6 2-2 7-3 1-1-3-2 19-10z" fill="#A29A89"/>
<path transform="translate(532,684)" d="m0 0 3 1-1 3-8 4-8 6-10 5-7-1v-3l-4-1 14-6 9 1 1-2 5-1 1-3h2z" fill="#B6AEA0"/>
<path transform="translate(351,801)" d="m0 0h7l10 3 4 2 2 9 1 1v17l-2 12-2 2 1-13 1-9-1-6h-2l-3-8v-4l-2-1-10-1h-2-3l-5-1 2-2z" fill="#9A3251"/>
<path transform="translate(161,645)" d="m0 0 4 4 7 10 5 10v12l-4 11-3 4 1-5 3-8 2-11h-2v-2h-2l-2-5h-2v-3l-3-1v-4l-3 1v-2h2l-2-2-3-1v2l-3-1h2l1-5z" fill="#9A3151"/>
<path transform="translate(441,588)" d="m0 0h24l13 1-2 6-2 1-3-1-3-3-7 1-4-1-7 1-2 1-9-1-1-2z" fill="#CBBFAC"/>
<path transform="translate(672,376)" d="m0 0 5 2 6 5 5 6 6 5 4 6 4 4v7l1 5-1 7-2-3-3-10-4-9-8-12-10-9-3-2z" fill="#C0B4A6"/>
<path transform="translate(512,373)" d="m0 0 2 1 2 23h2v2l-5-2-21-9-21-6-12-2 4-1 1-2 21 6 20 7 7 2z" fill="#300E19"/>
<path transform="translate(360,601)" d="m0 0h4v4h3l-1 4-2 1 1 4-1 2h2l1-2v6l5-1 1 3-5 5 10 1v3h-7l-4-2-7-13z" fill="#CEC5B7"/>
<path transform="translate(443,217)" d="m0 0 5 3 8 7 7 8 11 16 6 11v2l-3-1-7-12-8-11-12-12v-2l-4-2-5-5z" fill="#4C1525"/>
<path transform="translate(700,472)" d="m0 0 5 1 14 11 7 8-1 7-1-3-4-2-4-5-2-1v-2l-4-2-1-2-5-1-5-5z" fill="#D6C6C2"/>
<path transform="translate(222,197)" d="m0 0 3 1-6 9-6 10-7 18-3 11 1 6 3 2 4-1-3 3h-6l-2-2v-9l7-20 2-5v-4l-2-2 3-1 10-14z" fill="#252526"/>
<path transform="translate(495,699)" d="m0 0h6v3l-8 3-1 3 4 2 5 4 5 6 3 2v2l4 2 3 4-1 3-6-5v-2l-4-2v-2l-4-2-9-9-7-6v-2z" fill="#C2BBAF"/>
<path transform="translate(597,579)" d="m0 0 3 3 1 5-3 3h-2l-10 4-2-2-6-1 2-5 9-3 7-3z" fill="#C5B8AA"/>
<path transform="translate(568,651)" d="m0 0h8v3h12l-2 2h-18l-4 3v-3l1-2h-6v3l-4 2 1 2h-2l-2 4-5 4-5 6-5 1 2-4 7-6 10-13 2-1z" fill="#A39C8D"/>
<path transform="translate(312,341)" d="m0 0h11l11 2 2 2h-24l-12 4-12 9v-2h-2l2-4 7-6 11-4z" fill="#260B14"/>
<path transform="translate(702,459)" d="m0 0h5l14 9 12 9 1 5h-2v-2l-8-1-5-1v-2h-2l1-2 3 2-3-6-5-2-11-7z" fill="#A4465B"/>
<path transform="translate(434,402)" d="m0 0h20l20 6 9 4 3 3-11-3-17-4-18-3-6-2z" fill="#300D19"/>
<path transform="translate(157,639)" d="m0 0v3h5l-2 2-7 3-12 8-12 9-10 7-4 3-4-1-3-2 8-2 11-7 9-8 11-8z" fill="#25131A"/>
<path transform="translate(551,393)" d="m0 0 15 3 13 5 4 3h-9l-5 1-10-3-1-2h-4l-2-3h-2z" fill="#9A3151"/>
<path transform="translate(146,113)" d="m0 0h2l-2 4-28 28-5 4-2-1 11-13 17-17z" fill="#131213"/>
<path transform="translate(399,473)" d="m0 0 4 2-1 3h-2v3l-6 5-1 6v2h-3l-1 2v-2h-2v2l-2-1-2-4 1-6 3-3 3-1-2 6 5-8 4-4h2z" fill="#D1C5B4"/>
<path transform="translate(457,510)" d="m0 0 5 1 4 4-1 9-1 2h-2v2l-5 1-2-5v-7l-1-4z" fill="#D3C7B5"/>
<path transform="translate(451,673)" d="m0 0 2 1-8 5-10 5h-2v2l-16 6-7 3-18 6-10 2 1-2 21-7 25-10 16-8z" fill="#3A131E"/>
<path transform="translate(386,369)" d="m0 0h1l1 5 16-1h17l8 1-4 2-36 3-5-1z" fill="#1A090F"/>
<path transform="translate(597,200)" d="m0 0 6 2 6 3 3 5v2l5 1 3 7 6 7v2l5 1 1 3 3 2-5 3h-2l-9-15-10-12-11-9z" fill="#A69E8E"/>
<path transform="translate(605,423)" d="m0 0 5 1 5 2v2l3 1v2l3 1 1 3 5 1 3 5-4 1-1-3h-2v-2l-3 1-5-3-4-1v-2l-9-2-1-2 2-3 3 1z" fill="#D5C3B6"/>
<path transform="translate(852,330)" d="m0 0 2 4v3l3 1 6 31 1 7v13h-1v-6h-2l-4-25-4-20z" fill="#232220"/>
<path transform="translate(328,652)" d="m0 0 5 2 12 6 10 2h27l13-2 9-2-4 3-9 3-12 1h-23l-14-3-11-6z" fill="#9A3251"/>
<path transform="translate(403,653)" d="m0 0 5 1-2 4-10 1-19 2h-18l-10-2-5-2 4-1 15 2h15l15-1 1-2 7-1z" fill="#9A3251"/>
<path transform="translate(334,343)" d="m0 0 6 1 11 7 6 5v2l-4-1-15-8-6-2-24-1 4-2h22z" fill="#95304E"/>
<path transform="translate(767,706)" d="m0 0 1 2-7 8-12 14-18 18-6 4 2-4 11-11 7-8 15-16 5-6z" fill="#1A1816"/>
<path transform="translate(62,652)" d="m0 0 5 5 3 6 4 5 2 1 5 9 14 20 2 3h-3l-11-14-13-19-8-12z" fill="#100D0D"/>
<path transform="translate(313,549)" d="m0 0 9 1 9 4 5 2-4 2-4 1h-8v-2h-2l-1 5-2-2-2-7z" fill="#BFB3A5"/>
<path transform="translate(627,287)" d="m0 0h2l6 26 2 15v6l-3 1-6-33 1-6-2-5z" fill="#0F0D0F"/>
<path transform="translate(160,714)" d="m0 0 1 3-7 17-4 15-2 3-4-2-4-6 5-3 6-7 5-13v-2h2z" fill="#993251"/>
<path transform="translate(424,4)" d="m0 0h19l22 1 1 3h-44l-9-1v-2z" fill="#282520"/>
<path transform="translate(643,807)" d="m0 0 1 3-35 17-17 7-5-1 3-2 29-12 16-8z" fill="#1B1919"/>
<path transform="translate(378,703)" d="m0 0 3 1-2 2-10 4-12 7v2l3 1v3l-11-3-9-4-7-4 3-1 6 3 12 1 6-4z" fill="#271018"/>
<path transform="translate(256,821)" d="m0 0 5 1v2l31 13 14 5v2l-11-3-27-10-16-7 1-2z" fill="#2F2E2C"/>
<path transform="translate(269,760)" d="m0 0h1l1 18-4 10-11 29-2 4-1-2-2-1 7-15 8-21 2-9z" fill="#2D171E"/>
<path transform="translate(203,180)" d="m0 0 7 1 14 9 1 4-5 6h-2l-2-9-3-1h-2v-2l-8-6z" fill="#BAB2A5"/>
<path transform="translate(670,151)" d="m0 0 6 1-5 4-8 4-5 3h-2l-1 2-17 9-9 3-3-1 9-4 7-4h2l1-3 5-2 4-2v-2l9-2 4-2 1-2h2z" fill="#958C73"/>
<path transform="translate(545,784)" d="m0 0 2 3v8l1 2-5 1v8l-2 1-1 2h-3l-2 6-2 1-1 5-2 3h-2l-1 2-2 2-5 4 2-5 11-15 8-13 3-7z" fill="#988F78"/>
<path transform="translate(726,118)" d="m0 0 5 2 17 17 8 10v3l-7-6-23-23z" fill="#161414"/>
<path transform="translate(514,587)" d="m0 0h12v5l-6 5-2 2-8-4v-5z" fill="#D3CDC6"/>
<path transform="translate(610,505)" d="m0 0 4 2v3h3l1 6-1 4 2 1-10 3-1-5 1-2-1-6 1-5z" fill="#BBB3A6"/>
<path transform="translate(331,414)" d="m0 0 4 1v7l-3 4v-2h-2l-1 4-4 4-3-1-1-6 4-7 2 1z" fill="#BCB3A7"/>
<path transform="translate(744,489)" d="m0 0 5 2 3 2v2l3-1 7 11-3 9-2-3-8-14-5-7z" fill="#230A13"/>
<path transform="translate(300,313)" d="m0 0h16l11 3v2l-6 1h-20l-9 1 3-2 8-2h-9l2-2z" fill="#993150"/>
<path transform="translate(666,339)" d="m0 0 4 1 1 27-3 7-6-2-2-2v-5h4v3h3l1-10-1-17-2-1z" fill="#ABA69A"/>
<path transform="translate(321,570)" d="m0 0 5 3 2 3 6 1 1 9-2 1 1 3-1 2h-2l-6-10-4-9z" fill="#D1C6B6"/>
<path transform="translate(216,62)" d="m0 0 2 1-5 5-6 4h-2l-1 4-5 3-8 3-4 1v2l-4 1 3-5 14-9z" fill="#151312"/>
<path transform="translate(616,178)" d="m0 0h5l-4 4-8 4-8 6-6 2 1 4 1 2-5-2-4-3v-4l5-1 6-2 8-6 4-1z" fill="#A19887"/>
<path transform="translate(657,278)" d="m0 0h6l-1 3h-2v15l-4-4h-2l-1 3-3-12v-3z" fill="#A39B8B"/>
<path transform="translate(400,657)" d="m0 0 4 1-13 4-9 1h-27l-6-2-1-2 11 1h22z" fill="#2C131B"/>
<path transform="translate(362,631)" d="m0 0 15 3 39-1 11-1-3 4-4 1v-2l-10 1-1 3-2-1v-2h-32l-10-2z" fill="#9A3251"/>
<path transform="translate(826,612)" d="m0 0 1 4-12 24-9 15h-3l2-5 12-21 8-16z" fill="#1D1B19"/>
<path transform="translate(496,704)" d="m0 0 2 1h3l4 1v2h-3l1 3 5 3 4 4-2 4-5-2-5-6-8-6v-3z" fill="#8E8369"/>
<path transform="translate(412,202)" d="m0 0 7 1 19 9 5 4-1 3 2 2-4-1-9-7-11-5-7-2 1-2z" fill="#320E19"/>
<path transform="translate(457,825)" d="m0 0h5l-4 4-14 10-12 12-2 3h-2l-2 5-3 1 1-4 9-11 3-1v-2l8-7z" fill="#2A121A"/>
<path transform="translate(477,486)" d="m0 0h7v2h-2l-3 6-3 1-4-2-1 4h-3l-2 4h-3l2-6 4-6z" fill="#CCC6BD"/>
<path transform="translate(863,466)" d="m0 0 3 2-1 16-4 26-3-1 1-12 3-20z" fill="#23211F"/>
<path transform="translate(513,207)" d="m0 0h2v2l6-2-1 4-1 2h-2l3 9 3 7-1 3-2-5h-3l-6-11-1-4z" fill="#261118"/>
<path transform="translate(238,740)" d="m0 0h11l8 4v1l-8 2-1-1h-14v-2h-2v-2z" fill="#9A3251"/>
<path transform="translate(512,613)" d="m0 0 31 3 19 1 4 2h-21l-25-2h-6l-4 2v-4l-3-1z" fill="#232022"/>
<path transform="translate(511,605)" d="m0 0 5 1v6l3-4h8v4h-5l-2-1-1 2 2 1h-17l1-6z" fill="#D3C6B5"/>
<path transform="translate(514,532)" d="m0 0 4 1 6 3-2 4-6 2h-10l-4-1v-2l11-3z" fill="#B4AC9F"/>
<path transform="translate(412,454)" d="m0 0 6 4 22 12 16 7 4 2-5 1-18-8-16-9-10-5z" fill="#2A121A"/>
<path transform="translate(548,454)" d="m0 0 4 1 14 7-1 2h-6l-8-4v12l-2 16-2-4 1-9z" fill="#2B111A"/>
<path transform="translate(315,439)" d="m0 0h2l3 5-2 4-3 4-5-1-5-6h2v-2l3-1 2-2z" fill="#ADA79B"/>
<path transform="translate(505,163)" d="m0 0 7 1 11 2 14 5-4 2h-10v-2h-5l-4-2-2 1v-2h-2v-3l-5-1z" fill="#B7AFA2"/>
<path transform="translate(862,383)" d="m0 0h3l1 7-1 73h-1l-1-62z" fill="#2A2929"/>
<path transform="translate(362,10)" d="m0 0h9v3l-17 3-16 3-4-1 2-1h6v-2l-2-1z" fill="#211F1F"/>
<path transform="translate(160,643)" d="m0 0 3 1-2 1-1 4-2 4-7 1h-4v2l-5-1v-2l14-9z" fill="#A4475C"/>
<path transform="translate(756,149)" d="m0 0 4 2 13 14 11 15-3 2-6-8-13-16-6-7z" fill="#1B1918"/>
<path transform="translate(755,513)" d="m0 0 5 5v9l-4 11-3 2v-7l1-9h2l-2-6-1-4z" fill="#A4465C"/>
<path transform="translate(101,160)" d="m0 0 1 2-9 12-7 9-4 6h-3l-1 3-2-1 7-10 9-12 6-7z" fill="#131110"/>
<path transform="translate(641,520)" d="m0 0 5 2 5 4-1 5-1 14h-1l-1-10-1-5-3 1-1 3h-2z" fill="#A7A194"/>
<path transform="translate(301,161)" d="m0 0 5 1 2 7 2 1 2 6h-2l1 4 3 2-7 4-1-1v-9l-5-13z" fill="#A19988"/>
<path transform="translate(502,845)" d="m0 0 4 1 5-1-1 4-3 5-13 2 2-5 5-5z" fill="#C0B9AE"/>
<path transform="translate(316,639)" d="m0 0 4 2 12 10 8 4 9 3v3l-6-1-12-6-13-10v-2h-2z" fill="#2F0D18"/>
<path transform="translate(526,235)" d="m0 0 1 2v17l1 1 1 8 2 4 1 8 2 7v3h-2l-4-13-3-11-1-13 1-12z" fill="#5D3036"/>
<path transform="translate(376,211)" d="m0 0h4l-1 4-7 7-5 10h-4l1-6 9-13z" fill="#220A13"/>
<path transform="translate(314,559)" d="m0 0 3 3v3h2l2 7 9 17 6 10v4h-2l-8-14-4-10-8-16z" fill="#5B2732"/>
<path transform="translate(532,17)" d="m0 0h7l26 7 2 3h-7l-14-4-8-2v-2l-6-1z" fill="#1C1A19"/>
<path transform="translate(656,291)" d="m0 0 3 3 1 3-1 3 2 4 2 1 1 3v7l-5-1v-2l3-3h-2l-2 2-4-13v-6z" fill="#C0B5A9"/>
<path transform="translate(322,282)" d="m0 0 9 1 24 1v1l-5 1 13 1v1l-6 1h-11l-15-3-9-3z" fill="#3E111F"/>
<path transform="translate(259,823)" d="m0 0 6 1 28 11 7 2 4-2v6l-6-1-17-6-8-4-14-6z" fill="#131213"/>
<path transform="translate(339,424)" d="m0 0h2v10h-2l1 4-1 7-5-4v-6l-1-2 2-6z" fill="#CDC5BA"/>
<path transform="translate(584,520)" d="m0 0 4 1v6l-2 3-9 1 1-7-3 1v-2l8-2z" fill="#B4AC9E"/>
<path transform="translate(700,96)" d="m0 0 5 2 15 13 7 6-2 3-6-5-5-5-16-12z" fill="#1E1C1B"/>
<path transform="translate(737,736)" d="m0 0 2 1-5 4 2-4zm-4 5m-1 1m-1 1m-2 1 2 1-5 5-1 3-11 9-10 8-1-3 14-12z" fill="#171515"/>
<path transform="translate(603,180)" d="m0 0h5l-3 5-1 2-4 1-4 2h-3l-1 2-4-1v3l-3-1 1-3z" fill="#AFA99C"/>
<path transform="translate(241,735)" d="m0 0 2 1 1 1 5 2v1l-15 2-10 4-2-1 4-5 11-4z" fill="#251017"/>
<path transform="translate(694,391)" d="m0 0h2v3h7l3 3 1 7-5 2-2-4-5-5-3-5z" fill="#978E76"/>
<path transform="translate(371,280)" d="m0 0 2 3v4h-30v-1l27-5z" fill="#15080C"/>
<path transform="translate(555,227)" d="m0 0 2 1-6 10-2 8v13h-2v7h-1l-1-16 2-13 2-5h3l2-4z" fill="#171014"/>
<path transform="translate(523,693)" d="m0 0h2v9l-1 2h-2v2l3-1v2l-5-1-5-2v-2l-3-2 10-6z" fill="#968D75"/>
<path transform="translate(336,15)" d="m0 0h6v2l-8 1v2l-16 4h-7l2-3z" fill="#1B1918"/>
<path transform="translate(275,327)" d="m0 0h3l-2 4-7 9-6 11h-2l1-6 6-12z" fill="#0F070A"/>
<path transform="translate(435,178)" d="m0 0h2l2 4 2 2-1 2 5-1 2 2 1 3 3-2 3-1 1 7 2 1-6-1-20-12 1-2h2z" fill="#608AD1"/>
<path transform="translate(372,848)" d="m0 0h1v8h9l10 2-1 3-12-1-14-2 3-3h2z" fill="#232020"/>
<path transform="translate(809,222)" d="m0 0 3 1 12 23 4 9-4-2-9-17-6-12z" fill="#141314"/>
<path transform="translate(336,595)" d="m0 0 6 2 1 4h3l1 4-2 3h-5l-5-9z" fill="#D4CFC7"/>
<path transform="translate(238,730)" d="m0 0 5 3v2l-18 6-2-1 1-3h2v-2l2-1 1-3 1 2 6-2 1 2z" fill="#5781C6"/>
<path transform="translate(315,700)" d="m0 0 5 1 26 13-4 1-6-3-7-2-7-3-5-3v-2h-2z" fill="#3B1B22"/>
<path transform="translate(310,625)" d="m0 0 4 4 4 7 8 7 5 4v2l4 2 9 4-4 1-9-5-11-9-7-9-3-5z" fill="#9A3251"/>
<path transform="translate(159,183)" d="m0 0h4l3 4 1 10-6-2-6-3 3-1z" fill="#B9B1A4"/>
<path transform="translate(304,840)" d="m0 0 10 3 21 5-1 3-8-1-19-5-1-3h-2z" fill="#2B141A"/>
<path transform="translate(203,794)" d="m0 0 5 2 19 11 2 1-1 4-18-10-2-4-5-2z" fill="#28151A"/>
<path transform="translate(595,490)" d="m0 0h1l-1 13-4 20h-3l1-11 3-12 1-9z" fill="#161315"/>
<path transform="translate(615,427)" d="m0 0 5 1 17 8-2 2-10-1-5-1v-4z" fill="#D8BBB7"/>
<path transform="translate(672,376)" d="m0 0 5 2 6 5 5 6 6 5 2 5-1 4-8-11-7-8-8-6z" fill="#C7BEB2"/>
<path transform="translate(492,222)" d="m0 0 7 2 14 10 6 4v-7h1l1 9-3 1-9-6-11-8-6-4z" fill="#3A1A24"/>
<path transform="translate(229,55)" d="m0 0 2 1v3l-12 7-10 7-4 1v-2l10-6 3-5z" fill="#171514"/>
<path transform="translate(506,194)" d="m0 0 3 1 5 12-3 5-4-2v-2l-3-1-5-6h3l6 5h2l-5-10z" fill="#471423"/>
<path transform="translate(670,790)" d="m0 0 2 1-5 5-20 12-3 1v-3l20-12z" fill="#181616"/>
<path transform="translate(767,509)" d="m0 0 4 3 3 6v6l-5 4-2 5-1-3 3-6-2-5z" fill="#C8BCAF"/>
<path transform="translate(345,592)" d="m0 0 6 1h5v6l-5 5v-3l-5-2-2-5z" fill="#ACA69A"/>
<path transform="translate(504,818)" d="m0 0 5 2-2 5-7 10-1-2 1-3-1-3h-2l-1-4 2-1 4 1z" fill="#638CD1"/>
<path transform="translate(512,373)" d="m0 0 2 1 2 23h2v2l-5-2-4-2-1-3h4z" fill="#35101B"/>
<path transform="translate(544,350)" d="m0 0h1l3 30 2 11h-5v-17l-1-9z" fill="#461423"/>
<path transform="translate(772,501)" d="m0 0 2 4 2 5v5h-5l-5-10 3-3z" fill="#958C74"/>
<path transform="translate(425,375)" d="m0 0 9 1-2 4-8 1-1-2-4-1-13 1-5-1v-1z" fill="#9A3351"/>
<path transform="translate(223,742)" d="m0 0 2 1-3 5-11 8-7 6h-2l2-4 11-10z" fill="#25131A"/>
<path transform="translate(566,598)" d="m0 0 4 1 2 1-2 10-1-3-10-1v-4l6-2z" fill="#B9B0A3"/>
<path transform="translate(176,666)" d="m0 0 2 1 3 6h2l3 4-1 2-3-1-2 6h-2v2h-2z" fill="#26131A"/>
<path transform="translate(480,653)" d="m0 0 3 2-15 11h-2v2l-9 5h-3v-2l13-8z" fill="#401320"/>
<path transform="translate(367,632)" d="m0 0h47l2 2-39 1-10-2z" fill="#4C1626"/>
<path transform="translate(419,623)" d="m0 0 2 4-4 4-2 1-12 1h-25v-1l19-1 1-1h17l2-4z" fill="#9F7F7B"/>
<path transform="translate(305,532)" d="m0 0h2l4 10 8 5v1h-7v5l-2-1-5-15z" fill="#200E14"/>
<path transform="translate(328,382)" d="m0 0h9v1l-10 2-8 6-6 8-5 8-1-2 4-9 7-8 8-5z" fill="#4F1727"/>
<path transform="translate(639,282)" d="m0 0 4 1 3 8v3l-7 2-1-8 1-2-1-1-6-1v-1z" fill="#C6B9AC"/>
<path transform="translate(208,758)" d="m0 0v3l-3 1-2 4-6 5-4 4-2 7-2 2v-2l-3-1 1-4 10-9 7-7z" fill="#993551"/>
<path transform="translate(568,651)" d="m0 0h8v3h12l-2 2h-18l-4 3v-3l1-2-7-1v-1z" fill="#A09786"/>
<path transform="translate(369,619)" d="m0 0h3l1 3-5 5 10 1v3h-7l-4-2-3-5 1-3z" fill="#CBBFAD"/>
<path transform="translate(317,432)" d="m0 0 3 1 1 6 2 2-2 3h-2l-2-2v-3l-6 3h-3l4-7h2v-2z" fill="#BCB4A8"/>
<path transform="translate(404,373)" d="m0 0h17l8 1-4 2-9 1h-15l4-2z" fill="#270B15"/>
<path transform="translate(512,12)" d="m0 0 11 1 12 3 3 4-10-2-22-4v-1z" fill="#1F1D1C"/>
<path transform="translate(515,732)" d="m0 0 4 1 9 11 2 5-1 2-3-1-7-11-4-5z" fill="#C9C2B7"/>
<path transform="translate(360,721)" d="m0 0 9 3 9 4 9 3 2 1-1 2-16-5-12-5z" fill="#141213"/>
<path transform="translate(608,638)" d="m0 0h4 2l-2 4-6 5-5 1v-3-3l-2-1z" fill="#BAB2A6"/>
<path transform="translate(735,471)" d="m0 0 5 2 2 1v3h2l7 8 5 6-1 4-9-11-11-11z" fill="#BEB4A4"/>
<path transform="translate(665,149)" d="m0 0 4 1-8 4-4 5h-3l-1 4-6 1 2-4 3-2-1-2z" fill="#A19887"/>
<path transform="translate(495,699)" d="m0 0h6v3l-8 3-1 5-4-2-3-3v-2z" fill="#C9C2B9"/>
<path transform="translate(711,560)" d="m0 0 20 1v1l-6 1v2h6l1 2h-8l-3 1-3-3-3-1-1-2z" fill="#938A71"/>
<path transform="translate(735,481)" d="m0 0 7 6 9 11 8 16-1 3-4-9-2-5-3-1-6-11-8-8z" fill="#9A3151"/>
<path transform="translate(380,339)" d="m0 0h2l5 30-1 3h-2l-3-16z" fill="#3A101D"/>
<path transform="translate(532,684)" d="m0 0 3 1-1 3-8 4-8 6h-6v-2l5-1v-2h3l1-2 5-1 1-3h2z" fill="#BAB3A8"/>
<path transform="translate(627,287)" d="m0 0h2l5 22v4l-4-1-2-10 1-6-2-5z" fill="#1E1E1F"/>
<path transform="translate(325,552)" d="m0 0 4 1 7 3-4 2-4 1h-8l-1-4z" fill="#B8B0A3"/>
<path transform="translate(590,426)" d="m0 0h7l5 3 9 3v2l6 1v3l-4-1-23-10z" fill="#D2B3AB"/>
<path transform="translate(661,341)" d="m0 0h2l1 2 2-1-1 4-2-1v2h3l1 6-5-1v9h3l-2 4-2-1z" fill="#948B73"/>
<path transform="translate(284,32)" d="m0 0 1 3-16 7-12 3v-2l14-6z" fill="#0C0A0B"/>
<path transform="translate(536,769)" d="m0 0 6 1-2 2 1 8-1 7-3 1z" fill="#CABFB3"/>
<path transform="translate(436,587)" d="m0 0 2 1-3 13-5 15-1 5-4 1 3-9 6-20z" fill="#181718"/>
<path transform="translate(734,560)" d="m0 0h3l3 3v3l-8 1-7-2v-2l-2-1z" fill="#A8A294"/>
<path transform="translate(637,238)" d="m0 0 4 1-1 3-2 1v8l-1 2h-2l-4-9v-3z" fill="#AAA598"/>
<path transform="translate(414,690)" d="m0 0m-3 1 5 1v1l-11 3-8 4-12 3-3-1 12-5 16-5z" fill="#5F2C36"/>
<path transform="translate(579,579)" d="m0 0 1 2-2 10-5 16-3 1 3-11 3-10 1-7z" fill="#141314"/>
<path transform="translate(431,182)" d="m0 0 12 6 12 7-3 1-8-4-6-2-10-5 3-1z" fill="#26141B"/>
<path transform="translate(454,623)" d="m0 0 4 1-20 6-13 2 3-7 1 3 12-2 7-2z" fill="#4A1625"/>
<path transform="translate(312,341)" d="m0 0h11l11 2 2 2h-27l-3-3z" fill="#481423"/>
<path transform="translate(432,851)" d="m0 0 2 2 3 1v5l-2 1h-10l3-6z" fill="#9D3352"/>
<path transform="translate(615,638)" d="m0 0v3l-2 4-4 4h-7l-2 6-5-1-1-3 13-6z" fill="#99907A"/>
<path transform="translate(397,193)" d="m0 0 2 1v3l2 2 9 1v1l-19 1-1-4z" fill="#9A3151"/>
<path transform="translate(439,822)" d="m0 0h13l7 1-4 5-3 1v-2l-6-1v-2l-3 1v-2z" fill="#5780C5"/>
<path transform="translate(782,687)" d="m0 0v3l-12 16-4 1 2-4 11-14z" fill="#131213"/>
<path transform="translate(273,665)" d="m0 0 4 3v2l4 2 10 9v2l-4-2-9-6-6-7z" fill="#2F101A"/>
<path transform="translate(639,538)" d="m0 0h1l-1 8-1 4h2v-5l3-1v3l1 4 1 2h-3l-1 4-4-1v-11z" fill="#A9A396"/>
<path transform="translate(848,313)" d="m0 0h2l4 12 2 12h-2l-1-7h-2l-3-12z" fill="#1B1919"/>
<path transform="translate(615,229)" d="m0 0 4 4 3 7-4 2-6-3z" fill="#B5AD9F"/>
<path transform="translate(346,122)" d="m0 0 10 3 5 2 1 3h-7l-5-1v-2l-5-1z" fill="#628DD4"/>
<path transform="translate(144,114)" d="m0 0 2 1-5 5-5 4-6 7-5 5h-2v2l-5 3 2-4 19-19z" fill="#2D2C2B"/>
<path transform="translate(499,675)" d="m0 0 4 1 4 5-3 7-4-2v-5l-3-1 1-2h2z" fill="#C6B9AC"/>
<path transform="translate(605,569)" d="m0 0 5 1-3 9-6 13-4 1 2-5 5-10 3-8z" fill="#151415"/>
<path transform="translate(652,386)" d="m0 0h2l1 3-18 1v-2h-25v-1h31z" fill="#988F7C"/>
<path transform="translate(631,134)" d="m0 0 2 2h-2l-1 4-3 1-1 3-7 1v-4l5-4h2v-2h4z" fill="#A83154"/>
<path transform="translate(616,430)" d="m0 0 5 2 1 3 5 1 3 5-4 1-1-3h-2v-2l-3 1-5-3-4-1v-3h3v2l2-2z" fill="#D5CFC9"/>
<path transform="translate(630,271)" d="m0 0 3 2v3h4v3l-3 1h-7l-1-4 2-4z" fill="#CDC7BF"/>
<path transform="translate(597,200)" d="m0 0 6 2 6 3 3 5v2l5 1 1 4-2-1v-2h-2l-1 2-4-5-11-9z" fill="#9D9480"/>
<path transform="translate(261,644)" d="m0 0 3 1 2 4 5-4 2 1-3 7 2 1h-2l-1 2-5-3-3-4z" fill="#A5465C"/>
<path transform="translate(342,590)" d="m0 0 3 1v3l2 2v3l4 2-1 5-4 1-1-7-5-5 1-4z" fill="#BDB3A6"/>
<path transform="translate(597,579)" d="m0 0 3 3 1 5-3 3h-2l-6-1v-2l5-1-1-4z" fill="#BCB4A8"/>
<path transform="translate(385,573)" d="m0 0 17 3 13 4-1 2-30-7z" fill="#371822"/>
<path transform="translate(325,263)" d="m0 0 28 4v1l-7 1v1l-8-1-12-4z" fill="#39131E"/>
<path transform="translate(318,824)" d="m0 0v3l-3 3h-2l-2 6h-2l2 3v3l-5-1-2-2 6-8z" fill="#9A3251"/>
<path transform="translate(154,732)" d="m0 0 2 2-2 9-2 13-2-1v-2l-3-1 2-3z" fill="#371B24"/>
<path transform="translate(564,579)" d="m0 0h4l-2 5h-18l2-3z" fill="#CAC4BB"/>
<path transform="translate(434,402)" d="m0 0h20v3l-2 1h-8l-10-3z" fill="#2C0D17"/>
<path transform="translate(372,287)" d="m0 0 2 3 3 18v8h-2l-2-12z" fill="#3A101D"/>
<path transform="translate(437,209)" d="m0 0 5 1 2 1 1-2 3 5-1 4-4-1-7-5z" fill="#A4465C"/>
<path transform="translate(539,771)" d="m0 0h4l2 12v9l-2-3-2-2-1-8z" fill="#A9A397"/>
<path transform="translate(347,709)" d="m0 0 2 1v2l5-2 4 1-2 4-2 1h-6l-4-2 1-3h2z" fill="#A4465C"/>
<path transform="translate(400,657)" d="m0 0 4 1-13 4-9 1h-11v-1l8-2 17-2z" fill="#481423"/>
<path transform="translate(387,475)" d="m0 0 3 1-9 17-2 6h-3l2-7z" fill="#151415"/>
<path transform="translate(547,450)" d="m0 0 5 1 3 2v2l5 2 2 2-6-1-8-4v8l-2-4v-6z" fill="#A4455B"/>
<path transform="translate(587,152)" d="m0 0h6l1 8h-5l-3-3-5 1v-2z" fill="#A83154"/>
<path transform="translate(378,703)" d="m0 0 3 1-2 2-10 4-12 7-3-2 6-4z" fill="#451724"/>
<path transform="translate(285,30)" d="m0 0h2v4l-3-1-13 5-12 5-4-1 25-10z" fill="#3E3B35"/>
<path transform="translate(423,614)" d="m0 0h5l-1 5-5 8h-2l1-7-4-2 2-2 4 1v3l1-3z" fill="#B4AB9D"/>
<path transform="translate(708,554)" d="m0 0 8 1h18l5-1-1 2-5 2h-20v-2l-5-1z" fill="#2A0C16"/>
<path transform="translate(331,429)" d="m0 0 3 1-12 16-3 5-2-1 2-4 4-6z" fill="#151415"/>
<path transform="translate(442,191)" d="m0 0 6 2 10 4 9 5-4 2-21-12z" fill="#371620"/>
<path transform="translate(162,712)" d="m0 0 1 4-2 5-2 10-3 7-1-4 1-8z" fill="#30171F"/>
<path transform="translate(754,560)" d="m0 0 3 1v3h-4l-1 2-6-1-1 2-2-1-1 2-5-1 5-4z" fill="#988F78"/>
<path transform="translate(772,523)" d="m0 0h3v8l-1 5-4 1v-7h-2l2-4z" fill="#BCB5A9"/>
<path transform="translate(532,285)" d="m0 0h2l5 22v4h-2l-3-11-2-10z" fill="#431321"/>
<path transform="translate(430,210)" d="m0 0 6 1 7 5-1 3 2 2-4-1-10-8z" fill="#260B14"/>
<path transform="translate(595,36)" d="m0 0 6 1 11 5-1 3-9-3-7-3z" fill="#1A1817"/>
<path transform="translate(508,593)" d="m0 0 1 4-3 11-3 7h-7l3-1v-2l3-3z" fill="#24141A"/>
<path transform="translate(754,491)" d="m0 0 4 1 8 12-3 1-1 2-6-10z" fill="#CDC6BD"/>
<path transform="translate(718,493)" d="m0 0 7 2 1-1 1 4-3 3-5-1-6-4 3-1 2 1z" fill="#DD9DA4"/>
<path transform="translate(384,461)" d="m0 0 3 4 1 10-2 2-2-5v-4h-2l-1-5z" fill="#B5ADA1"/>
<path transform="translate(320,448)" d="m0 0 1 3v3l2 9h2v2l2 1-4-1-7-7 1-5z" fill="#C3BBB0"/>
<path transform="translate(203,239)" d="m0 0 1 3-1 7 3 5 5-1-3 3h-6l-2-2v-9l2-5z" fill="#252526"/>
<path transform="translate(505,163)" d="m0 0 7 1 11 2 2 2-11 1-2 1v-2h-2v-3l-5-1z" fill="#AAA293"/>
<path transform="translate(751,541)" d="m0 0 1 3-9 8-4 2-4-1 3-3 1-2h4v-2l3-1 5-2z" fill="#A3445B"/>
<path transform="translate(576,414)" d="m0 0 9 1 15 5 5 2-4 1-7-1-8-4-10-3z" fill="#DCA0A5"/>
<path transform="translate(702,408)" d="m0 0 2 3 5 1 1 4-2 1-1 19h-1l-1-22-3 1-1-4z" fill="#9C937F"/>
<path transform="translate(660,283)" d="m0 0h2l1 5h-2l2 7 1 2-2 1 1 7-3-1-1-3-2-2h2v-14z" fill="#9A917B"/>
<path transform="translate(375,847)" d="m0 0 3 4 2 2 3 1v1l5 1v1l-15-1 1-8z" fill="#597FBF"/>
<path transform="translate(497,835)" d="m0 0 1 3-10 14-2 3-1-2 3-5 1-7 6-3z" fill="#6A8EC9"/>
<path transform="translate(521,799)" d="m0 0 1 2-6 10-4 4-2-2 3-1-3-3 8-7z" fill="#7492C1"/>
<path transform="translate(455,624)" d="m0 0 3 1-8 3-15 5v-2l-8 1 3-2 10-2z" fill="#9A3251"/>
<path transform="translate(651,430)" d="m0 0 9 3 11 6-3 1-10-5-3-1-1 3-6-3v-2l4 1z" fill="#9A3251"/>
<path transform="translate(643,807)" d="m0 0 1 3-20 10-1-3 16-8z" fill="#26231F"/>
<path transform="translate(514,679)" d="m0 0 3 2v2l-14 7 1-6 7-1v-2z" fill="#CBC6BE"/>
<path transform="translate(530,610)" d="m0 0 5 1v2l7 2v1h-12l-9-1v-1l8-1z" fill="#AEA697"/>
<path transform="translate(326,551)" d="m0 0 5 1 21 9 1 2-6-1-18-8z" fill="#240F17"/>
<path transform="translate(362,10)" d="m0 0h9v3l-16 2v-3z" fill="#1B1919"/>
<path transform="translate(587,648)" d="m0 0 2 1-3 5-10 1v-4l1-1z" fill="#B9AEA0"/>
<path transform="translate(436,400)" d="m0 0h15l6 2-3 1h-18l8 2v1l-10-1-3-3z" fill="#9A3251"/>
<path transform="translate(222,197)" d="m0 0 3 1-6 9-5 5-1-4 8-10z" fill="#181718"/>
<path transform="translate(344,800)" d="m0 0 7 1-4 2-11 6-2-2 6-6z" fill="#271119"/>
<path transform="translate(571,607)" d="m0 0 1 4v2l3 1-1 3-3 1h-9l4-2z" fill="#0E0C0D"/>
<path transform="translate(327,581)" d="m0 0h3v2h5v4h-2l1 3-1 2h-2l-4-7z" fill="#D2CCC4"/>
<path transform="translate(349,418)" d="m0 0h7l1 5-6-1-1 4-3-1 1-5-2-1z" fill="#CBBFB1"/>
<path transform="translate(657,249)" d="m0 0h4l-2 4-12 5v-4z" fill="#131213"/>
<path transform="translate(498,848)" d="m0 0h4l5 6-13 2 2-5zm3 2m-1 1m-2 1v2l3-1z" fill="#AEA697"/>
<path transform="translate(375,806)" d="m0 0 2 1v24l-2 1-1-16v-3h1z" fill="#2B2125"/>
<path transform="translate(362,568)" d="m0 0 3 2-4 15v6l-4 2 3-14z" fill="#1E1E1F"/>
<path transform="translate(629,269)" d="m0 0h7l3 3 1 5-3 1v-2h-4l-2-4-3-2z" fill="#BCB3A7"/>
<path transform="translate(825,254)" d="m0 0 4 2 6 14-1 4-7-14z" fill="#1C1A19"/>
<path transform="translate(195,79)" d="m0 0 2 1-15 11-2-1 1-5h4 2v-2z" fill="#252424"/>
<path transform="translate(274,384)" d="m0 0h1v5l3-1-2 16-3-4v-9z" fill="#33121D"/>
<path transform="translate(666,339)" d="m0 0 4 1v19l-2-1-1-17-2-1z" fill="#ADA79C"/>
<path transform="translate(507,853)" d="m0 0h6l2 3-16 2v-2l-2-1z" fill="#1D1B1A"/>
<path transform="translate(497,672)" d="m0 0 2 2-5 2h3v2h-4v3l-6-1 1-3 3-1-1-3z" fill="#C6B9AC"/>
<path transform="translate(539,584)" d="m0 0h5l-4 5-1 3-4-2-1-1-7-1 1-2h11z" fill="#D5CABC"/>
<path transform="translate(423,585)" d="m0 0h9l4 1-1 5-8-2v-2h-4z" fill="#CDC5BA"/>
<path transform="translate(294,433)" d="m0 0h2l1 8-1 7-3-3 1-6h-2v-5z" fill="#A5485D"/>
<path transform="translate(555,227)" d="m0 0 2 1-6 10-2 5h-2v-6l2-5h3l2-4z" fill="#1C1015"/>
<path transform="translate(263,42)" d="m0 0 3 1-19 9-3-1 9-6v-2h4v2z" fill="#252526"/>
<path transform="translate(157,639)" d="m0 0v3h5l-2 2-7 3-5 3-2-1 6-7z" fill="#210E16"/>
<path transform="translate(361,597)" d="m0 0h2v3l4-2 2 3-1 5-4-1v-4h-4v7h-1v-8h2z" fill="#C7BBA7"/>
<path transform="translate(243,460)" d="m0 0 5 5 8 14v2h-2l-7-12-4-7z" fill="#A3445A"/>
<path transform="translate(576,397)" d="m0 0h3v3l5 1 6 3-1 2-16-6-2-2z" fill="#280C16"/>
<path transform="translate(466,6)" d="m0 0h10l9 1-1 2h-17z" fill="#191717"/>
<path transform="translate(826,612)" d="m0 0 1 4-7 13h-2l3-9z" fill="#121111"/>
<path transform="translate(681,445)" d="m0 0 5 2 6 4v1h-5l-1 3-5-3 1-3v-2z" fill="#9A3251"/>
<path transform="translate(351,422)" d="m0 0h2v6l-1 2-5 2h-4l1-4 2 1 2-4h2z" fill="#D5CBBE"/>
<path transform="translate(702,768)" d="m0 0 1 3-14 10-2-2 13-10z" fill="#1E1B1A"/>
<path transform="translate(269,760)" d="m0 0h1l1 18-1 4-3 1 1-10z" fill="#2C141C"/>
<path transform="translate(360,601)" d="m0 0h4v4h3l-1 4-4 1-2 2z" fill="#D4CEC6"/>
<path transform="translate(859,508)" d="m0 0h1v7l-3 10-2 1 1-10 2-7z" fill="#171515"/>
<path transform="translate(321,448)" d="m0 0 6 4v5l-5 2-1-5-2-1z" fill="#D4C7B6"/>
<path transform="translate(585,833)" d="m0 0h5l-1 2-18 6v-3z" fill="#141313"/>
<path transform="translate(221,715)" d="m0 0 6 5-1 2-6 1v-3h-3l1-4z" fill="#567FC4"/>
<path transform="translate(531,680)" d="m0 0h2v2l-5 1v3l-3 1-1 2h-4l2-5 5-3z" fill="#BAB1A4"/>
<path transform="translate(468,407)" d="m0 0 9 2 8 4 1 2-11-3-8-2z" fill="#451322"/>
<path transform="translate(365,231)" d="m0 0 1 4-3 9h-2l-1-3 2-9z" fill="#17080D"/>
<path transform="translate(216,803)" d="m0 0 5 1 8 4-1 4-11-6z" fill="#201316"/>
<path transform="translate(471,589)" d="m0 0h7l-2 6-2 1-3-1-2-5z" fill="#D5CABB"/>
<path transform="translate(768,530)" d="m0 0h2v8l-1 2h-2l-1-2h-2l1-7z" fill="#B1ACA2"/>
<path transform="translate(598,479)" d="m0 0 5 2 5 5 1 3-5-2-7-5z" fill="#A4465B"/>
<path transform="translate(667,452)" d="m0 0 5 1 8 4v2l-3 1-2-1v-2l-3 1-5-3z" fill="#D7C1BF"/>
<path transform="translate(335,433)" d="m0 0 3 1v2h2l-1 9-5-4z" fill="#D5CCBF"/>
<path transform="translate(277,390)" d="m0 0h1v16l-1 2h-2l-2-5 1-3 1 2z" fill="#9A3251"/>
<path transform="translate(285,356)" d="m0 0h3l-1 5-2 3h-2l-2 5-1-3 3-7z" fill="#11070B"/>
<path transform="translate(482,213)" d="m0 0 4 2 10 7-2 1-7-3-6-4z" fill="#2D181F"/>
<path transform="translate(532,17)" d="m0 0h7l9 3 2 2h-9l-3-1v-2l-6-1z" fill="#151413"/>
<path transform="translate(499,609)" d="m0 0h3l-1 3h-2v2l-12 2h-6l4-2 8-2 6-2z" fill="#988072"/>
<path transform="translate(264,494)" d="m0 0 6 3 3 9-1 3-8-12z" fill="#A75162"/>
<path transform="translate(440,471)" d="m0 0 7 2 9 4 4 2-5 1-15-7z" fill="#2C1019"/>
<path transform="translate(448,156)" d="m0 0h23v1l-13 1-9 2z" fill="#46413A"/>
<path transform="translate(433,845)" d="m0 0 2 2-5 7h-2l-2 5-3 1 1-4z" fill="#261319"/>
<path transform="translate(491,588)" d="m0 0h18l-1 8h-2l-2-6-13-1z" fill="#B3AB9B"/>
<path transform="translate(672,376)" d="m0 0 5 2 6 5 5 6-1 3-7-8-8-6z" fill="#B2A897"/>
<path transform="translate(265,338)" d="m0 0 4 2-6 11h-2l1-6z" fill="#2D0C17"/>
<path transform="translate(613,175)" d="m0 0 4 1-6 7-4-2-2-2z" fill="#AEA79A"/>
<path transform="translate(452,5)" d="m0 0h13l1 3h-13z" fill="#201F1E"/>
<path transform="translate(300,589)" d="m0 0 4 5v14h-1l-1-5v-9h-2l-1 3-1-3z" fill="#9A3251"/>
<path transform="translate(368,533)" d="m0 0 6 2-2 1 1 5 1 6-2 2z" fill="#9D8C7B"/>
<path transform="translate(376,211)" d="m0 0h4l-1 4-4 4h-2l-1-5z" fill="#10090B"/>
<path transform="translate(178,87)" d="m0 0h2l1 3-4 4-6 1 4-6z" fill="#131111"/>
<path transform="translate(536,775)" d="m0 0h1v13l3-1-1 4-3 3-3 4 1-6 1-2z" fill="#ABA291"/>
<path transform="translate(513,694)" d="m0 0 4 1-5 1v2l3 1-7 4-4-2 4-3h3v-3z" fill="#B0ACA2"/>
<path transform="translate(123,665)" d="m0 0 2 2-10 7-4-1-3-2 8-2z" fill="#301B22"/>
<path transform="translate(519,608)" d="m0 0h8v4h-5l-2-1-1 2 2 1h-8l5-4z" fill="#B4AB9C"/>
<path transform="translate(830,601)" d="m0 0h3l-3 9-3 4-2-1 2-6z" fill="#24211E"/>
<path transform="translate(535,584)" d="m0 0h4v2l-7 1-4 1-1 3h-2v-3l-8-1v-1z" fill="#BDB4A6"/>
<path transform="translate(685,541)" d="m0 0 7 2v2l6 1 5 3v1l-7-1-11-7z" fill="#A3445A"/>
<path transform="translate(857,522)" d="m0 0 1 4-3 13-3-1 2-11z" fill="#252220"/>
<path transform="translate(266,782)" d="m0 0h3l-2 6-5 12h-1l1-7z" fill="#331E24"/>
<path transform="translate(337,654)" d="m0 0 9 3 3 2v2l-6-1-7-3z" fill="#2F101A"/>
<path transform="translate(165,649)" d="m0 0h2l2 4 5 4 1 3 1 6-4-5-4-6-3-4z" fill="#320E1A"/>
<path transform="translate(490,589)" d="m0 0h8l-1 4-5 2-2-2z" fill="#D4CDC2"/>
<path transform="translate(758,544)" d="m0 0 3 1-1 5-5 3-2-1v-3z" fill="#A49C8D"/>
<path transform="translate(372,471)" d="m0 0 7 1 4 2-1 2h-3l1 3-4-2v-2l-5-1z" fill="#BDB5A9"/>
<path transform="translate(519,231)" d="m0 0h1l1 9-3 1-6-4-3-5 4 2 6 4z" fill="#2D2024"/>
<path transform="translate(445,834)" d="m0 0 2 1-7 8-3 3h-3v-2h2v-2l8-7z" fill="#2A151C"/>
<path transform="translate(256,745)" d="m0 0 5 1 2 3v3l-5-1-3-3z" fill="#AD5568"/>
<path transform="translate(495,699)" d="m0 0h6v3l-9 3-2-4z" fill="#C6BAAA"/>
<path transform="translate(310,628)" d="m0 0 4 5 3 4-1 3-5-5-3-4 1-2z" fill="#350F1B"/>
<path transform="translate(269,610)" d="m0 0h2v6l-1 2h-2v2l-4 2 1-4z" fill="#A4465B"/>
<path transform="translate(300,594)" d="m0 0h2l1 17-3-4z" fill="#360F1B"/>
<path transform="translate(523,590)" d="m0 0 3 1-4 5-4 3-5-2 4-3h2z" fill="#D5C8B5"/>
<path transform="translate(643,513)" d="m0 0 5 1 2 1v2h3v2l3 1 1 3-5-2-9-7z" fill="#A3445B"/>
<path transform="translate(446,477)" d="m0 0 6 1-1 4 4 3h-4l-3-2v-2h-2z" fill="#BAB3A6"/>
<path transform="translate(301,161)" d="m0 0 5 1 1 7-1 5-2-4z" fill="#A29A8A"/>
<path transform="translate(303,835)" d="m0 0h1v6l-6-1-6-2v-2l8 1z" fill="#0C0A0B"/>
<path transform="translate(484,829)" d="m0 0 3 3v14h-2z" fill="#080506"/>
<path transform="translate(183,776)" d="m0 0h4v8l-7-4-1-3z" fill="#170D12"/>
<path transform="translate(519,686)" d="m0 0 2 1-1 2h3l-1 3-6 1-3-2z" fill="#A6A093"/>
<path transform="translate(487,685)" d="m0 0h2l2 5h4l2 1v2l-7 2z" fill="#B8B1A4"/>
<path transform="translate(617,435)" d="m0 0 4 2 5 2 1 4-9-3z" fill="#D5BAAF"/>
<path transform="translate(316,391)" d="m0 0v3l-8 13-1-2 4-9z" fill="#511728"/>
<path transform="translate(222,310)" d="m0 0h2l-4 18-2-4 3-13z" fill="#A2495C"/>
<path transform="translate(300,315)" d="m0 0h5l-2 2-13 4-2-1-1-2z" fill="#481423"/>
<path transform="translate(642,294)" d="m0 0h4l-1 8h-3l-2-7z" fill="#D4CEC7"/>
<path transform="translate(656,291)" d="m0 0 3 3 1 3-1 2h-2l-2 2-1-9z" fill="#B1ABA0"/>
<path transform="translate(597,828)" d="m0 0 5 1-2 2-10 3-3-2z" fill="#211F1E"/>
<path transform="translate(670,790)" d="m0 0 2 1-5 5-7 4 2-5z" fill="#171515"/>
<path transform="translate(329,707)" d="m0 0 9 3 8 4-4 1-6-3-6-1z" fill="#481624"/>
<path transform="translate(523,690)" d="m0 0m-3 1 2 1v3l-4 3h-6v-2l5-1v-2h3z" fill="#BEB5A9"/>
<path transform="translate(107,676)" d="m0 0h4v10l1 5-3-3-2-7z" fill="#A04F5D"/>
<path transform="translate(66,656)" d="m0 0 4 1 5 9-1 3-6-7z" fill="#252526"/>
<path transform="translate(314,559)" d="m0 0 3 3v3h2l2 7 1 3h-2l-6-12z" fill="#4F1B29"/>
<path transform="translate(452,514)" d="m0 0 2 1-5 15-4 1 2-5z" fill="#1F1F20"/>
<path transform="translate(705,437)" d="m0 0 1 4v4h-2l2 5h-4l1-8-1-3z" fill="#9C937F"/>
<path transform="translate(695,397)" d="m0 0 6 5 1 2v7h-1l-1-5h-2v-2l-3 1z" fill="#B1ACA1"/>
<path transform="translate(579,398)" d="m0 0 9 2 6 2v2h-6l-9-4z" fill="#0E0C0D"/>
<path transform="translate(656,304)" d="m0 0 4 4 2 1-1 3h-2l1 12-2-3z" fill="#9F9785"/>
<path transform="translate(665,273)" d="m0 0 3 1v2l-10 2-5-1 3-2z" fill="#1B1A1B"/>
<path transform="translate(602,174)" d="m0 0 2 1-2 3-10 4-4-1z" fill="#280B15"/>
<path transform="translate(498,702)" d="m0 0h9v2h-5l-1 2-5 1v-2l-3-1z" fill="#A29988"/>
<path transform="translate(836,589)" d="m0 0 1 4-3 8h-3l1-5 3-6z" fill="#1A1616"/>
<path transform="translate(373,575)" d="m0 0 5 1 4 3-3 1v3l-2-1 1-2h-2v-2l-3 1z" fill="#BEB6AA"/>
<path transform="translate(368,535)" d="m0 0 2 4 3 10-1 4-5-12z" fill="#2B0E18"/>
<path transform="translate(301,506)" d="m0 0 2 1 1 8 1 1v11l-2-4z" fill="#4D1626"/>
<path transform="translate(590,426)" d="m0 0h7l9 6-2 1-14-6z" fill="#DA9FA4"/>
<path transform="translate(219,399)" d="m0 0 1 3 2 1 1 6v5l-3-2-1-5z" fill="#A24F5E"/>
<path transform="translate(852,330)" d="m0 0 2 4v3l3 1 1 7-3 1-3-11z" fill="#232222"/>
<path transform="translate(630,300)" d="m0 0h2l2 9v4l-4-1z" fill="#252526"/>
<path transform="translate(325,236)" d="m0 0h7l7 3-4 1-6-1-2 1-2-1z" fill="#9A3251"/>
<path transform="translate(244,183)" d="m0 0h7l3 4v8l-2 6-1-4 1-8-3-4-5-1z" fill="#252526"/>
<path transform="translate(520,848)" d="m0 0 7 1v2l-5 1h-8v-2h6z" fill="#958C74"/>
<path transform="translate(510,674)" d="m0 0 6 2 1 5-5-1h-3z" fill="#C9BDB0"/>
<path transform="translate(431,606)" d="m0 0 1 4-3 11-4 1 3-9z" fill="#151415"/>
<path transform="translate(767,509)" d="m0 0 4 3 1 7-2-1-1 3-2-2z" fill="#D2CAC1"/>
<path transform="translate(663,338)" d="m0 0 3 2 2 6v6l-2-3v-2h-3v-2l1-1-2-4z" fill="#A19886"/>
<path transform="translate(678,274)" d="m0 0h2l-2 4h-7l-4-2 2-1z" fill="#ABA497"/>
<path transform="translate(615,248)" d="m0 0 5 1-1 4h-3l-1 3-2-6z" fill="#B9AC9C"/>
<path transform="translate(627,229)" d="m0 0 4 1 1 3 3 2-5 3h-2l-1-3h2z" fill="#99907A"/>
<path transform="translate(506,194)" d="m0 0 3 1 3 6-1 3-5-5-1-4z" fill="#461F27"/>
<path transform="translate(403,169)" d="m0 0 6 1 2 3h-8l-5-2v-1z" fill="#1C0D12"/>
<path transform="translate(485,160)" d="m0 0 12 1 7 1v1h-9l-6-1-1 3-3-3z" fill="#A49A87"/>
<path transform="translate(218,64)" d="m0 0 3 1-14 9h-2v-2z" fill="#252526"/>
<path transform="translate(209,753)" d="m0 0h2l-1 4-6 5h-2l2-4z" fill="#201016"/>
<path transform="translate(722,751)" d="m0 0m-1 1 1 3-9 8v-3l6-7z" fill="#1E1C19"/>
<path transform="translate(451,673)" d="m0 0 2 1-8 5-6 3 1-4z" fill="#2E121B"/>
<path transform="translate(631,582)" d="m0 0 2 2 3-1-1 4h-2l-1 3-3 2 1-7z" fill="#9C927E"/>
<path transform="translate(541,583)" d="m0 0h6l2 4-4 2h-4l1-4z" fill="#CDC1AF"/>
<path transform="translate(281,528)" d="m0 0 2 2 2 5v9l-2-2-2-8z" fill="#A24A5C"/>
<path transform="translate(367,496)" d="m0 0h8v5l-5-1-3-2z" fill="#C7C1B5"/>
<path transform="translate(408,449)" d="m0 0h6l3 7-4-1-5-4z" fill="#B05C6C"/>
<path transform="translate(642,429)" d="m0 0 9 1 1 3-6 1-2-2h-3z" fill="#A23153"/>
<path transform="translate(277,377)" d="m0 0h1v11l-3 1v-10h2z" fill="#0E0609"/>
<path transform="translate(856,345)" d="m0 0h2l2 7v8l-2-4v-4h-2z" fill="#151414"/>
<path transform="translate(845,303)" d="m0 0h2l3 10h-2l-1 2-2-7z" fill="#1F1D1B"/>
<path transform="translate(835,272)" d="m0 0 2 3 3 7v5l-2-1-4-10z" fill="#211F1D"/>
<path transform="translate(212,210)" d="m0 0 3 1-1 4-2 4h-2l-1-3-2-2 3-1z" fill="#242324"/>
<path transform="translate(499,10)" d="m0 0 13 1v2h-11l-2-1z" fill="#1D1B19"/>
<path transform="translate(532,756)" d="m0 0 4 1 3 5v5l-4-4z" fill="#CDC4B8"/>
<path transform="translate(128,730)" d="m0 0 4 4 7 9-2 1-5-5-4-7z" fill="#2B0C16"/>
<path transform="translate(154,732)" d="m0 0 2 2-2 9-2 3-1-5z" fill="#3D1923"/>
<path transform="translate(599,649)" d="m0 0h3l-2 6-5-1-1-3z" fill="#988F77"/>
<path transform="translate(305,532)" d="m0 0h2l3 10-2 3-3-8z" fill="#36101C"/>
<path transform="translate(458,501)" d="m0 0 3 1-7 12-1-3z" fill="#141213"/>
<path transform="translate(468,501)" d="m0 0 3 1-3 5-5-2v-3z" fill="#D5C8B5"/>
<path transform="translate(700,482)" d="m0 0 4 2 1 4h-5l-3-5z" fill="#D6C6C1"/>
<path transform="translate(405,461)" d="m0 0 3 1 1 4-2 6-4-2 1-2h2z" fill="#D4C8B6"/>
<path transform="translate(407,459)" d="m0 0h6v4l-4 2v-2l-6-2z" fill="#C3B5A6"/>
<path transform="translate(672,443)" d="m0 0h7l3 3-1 2-9-3z" fill="#A4465C"/>
<path transform="translate(496,387)" d="m0 0 12 4 1 3-9-3-5-2z" fill="#370F1C"/>
<path transform="translate(341,382)" d="m0 0 5 1 1 3 4 2-2 2-9-6z" fill="#9A3151"/>
<path transform="translate(539,309)" d="m0 0 2 4 1 10h-2l-2-6v-6z" fill="#613239"/>
<path transform="translate(328,238)" d="m0 0 12 2-1 4-6-2-5-3z" fill="#2A1119"/>
<path transform="translate(641,161)" d="m0 0h6l-5 5h-4l1-4z" fill="#B1ABA0"/>
<path transform="translate(357,854)" d="m0 0h8l4 2v1h-10l-2-1z" fill="#180E10"/>
<path transform="translate(310,828)" d="m0 0 3 1-7 8-2 2v-6z" fill="#1F1116"/>
<path transform="translate(332,711)" d="m0 0 10 5-3 1v2h-3l-2-3v-3h-2z" fill="#AEA396"/>
<path transform="translate(767,706)" d="m0 0 1 2-7 8h-3l6-8z" fill="#231F1C"/>
<path transform="translate(182,677)" d="m0 0 4 2-4 7h-3z" fill="#597FBD"/>
<path transform="translate(368,627)" d="m0 0 10 1v3h-7l-3-3z" fill="#D5CBBC"/>
<path transform="translate(635,597)" d="m0 0h1l-1 10-1 2h-2v-6z" fill="#BBB3A8"/>
<path transform="translate(599,591)" d="m0 0 1 3-4 6-4 1 2-5z" fill="#100E0F"/>
<path transform="translate(573,577)" d="m0 0h6l-2 10h-1v-7l-7-1z" fill="#B9B2A6"/>
<path transform="translate(445,524)" d="m0 0h3l-2 5-2 3h-5l2-1v-2h2v-3h2z" fill="#A7A08F"/>
<path transform="translate(735,471)" d="m0 0 5 2 2 1v3h2l-1 3-7-6z" fill="#ACA290"/>
<path transform="translate(368,268)" d="m0 0 2 4 2 8-4 2 1-7h-2v-4l-2-1h3z" fill="#3C1420"/>
<path transform="translate(364,240)" d="m0 0h1l1 16h-2l-1 3-1-7-1-2h3z" fill="#561A2C"/>
<path transform="translate(636,164)" d="m0 0h2l-1 4-3 2-4-1 1-3z" fill="#AEA89C"/>
<path transform="translate(121,138)" d="m0 0 2 1-3 4-2 2-5 4-2-1 6-7z" fill="#141111"/>
<path transform="translate(487,832)" d="m0 0h1l1 8-1 9-3 4 1-7z" fill="#252526"/>
<path transform="translate(545,784)" d="m0 0 2 3v8l1 2-5 1v-5l1-1z" fill="#958C74"/>
<path transform="translate(674,785)" d="m0 0 1 3-11 7-4-1 12-7h2z" fill="#938A71"/>
<path transform="translate(226,744)" d="m0 0 3 1-4 3-9 6-2-1 10-8z" fill="#9A3251"/>
<path transform="translate(491,707)" d="m0 0 5 3 4 4-3 2-6-7z" fill="#B9AE9F"/>
<path transform="translate(132,657)" d="m0 0 2 1-1 3-6 5h-3l1-3z" fill="#221218"/>
<path transform="translate(330,592)" d="m0 0h2l4 7v4h-2l-4-7z" fill="#3A131E"/>
<path transform="translate(579,579)" d="m0 0 1 2-2 10-3 1 2-12z" fill="#171617"/>
<path transform="translate(646,544)" d="m0 0h1v7l-5 1 1-5z" fill="#BFB6AA"/>
<path transform="translate(412,454)" d="m0 0 9 6v2l-4-1-6-3z" fill="#250D16"/>
<path transform="translate(603,407)" d="m0 0 8 1 5 2-1 2h-5l-7-4z" fill="#0E0B0C"/>
<path transform="translate(634,241)" d="m0 0h2v7l1 5h-2l-3-7v-4z" fill="#C4BDB2"/>
<path transform="translate(597,200)" d="m0 0 6 2 6 3 1 4-4-3-4-1z" fill="#99917B"/>
<path transform="translate(308,180)" d="m0 0 6 1-4 4-3 1-1-5z" fill="#C0BAAF"/>
<path transform="translate(528,15)" d="m0 0 7 1 3 4-15-3v-1z" fill="#272524"/>
<path transform="translate(327,847)" d="m0 0 8 1-1 3-8-1-4-2z" fill="#392829"/>
<path transform="translate(258,809)" d="m0 0h3l-1 5-2 3v2h-3z" fill="#5A82C4"/>
<path transform="translate(543,779)" d="m0 0 2 4v9l-2-3-2-2 1-6z" fill="#A29988"/>
<path transform="translate(838,581)" d="m0 0h3l-3 10-3-1z" fill="#24221E"/>
<path transform="translate(635,560)" d="m0 0h1v6h2l1 3-5 1v5h-1v-6l1-1z" fill="#90866C"/>
<path transform="translate(644,563)" d="m0 0h2v3h4v2l-5 1-1 6h-1v-11z" fill="#988F78"/>
<path transform="translate(853,537)" d="m0 0h1l-1 9-3 3 1-10z" fill="#151414"/>
<path transform="translate(300,426)" d="m0 0h1v12l1 2h-5z" fill="#411220"/>
<path transform="translate(401,378)" d="m0 0 9 1v2l-6 1-4-1z" fill="#A64A5E"/>
<path transform="translate(661,346)" d="m0 0h1v15h3l-2 4-2-1z" fill="#8E8369"/>
<path transform="translate(848,313)" d="m0 0h2l2 5v6l-1-2h-2z" fill="#151414"/>
<path transform="translate(335,285)" d="m0 0h15v1l-6 1v1l-8-1z" fill="#280B15"/>
<path transform="translate(639,251)" d="m0 0 3 2 4 1-5 3-4-1z" fill="#988F78"/>
<path transform="translate(85,181)" d="m0 0 1 2-4 6h-3l-1 3-2-1 4-6z" fill="#0B090A"/>
<path transform="translate(665,149)" d="m0 0 4 1-10 5-4 1 1-3z" fill="#A8A296"/>
<path transform="translate(174,94)" d="m0 0 2 1-10 8-2-1 7-7z" fill="#252526"/>
<path transform="translate(603,39)" d="m0 0 5 1 4 3-1 2-9-3z" fill="#292623"/>
<path transform="translate(291,28)" d="m0 0 3 1 2 2-6 2-4-1 2-3z" fill="#1B1A18"/>
<path transform="translate(514,852)" d="m0 0h9l-3 3h-8z" fill="#131111"/>
<path transform="translate(484,834)" d="m0 0h1l1 14-3 5-1-2 1-4z" fill="#2D141C"/>
<path transform="translate(374,844)" d="m0 0 1 3-2 4-1-2-2 6h-2l2-7z" fill="#391B24"/>
<path transform="translate(293,838)" d="m0 0 5 1 8 3v2l-11-3-2-1z" fill="#34332F"/>
<path transform="translate(364,709)" d="m0 0 2 1zm-1 1m-3 1h3l-1 3-6 3-2-2z" fill="#4C1626"/>
<path transform="translate(62,652)" d="m0 0 5 5 1 5h-2l-4-6z" fill="#151312"/>
<path transform="translate(429,624)" d="m0 0 9 1-1 3h-8z" fill="#C6B4A5"/>
<path transform="translate(490,615)" d="m0 0h7l-4 6-1-3-3 1v-3z" fill="#8A2C48"/>
<path transform="translate(509,607)" d="m0 0v3l-1 2 4 2h-8l1-6h3z" fill="#B0A08F"/>
<path transform="translate(366,578)" d="m0 0h5v6l-1 2-5-2 3-3z" fill="#D5C8B5"/>
<path transform="translate(537,535)" d="m0 0 8 2 1 2h-10z" fill="#A19A8A"/>
<path transform="translate(662,526)" d="m0 0 5 2 8 6-2 1-11-7z" fill="#A2435A"/>
<path transform="translate(646,527)" d="m0 0 4 1-1 17h-1l-1-14z" fill="#A49C8D"/>
<path transform="translate(468,494)" d="m0 0h4l-1 3h-3l-2 4h-3l2-4z" fill="#D4C7B5"/>
<path transform="translate(387,475)" d="m0 0 3 1-6 10-1-3z" fill="#111011"/>
<path transform="translate(696,442)" d="m0 0 4 1 1 5-5-1z" fill="#C8C2B9"/>
<path transform="translate(547,383)" d="m0 0 2 2 1 6h-5v-5z" fill="#30101B"/>
<path transform="translate(661,364)" d="m0 0 3 1v6h-3l-1-1v-5z" fill="#ACA595"/>
<path transform="translate(639,282)" d="m0 0 4 1 1 4h-2l-1 2-1-4-8-1v-1z" fill="#ADA493"/>
<path transform="translate(650,280)" d="m0 0h5l-1 5-2 3-2-5z" fill="#B0A89B"/>
<path transform="translate(630,263)" d="m0 0 5 1 3 6-1 2-1-3-5-1 1-3z" fill="#A9A191"/>
<path transform="translate(364,256)" d="m0 0h2l2 10-4-1z" fill="#1E0A11"/>
<path transform="translate(284,32)" d="m0 0 1 3-9 4-2-1 5-4z" fill="#131213"/>
</svg>
