<?xml version="1.0" encoding="UTF-8"?>
<svg version="1.1" viewBox="0 0 2048 1507" width="1001" height="737" xmlns="http://www.w3.org/2000/svg">
<path transform="translate(428,23)" d="m0 0 10 2 7 4 6 10 3 9 10 19 4 9 5 8 6 12 10 13 12 17 9 15 8 10 11 12 12 10 6-1 15-6 10-5 41-15 49-16 37-8 25-7 10-2 26-5 16-2 54-9 30-4 19-2 21-2 15-2h21l3-1h13l7 1 12 1 8 3 7 1 9 7 7 11 7 14 9 28 6 25 6 31 1 12 1 2 1 15v33l-1 31-4 32-4 24-4 16-7 23-3 8-2 7-3 8-6 15-3 4-6 12-7 10-11 13-8 10-41 41 15 6 17 7 11 6 8 2 14 3 27 8 23 5 13 4 26 6 29 4h6l3 1h6l5 2 7 1 2 3-1 9-9 17-7 10-5 12-4 17-4 7-6 1-7-3v-2h-9l-5-2-43-7-23-5-17-5-11-3 9 20 10 22 3 7 12 7 5 4 2 5 2 9 5 15 4 9 2 14 2 11v14l-1 21-3 29-6 21-8 18-9 15-11 14-11 12v9l-1 5 1 3 1 9 2 6v10l-3 8-4 5-9 4-4 4-14 5-5 5-6 13-12 34-9 31-2 5-7 28 13 8 9 7 8 9 12-4 7-2 15-2h30l17 3 20 5 28 10 12 7 9 6 23-10 9-5 1-7 2-2 1-5 3-5 6-11 7-7 5-6-3-6-5-17-8-23-3-12-3-15-3-8-2-4-2-13-2-7-9-4-7-2-10-7-5-4-2-13-1-4 3-15 3-23v-9l-1-6-2-6-10-18-12-34-6-20-5-24v-30l6-30 5-16 6-16 4-7 16-8 7-1 5-15 5-11 3-7 13-24 3-7 7-11 8-11 1-2-11-1-40-8-13-2-2-1h-9l-13-1-3-2-16-3-2-2 1-4 2-4 7-2 22-3 26-5 15-3 34-7 8-3-8-11-8-13-8-16-7-19-12-35-1-7-3-14v-8l-1-4v-8l1-2-8-7-8-9-7-6-6-10-4-11-6-9-5-12-2-9v-11l-1-13 5-21 5-12 8-16 10-11 4-1 2-6 15-7h2l2-4 4-1 7-3 7-2 5-2 8-1 1-6 6-16 11-27 6-15 7-17 12-20 9-13 3-3 9-11 8-7 9-2 35 1 44 7 57 11 36 9 3 2 8 1 29 9 41 14 16 7 21 8 14 6 27 12 19 10 12-12 2-3h2l2-4 26-24 10-8 16-12 23-14 12-8 13-8 15-9 8-5 11-4 14-2 8-1 9 1 8 2 11 7 9 8 8 7 14 19 10 19 9 21 1 8-1 3h2l2 16 1 13 1 4-3 6-7 6-15 10-16 11-6 3h-2l-2 4-11 6-10 9-14 10-9 7-4 1-5 6-7 6-1 2 4 2 9 11 6 7 7 7 1 11 1 3-3 8-5 18-1 7 16 8 11 7 11 13 8 11 8 16 5 12 2 6 6 32 1 9v12l-2 19-7 24-8 21-11 19-4 5-3 6-13 16-12 10-13 8-13 5h-5l-9 4-7 3 6 11 3 5 3 16v9l-2 15-8 24-10 21-4 5-5 7 1 10-1 7-1 15-4 14-8 17-9 10-7 8-10 9-18 11-2 2 3 8-2 13-1 8 5 5 5 7 3 14v13l-6 15-7 9-4 5-11 7-7 2 1 6-4 4-4 9-8 11-11 8-11 6-8 4-17 5-15 1-2 2-27 1-5-1-4 1h-19l-24-1-9-1 9 17 8 16 9 17 8 13 7 15 2 3 15 2 12 5 10 6 8 9 8 16 1 8 15 5 5 3 10 4 9 4 5 5 5 3 8-7 14-6 17-6 7-2 19-3 11-1h36l15 3 19 5 18 6 9 4 18 12 18 14 10 12 11 18 9 19 3 11 3 9 2 11 1 11v26l-2 14-2 2-2 12-7 14-2 2 1 7 3 9v16l14 1 26 6 9 4 8 7 6 7 2 4v7l-6 11-6 7-14 8-22 7-23 4-24 3-11 1-37 1-58 4-21 1-105 1-23 1h-41l-33-1-11 1h-30l-41-1-53-3-13-1-47-5-9-1h-13l-3 3-6 10-9 8-12 8-10 5-22 6-32 6-28 4-53 5-57 4-23 2-75 4-19 1h-76l-63-4-43-2-54-4-38-3-33-5-49-8-39-9-24-5-14-4-8-2-7-2-23-6-17-6-21-5-16-6-12-5-17-8-13-7-9-14-3-10 3-14 5-4 14-9 4-1v-2l-5-5-9-15-9-17-5-16-1-3-2-11-3-9-6-9-30-30-7-8-13-13-9-10-6-8-10-14-10-17-8-14-13-23-7-17-5-24-2-16v-16l2-22 9-26 6-11 3-1 2-5 6-8 9-9 4-5 11-9 7-3 2-3 14-7 5-4 12-18 5-4 5-5 18-12 11-5 21-5 3-2 6-1h31l24 3 26 6 19 8 16 10 10 9 9 8 10 17 9 13 7 16 8 25 4 16 2 16v18l6-3 13-2 7-1 9 1 4 1 7 1 4 1 2-5 8-11 11-15 8-12 10-14 6-9 4-8 3-4-5-1-4-1h-10l-12-4-5-3-7-3-16-8-11-10-6-12v-9l1-6-6-2-13-9-8-6-9-9-7-9-8-14-5-11-3-12v-7l1-4v-4l-1-5-10-11-9-18-2-6-1-11-9-6-11-7-11-9-5-6-8-6-11-16-6-18 1-6-6 3-3 2-9 1h-10l-10-5-10-7-6-5-7-11-3-7-2-11-1-2v-14l-1-9 2-17 1-15 3-9 2-5 3-13-5-2-5-4-5-6-6-5-3-6-6-7-9-16-9-20-6-17-3-16-1-1-3-24 2-23 2-3 4-16 4-11 6-12 5-9 7-11 12-14 14-10h2l-3-13-3-6-1-1v-14l3-8 4-5 9-6 14-12 19-14 7-5-6-8-9-11-4-5-7-13v-2l-9 4-13 8-14 7-4 3-19 7-10 4-8 4-10 3-18 6-2 2-8 2-13 4-10 1-9-4-6-8-8-9-12-17-10-19-5-8-6-13-4-14-5-22-1-12v-13l3-13 4-5 2-1v-5l6-5 5-2 14-3 30-8 14-4 44-14 13-4 19-7 18-6 20-6 18-6 15-7 21-8 7-3zm1272 418-9 19-6 11-10 17-11 17-8 11v1h13l9-2 13-7 13-13 4-11 3-12v-15l-3-9-6-7zm-1314 2-1 16 2 11 8 16 7 8 16 8h13l-2-4-7-8-9-11-11-13-6-8-9-15zm61 75m184 120-19 3-18 4-16 5-18 6-16 8-11 6-11 8-4 2v2l8-1 15-7 12-3 8-1h10l15 2 7 3 12-1 8-4 9-2 7-1 22-4 2-1-1-8-7-8-3-6-1-1zm804 40-9 14-1 6 13 5 28 14 9-3 17 2 17 7 15 8 6 5 5 7 3 1 5-5v-2l-2-2-1-5-10-11-16-11-8-5-6-2-1-2-10-4-12-5-7-3-15-5-16-4zm-621 247-3 2-9 36v9h-2l-1 5-9 3-14 4-14 2h-13l-5-3-5 1-12 21-10 17-12 17-22 33-11 18-9 15-5 5-4 5 2 13 1 7v9l-3 14-4 12-6 8-9 9 2 12 4 16 1 10v23l-2 15-8 28-8 20 27-1 24-2 7-2-5-22v-36l3-14 4-16 4-10 2-7 8-11 3-6 4-5 11-16 13-12 3-3 7-6 1-7-1-5 3-12 6-11 3-2 2-5 10-11 10-6 15-5 15-1 3-4 7-20 1-4 3-2v-5l3-8 10-26 3-11 6-18v-4l-12-4-6-7-3-5-1-8 3-8 3-17-1-1zm442 3-1 3 1 3v9l-1 7-5 6-9 4-17 5 2 9 11 28 3 7 1 5 7 16 9 27 6 3 15 4 11 6 9 7 8 17 1 5 2 5v10l-2 4v4l10 8 9 11 8 10 8 12 2 4 4-4 3-7 5-4 1-4-7-14-1-11-1-4 4-13 9-10 8-6 4-4-6-10-6-16-9-19-6-15-17-34-6-10-5-12-8-3-20-4-8-3-6-7h-2l2-8-1-4-3-13zm89 362-5 7v9l15-1-1-5-6-10z" fill="#1C1E1E"/>
<path transform="translate(1308,97)" d="m0 0 26 5 4 2 2-1 7 2 9 2 24 5 26 7 20 6 11 4 24 8 20 8 18 7v2h-11l-17 6-12 5-14 11-7 7-9 11-8 10-5 5-7 9-10 16-5 10-12 27-8 27-3 23v12l2 18 4 15 8 16 8 10 8 7 11 10 15 8 9 3 2 2 10 2 9 1 12-1 12-3 7-2 3-1 1-3 8-2 10-6 17-11 5-5 8-6 12-17 7-11 6-11 8-16 5-14 7-18 2-12 4-16 2-9 2-17-1-20-4-14-5-14v-2l5 2 16 10 6 3 10 7 13 9 12 7 16 13 11 7 8 7 17 13 14 12 5 5 5 6 6 10-1 5 1 3-4 16-14 41-10 25-5 13-9 19-8 18-4 8-4 6-6 10-8 14-12 17-12 14-9 11-5 6h-2l-2 4-17 17-8 7-28 20-19 12-10 6-21 10-16 5-14 4-1 1-9 2-10 2-6 4-31 3h-29l-5-1-12-1-14-2-10-3-22-5-11-3-9-4-4-1-13-5-6-2-3-2-10-3-12-6-11-6-16-9-10-6-3-2v-2l-5-2-12-9v-2l-5-2-3-3v-2l-4-2-15-16-5-6-4-4-13-18-9-19-8-21-8-23-6-25v-5l9 3 14 5 9 2 5 3h11l5 2 22 2h29l25-5 9-2 9-1 12-5 14-8 10-8 8-9 7-11 5-10 1-5 3-17 1-4v-16l-4-18-1-9-10-19-3-4-6-12-11-11 3-11 7-21 5-17 1-10 2-16 2-19v-28l-2-8-7-14-4-6z" fill="#FAFBFB"/>
<path transform="translate(455,239)" d="m0 0h3l5 18 10 28 8 16 14 25 9 12 10 10 7 8 8 9 8 7 18 14 16 11 19 11 12 5 28 8 42 3h24l22-3 23-5 10-3 6-2 11-4 23-11 13-9 9-7 9-6 10-11 4-5 5-5 8-11 8-10 2-4h2l2 8 12 7 14 4 12 2 21-5 16-6 4-4 5-2 9 2 3 1h15l10-2 14-8 5-5 6-9 2-4h2l-2 18-7 37-8 28-6 18-9 20-10 17-9 11-9 10-6 3-1 5-4 3-3 5-9 10-13 13-11 9-13 11-11 8-14 9-15 9-19 10-14 7-16 7-21 6-37 8-17 3-43 3-6 1-2-1-10-1-2-1h-21l-13-3-12-3-10-2-21-6-9-3-25-10-7-4-13-5-8-5-11-6-8-6-6-4-8-4-7-7-7-3-6-5v-2l-5-2-8-6-11-11v-2l-4-2v-2l-3-1-7-9v-2h-2l-8-11-4-4-9-12-3-6-6-8-5-6-9-19-8-15-6-10-8-22-6-23-5-13-1-4v-14l7-7 11-8 8-7 9-7 3-4 7-3 8-6 11-8 4-2 3-4 7-3 6-3 5-4z" fill="#FAFBFB"/>
<path transform="translate(795,1094)" d="m0 0 1 3-6 15-2 9 4 5 3 9 16 8 14 4 15 2h14l25-1 9-4 8-7 5-6 5-12 4-15 3-7 5 2 8 6 7 7 6 10v11l-4 9-7 9-9 8-17 9-9 3-12 5h-9l-5 4v2l14 3 7 1 19-6 14-5 7-2 5-1 15 9 9 7 4 4-13 13-8 7-10 11-4 10 10-2 6-7 11-9 13-11 19-11 15-6 19-6 31-4h18l20 2 15 4 13 5 20 11 14 10 10 9 8 10 8 17 2 7 4 35v19l-3 15-4 12-8 16-5 8-4 4-21 9-13 5-27 5-38 6-13 1-37-1-44-5-36-6-30-8-16-5-12-1-17 1h-41l-28-2-28-5-21-7-16-8-7-8-9-14-6-17-4-19-1-10v-12l3-19 4-15 6-15 7-13 13-18 11-13 10-9 4 2 11 9 8 4 13 5 4-1 1-6-9-7-6-4-8-9-6-10-1-8 1-2 1-6 6-10 9-10 7-6z" fill="#DD4618"/>
<path transform="translate(1491,1083)" d="m0 0 10 3 6 8 6 12v5l-1 3-1 8-3 10-9 10-8 6-4 5-7 4-13 2v4h12l12-3 16-7 5-3 6-2 7-8 5-12 14 3 13 7 8 7 2 4-14 12h-2l-2 4-6 9-7 8 3 6h7l6-7 6-10 10-9 7-5 12-6 8-6 10-5 5-2 9-2 16-4 24-3h27l7 1 10 1 10 2 17 4 10 4 22 12 11 7 4 5 5 4 11 16 8 15 8 22 2 11 1 13v15l-1 6-1 14-5 17-5 10-8 8-18 10-33 11-19 5-27 5-24 3h-33l-29-4-35-7-28-7-14-3-19 2-14 2-16 1-29-1-21-3-13-3-15-4-11-6-10-4-8-12-8-10-6-12-4-12-5-24-1-9v-22l3-19 3-10 8-17 6-5 9 2 10 3 17 2 15-2 9-3-1-3-9-2-21-1-9-3-12-5-7-7-4-9-2-8 1-10 8-10 3-2 4 1 6 10 5 3 7 1 11 4 14 1h15l2-2 19-5 16-6 5-3 6-11 2-3-1-9z" fill="#63A2BF"/>
<path transform="translate(830,115)" d="m0 0h5l5 12 9 20 3 8 8 28 3 14 1 11 1 3 1 38-2 14v9l-1 5-1 14-5 19-6 12-6 5-4 8-5 8-7 8h-2l-2 5-9 10-10 8-9 6-13 8-16 8-16 7-5 1-9 3h-5l-3 2-26 4-12 1-8 1-9-1h-13l-7-1-25-3-21-5-16-6-13-7-19-13-10-7-11-9-7-8-16-16-9-11-7-8-11-20-8-16-6-16-9-29-1-6 7-4 8-5 12-6 22-12 17-9 16-6 14-7 40-16 15-4 10-4 27-9 29-8 32-7 22-6 36-6 14-2 19-3 5-1 13-2z" fill="#FAFBFC"/>
<path transform="translate(922,692)" d="m0 0h47l24 3 12 3 5 6 7 21 4 18 1 22-3 38-4 20-8 20-9 14-12 15-9 11-11 13-4 5-7 6 1 5 5 1 9-4 3-1 1 4v13l1 8-18 10-15 6-14 4-23 3-11 1h-11l-3 1-30 1-13-3-1-1v-11l3-15 2-6 10-2 19-4 15-4 25-10 8-4 1-2-19 2-10 3-7 1-6 1-5 1-4-1-10 2-29 1-4-1h-11l-6-3h-5l-7 6v10l-2 6-3 15-2 12h-3l-7-14-11-11-6-8-11-6 1-3 4-2 9-15 10-19 10-25 5-21 1-5 1-16v-17l-5-22-4-18-5-10-10-16v-3l25-10 25-7h11l12-3 42-6z" fill="#DD4618"/>
<path transform="translate(1180,671)" d="m0 0h13l7 1h23l7 1 19 2 40 6 15 4 10 2 29 8 16 4 5 2v2l-9 3-19 11-7 6-5 5-4 5-6 4-16 20-9 16-4 10-2 8-1 5-1 3-1 11-1 12 1 4h-2l2 4 2 15 5 18 3 9 2 7 3 4 4 10 10 15 13 17 6 7 4 3v3l5 2 5 5-11 3h-14l-8-1-9-1-5-3-5-10-1-13-3-7-4-5h-13l-13 1-19 1h-31l-27-7-8-4-9-1 1 8 9 6 6 2 18 7 7 2 3 1 15 2 15 1 2 2v9l-5 5-11 3-20 2h-41l-26-4-16-4-5-4-1-2 1-16 2-16 1-14 1-6-1-8-6-9-3-7-11-23-9-28-8-37v-16l4-27 6-21 4-11 5-6 32-9 38-8z" fill="#63A2BF"/>
<path transform="translate(351,900)" d="m0 0 34 1 30 7 15 6 20 12 12 11 10 13 10 15 6 17 7 21 3 19 2 22-1 20 1 6-1 3v16l-3 5-3 14-1 8 1 2 6-1 6-9 5-10 7 3 3 2 9 2 17 8 8 4 4-1-7-9-7-7-4-3-1-3-5-1-20-11 2-13 5-5 11-4 6-1h14l15 5 28 12 11 7 10 9 10 10 9 13 5 11 1 3v14l-4 13-7 11-3 3h-3l-7-11-11-8-4-1v6l12 23 7 19 4 18v29l-5 25-8 23-8 16-8 10-11 11-14 7-11 3-1-2 2-5 1-8v-18l-4-16-8-22-7-14-13-17-11-12-15-15-8-7-10-8-8-7-3-5-4-20-5-34-3-18-7-32-9-27-10-23-12-21-10-13-12-14-11-11-18-13-16-9-20-6-25-5-21-1-13 1 2-4 9-9 11-9 14-7 24-7z" fill="#DD4618"/>
<path transform="translate(1538,425)" d="m0 0 20 2 12 4 14 8 10 10 9 16 2 10v8l-4 20-6 11-4 9-8 14h-2l-2 4-6 7-14 11-6 4-2 3-7 3-21 11-25 7-16 5-16 4-24 3-27 1h-31l-19-3h-8l-22-8-15-5-19-12-10-9-7-8-10-21-2-13v-20l1-8 10-19 5-6 10-6 11-5 5-2 17-2h6l2-1v2h42l6-1h6l5 1 1-1 17-1 9-1h10l10-4 17-3 10-3 6-2 29-8 20-5z" fill="#1C1E1D"/>
<path transform="translate(658,679)" d="m0 0h11l13 2 2 2 6 2 12 5 7 4 15 9 11 9 13 16 9 14 4 6 5 12 7 26 2 15v17l-3 18-4 10-3 9-12 24-8 11-4 5-11 9-16 16-9 7-4 3-12 5-3 3-8 4-16 4-11 3h-9l-7 1-13-1h-3-3v-2l-4 1-2-1v-2l-9-2-24-10-10-7-5-7 2-1 42 6h14l16-4 14-5 17-10 8-7 1-5-4 1-9 5-17 7-8 3-13 2-5 1h-18l-7-3-22-6-9-4-10-5-4-4-18-12-11-11v-3h-2l-6-8-5-14-4-8 2-7 15 3h12l13-2 10-1 11-4 7-2 16-9 5-5 7-6 8-7 5-6 5-11 4-9 3-9 2-2 3-20v-8l-4-15-5-8-3-6-4-5-3-6v-2l14-4 11-1 8-2z" fill="#F9FBFB"/>
<path transform="translate(270,995)" d="m0 0 22 2 17 5 14 6 22 13 11 9 17 17 12 17 7 11 15 26 13 39 5 19 2 12 3 17 1 28-4 8-10 6-11 5-32 9-29 6-16 2h-5l-8-10-11-9-9-9-8-7-7-8-7-7-7-8-10-10-11-16-12-18-10-19-11-19-6-17-2-8 1-18 2-18 1-11 6-10 7-11 9-10 16-8 7-3z" fill="#DD4618"/>
<path transform="translate(571,430)" d="m0 0h10l17 2 5 3 13 4 11 2 13 3 16 2 4 2 8 1h32l3-1h9l3-1 10-1 9-1 12-2 7-1 17-4 12-3 13-1 10-1 27 3 10 3 13 7 6 10 2 6-1 25-3 8-5 10-12 14-8 8-11 9-15 10-15 7-11 4-9 3-18 3-40 8-16 2-19 2h-14l-23-5-9-1-12-2-5-2-9-2-16-6-16-8-6-4-11-8-9-6-5-5-1-3-4-2-7-11-3-4-3-8-3-15v-11l6-18 5-9 9-7 6-4 7-2z" fill="#1C1E1D"/>
<path transform="translate(1263,1077)" d="m0 0 8 1 8 5 5 6 2 7 2 3v14l-3 7-9 10-5 6-7 4-5 4-4 2-19 4-4 1 3 3 3 1 14 1 11-2 5-1 13-8 5-6 9-5 4 2 8 7 3 5v2l4 2 10 16 7 16 4 16-1 9v18l-1 8 4 16-2 11-2 6-8 16-6 10-8 5-16 8-19 4-16 4-23 3h-22l-13-3v-21l-1-11-2-11-2-16-7-25-7-13-8-10-7-7-4-3v-2l-5-2-18-12-6-5-4-1-15-8-8-3-10-2-3-1-19-1h-29l-20 3-16 5-24 9-7 4-4-1-14-10-5-3-3-3-8-4 1-4 6-7 2-3 2-7 1-13-1-1v-8l19-4 5-1 3 1 2-1h20l2 1 13 1 19 5 26 9 14 6 13 8 8 4v2l7 1 5 4 4 4 7 4 4-2-1-6-8-11-3-3 1-3 16-6h2v-2h3l9 11 4 4v2l5 2 14 7 7 2 20 3 2-1v-2l-16-8-9-4v-2l-5-2-6-5-1-4-4-2-5-8-1-6v-12l4-9 7-6 2 1 3 9 5 9 10 7 9 2 16 1 16-1 12-3 20-8 6-9 3-3 1-4z" fill="#63A2BF"/>
<path transform="translate(1177,218)" d="m0 0h31l13 2 23 8 23 12 11 7 5 5 1 3 6 2 7 8 6 7 9 16 7 17 1 6 2 7v12l1 1-1 15-3 7-2 10-7 11-9 10-4 5-22 12-12 4-25 5-4 1-25 1-12-3-3-2h-9l-21-5-12-5-16-8-8-7-9-6-9-8-7-8-7-10-4-9-3-5-2-7-3-5-1-11v-10h-2l2-19 4-17 5-9 3-3 3-6 11-8 9-6 10-4h4l6-4 16-5 18-1z" fill="#63A2BF"/>
<path transform="translate(1392,712)" d="m0 0h21l15 4 19 8v2l-13 5-12 11-5 10-8 20-1 1-2 11v15l1 5 1 12 8 22 8 12 8 7 7 8 10 7 12 6v2l5-2 3 2 7 1 3 1h17l11-3 3-1-1 6-7 14-8 10-5 3-11 8-3 4-8 2-9 1-3 3v2l16-1 13-4 18-10 6-6 9-4 4-3 9-3h9l12-1 10 2 9 2 9 3 4 5 3 6-1 14-2 6-5 6-5 2-2 4-16 9-15 5-17 3-35 2-7-1h-14l-22-1-8-2-27-5-7-3-13-4-11-5-16-11-9-6v-2l-5-1v-2l-4-2-11-11-1-2-4-2v-4l-4-2-9-14-8-17-4-12-6-24 1-4-1-1v-21l1-2 2-12 4-13 10-18 10-13 3-3h2l2-4 10-8 13-10 15-7 15-5z" fill="#F9FAFB"/>
<path transform="translate(1488,164)" d="m0 0h30l11 4 12 5 10 4 12 8 7 8 7 12 5 17 1 6h-3l-6-8-9-6-8-4-7-2h-12l-9 3-14 7-8 6-3 1-2 4-5 5-9 6 3 8 8 15 8 24v8l-3 6-5 3-17 4-11 4h-7l-5 2-5 13-3 9-2 19 2 21 6 10 8 10 16 8 6 2-2 2-10 3-5 2h-19l-15-4-12-6-16-12-10-10-4-6-8-16-3-10-2-23 1-17 3-15 8-25 16-33 10-14 8-10 8-9 9-11 8-9 13-9 14-7z" fill="#F9FBFB"/>
<path transform="translate(435,1231)" d="m0 0 5 2 14 8 13 10 24 24 10 15 5 12 5 18v12l-1 1-2 12-3 6-6 7-10 7-12 6-14 4-9 1-7-4-7 1-5 1-3-2h-7l-25-9-19-10-11-9-18-21-13-23-5-16-4-14-1-7 1-1 26-4 48-13 17-6 12-6z" fill="#DD4618"/>
<path transform="translate(290,950)" d="m0 0h18l18 2 27 8 16 8 12 9 10 9 7 7 7 8 9 11 10 15 14 27 4 10 8 31 8 42 4 32 2 13 1 9 3 6 7 6 16 12 16 15 13 13 10 13 11 19 7 17 3 15v16l-4 15-4 6-11 12-17 8 1-4 5-8 4-11 2-11v-7l-7-24-5-13-6-11-8-10-11-11-9-7v-2l-4-2-14-12-6-4-5-2-1-3-5-1-1-15-1-20-1-9-4-19-6-24-15-44-7-12-5-10-13-18-8-11-8-7-13-14-16-11-15-9-14-7-19-6-11-2-24 1-17 3-10 4-14 8-8 7-3-1 12-17 12-14 9-8 13-8 15-5z" fill="#DD4618"/>
<path transform="translate(618,175)" d="m0 0 14 1 7 3 8 5 10 9 8 7 7 10 6 16 2 3-1 6-16 24-7 11 12 5 6 4 10 3 14 1 2 2 6 19 1 11v20l-3 12-6 9-8 6-11 5-4 1h-15l-11-1-17-9-10-9-8-9-15-27-4-8-6-16-6-20-5-32v-12l3-16 9-16 9-10 9-6z" fill="#1C1E1D"/>
<path transform="translate(936,103)" d="m0 0h32l12 6 3 3 8 16 5 15 3 12 4 9 7 29 3 19 2 22v23l-3 24-6 14-2 7-6 8-7 8-10 6-6 2h-14l-4-1 1-5 3-9 1-13-3-13-3-5v-2l-6-2-2-1v-26l-1-11v-17l-3-5-11-3-17-4-9-3 6-8 11-9 6-7 6-4 1-6-4-7-4-5-5-9-4-5-5-5-6-5-7-5-1-2-6-1-1-1h-12l-11 6-5 5-5 7h-2l-4-9-9-17-1-5 1-1 53-7 14-1h11l10-1z" fill="#F8FAFB"/>
<path transform="translate(1557,454)" d="m0 0h16l13 5 4 4 3 13v13l-5 15-10 21-7 9-13 13-17 12-12 7-16 6-37 12-25 4-19 2h-18l-7-8-7-11-1-5v-16l3-9 11-18 11-12 9-8 12-8 14-5 4-1h12l13 1 4 1-1 7-4 13-2 12 5-1 9-20 8-13 6-10 3-3h2l2-4 9-9 12-6z" fill="#DD4618"/>
<path transform="translate(1733,362)" d="m0 0 17 6 9 7v2l3 1v2l4 2 6 10 8 15 5 12 6 29v31l-4 18-5 15-5 13-12 20-9 12-2 3h-2l-1 3-13 10-12 7-23 8-8 4h-3l-3-8-3-10-1-3-5-5-12-11-12-7-10-4-5-9v-2l9 2h25l14-4 11-7 5-5 6-5h2l2-5 5-10 5-15 2-9v-30l-8-16-9-8 6-17 6-14 5-15 5-12z" fill="#F9FAFB"/>
<path transform="translate(586,466)" d="m0 0 16 1 15 5 19 9 12 9 14 11 13 11 11 7-3-7-8-11-8-9v-1h13l15 1 16 5 19 9 13 9 11 11 5 10 4 10-1 5-37 8-33 5h-23l-33-5-21-5-19-7-21-11-9-7-12-9-8-9-7-12v-10l6-10 8-6 13-4z" fill="#DD4618"/>
<path transform="translate(929,971)" d="m0 0h4l-3 9-6 17-3 9-5 17-8 25-3 12-6 20-9 28-5 20-5 5h-5l-1 3-21 2-6-1h-11l-9-1-4-2-4-1v-2l-9-3-6-7 2-6 5-10 5-9 4-10 5-11 7-22 7-19 10-28 3-5 6-21 1-3 17-1 20-1 12-1 11-2z" fill="#F9FBFB"/>
<path transform="translate(716,1351)" d="m0 0 25 10 21 6 17 3 27 2h71l32 8 22 6 48 7 34 3h47l28-4 39-7 21-7 11-5h5l3 4 2 9v7l-6 4-24 8-24 6-36 7-33 4-26 2h-15l-31-3-30-5-32-8-33-9-3-1h-10l-9 1-47 1-20-1-28-4-21-5-32-12 1-10 5-16z" fill="#DD4618"/>
<path transform="translate(1743,71)" d="m0 0h11l16 8 12 11 9 10 10 15 8 14 5 18 2 10v10l1 3-6 8-19 13-11 8-21 14-7 6h-1l-2-8-6-21-5-11-11-17-11-12-6-7-13-9-14-7-10-4-13-3v-3l14-8 10-7 16-10 25-14 12-5z" fill="#F9FBFB"/>
<path transform="translate(739,921)" d="m0 0 5 1 5 3-1 5-8 16-7 13-8 14-6 11-4 6-5 10-12 19-6 8-7 11-13 18-5 9-6 8-6 10-7 10-2 4-3-1-3-5-10-8-9-8-10-7-11-7-14-7v-3l8-11 8-13 7-9 8-12 9-12 7-11 12-15 15-3 16-3 10-3 10-6 13-6 13-10 3-1 2-4 8-7z" fill="#F9FAFB"/>
<path transform="translate(349,360)" d="m0 0h2l6 16 2 9 4 10 7 15 4 9-1 6-4 13-2 10v13l3 15 8 18 4 6 9 8 20 10 16 2 4 1 4-1v2l-5 2h-3l-2 4-7 8-8 1h-9l-10 2-8 4-5 2-4 5h-4l-2 4-7 7-4-1-11-12-8-10-9-14-8-16-7-18-6-33 1-6-1-2v-9l3-16 5-18 6-12 7-11 8-11 6-7z" fill="#F8FAFB"/>
<path transform="translate(1364,959)" d="m0 0 14 7 11 5 9 4 17 4 2 2 9 19 5 8 10 21 12 22 5 10 4 10 7 13 5 8v3l-6 5-11 5-11 4-12 2-2-1-7 1h-9l-9-3v-2h-2l-3-5-1-3h-2l-1-5-8-13-6-12-3-7-6-13-4-8-6-16-8-16-12-23-6-10-2-9 12-4h10z" fill="#F9FAFB"/>
<path transform="translate(1647,127)" d="m0 0 16 4 13 4 4 2v2l4-1 12 7 14 12 10 12 8 13 8 20 3 10 2 6v9l-11 8-13 12-7 8-5-2-12-9-10-8-17-12-14-10-12-8-16-10-14-9-13-8-3-2 2-4 14-14 10-8 5-6 5-5 13-10z" fill="#63A2BF"/>
<path transform="translate(1373,1322)" d="m0 0 5 1 15 7 17 7 15 2 16 4 19 2h18l21 1 16-2 4 2 6-4 14 1 3 1 10 1 22 6 45 8 9 1 13 2h14l21-1 16-2 2-1 20-2 8-2 15-3 8-3 5-1 18-6 22-8 7-3 3-3h3l1 9v9l-4 9-8 7-26 10-6 1-19 4-34 3-30 2h-9l-14 1h-21l-5-1h-12l-18-1-9-1-33-4-18-4-9-4-5-2h-25l-8 1h-13l-28-1-22-3-10-2-21-5-18-5-6-5-1-9z" fill="#63A2BF"/>
<path transform="translate(309,86)" d="m0 0h4l-1 7v13l4 24 5 16 11 25 7 12 10 13 6 5-1 4-14 8-28 13-15 6-5-1v-2l-6-2-12-12-12-18-8-16-8-22-2-9v-27l2-14 4-4 36-11z" fill="#DD4618"/>
<path transform="translate(1145,966)" d="m0 0h20l8 1 18-1 15 2 3 8 2 7 4 8 12 34 7 16 4 15 7 26 1 10-5 6-9 4-9 3-15 1-3-1h-16l-3-10-3-6-6-18-5-12-7-21-9-29-5-19-6-21z" fill="#F9FAFB"/>
<path transform="translate(555,688)" d="m0 0h12l14 3 7 2 20 15-1 3 5 6 3 6 2 15-1 7-2 11-4 10-4 9-9 13-3 3-4 5-15 10-19 7-10 2-19 1-7-2-2-3-10-4-9-6v-2l-4-2-6-9-2-7h14l13 2 14-1 15-5 6-7 7-10 3-2 6-18 1-4v-24l-3-6h-11l-9-6-8-4 1-3 12-4h6z" fill="#F7F9FA"/>
<path transform="translate(1627,549)" d="m0 0h2l5 12v25l-2 4-3 14-9 14-5 4-3 6-10 9h-2l-2 5-5 1-2 5-13 7-8 6-9 2-8 1h-6l-5 2-6 1h-14l-11-3-3-2v-2l-4-2-6-8-2-4v-6l2-10 15-4 10-3 10-6 17-8 14-9 10-7 14-8 5-5 6-4 12-11 10-9z" fill="#F8FAFB"/>
<path transform="translate(452,106)" d="m0 0h12l8 9 10 16 9 14 3 4v3l-20 5-12 6-16 12-14 12-8 7-11 14-8 9-8 12-6-5-7-11-7-18-4-10 2-13 6-13 8-12 8-9 8-7 9-7 16-11 10-4z" fill="#DD4618"/>
<path transform="translate(236,109)" d="m0 0h1l-1 13-2 19 3 22 10 27 8 16 6 8 4 6 7 9 8 7v2l-23 8-10 3-14 3-8-8v-2l-3-1-8-10-4-8-6-11-9-16-6-14-2-10-3-12-2-9v-16l4-11 11-3 19-6 15-4z" fill="#F8FAFB"/>
<path transform="translate(1254,89)" d="m0 0h10l3 1 9 2 9 3 10 7v2l4 2 4 5 7 14v2l-5-2-9-6-21-7-7 1-8 4-7 4-10 11-3 4h-2l-1 5-5 5-3 8 4 2 11 12 9 9 4 8-22 5-14 1-6 2-2 1-3 6-1 5h-12l-9-2-20-2 2-10 13-32 10-24 7-14 8-10 10-8 10-6 12-6h8z" fill="#F7F9FA"/>
<path transform="translate(1650,564)" d="m0 0 4 1 4 3h3l6 9v2l3 1 2 4 5 15v8l1 6v8l-3 14-6 15-8 13h-2l-2 5-7 11-6 6-4 1-4 4-10 6h-6l-16 8-13-2-13-5-6-4-6-8-4-7v-2l21-10 10-5 16-12 5-5 10-11 8-11 3-4 4-10 6-14v-18z" fill="#F8FAFB"/>
<path transform="translate(1470,731)" d="m0 0h13l9 3 15 8 4 1 3 4-2 4-17 3-12 3-8 5-7 8-4 10h-2v15l1 9 1 6 3 9 4 10 3 5 11 8 9 4 7 1 7-3h20l2 1v3l-6 4-3 5-9 5-10 2-5 4-6 1-8-1-2-1h-4v-2h-6l-12-5-10-7-6-4-8-8-6-8-6-16-2-14v-21l5-17 4-7 4-9 7-6 12-5 8-4z" fill="#F6F9FA"/>
<path transform="translate(481,545)" d="m0 0 5 2 11 7 10 5 10 7 3 3 10 4 2 3v23l-3 16-7 19-7 11-3 1-2 4-9 7-13 1h-11l-2-2-5-2-2-5-4-7-5-8v-11l1-5v-10l3-15 2-12 4-8 1-9 3-3 3-7z" fill="#F8FAFB"/>
<path transform="translate(464,536)" d="m0 0 3 1-3 4-6 22-1 7-2 4-4 23-1 3v9l-2 9v15l4 14 2 3 2 7 2 4-3 7-5 7-11 8-8 2-7-3-13-7-3-6-2-8-4-8-1-7v-25l2-20 4-1 3-12 5-12 3-5 7-14 6-9 5-4 4-4 16-3z" fill="#F7F9FA"/>
<path transform="translate(424,45)" d="m0 0h8l6 8 12 22 8 18v3l-19 3-14 5-11 8-9 6-10 8-5 5-10 9-2 4h-2l-2 5-5 8-1-4v-8l3-26 3-10 3-12 5-15 7-14 6-8 5-7z" fill="#F7F9FA"/>
<path transform="translate(1564,842)" d="m0 0 9 2 6 1 19 8 10 9 8 6 4 8 2 5v10l-5 9-12 12h-3l-8-12-5-3-8-5-6-3-10-1-5-1-8 1h-11l-17 2-1-2 4-9 3-9 9-8 7-8 7-11z" fill="#F7F9FA"/>
<path transform="translate(404,554)" d="m0 0h3l-1 5-4 6-4 11-1 4-5 22-2 26-1 8 2 24 2 14 2 5-10 6h-8l-9-6v-2h-2l-5-8-4-13-1-14 2-36 5-17 8-11 7-8 6-5h2l1-3 7-5z" fill="#F5F8F9"/>
<path transform="translate(493,162)" d="m0 0h10l9 11 6 4 3 4-1 4-22 11-15 9-16 8-11 7-5 2-3 3-14 7-21 14-6-5 3-11 6-9 10-13 9-10 5-5 16-14 10-7 10-6 10-3z" fill="#F6F9FA"/>
<path transform="translate(915,280)" d="m0 0h16l12 7 4 5 3 7v7l-7 14-7 6-12 6-13 4-10 2-10-1-13-5-5-6-2-12 4-11 5-8 8-7 12-5z" fill="#DD4618"/>
<path transform="translate(378,63)" d="m0 0 1 2-7 14-7 24-4 17-3 15v43l1 9-1 2-6-7-6-9-6-11-7-13-7-20-3-17-1-9v-12l2-10 8-3 30-9 13-5z" fill="#F5F8FA"/>
<path transform="translate(1181,231)" d="m0 0 5 1 13 10 14 15v3l-11 5-17 6-16 7-14 10-7 6-4-1-14-11-11-10-5-5 1-6 9-8 14-8 17-8 12-4z" fill="#FDFDFD"/>
<path transform="translate(1320,1309)" d="m0 0 2 3 1 5v11l-1 3-10 4-14 3-23 4-35 4-19-1h-22l-6-1 4-11 1-8 12 2 17 1 18-1 17-3 19-3 7-2 11-2 10-3 10-4z" fill="#63A2BF"/>
<path transform="translate(1690,620)" d="m0 0h2l5 13 1 14-7 23-6 16-9 15-10 11-16 8-15 1-8-5-1-4 8-6 10-6 4-3h2l2-4 5-3 6-9 7-11 6-9 6-13 5-14 2-12z" fill="#F1F6F8"/>
<path transform="translate(681,715)" d="m0 0 17 2 10 4 7 5v2l-13-1h-16l-8 2-14 1-10 2h-6l-2-3v-5l4-3 11-3z" fill="#1C1E1E"/>
<path transform="translate(662,812)" d="m0 0 12 2 9 3 5 2 20 14 5 4 6 9h-3l-12-6-23-11-24-6-6-4 1-5z" fill="#1C1E1E"/>
<path transform="translate(1373,821)" d="m0 0h7l5 2 1 6-4 4-18 4-28 14-3 3h-2l1-5 6-8 9-9 12-7 5-2z" fill="#1C1E1E"/>
<path transform="translate(674,761)" d="m0 0 15 1 18 7 8 6 3 4v2l-4-1-5-3v2l-11-3-14-2-23 1-5-4-1-5 5-3 6-1z" fill="#1C1E1E"/>
<path transform="translate(1352,779)" d="m0 0 13 2 11 2 3 4v5l-2 2h-10l-9-1-5-1h-9l-14 1-10 2v-4l11-7 8-4z" fill="#1C1E1E"/>
<path transform="translate(1352,734)" d="m0 0h10l12 3 10 5 5 2 5 5 1 3-6 4-5-1-19-9-14-4-7-1-1-3 2-3z" fill="#1C1E1D"/>
<path transform="translate(762,940)" d="m0 0 4 2 7 10 5 9-1 4-17 4h-11l1-5 11-23z" fill="#DD4618"/>
<path transform="translate(1608,830)" d="m0 0 4 1v8l-1 3-9-1-5-5-1-2z" fill="#D6E6ED"/>
</svg>
