<?xml version="1.0" encoding="UTF-8"?>
<svg version="1.1" viewBox="0 0 1487 2048" width="401" height="552" xmlns="http://www.w3.org/2000/svg">
<path transform="translate(378,58)" d="m0 0 6 2 7 3 5 5 9 14 16 32 6 11 8 14 2 1 4 11 28 42 9 13 8 9 3 9 4 1 4 5 7 9 18 18 6 2 9-1 3-3h7l2 1 4-1 1-3 7-1 4-2 4-5h11l5-4 8-3 6-4h10l6-4 7-3 13-4 1-1h8v-2l7-4 7-1h4l5-4h7v2h5l3-7 4-2h7l4 1 3-1 4-4h7l1 1h5l3-7 9-1 2 1 8-2 4 2 5-2 5-3h10l3-3 10-2 2-2h12l11-1 9-6 10-2 2-2 6-1 7 2 2-1h18l5-6 8-2 9 1 4-1h7l5 1 10-5 10 2 4-2 11 1 3-3 9-1h5l4-4h7l5 1 4-2 3 1h3v2l6-2 4-3 5-1 13 1 5-1 10 1 6-2 6-3 12 2 4-4 25-1 45 1 4 6 6 1 4-1 5 3 4 5 4 7 7 8 14 28 3 11 5 4 1 5-1 4 4 8 3 10 1 2v15l3 6 3 10 2 5-1 5v8l4 5v29l3 3 1 7-1 6 3 5 1 1v14l-3 3-1 94-4 6 1 10-4 8 1 8-2 6h-2l-1 8 1 4-12 36 1 11-10 30-5 7-8 21-5 10h6l6-1 1-3h91l6 2 1 4 4 1h17l7 3 9 2 3 2v3l7 2 5-1 5 3 5 4 6 3 9 3 5 5v3l10 1 5 3 12 12 5 8 11 11 7 11 4 5 4 9 7 10v4h-2l2 8 3 5v20l4 6v26l-2 6-3 3 2 7-4 9-1 1v5l1 1-1 7-3 3h-2l-2 6-8 16-6 13-3 8-1 2h-2l-6 15v22l3 5 4 2v38l-4 6 1 9-11 23-7 13-6 4-5 3-3 3-2 4 1 10 2 4-6-2-1 4 1 11-1 4 1 6-1 4-5 3h-2v7l1 5-5 6 1 6 1 4 4 1v2l8-1h7l2 1 8-3 6-3 9 4 10 1 3-1 7 3 7 6 5 5 7 8 1 7-1 5 5 9-1 10 1 8-2 3h-2l-1 6 1 6-5 6-3 3 1 5-9 11-4 2v2h-2l-2 5-7 8-4 1-2 4-5 5-6 4-8 8-7-2-1 4-10 6-4 3h-5l-5-1h-2l-1 4-3 3-6 1-3-1-5 5-3 1-3-3v2h-4-2v-2h-4l-1 3-2-2-5 1-6-1-3 1-4 4h-6l-4-1h-14l-6 1-4-2-1-2h-48l-11-4-10-3-8-4-6-1-1 11 3 5 2 4-4 1v8l4 4-1 5-3 2v8l-4 4-12 6-8 6-10 5-9 6h-3l-2 4-2 2h-3l2 6-2 5-5 3-1 5-2 4v2h2v4h-3l1 5-3 3-3 1v11l-3 5-4 1-1 9 1 5-1 3-1-1-2 7-1 5 2 3-4 9-3 4-1 5-7 20-1 2v21l4 4 7 4 17 17 9 6 1 8 9 16 1 3v22l-3 6-1 1 1 12-2 2-6 1v7l2 4 5 2 7 8v2l7-2 6 5v2l6 1 4 3h6l4-3 7-4 3-3 7-1 7 1 8-7 11-5 7 1 7-1 7 1 6-4h11l2-3 9-1h48l7 3 2 2 10 3 10-1 6 3 5 4 2 1v2l8 1 6 3 1 3 6 2 8 3 7 3 8 7 5 3 4 4 2 5 4 1 4 3v2l4 2 12 11 7 8 6 12 5 8 4 13 2 10 5 14v23l4 5v50l-4 4v12l-3 1-1 6 1 7-4 2v10l2 3 21 7 10 9 8 7 10 10 5 9 3 11v31l-6 11-4 4-2 9h-2v2l-6 3-4 8-11 7-11 3-8 5-3 3h-2v2l-10-1-6 5h-5l-5-2-2 2-4-1h-3-9l-2 7-5 1-7-1-6 5h-4-2v-2l-11 1-9 1v-2l-8 2h-7l-5 2-14 1-2 4h-7l-6-1-4 1v-2l-9 2-3-1-12 1h-11l-4 4h-7l-1-1h-8l-8 5h-4l-3-4-8-1-6 5-6-1h-17l-2 4-64-1-1 4-62 1-4 4-6-1h-7l-4 1-5-1h-6l-4 4h-88l-4-4h-7l-4 2-6-5-5-1-5 5-10-1-3 1-6-2-1-2-7-1-4 1-1-1h-7l-5 1-4-2-1-2-100-1-2-3h-9l-5 1-6-3-1-1-38-1h-15l-3-3-7-1-9 1-6-1-8 1-7-3-5-2-4 2-4-1-5-3-8-1-4 1-9-1-6 1-10-5-5 1-2 1-6-1v-2l-6 2-8-3v-3h-2v-2h-6l-4 1-2-2-6-2-7-1-3 2-5-2-5-1v-2l-4-1-4-3-6-1-5 2v-2h-7l-3 2-4-2-4-1v-2l-3 1-2-2-6 2-8-3-3-4-2-2v2h-2v-2l-4 1v-2l-7-1v-2l-5 2-4-1-6-2-3-2-1-3-9-1-2-1v3l-5-1v-2l-4 1-4-4v2l-7-2-4-2h-5l-3-3-10-3v2l-3 1-8-2-2-1v-2l-5-1-7-3v-2l-8-2-6 2-4-6v-2l-3-1v-2l-4 1-4-2-1-2-8-4-1 3-6-2-10-6-5-4v-2l-4-1-5-4-8-16-1-4 4-11 6-8 8-5 5-9v-5l-10-12-6-12-7-10-5-10-4-5-2-9-4-6 1-9-4-8v-7l-3-7-3-6-2-9-5-5-2-3v-3l-4 1-7-6-4-4v-2l-4-2-7-7v-2l-4-2-11-13-10-10-7-8-5-6-8-6-7-8-18-24-11-13-6-15-3-3-11-22v-2h-2v-2l-4-2-4-9-5-15v-2l-4-2-3-5-3-7v-9l-5-2-2-2 1-5 3-2v-5l-4-8v-7l-1-5h-2v-62l7-19 7-14v-8l7-10 12-18 11-11 6-8 10-8 11-9 3-3 9-2 3-2 5-1 6-7 7-3 20-28 9-7 6-7 5-6 7-4 7-1 2-5 8-2 5-2 3-2 11 1 8-5 8-4 2-2h85l7 2 2 2h10l3 1 1 5 5 2 8-2 22 8 12 7 5 5v2l10 1 5 5 1 4 7 1 5 5v5l3 2v2l4 2 9 13 11 17 3 4v6l7 8 4 9 2 9 5 7 2 10 3 5-1 4v7l5 7-1 2 1 9 3 2-1 16 5 7-2 14h61l7-1 5-9 8-9 4-4v-6l5-5 3-1 1-8 8-7 6-9 10-19 6-9 6-8 1-4h-10l-4 1-2-2-5-2v-2l-7 2-14-7-4-3v-3h-3v-3h-5l-5 1-11-6-12-9-2-4-9-7-4-8v-16l-1-3-8-7-7-6-7-5-1-2-6-3-13-11-7-9-5-5-7-10-3-10-10-15-6-13-1-10 4-10v-7l-8-11v-2l-4-1-5-5-8-15-5-6 1-11-5-9v-10l-10-5-4-3v-2h-6l-11-9-28-28-9-11-6-9-1-7-4-1-2-2v-45l2-7 1-2 2-12 6-21 6-18 5-6 3-6 2-9 6-7v-8l1-2h-2v-3l-7 2h-3l-2-3h-3l-1-3h-2l-3 3-3-2-2 1-5-5-4 2-6-1-4-4h-4l-6 1v-3h-3l-1-2-3-1v-2h-3v-2h-4v-2l-5-1v2l-4-2-3-3-3-1v-2l-4-1-3-1v-2h-8l-5-5-2-1v-2l-3 1-6-4-4-5-4-2-6-4-4-4v-2l-3-1-1-2-3-1-5-7 3-6-6-7-4-6-6-5-7-15-2-9-3-4-4-12v-3h-2v-2l-3-1-2-4 1-11-7-4-1-7v-18l-3-7-1-8 4-11v-8l-3-5-2-4 2-3h2l1-10v-25l4-1 5-1-2-6 1-5 7-7-1-10 6-7 6-10 6-9 8-10 6-8 8-8 7-4 6-8 5-2-2-6-4-7 1-7-4-7v-18l3-5 2-11 3-1 5 1 8-7 14-14 9-6 8-7 14-11 4-3-1-8-10-15-12-16-4-8h-14l-7 6-9 2-6 3-3 5-10 3-9 7-8 4-14-1-4 1-2 4-5 3h-4l-2 4-5 4-5-1-10 7-3 1h-2-3v-2l-10 5-1 2-6 2-5-1-3 4-4 1h-4l-3-2-3 4-5 2-5-1-1 2-5 3h-6l-10-5-7-6-4-5v-2l-4-2-7-8-4-6-7-9-8-13-8-16-6-10-10-19-7-15-5-16v-7l-3-6v-62l7-8 4-5 6-12h9l7-4h9l1-3 6-1 3 1 4-1 4-4 6 1 2 1h4l1-4 12-1 3-4h7v2h2l1-2h2l3-4h5l3-1 2-5 4-2 10 3 2-4h3v-2l8 1 2 1 3-8 8-1h6l5-5 9 1v2l5-2 2-2 2-1 3-5 11 1 4-5 8 2 3-1 1-3 3-3h3v-2l9 1 7-5 6-2 4-2h3v-2l9-1 3 1v2l7-4h3v-2l6-1 4 1 1-4 4-3 9-1 4-4 7-4 2-3 10 1 7-5 10-4 7-4 7 2 5-2zm-54 579-1 1-1 18 4 10 2 9 4 1 1 3 4 3v8l5 1 5-1v2l11 6 11 7 5-1 1-6-3-5-8-7-7-10-4-6-22-22-1-5-1-4-2-2zm862 119-7 4-3 2-1-2h-3-9l-8 5-6-2h-7l-5 3-4 4-8 4-6 2-4-2-7 2-7 8-5 2-7-1-6 2-2 6 2 3 1 2 4 12 5 9h4v2l4 1v7l5 9 7 10 4 10 5 2 2 2 8-3 1-2 5-1 5 5 5-1 4-6 9-4 7-8 6-2 2-6 3-3 6-3 8-1 4-3h9l3-1 3-3 9-1 1-3h11l7-6 2-3v-7l-3-5v-20l-4-6-6-5-6-1-5 1-8-3-6-4-7-1-4 1zm-925 41 1 3v-3zm15 12m357 81-7 4h-5l-5-1-20 10v-2l-5-1-10 5-9 1-5 5-9 1-9 8-15 5-1 5 8 1h15l8-3 7-1 4 2 5 1 9 3 3 3 5-1 4-1 5 5h5l3-4h7l4 1 6-7 10-2v2l6-1v-3l11-1h17l4-2-1-16-1-2h-2l-6-12-3-2zm270 385-2 4-2 10-8 25-6 21-7 12-5 4-4 2v2l-4 2-5 1-4-1h-9l-6 2-5 3-5-1-4-1-4 2-4-1-8-4h-5l-9 12-3 1-1 6-10 15-12 19-7 10-8 13-17 26-11 17-8 13-10 18-7 10-3 4v2h-2l-10 13 2 6 2 2v38l-4 7 2 9-8 11-8 12-7 7v13l4 7-2 10 4 4h2l-1 63-2 7-8 25-2 6 2 2v7l-5 2-2 2-2 9-3 7 1 10 2 4 4 1h41l7-3 4-5 15 1 1-4-4-11-3-8-1-7 1-7-3-6-1-10v-28l2-8 6-18-1-9 4-10 3-5 1-10 3-7 3-9 9-9 9-16 11-12 7-11 6-7 6-8 7-7h9v-22l10-30 6-2 6-11 4-5 4-6 10-6 3-3 8-4 5-4h7l6 1 5-2 2-2h12l4-5 2-8 5-11 9-25 3-7 4-12 2-11 5-8 1-8-1-5 2-4 5-4 1-7v-20l-1-4-10 1-5-3-6-10-4-3 1-5 2-2 1-5v-20l4-10-2-4-3-2z" fill="#080605"/>
<path transform="translate(414,348)" d="m0 0h3l2 5 1 11h2l6 23 1 5h2l7 19 3 5 4 10 7 13 3 6v2h2l2 4v3h2l4 8 3 4v2h2l2 6h2l2 4 3 3 14 16 31 31 14 11 15 11 10 7v2l5 2 11 6 14 4 11 4 13 5 18 4 14 3 7 2 14 2 34 2 6 1h28l15-1h19v-2l29-7 12-2v-2l31-13 7-2v-2l10-5 5-1 1-2h3l1-3 4-2 1-2h3v-2l3-1 3-3 8-7 7-7 6-5 8-7 18-18 4-5 7-3 3-3 1-3 2-1 1-3h2l2-5 3-8 4 1 8 8 9 5 14 5 12 2 9 2 1 1h11l5-2 10-2 7-3 9-3h3v-2l5-1v-2l7-4 6-4h3l3 3h31l15-3 10-4 10-7 5-3 6-10 3-7 2-1-2 13-1 1-1 21-2 13-1 2-3 26-6 26-1 1-1 13-3 10-3 6-10 19-12 23-10 17-7 8-9 12-5 4-1 2h-2l-1 5-8 10-11 12-8 7h-2l-2 4-9 10-8 7-14 12-8 6-8 7-9 7-12 9-10 7-9 4-16 10-8 4-10 6-9 5-9 4-7 4-10 4-7 3-6 4-15 3-8 3-7 1-7 3-32 6-15 3-8 1-6 2-31 2-9 1-22 1-1 1-9-1-11-2-28-1h-8l-27-6-28-6-8-3v-2h-7l-6-3-11-2-12-5-21-9-13-6-3-1v-2l-9-3-2-1v-2l-4-1-23-11-5-5-9-6-9-5-6-4-6-7-10-4v-2l-4-1-4-5-5-3-13-10-12-11-3-2v-2l-3-1-11-14-4-4-11-14-20-25-2-3v-4l-3-1-5-7-1-4-3-2v-2l-5-2-3-6v-5h-2l-6-11-5-11-7-13-7-12-7-15-13-42-5-15-4-16-1-2v-20l13-11 8-6 13-11 11-9 7-8 9-3 10-8 15-11 8-6 8-4h2v-2h3v-2l9-5 5-4h3v-2l5-1v-2z" fill="#DDDEDB"/>
<path transform="translate(880,1501)" d="m0 0 1 4-2 2-2 9-4 15-1 2v6l5 10 3 7 8 5 12 4 8 3v2l14 3 2 1 67-2 14-7 5-4 12-18 3-9 2-11 4-11 5-8 8 3 15 9 4 7 5 5 4 6 2 9v10l-3 10-7 11-9 11-14 9-5 3-3 4-10 5h-8l-5 4-9 3-17 3h-4v3l14 2 2 2h7l16-5 5-2 9-3 10-4 9-1 6-3h7l11 6 16 11 7 6 2 3-1 6-6 8-7 8-10 9-12 11-7 10v3l6-1 5-4 7-8 4-4 2-4h3l16-12 17-13 7-5 1-2 15-3 1-3 10-1 14-6 9-3 12-2 28-3h48l27 4 5 3 13 4 5 3 13 5 34 24 10 9 5 5 4 5v2h2l5 12 6 8 7 28 2 10 2 24 1 5v19l-2 16-5 14-6 17-6 10-5 12-4 7-2 3-8 2-6 4-10 5-1 1-9 2-2 3-20 6-29 4-23 4-17 2-7 2-19 2h-34l-30-1-24-2-12-2-31-4-17-3-28-6-31-8-21-7h-42l-21 3-25-1-2-1-31-2-25-2-15-2-20-5-7-3-25-10-10-7-4-5-2-7-5-3-4-6-3-7-8-20-2-3-5-29-1-11 1-26 3-19 2-13 4-2 1-9 7-16 8-15 3-3 3-7 9-11 7-11 7-8 4-2 10-10 6-5 5 2 9 7 11 8 15 6 3 2 8 1 2-2v-3l-9-3-1-4-3-1-1 2h-3v-5l-5-3h-2l-1-4-7-10-5-7-4-11-1-8 4-11 6-11 8-10 5-5 5-8 13-5 12-2z" fill="#846737"/>
<path transform="translate(920,179)" d="m0 0h4l4 13 7 14 8 17v3h2l3 12 3 8 2 11 4 12 2 4 2 14 1 1 3 32v45l-1 16-1 4 1 7-1 2h-2l2 5-1 15-4 14-3 12-5 15-6 9-4 9-7 9-23 23-14 11-9 8-10 7-15 10-6 5-16 9-23 10-16 5-29 8-20 3-3 1h-61l-22-2-12-3-15-3-7-3-16-4-10-4-17-5-16-9-10-7-14-9-14-11-8-7-7-8-12-11-22-24-9-11-8-14-6-9-5-13-5-9-3-6v-2h-2l-5-16-4-13v-2h-2l-6-21-3-11-1-4 2-2 11-4 9-6 9-4 7-5 8-4 3-1v-2l9-4 10-6 13-6 8-4 9-4 14-5 5-4 11-5 11-3 14-7 14-5 9-5 12-3 7-2 16-6 13-5 8-2 9-3 13-5 15-3 21-7 47-10 3-2 20-4v-2l19-3h7l2 1v-2l14-3 14-1v-2h9l24-4h7l4-3 10-1 20-3z" fill="#FDFDFC"/>
<path transform="translate(1063,955)" d="m0 0h33l31 3 20 3 11 4 5 4 5 8 6 16 5 19 4 24v35l-2 25-4 25-8 27-10 21-12 18-7 9-9 11-11 14-11 12-7 8-6 7v3h13l5-2h3l2 16v20l-11 8-16 8-17 7-19 5-22 4-23 2-42 2h-28l-12-3-1-2v-11l3-19 4-15 2-2 21-4 16-5 18-5 18-6 8-4 1-1-8 1-17 3-15 2h-74l-23-1-4 19-7 31-3 11-4 1-8-8-11-15-8-11-6-7-10-8-5-3 2-5 8-11 12-23 10-21 9-24 5-15 4-22 1-12v-35l-4-24-5-20-9-21-8-16-4-9 1-4 8-5 17-6 24-8 17-4 47-7 42-6 36-4z" fill="#AA0D0C"/>
<path transform="translate(268,1242)" d="m0 0 11 1h16l20-1 13 2 16 1 7 3 16 3 10 5 5 3 10 4 10 7 7 2 2 5 9 6 9 8 12 16 10 11 5 9 7 20 7 24 2 3 3 14 1 9 2 6 3 17 1 56-2 4v16l-4 11-6 27 6-2 6-4 4-13 6-7 8 2 8 4 8 3 11 2 10 4 12 7 7 4-4-5-8-7-9-7-4-4v-2l-13-8-4-3-14-5-5-3 2-11 2-10 2-7 13-2 2-4 26-1 9-1 9 3v3l14 1 7 5 8 4 6 2 7 1 2 4 9 3 9 5 5 5 13 12 5 4 3 6 6 4 5 4 5 12 5 8 3 13-1 21-4 15-3 9-6 3-3 5-9 2-7-9-5-6-8-5-4-4-3 1 2 4 5 5 1 8 6 10 10 22 3 11 2 10 3 8 1 13v32l-3 11-2 17-4 11-3 12-4 8-6 16-4 8-4 4-5 9-5 5-4 2-2 4-11 12-5 2-4 4-10 1-6 3-9 1-1-1v-14l1-3v-11l-2-26-9-27-5-9-2-10-4-8-3-2-6-11-8-9-3-5-5-5-11-12-10-10-6-5-5-6-8-7-11-9-5-3-3-4-5-3-4-4-4-8-4-16-2-16-2-21-3-18-7-35-4-15-2-13-6-19-4-13-8-18-9-22-10-17-10-16-11-13-4-6-3-2-1 3-3-1 1-3h2l-5-8-12-11-9-8-14-10-10-7-23-11-7-1-3-4-20-2-1-2-14-2-26-3h-20l-10 1 2-4 8-11 7-8 9-8 14-9 10-3 5-3 18-4 2-2 11-1z" fill="#846737"/>
<path transform="translate(672,943)" d="m0 0h47l10 6 7 3 12 3 5 5 3 1v2h5l15 9 12 9 10 10 9 12v2h2l3 3 3 5 4 7v2h2l9 14 4 9 3 8 3 11 1 7 2 4v5h2l1 13 2 3v9l2 4v5h-2l1 14-4 26-3 6-3 15-4 5-4 10-4 8-4 10h-2l-2 6h-2l-1 4-6 7-2 6-10 7-5 5-10 9-11 11-5 6h-2v2l-6 2-8 9-11 4-6 3-5 5-4 3-16 3-10 5-10 1-1 1-27 2-30-1-15-7-8-3-15-5-15-8-8-6-9-9-1-4h7l8 2 33 4 12 1h20l1-1 13-2 9-2 4-3 7-1 9-6 8-4 9-6 5-3 10-9 1-4-6 2-10 6-11 4-9 4-5 3-13 4-11 1-7 3-9-1-4 1h-18l-5-3-13-4v-2h-8l-9-1-4-3-11-4-1-3-6-1v-2l-4-1-13-9-11-7-12-11-5-4-9-11-7-9-9-21-4-9 1-5 1-6h5l5 2 11 2h15l5-1 15-1 5-1 7-1 5-3 7-2 3-1h8v-2l8-4 6-4 5-1v-2l6-3 12-12 9-7 7-8 4-6 2-7 2-5 4-1 1-6 1-1 2-10h2l1-8 4-1 1-10 3-22-2-9-2-6-2-11h-2l-2-8h-2l-5-10-6-8-1-5h-2l-1-6h2v-2l21-4 1-1 18-2z" fill="#F9FDF6"/>
<path transform="translate(169,1371)" d="m0 0 27 2 18 4 18 7 16 8 11 7 17 10 10 9 6 4 7 8 8 8 11 15 10 14 6 8 5 10 7 11 10 20 8 23 9 24 4 18 4 15 3 16 4 20v24l1 5v10l-4 10-13 8-15 7-16 5-15 4-18 5-30 6-30 5-5-1-6-4-3-6-9-7-13-12-8-7-7-7-6-5-7-8-10-10-7-8-7-7-7-8-8-10-13-19-10-14-12-22-14-24-9-19-7-22-1-5 1-29 1-7 1-3 1-15 3-12 4-4 8-16 8-11 6-7 11-7 21-9 15-3z" fill="#846737"/>
<path transform="translate(576,601)" d="m0 0h43l19 5 15 6 7 3 11 5 6 2 16 3 5 2v2l10 1h51l20-4 6-2 21-2 19-6 8-4 15-3 7-2 18-2 1-1h46l9 3v2l6 1 7 3v2l4 1 6 3v2h3l5 6 5 11v4h2v27h-2v7l-6 18-7 13h-2l-2 5-3 3h-2l-2 5-8 9h-2l-2 4-4 2-5 6-4 1v2l-4 1-1 3-4 1v2l-4 1v2h-3v2h-3v2h-3v2h-3v2l-16 7-6 3h-4v2l-4 2-11 2-5 2-16 2-11 3h-3v2l-14 1-16 4-12 2-16 3-1 1-7 1h-18v2h-36l-15-4-5-1-16-1-6-2-13-2-8-3-11-1-2-1v-2l-6-1-19-8-16-8-9-5-11-9-5-3-9-6-3-1v-2h-3l-3-6-4-2-5-7v-3l-3-1-8-16-3-5-1-1-1-10-1-1-1-8v-20l2-10 6-12 5-11 5-5 15-12 15-5 14-3z" fill="#070605"/>
<path transform="translate(1140,880)" d="m0 0h11v2l9 1 7 1 6 2 16 3 15 3 17 8v2l6 2 11 8 6 3 5 5 12 11 5 5v2h2l8 11 10 12v3h2l5 11 3 8 6 9 5 11 2 7 4 7v25l-3 16-3 11-2 11-3 8-2 6-3 5-3 9h-2l-2 4-12 16-7 9-1 2h-2l-2 4-9 9-7 8-10 12-4 7 12-6 14-11 6-4 9-7 5-5 10-9 7-8 10-5 1-1 10-1 6-2h31l11 3 11 6 9 10 4 11-1 14-2 8-6 12-12 17-8 9-10 8-11 8-13 8-13 5-5 4-8 1v2l-24 3-2 1-26 2h-38l-20-2-3-1-13-1-15-5-10-7-7-4-3-2v-5l4-8 9-12 7-10 10-16 7-19 4-10 3-12 4-10 5-19 3-19 1-13v-38l-1-15h-2l-3-16-2-12-6-15-6-11-11-15-6-7-5-3-12-2-1-1-1-14-3-12-4-10-3-12-3-8v-5z" fill="#F9FDF6"/>
<path transform="translate(393,1689)" d="m0 0 5 1 11 4 11 8 11 7 14 12 20 20 3 2v2h2l4 9 7 10 9 17 2 8 3 8 3 14v15l-2 5v9l-5 11-7 10-10 6-3 5-7 1-2 5-8 1-6 4-15 2-9 3h-7l-2-3-26-1-7-2h-7l-6-3-11-3-3-2-10-2-11-6-2-3-8-2-9-7-3-4h-5l-7-10-3-5-8-7-7-8-6-8-5-8-6-11-9-22-5-16-2-9v-13l1-3 9-2 24-4 14-3 52-14 18-7 11-2v-4l9-2z" fill="#846737"/>
<path transform="translate(197,1310)" d="m0 0h16l24 1 19 3 3 1v2l11 2 19 7 15 8 9 7 14 11 13 13 9 11 5 5 2 4h2l14 19 10 16 8 15 6 12 8 18 1 7 6 18 2 12 4 15 8 50 3 20 1 6 1 8 2 9 2 12 1 4-1 3v7l3 6 14 11 10 7 11 8 5 6 8 7 14 14 5 3 10 13 8 10 5 10 6 9 10 19 6 16 2 12 2 11-1 17-8 24-10 10-7 9-6 5-15 5-7 2 2-5 7-14 6-21 1-5v-12l-5-19-8-24-10-19-14-16-12-12-8-6-10-10-11-9-6-4-4-5-3-2h-8l-3-3-1-4-6-3-2-11-3-30v-7l1-4-3-11-3-20-5-21-7-21-3-11-7-20-8-22-9-15-3-9-4-2-5-10-7-8-11-16-7-8-19-19-4-5-16-11-18-12-7-3-5-4-3-2v-2l-10-2-5-3-14-3-2-3-15-3h-19l-4 1-3-1h-15l-18 3-10 3-17 9-13 9-9 6h-3l1-4 8-13 6-11 7-7 7-8 9-10 14-10 14-7 9-3 5-3z" fill="#846737"/>
<path transform="translate(271,512)" d="m0 0 4 1 4 16 3 7 3 12 3 6 2 9h2l3 8 3 5 7 18v6l-2 5h-2v7l-2 14-4 11 1 18h2l3 15 8 19 5 10 5 6 8 7 7 5 7 3 4 2 8 2 3 2 25 2 17-2v-2l9-1 14 11 11 8v2l4 2 13 10 11 9 13 11 10 3 2 4-16 20-5 4-3 3-7 5-14 6-6 2-9 4-17 3h-13l-30-4-20-5-15-5v-2l-9-2-7-4-5-2-6-3v-2h-3v-2l-6-2v-2l-6-2-8-7-3-4v-2h-2l-8-12-5-5-6-9-7-8-6-12-3-5v-3h-2v-4h-2l-5-12-4-9-2-3v-8h-2v-11h-2l-4-24-1-1-1-19-1-4v-7l1-1 1-14 5-17 5-18 8-14 5-10h2v-3h2l5-10h2l2-4 4-6 6-7h2v-2l6-4z" fill="#DDDDDB"/>
<path transform="translate(636,261)" d="m0 0 16 2 9 3 14 10 8 8 11 9 11 15 6 17 6 10-1 7-15 22-7 10-6 10-3 6 14 3 11 5 19 2 10 4 5 6 3 10 3 7 3 12 1 10v30l-4 15-8 12-7 6-9 6-7 3-9 1v2h-8l-1-1-25-1-9-4-17-9-10-9-10-10-8-11-8-16-6-10-7-14-5-13-3-8-2-12h-2l-3-10-2-5-3-17-1-15-1-1-1-8v-24l4-21 8-13 6-9 8-9 13-9 5-2z" fill="#070605"/>
<path transform="translate(1088,162)" d="m0 0h13l11 4 9 6 7 10 5 12 10 28 2 10 3 6 5 17 5 23 2 6 1 13h2l2 26 2 16v32l-1 4 1 6-2 3-2 18-4 13-5 11-4 9-11 11-10 6-13 4-10 2h-16l2-6 4-5 1-21-4-16-6-10-10-6-1-1v-10l2-4v-6l-1-7h2l-2-18-1-2-1-27-6-5v-2l-7 1-22-6-13-4-5-1 2-4 9-10 8-6 11-12 9-6 1-6-3-8-10-14-5-9-11-12-9-8-8-5-2-5h-8l-5-3h-8l-10 3-9 6-8 6-7 11-3-1-5-12-12-23-2-3v-4l23-3 7-2 21-2 1-1 7-1h15v-2h5l4 1 11-2h18l8 1 1-3h29z" fill="#FDFCFC"/>
<path transform="translate(771,1848)" d="m0 0 5 1 23 10 26 8 16 4 20 3 22 1 14 1h48l27-1h14l28 7 12 2 18 5 34 7 42 6 54 6 28 1h16v-2l8 2 54-9 25-4 33-8 13-5 11-5 14-4 6 8 2 13v10l-3 3h-2l-1 3-14 4-14 6-24 5-21 6-11 3-21 3-22 3-17 3-25 3-32 1-13 1h-7l-4-1-29-2-52-9-15-4-9-3-16-4-21-4-22-6-2-1h-11l-18 1-6 1-39 1h-32l-10-2-19-2-25-4-22-5-30-11-12-6-1-6 2-14 6-19z" fill="#846737"/>
<path transform="translate(561,668)" d="m0 0h21l8 1 15 1 18 2 31 9 15 6 11 7 11 8 7 7 7 8 12 12 1 2 8-1 2-2 1-9h-2l-4-6-6-5v-2l14-5 5-1h24l11 4 13 7 14 11 14 12 9 10 8 16 2 9-12 3-11 2-36 8-39 6h-32l-12-2-9-1-35-6-18-5-9-3-7-3-10-4v-2l-9-2-3-3-9-4-10-7-13-9-12-11-9-10-6-10-2-6v-5l3-2 1-9 5-6 16-8z" fill="#D8471B"/>
<path transform="translate(1058,1334)" d="m0 0h5l-1 6-6 14-2 7-3 9-7 25-5 13-2 10h-2v7l-4 11-3 8-3 14-2 7-7 25-3 8h-2l-1 11-6 20h-2l-1 11-2 10-3 3-9 3-6 5h-55v-2h-8l-9-3-4-4-6-2-6-5-3-3v-2h-2l1-5 3-7h2l3-9 5-10 4-9 6-15 5-12 3-9 7-22 4-10 2-3 2-7 9-27 5-13 3-4 1-7 3-8 5-19 1-1 30-1 12-1 11-2 17-1 7-2z" fill="#DDDEDB"/>
<path transform="translate(800,1268)" d="m0 0 5 1 10 5-1 7-7 11-5 13-10 17-6 12-5 8-2 4-2 7-5 5-4 8-1 4h-2l-2 6-16 25-8 11-4 7-10 15-5 6-6 10-6 9-6 10-5 5-4 6-2 7-4 4-8 12-3 5-4-2-5-6-11-9-10-9-11-8-8-5-11-7-5-3-16-8-2-4 4-7 3-3 10-15 2-5h2l2-4 9-12 2-5h2l2-5 14-19 10-15 2-5h2l2-4 7-9 6-7 14-2 2-1 14-2 9-2 4-3 12-2 3-3 9-5 8-4 8-2 20-16 8-8 8-7z" fill="#DEDFDD"/>
<path transform="translate(213,142)" d="m0 0h7l1 2 1 28 3 26 5 18 8 19 5 11 8 16 12 19 11 13 5 7v3l-12 9-11 6-26 12-16 7-14 5-5 1-14-9-12-11-10-14-9-14-14-28-6-20-4-13-2-18v-11l2-26 2-9 8-4 38-12 23-7 3-2z" fill="#AA0D0C"/>
<path transform="translate(402,167)" d="m0 0h17l6 2 8 7 7 9 13 20 9 14 4 8v5l-5 4-17 4-12 5-15 9-16 12-13 10-8 7-11 11-21 28-7 10-4 3-2 4-4-2-5-5-6-7-8-14-10-26-2-11v-8l4-13 11-21 10-14 15-15 11-9 16-12 11-8 13-5z" fill="#A90D0C"/>
<path transform="translate(549,955)" d="m0 0h18l4 1 13 1 3 3 7 1 9 6 16 12 4 6 4 7v2h2l2 8 3 16-1 23-3 9-3 10-4 6-2 6-3 5-4 6-8 10-7 8-9 7-5 4-10 5-9 3-8 4-17 3-14 1-8 2-5-1-9-2-4-3-7-2v-2l-5-1v-2l-6-2-8-6-6-5-6-9-4-8-1-7h13l19 3h24l11-4h2v-2l6-2 8-7 7-11 5-5h2l3-11 5-11 3-10v-31l-5-9h-7l-4 2-12-6-9-6-5-3v-4l7-4 4-2z" fill="#F9FDF6"/>
<path transform="translate(474,1193)" d="m0 0 4 1 9 16 4 7v2l4 1 5 6 6 5 1 2 9 5 17 12 8 4 2 3 2 23 4 9 1 4 4 1 9 9 19 9 24 11 13 4h11l13 4 1 3-4 9-8 15-8 10-8 16-9 9-4 8-9 14-9 11-7 10-4 4-9 1-1-1h-28l-5 2-22 3h-5l-1-1v-22l-7-36-9-32-6-16-9-19-9-14-11-16-2-5-12-12-4-5-14-10-18-11-21-9-12-2-14-5-6-2-21-2-6-1-31-1h-24l-16 6-14 5-9 1-14 7-11 6-16 15-11 12-10 13-9 10-5 5-3 2-6 2-11 6-11 8-13 10-18 18-12 19-7 10-7 23-6 15-1 5v61l4 10 4 18 3 15 9 17 8 17 7 11 11 20 6 9 7 11 3 6 7 9 13 17 22 22 7 8 39 39 8 7 8 9 5 12 5 17 4 16 6 18 10 21 7 11 7 10 5 5 7 8 1 4-3 5-3 4-7 1-8 7-6 9v9l4 8 8 8 17 11 15 6 23 11 22 8 25 6 8 3 24 6 26 8 21 6 5 2 17 2 23 5 37 9 27 6 37 5 42 6 25 3 19 2 82 6 5 1 68 2 25 2 50 2 12 1h86l56-3 38-2 30-2 18-2 52-3 51-5 28-2 12-2h16v4l-14 1-2 4h-7l-6-1-4 1v-2l-9 2-3-1-12 1h-11l-4 4h-7l-1-1h-8l-8 5h-4l-3-4-8-1-6 5-6-1h-17l-2 4-64-1-1 4-62 1-4 4-6-1h-7l-4 1-5-1h-6l-4 4h-88l-4-4h-7l-4 2-6-5-5-1-5 5-10-1-3 1-6-2-1-2-7-1-4 1-1-1h-7l-5 1-4-2-1-2-100-1-2-3h-9l-5 1-6-3-1-1-38-1h-15l-3-3-7-1-9 1-6-1-8 1-7-3-5-2-4 2-4-1-5-3-8-1-4 1-9-1-6 1-10-5-5 1-2 1-6-1v-2l-6 2-8-3v-3h-2v-2h-6l-4 1-2-2-6-2-7-1-3 2-5-2-5-1v-2l-4-1-4-3-6-1-5 2v-2h-7l-3 2-4-2-4-1v-2l-3 1-2-2-6 2-8-3-3-4-2-2v2h-2v-2l-4 1v-2l-7-1v-2l-5 2-4-1-6-2-3-2-1-3-9-1-2-1v3l-5-1v-2l-4 1-4-4v2l-7-2-4-2h-5l-3-3-10-3v2l-3 1-8-2-2-1v-2l-5-1-7-3v-2l-8-2-6 2-4-6v-2l-3-1v-2l-4 1-4-2-1-2-8-4-1 3-6-2-10-6-5-4v-2l-4-1-5-4-8-16-1-4 4-11 6-8 8-5 5-9v-5l-10-12-6-12-7-10-5-10-4-5-2-9-4-6 1-9-4-8v-7l-3-7-3-6-2-9-5-5-2-3v-3l-4 1-7-6-4-4v-2l-4-2-7-7v-2l-4-2-11-13-10-10-7-8-5-6-8-6-7-8-18-24-11-13-6-15-3-3-11-22v-2h-2v-2l-4-2-4-9-5-15v-2l-4-2-3-5-3-7v-9l-5-2-2-2 1-5 3-2v-5l-4-8v-7l-1-5h-2v-62l7-19 7-14v-8l7-10 12-18 11-11 6-8 10-8 11-9 3-3 9-2 3-2 5-1 6-7 7-3 20-28 9-7 6-7 5-6 7-4 7-1 2-5 8-2 5-2 3-2 11 1 8-5 8-4 2-2h85l7 2 2 2h10l3 1 1 5 5 2 8-2 22 8 12 7 5 5v2l10 1 5 5 1 4 7 1 5 5v5l3 2v2l4 2 9 13 11 17 3 4v6l7 8 4 9 2 9 5 7 2 10 3 5-1 4v7l5 7-1 2 1 9 3 2-1 16 5 7-2 14h61l7-1 5-9 8-9 4-4v-6l5-5 3-1 1-8 8-7 6-9 10-19 6-9 6-8 1-4h-10l-4 1-2-2-5-2v-2l-7 2-14-7-4-3v-3h-3v-3h-5l-5 1-11-6-12-9-2-4-9-7-4-8v-16l-1-3-8-7-7-6-7-5-1-2-6-3-13-11-7-9-5-5-7-10-3-10z" fill="#CEAF37"/>
<path transform="translate(1228,839)" d="m0 0 18 2 14 2 9 5 7 3 14 7 7 5 9 5 5 4 4 5 8 7 7 9 9 12 7 12 5 17 2 10v10l-1 13-6 16-6 12-7 8-7 1-3-3-3-6-8-9-13-18-11-16-8-9-6-5-5-7-2-1v-3h-2l-7-8-10-9-10-7-14-10-10-5-4-3-6-2v-2l-9-2-7-3-11-4-6-5 1-4 5-6h2v-2h3v-2l12-6 10-4 15-2z" fill="#F9FDF7"/>
<path transform="translate(113,177)" d="m0 0h4l-2 23-1 5v25l3 18 4 10 5 12 4 12 8 18 16 23 9 11 5 6 8 7v3l-16 5-8 4-9 2-10 4-16 3h-5l-11-11-9-11-6-8-9-19-7-10-6-11-6-12-5-12v-10l-2-1-4-18-2-6-1-5v-26l5-12 5-2 10-2 15-5 9-2 7-2 13-4z" fill="#FDFCFC"/>
<path transform="translate(161,1358)" d="m0 0h15l5 1 2-1h19l15 3 2 4 8 1 8 2 3 2 10 3 3 3 6 5 9 4 13 9 11 7 10 8 9 10 18 18 7 11 15 20 2 5 4 4 7 14 6 10 13 38 2 4 2 9 7 21 6 25 2 16 3 11-1 4 1 17 3 31 6 2 2 3 2 4h8l5 4 4 5 9 6 15 14 7 6 8 7 13 13 4 6 4 4 12 24-1 4-4-9-8-15-5-6-6-3h-8l2 7 9 12 7 15 2 8 3 6 3 15v19l-1 2-1 11-4 10-6 8v-3l5-9 3-7v-9l2-5v-15l-4-18-3-6-2-8-9-17-8-11-1-6h-2l-27-27-10-8-21-14-5-3-9-3-6 1-6 3h-6v4l-16 5-19 7-24 6-22 6-31 6-16 2-1 16h-1v-14l1-5-3-1-5-7 7 1 30-5 30-6 18-5 21-6 15-5 17-9 4-3h2l2-8 1-2v-10l-1-9v-20l-6-29-3-14-5-21-4-13-5-15-3-6-6-18-7-14-7-13-6-9-4-8-8-10-11-16-9-11-11-11v-2l-4-2-15-12-16-9-9-6-16-8-18-7-18-4-27-2-17 3-13 4-20 9-10 8-6 8-1-2 2-4v-6l-3-3-5 1-4 4-2 4-4 1v-5l4-8 1 3 8-4 11-8 15-9 10-5 18-4z" fill="#411609"/>
<path transform="translate(1375,1874)" d="m0 0 5 5 3 6 1 10v10l-3 3h-2l-1 3-14 4-14 6-24 5-21 6-11 3-21 3-22 3-17 3-25 3-30 1-5-1-2-4-4-1h-4v-2h-9l-7-1v-2l-7-3-2-4-5-2v5l-5 2-10-1-5-2-2-3h-2v-4l2-2h-3l-7 2h-7l-5-4-1-4-2-1-6 3-4-2-5 1-10 4h-2v-2l-4 1-2 1-4-1-2-6-2-1 1-3-5-1-2-2-3 1-2 2v-3l-4 1-2-4 4-1 4 3 2-5 1 2 5-1 2 2h2 4v-3h7l2 1v-9l11 1 32 5 40 5 29 3 28 1h16v-2l8 2 54-9 25-4 33-8 13-5 11-5z" fill="#846737"/>
<path transform="translate(378,58)" d="m0 0 6 2 7 3 5 5 9 14 16 32 6 11 8 14 2 1 4 11 28 42 9 13 8 9 3 9 4 1 4 5 7 9 18 18 6 2 9-1 3-3h7l2 1 4-1 1-3 7-1 4-2 4-5h11l5-4 8-3 6-4h10l6-4 7-3 13-4 1-1h8v-2l7-4 7-1h4l5-4h7v2l4 1-38 13-24 8-30 11-30 12-16 7-7 2-7-1-8-6-10-10-7-8-16-17-10-13-12-18-12-19-12-17-12-22-10-19-12-23-10-18-7-9-2-1h-12l-20 7-12 4-12 5-19 9-7 4-6 3-37 10-20 7-10 4-8 2-12 5-20 6-16 5-15 6-24 7-14 6-27 6-18 5-27 6-8 5-10 13-5 7-1 5v33l2 18 4 23 6 16 10 23 6 8 11 21 4 7 7 9 9 11 4 5 6 5 5 7 2 1v2l5 2 7 2 27-8 16-6 19-7 21-7 23-11 16-5 10-5 10-7 16-8 15-9 7-2 5 5 8 14 9 11 8 9 7 11 2 2-1 5-9 10-26 20-9 7-12 12-12 9-3 4-1 16 2 9 5 15v9l-7 8-31 31-9 14-16 33-6 26-3 12v45l4 20 4 17 2 9 11 24 4 11 10 18 9 11 7 11 6 7 2 1v2l4 2 6 7 13 10 17 9 16 8 26 12 7 2 16 3 17 3 18 2-1 5-9 14-12 26-7 14-5 15-5 19-2 13-1 12v16l2 8 6 14 8 13 9 10 7 6 5 6 16 14 16 9 9 6 3 5 3 17 7 17 5 7 3 5 7 6 8 12 1 3 1 34 6 15v5l-5-5-8-16-2-6 1-9 3-7v-7l-8-11v-2l-4-1-5-5-8-15-5-6 1-11-5-9v-10l-10-5-4-3v-2h-6l-11-9-28-28-9-11-6-9-1-7-4-1-2-2v-45l2-7 1-2 2-12 6-21 6-18 5-6 3-6 2-9 6-7v-8l1-2h-2v-3l-7 2h-3l-2-3h-3l-1-3h-2l-3 3-3-2-2 1-5-5-4 2-6-1-4-4h-4l-6 1v-3h-3l-1-2-3-1v-2h-3v-2h-4v-2l-5-1v2l-4-2-3-3-3-1v-2l-4-1-3-1v-2h-8l-5-5-2-1v-2l-3 1-6-4-4-5-4-2-6-4-4-4v-2l-3-1-1-2-3-1-5-7 3-6-6-7-4-6-6-5-7-15-2-9-3-4-4-12v-3h-2v-2l-3-1-2-4 1-11-7-4-1-7v-18l-3-7-1-8 4-11v-8l-3-5-2-4 2-3h2l1-10v-25l4-1 5-1-2-6 1-5 7-7-1-10 6-7 6-10 6-9 8-10 6-8 8-8 7-4 6-8 5-2-2-6-4-7 1-7-4-7v-18l3-5 2-11 3-1 5 1 8-7 14-14 9-6 8-7 14-11 4-3-1-8-10-15-12-16-4-8h-14l-7 6-9 2-6 3-3 5-10 3-9 7-8 4-14-1-4 1-2 4-5 3h-4l-2 4-5 4-5-1-10 7-3 1h-2-3v-2l-10 5-1 2-6 2-5-1-3 4-4 1h-4l-3-2-3 4-5 2-5-1-1 2-5 3h-6l-10-5-7-6-4-5v-2l-4-2-7-8-4-6-7-9-8-13-8-16-6-10-10-19-7-15-5-16v-7l-3-6v-62l7-8 4-5 6-12h9l7-4h9l1-3 6-1 3 1 4-1 4-4 6 1 2 1h4l1-4 12-1 3-4h7v2h2l1-2h2l3-4h5l3-1 2-5 4-2 10 3 2-4h3v-2l8 1 2 1 3-8 8-1h6l5-5 9 1v2l5-2 2-2 2-1 3-5 11 1 4-5 8 2 3-1 1-3 3-3h3v-2l9 1 7-5 6-2 4-2h3v-2l9-1 3 1v2l7-4h3v-2l6-1 4 1 1-4 4-3 9-1 4-4 7-4 2-3 10 1 7-5 10-4 7-4 7 2 5-2zm-117 739 1 3v-3z" fill="#D5B638"/>
<path transform="translate(198,1253)" d="m0 0h1l2 7 2 5 4-1-4 4-8 7-6 7-9 12-2 3 10-2h20l36 4 5 2v2l5-1 13 2 4 2 1 2 9 2 23 11 15 11 13 10 11 11 7 6 2 6-3 3h3l1-2 4 2 6 8 11 14 9 15 10 17 9 22 7 16 5 16 6 20 2 12 7 30 2 15 3 12 2 23 2 15 2 9 4 16 5 8 3 3 5 3 1 3 5 2 11 9 13 12 4 5 8 7 13 13 5 7 5 4 3 5 8 10 4 8 5 5 3 8 1 7 7 14 7 22 2 26v11l-1 3v14h9v1l-10 1-3-9-5-2-2-2-4 13-3 4-2-1 4-7 5-18 1-2 1-17-3-14-2-12-8-19-10-18-7-11-3-6-8-9-9-12-5-3-18-18-7-6-5-5-10-7-14-10-7-6-3-6v-7l1-5-1-2-2-12-2-9-1-8-1-6-5-34-3-16-3-20-5-18-2-12-5-15-2-9-12-27-5-8-4-8-13-20-9-12-1-3h-2l-5-7-6-5-9-11-11-11-12-9-9-7-17-9-17-6-8-2-3-1v-2l-22-3-24-1h-16l-26 3-7 4-14 5-13 8-10 8-3 2-4-9v-3l-9 2-21 21v-3l20-20 12-9 15-10 7-4 7-2 4-5 6-5 11-14 7-8 14-15z" fill="#411609"/>
<path transform="translate(371,87)" d="m0 0h8l4 5 7 9 20 40 5 12v4l-18 2-15 4-16 8-14 10-19 14-23 23-9 13-5 10h-2l1-24 2-9 2-23 2-4 4-19 5-16 4-10 5-10 10-17 10-11 27-9z" fill="#FCFCFA"/>
<path transform="translate(769,1832)" d="m0 0 9 6 8 5 21 8 14 5 18 4 19 2 36 2 11 1 2 1 26 1 20-3h42l21 7 35 9 24 5 17 3 31 4 12 2 24 2 30 1h34l19-2 12-3 19-2 29-5 16-2 20-6 4-4 7-1 6-4 2 1-1 2 3 3 7 1 7-2 5 1-1 2-2-1-18 6-13 6-17 5-22 5-57 9-14 3-10 1-6-3v2l-2 1h-14l-28-1-54-6-42-6-34-7-22-6-16-3-20-5h-14l-27 1h-48l-14-1-22-1-25-4-31-9-25-10-6-3h-4v-2l8-2v-5l-5-2-4-4z" fill="#411609"/>
<path transform="translate(469,245)" d="m0 0h6l8 8 7 8 10 9 3 3v2l-13 5-10 6-13 7-11 7-22 11-7 4-12 8-6 3-10 6-17 10-5 2v2h-3v2l-11 6-3 1v2l-4 3-4-1-3-5v-10l1-3h2l1-5 8-11 7-10 10-13 7-8 5-5 14-12 9-7 11-9 9-6 5-3 5-2 9-2 1-1z" fill="#FCFCFA"/>
<path transform="translate(1038,399)" d="m0 0h10l12 3 14 11 4 6v12l-5 16-4 6-14 9-16 9-17 4-6 1h-15l-14-3-10-5-4-8-1-11 2-11 6-12 9-10 9-6 17-7z" fill="#AA0D0C"/>
<path transform="translate(309,112)" d="m0 0 2 1-7 10-6 16-5 14-6 23-2 13-1 2-1 10-3 6 1 30-2 2 1 7 1 2 1 31 1 4-4-2-7-9-4-6-6-10-4-9-5-8-11-22-4-15-1-1-1-16-2-5-1-15-1-2v-8l1-4 1-13 4-3 25-7 14-4 9-4 10-4 8-2z" fill="#FCFBFA"/>
<path transform="translate(494,1978)" d="m0 0 13 1 33 8 28 5 61 8 11 2 38 4 82 6 5 1 68 2 25 2 50 2 12 1h86l56-3 38-2 30-2 18-2 52-3 51-5 28-2 12-2h16v4l-14 1-2 4h-7l-6-1-4 1v-2l-9 2-3-1-12 1h-11l-4 4h-7l-1-1h-8l-8 5h-4l-3-4-8-1-6 5-6-1h-17l-2 4-64-1-1 4-62 1-4 4-6-1h-7l-4 1-5-1h-6l-4 4h-88l-4-4h-7l-4 2-6-5-5-1-5 5-10-1-3 1-6-2-1-2-7-1-4 1-1-1h-7l-5 1-4-2-1-2-100-1-2-3h-9l-5 1-6-3-1-1-38-1h-15l-3-3-7-1-9 1-6-1-8 1-7-3-5-2-4 2-4-1-5-3-8-1-4 1-9-1-6 1-10-5-5 1-2 1-6-1v-2l-6 2-8-3v-3h-2v-2h-6l-4 1-2-2-6-2-7-1-3 2-5-2-5-1v-2l-4-1z" fill="#D8B938"/>
<path transform="translate(903,1272)" d="m0 0h7l5 2 1 7-3 16-2 15v10l6 9 8 4 5 2-3 2-7 1-6-4-6-10-4-3 1-5 2-2 1-5v-20l4-10-2-4-7-1-1 3-2 10-8 25-6 21-7 12-6 5-4 1v2l-5 4-8-1h-9l-6 2-5 3-5-1-4-1-4 2-4-1-8-4h-5l-9 12h-3l1 4-10 16-6 9-7 11-7 10-8 13-17 26-11 17-8 13-10 18-7 10-4 6h-2l-2 4-7 9 2 6 2 2v38l-4 7 2 9-8 11-8 12-7 7v13l4 7-2 10 3 3 2 1v63l-2 7-8 25-2 6 2 2-1 7-6 4-2 9-3 7 1 10 1 3 4 1h41l7-3 4-5 15 1-1-6-6-16-1-7 1-7-3-6-1-10v-28l2-8 6-18 3-3h3l-3 11-4 8-1 1v45l3 12 3 16 4 15v8l-1 1-22 1-7 3h-55l-5-1 1-6 4-9 7-15 8-23 4-12 3-12 1-11 1-32-1-19-6-29-2-7v-7l15-15 9-17 2-10 2-7v-24l-3-16v-7l6-9 10-13 15-25 10-16 14-22 6-8 10-15 7-11 8-11 13-23 10-18 6-9 6-1 10 3h26l15-4 13-4 9-6 5-9v-7l3-16 6-25 4-8z" fill="#D5B638"/>
<path transform="translate(260,462)" d="m0 0 2 2 5 15v9l-7 8-31 31-9 14-16 33-6 26-3 12v45l4 20 4 17 2 9 11 24 4 11 10 18 9 11 7 11 6 7 2 1v2l4 2 6 7 13 10 17 9 16 8 26 12 7 2 16 3 17 3 18 2-1 5-9 14-12 26-7 14-5 15-5 19-2 13-1 12v16l2 8 6 14 8 13 9 10 7 6 5 6 16 14 16 9 9 6 3 5 3 17 7 17 5 7 3 5 7 6 8 12 1 3 1 34 6 15v5l-5-5-8-16-2-6 1-9 3-7v-7l-8-11v-2l-4-1-5-5-8-15-5-6 1-11-5-9v-10l-10-5-4-3v-2h-6l-11-9-28-28-9-11-6-9-1-7-4-1-2-2v-45l2-7 1-2 2-12 6-21 6-18 5-6 3-6 2-9 6-7v-8l1-2h-2v-3l-7 2h-3l-2-3h-3l-1-3h-2l-3 3-3-2-2 1-5-5-4 2-6-1-4-4h-4l-6 1v-3h-3l-1-2-3-1v-2h-3v-2h-4v-2l-5-1v2l-4-2-3-3-3-1v-2l-4-1-3-1v-2h-8l-5-5-2-1v-2l-3 1-6-4-4-5-4-2-6-4-4-4v-2l-3-1-1-2-3-1-5-7 3-6-6-7-4-6-6-5-7-15-2-9-3-4-4-12v-3h-2v-2l-3-1-2-4 1-11-7-4-1-7v-18l-3-7-1-8 4-11v-8l-3-5-2-4 2-3h2l1-10v-25l4-1 5-1-2-6 1-5 7-7-1-10 6-7 6-10 6-9 8-10 6-8 8-8 7-4 6-8 5-2-2-6-4-7 1-7zm1 335 1 3v-3z" fill="#D5B637"/>
<path transform="translate(1011,1882)" d="m0 0 15 2 18 5 18 4 1 2v9l-10-2v3l-7 2-1-3h-5l-1-1-2 4-5-2h-3l2 3 5 1 5-2 1 3 5 1 1 4 2 6h5l2-2 3 1v2l5-1 1-2 6-2 5-1 4 2 7-3 3 3 1 4 4 2 12-1 2-2 3 3-3 1v4l3-1v2l6 3 12 1 3-1-1-3 1-2 6 1v2l5 4 4 2-1 2h23v1h-7v2l6-1 3 2v2l3 1 1 2-13 1h-7l-4-1-29-2-52-9-15-4-9-3-16-4-21-4-22-6-4-9h6v-7l8 2v2l5-1 3-8 3 1-2-2v-3l-8-1-2-4h9l6-3z" fill="#876233"/>
<path transform="translate(161,1358)" d="m0 0h15l5 1 2-1h19l15 3 2 4 8 1 8 2 3 2 10 3 3 3 6 5 9 4 13 9 11 7 10 8 9 10 18 18 7 11 15 20 2 5 1 3h-3l-5-9-10-11-8-12-2-1v-2l-2-1v-4l-8 1-7-5v-2l-3-1-4-4v-2l-5-2-7-7-6-3v3l4 2 1 2-4-2-10-8-16-9-9-6-16-8-18-7-18-4-27-2-17 3-13 4-20 9-10 8-6 8-1-2 2-4v-6l-3-3-5 1-4 4-2 4-4 1v-5l4-8 1 3 8-4 11-8 15-9 10-5 18-4z" fill="#421609"/>
<path transform="translate(474,1193)" d="m0 0 4 1 9 16 4 7v2l4 1 5 6 6 5 1 2 9 5 17 12 8 4 2 3 2 23 4 9 1 4 4 1 9 9 19 9 24 11 13 4h11l13 4 1 3-4 9-8 15-8 10-8 16-9 9-4 8-9 14-9 11-7 10-4 4-9 1-1-1h-28l-5 2-22 3h-5l-1-1v-22l-7-36-9-32-6-16-9-19-9-14-11-16-2-5-12-12-4-5-14-10-18-11-21-9-12-2-14-5-6-2-21-2-5-2v-4h19l7 2 2 2h10l3 1 1 5 5 2 8-2 22 8 12 7 5 5v2l10 1 5 5 1 4 7 1 5 5v5l3 2v2l4 2 9 13 11 17 3 4v6l7 8 4 9 2 9 5 7 2 10 3 5-1 4v7l5 7-1 2 1 9 3 2-1 16 5 7-2 14h61l7-1 5-9 8-9 4-4v-6l5-5 3-1 1-8 8-7 6-9 10-19 6-9 6-8 1-4h-10l-4 1-2-2-5-2v-2l-7 2-14-7-4-3v-3h-3v-3h-5l-5 1-11-6-12-9-2-4-9-7-4-8v-16l-1-3-8-7-7-6-7-5-1-2-6-3-13-11-7-9-5-5-7-10-3-10z" fill="#D4B537"/>
<path transform="translate(390,1667)" d="m0 0 2 4-1 2h2l1-5 5 1v8l5-1 1-3 1 4 6 2 2 3 2 4h8l5 4 4 5 9 6 15 14 7 6 8 7 13 13 4 6 4 4 12 24-1 4-4-9-8-15-5-6-6-3h-8l2 7 9 12 7 15 2 8 3 6 3 15v19l-1 2-1 11-4 10-6 8v-3l5-9 3-7v-9l2-5v-15l-4-18-3-6-2-8-9-17-8-11-1-6h-2l-27-27-10-8-21-14-5-3-9-3-6 1-6 3h-6v4l-16 5-19 7-24 6-22 6-31 6-16 2-1 16h-1v-14l1-5-3-1-5-7 7 1 30-5 30-6 18-5 21-6 15-5 17-9 4-3h2l2-8z" fill="#421609"/>
<path transform="translate(1066,140)" d="m0 0 46 1 4 6 6 1 4-1 5 3 4 5 4 7 7 8 14 28 3 11 5 4 1 5-1 4 4 8 3 10 1 2v15l3 6 3 10 2 5-1 5v8l4 5v29l3 3 1 7-1 6 3 5 1 1v14l-3 3-1 94-4 6-1-3 1-10v-107l-4-41-5-30-10-41-5-16-10-23-9-19-9-13-7-6-9-4-13-3-8-1h-37l-42 3-29 3-48 6-13 3-68 9-28 6-40 8-68 16-26 6-12 4-7 2 3-8 4-2h7l4 1 3-1 4-4h7l1 1h5l3-7 9-1 2 1 8-2 4 2 5-2 5-3h10l3-3 10-2 2-2h12l11-1 9-6 10-2 2-2 6-1 7 2 2-1h18l5-6 8-2 9 1 4-1h7l5 1 10-5 10 2 4-2 11 1 3-3 9-1h5l4-4h7l5 1 4-2 3 1h3v2l6-2 4-3 5-1 13 1 5-1 10 1 6-2 6-3 12 2 4-4z" fill="#D7B839"/>
<path transform="translate(771,1848)" d="m0 0 5 1 23 10 26 8 16 4 20 3 13 1v2h7l-1 2-2 3-6 2v1h-5l-1-1-4 2-6-2-11-3-4-3v-2h-2l1 3-3 1-9-3-1-1-3 4-5-1-6-3v-3l-9-1h-2v-3l-2-1v-3h-3l-1 4-3-3-4 1-4 2h-6l2 3 3-2 5 1 1-4 3 3 7 2 10 1 1 4h-3l-1 5 2 3h-2l1 2h2l1-2 9 3-2 4h-2v4h8l4 1 19 4 8 3h4v2l3-1v2l5 2 3 2-2 4-16-1-25-4-22-5-30-11-12-6-1-6 2-14 6-19z" fill="#876233"/>
<path transform="translate(1227,841)" d="m0 0h12v2h11l5 1v2h10l10 4 15 8 7 5 9 5 5 4 4 5 8 7 7 9 9 12 7 12 5 17 2 10v10l-1 13-6 16-6 12-7 8-7 1-3-3-3-6-8-9-13-18-3-4v-8l-4-4v-6l5 2 12 14 9 10 10 10 5-1 4-8 2-12v-24l-4-11-6-12-11-13-5-10-10-9-8-7-11-7-9-5-5-4-5-5-12-1-16-5-10-2-1-4z" fill="#FCFCFA"/>
<path transform="translate(672,943)" d="m0 0h47l10 6 7 3 12 3 5 5 3 1v2h5l15 9 12 9 10 10 9 12v2h2l3 3 3 5 4 7v2h2l8 12 1 9-4 1-5-3-7-9-7-10-4-8-7-7-6-10-4-6-7-5-21-8-14-9-14-7-19-5-11-1h-22l-17 3-10 3-1 6 5 11 3 10-1 3-9-5v-3h-2v-2h-2v-3l-3-1-9-13-1-5h-2l-1-6h2v-2l21-4 1-1 18-2z" fill="#FBFAF7"/>
<path transform="translate(378,58)" d="m0 0 6 2 7 3 5 5 9 14 16 32 6 11 8 14 2 1 4 11 28 42 9 13 8 9 3 9 4 1 4 5 7 9 18 18 6 2 9-1 3-3h7l2 1 4-1 1-3 7-1 4-2 4-5h11l5-4 8-3 6-4h10l6-4 7-3 13-4 1-1h8v-2l7-4 7-1h4l5-4h7v2l4 1-38 13-24 8-30 11-30 12-16 7-7 2-7-1-8-6-10-10-7-8-16-17-10-13-12-18-12-19-12-17-12-22-10-19-12-23-10-18-7-9-2-1h-12l-20 7-12 4-12 5-19 9-7 4-6 3-37 10-20 7-10 4-8 2-12 5-20 6-16 5-15 6-24 7h-6l3-3 2-5 4-2 10 3 2-4h3v-2l8 1 2 1 3-8 8-1h6l5-5 9 1v2l5-2 2-2 2-1 3-5 11 1 4-5 8 2 3-1 1-3 3-3h3v-2l9 1 7-5 6-2 4-2h3v-2l9-1 3 1v2l7-4h3v-2l6-1 4 1 1-4 4-3 9-1 4-4 7-4 2-3 10 1 7-5 10-4 7-4 7 2 5-2z" fill="#D7B839"/>
<path transform="translate(564,562)" d="m0 0 10 2 5 3 14 4 11 4 13 5 18 4 14 3 7 2 14 2 34 2 7 2 3 1 3 9 2 3-6 3-14-1-15-2-32-3h-11l-10-2h-4v-2l-26-1-1-2h3l1-6-4-1-14-6-19-6-5-4v-10z" fill="#FAF9F7"/>
<path transform="translate(536,1076)" d="m0 0 5 1-1 5-7 6-12 6-9 3h-19l-6 1 1 4 8 5 16 6 5 1 22-1 15-1 11-3h7l1 2v6l-10 5-5 2-17 3-14 1-8 2-5-1-9-2-4-3-7-2v-2l-5-1v-2l-6-2-8-6-6-5-6-9-4-8-1-7h13l19 3h24l13-5z" fill="#FBFAF8"/>
<path transform="translate(484,1143)" d="m0 0h5l5 2 11 2h15l5-1h9l3 1v4l-10 5-10 3-16 1 1 7 4 8 8 9 6 9 11 9 13 10 10 8v2l5 2 15 7 12 6 4 4 2 6h-17l-12-5-1-3-6-1v-2l-4-1-13-9-11-7-12-11-5-4-9-11-7-9-9-21-4-9 1-5z" fill="#FBFAF6"/>
<path transform="translate(1173,753)" d="m0 0h31l18 4 8 4 8 6 5 6 3 12 1 13v10l-3 6-6 5-2 1h-7l-4 3-35 9-10 6-10 8-6 5-8 10-2 2-7 1-27 1-5-4-1-3-3-3-3-6-6-9-6-11-7-12-4-5-10-18-1-5 5-5 19-8 29-11 29-9 8-2zm13 3-7 4-3 2-1-2h-3-9l-8 5-6-2h-7l-5 3-4 4-8 4-6 2-4-2-7 2-7 8-5 2-7-1-6 2-2 6 2 3 1 2 4 12 5 9h4v2l4 1v7l5 9 7 10 4 10 5 2 2 2 8-3 1-2 5-1 5 5 5-1 4-6 9-4 7-8 6-2 2-6 3-3 6-3 8-1 4-3h9l3-1 3-3 9-1 1-3h11l7-6 2-3v-7l-3-5v-20l-4-6-6-5-6-1-5 1-8-3-6-4-7-1-4 1z" fill="#D3B438"/>
<path transform="translate(1142,1283)" d="m0 0 5 4-1 5-3 2v8l-4 4-12 6-8 6-10 5-9 6h-3l-2 4-2 2h-3l2 6-2 5-5 3-1 5-2 4v2h2v4h-3l1 5-3 3-3 1v11l-3 5-4 1-1 9 1 5-1 3-1-1-2 7-1 5 2 3-4 9-3 4-1 5-7 20-1 2v21l4 4 7 4 17 17 9 6 1 8 9 16 1 3v22l-3 6-1 1 1 12-2 2-6 1v7l2 4 5 2 7 8v2l7-2 6 5v2l6 1 4 3h6l4-3 7-4 3-3 7-1 7 1 8-7 11-5 7 1 7-1 7 2-3 2-21 6-32 11-10 6-6 3-5-2-11-8-15-9-8-7-8-5-1-4 10-14 5-15v-17l-6-15-7-12-11-12-11-10-9-6-7-7 1-7 8-32 6-18 4-14 3-12 13-39 8-21 7-11 7-6 18-8 9-6 9-5 4-5z" fill="#D5B738"/>
<path transform="translate(257,1220)" d="m0 0h66v4l3 1-35-1h-24l-16 6-14 5-9 1-14 7-11 6-16 15-11 12-10 13-9 10-5 5-3 2-6 2-11 6-11 8-13 10-18 18-12 19-7 10-7 23-6 15-1 5v61l4 10 3 12v5l-6 4-3-3 1-5 3-2v-5l-4-8v-7l-1-5h-2v-62l7-19 7-14v-8l7-10 12-18 11-11 6-8 10-8 11-9 3-3 9-2 3-2 5-1 6-7 7-3 20-28 9-7 6-7 5-6 7-4 7-1 2-5 8-2 5-2 3-2 11 1 8-5 8-4z" fill="#D5B637"/>
<path transform="translate(560,1266)" d="m0 0h7l8 2 33 4 6 3v2h3l-2 5-4 2 2 4 10 5 11 3h43l15-2h11l3-2h7l1 1v5l-14 6-1 1-10 1-1 1-27 2-30-1-15-7-8-3-15-5-15-8-8-6-9-9z" fill="#FCFCFB"/>
<path transform="translate(903,1272)" d="m0 0h7l5 2 1 7-3 16-2 15v10l6 9 8 4 5 2-3 2-7 1-6-4-6-10-4-3 1-5 2-2 1-5v-20l4-10-2-4-7-1-1 3-2 10-8 25-6 21-7 12-6 5-4 1v2l-5 4-8-1h-9l-6 2-5 3-5-1-4-1-4 2-4-1-8-4h-5l-9 12h-3l1 4-10 16-6 9-7 11-7 10-8 13-17 26-11 17-8 13-10 18-5 5-3-1 1-5 11-17 6-11 10-15 14-22 7-9 10-16 10-14 13-23 10-18 6-9 6-1 10 3h26l15-4 13-4 9-6 5-9v-7l3-16 6-25 4-8z" fill="#D9BA39"/>
<path transform="translate(494,1978)" d="m0 0 13 1 33 8 28 5 61 8 11 2 38 4 82 6 5 1 68 2 25 2 25 1 7 1-6 7-3 1-8-1-3 1-6-2-1-2-7-1-4 1-1-1h-7l-5 1-4-2-1-2-100-1-2-3h-9l-5 1-6-3-1-1-38-1h-15l-3-3-7-1-9 1-6-1-8 1-7-3-5-2-4 2-4-1-5-3-8-1-4 1-9-1-6 1-10-5-5 1-2 1-6-1v-2l-6 2-8-3v-3h-2v-2h-6l-4 1-2-2-6-2-7-1-3 2-5-2-5-1v-2l-4-1z" fill="#D4B537"/>
<path transform="translate(929,1369)" d="m0 0 1 3-2 8-2 10-6 15-8 26-6 16-7 20-4 10-4 6-25 2-14 7-9 3-8 7-7 8-3 3-12 17-6 12-2 10v18l-1 4-7 4h-2l-2 4-18 18-12 16-10 15-5 6-5 9-6 11-5 16-3 5v11l-6 2-1-7 4-10 3-5 1-10 3-7 3-9 9-9 9-16 11-12 7-11 6-7 6-8 8-8 9 1-1-13v-9l10-30 7-2 2-6 7-10 4-6 11-7 3-3 8-4 5-4h7l6 1 5-2 2-2h12l3-4 2-8 5-11 9-25 3-7 4-12 2-11 5-8 1-8-1-5 3-5z" fill="#D2B337"/>
<path transform="translate(198,1253)" d="m0 0h1l2 7 2 5 4-1-4 4-8 7-6 7-9 12-2 3 3 2-5 5-5 3-1 5 1 2-7 4-14 5-13 8-10 8-3 2-4-9v-3l-9 2-21 21v-3l20-20 12-9 15-10 7-4 7-2 4-5 6-5 11-14 7-8 14-15z" fill="#24160F"/>
<path transform="translate(1140,880)" d="m0 0h11v2l9 1 7 1 6 2 4 1 1 4h12l1 5-1 1h-12l-18-4h-10l-4 2-1 6 5 15 2 12 4 5 12 9 5 5 7 8 5 7 15 30 3 15v8l-2 2-5-1v-2h2l-1-7h-3l-5-17-8-17-16-22-5-4-3-2-12-2-1-1-1-14-3-12-4-10-3-12-3-8v-5z" fill="#FBFBF9"/>
<path transform="translate(1087,1898)" d="m0 0 18 2 40 5 29 3 28 1h16v-2l8 2h8l-1 4-11 5v1h-8l1 5-1 1-11-1v-3l7-1v-1l-9-1-1 3-6 2-11-1-5-1-1 2-4 1h-8l-5-3v2h-4l-1-4-6-1-8-1-6-3-3-1h-15l-7-2h-3v2h-6l-8-2h-3l-1-2h-2v-2l-3-1-2-6z" fill="#876233"/>
<path transform="translate(282,1411)" d="m0 0 6 2 7 7 5 3v2l4 2 3 3v2l8 4 5-1 3 3 1 5 4 2 4 6 6 8 9 11 2 6 5-1 1 7 3 8 5 6 4 10 4 11-1 7-3 1-1 11h-2l-1-3-2 1-6-18-7-14-7-13-6-9-4-8-8-10-11-16-9-11-11-11v-2l-4-2-6-6z" fill="#25160F"/>
<path transform="translate(1221,1587)" d="m0 0h53l7 3 2 2 10 3 10-1 6 3 5 4 2 1v2l8 1 6 3 1 3 6 2 8 3 7 3 8 7 5 3 4 4 2 5 4 1 4 3v2l4 2 12 11 7 8 6 12 5 8 4 13 2 10 5 14v23l4 5v50l-4 4-2-1 1-11v-29l-3-21-6-37-8-23-5-9-12-16-9-9-13-10-14-10-16-10-29-15-14-4-17-4-12-1h-46l-19 1 4-4h11l2-3z" fill="#D9BA39"/>
<path transform="translate(323,1220)" d="m0 0h19l7 2 2 2h10l3 1 1 5 5 2 8-2 22 8 12 7 5 5v2l10 1 5 5 1 4 7 1 5 5v5l3 2v2l4 2 9 13 11 17 3 4v6l7 8 4 9 2 9 5 7 2 10 3 5-1 4v7l5 7-1 2 1 9 3 2-1 16 5 7-2 14 24 1v4l-28 4v-22l-7-36-9-32-6-16-9-19-9-14-11-16-2-5-12-12-4-5-14-10-18-11-21-9-12-2-14-5-6-2-21-2-5-2z" fill="#D6B738"/>
<path transform="translate(131,146)" d="m0 0m-6 1 5 1 2 2-10 5-27 6-18 5-27 6-8 5-10 13-5 7-1 5v33l2 18 4 23 6 16 10 23 6 8 11 21 4 7 7 9 9 11 4 5 6 5 5 7 2 1v2l5 2 7 2 21-6 3 1-4 6-5 2-5-1-1 2-5 3h-6l-10-5-7-6-4-5v-2l-4-2-7-8-4-6-7-9-8-13-8-16-6-10-10-19-7-15-5-16v-7l-3-6v-62l7-8 4-5 6-12h9l7-4h9l1-3 6-1 3 1 4-1 4-4 6 1 2 1h4l1-4 12-1 3-4h7v2h2l1-2h2z" fill="#D4B537"/>
<path transform="translate(1339,1120)" d="m0 0h18l11 3 11 6 9 10 4 11-1 14-2 8-6 12-12 17-8 9-10 8-9 1-2-4 7-7 8-7 14-21 5-12 1-10-3-12-6-9-5-6-8-4-13-3-13 1-3-3 2-1z" fill="#FBFAF7"/>
<path transform="translate(355,926)" d="m0 0h1v8l-3 18-1 12v16l2 8 6 14 8 13 9 10 7 6 5 6 16 14 16 9 9 6 3 5 3 17 7 17 5 7 3 5 7 6 8 12 1 3 1 34 6 15v5l-5-5-8-16-2-6 1-9 3-7v-7l-8-11v-2l-4-1-5-5-8-15-5-6 1-11-5-9v-10l-10-5-4-3v-2h-6l-11-9-28-28-9-11-6-9-1-7-4-1-2-2v-45l2-7 1-2 2-12z" fill="#D5B637"/>
<path transform="translate(265,1857)" d="m0 0v3l-11 14-1 2v9l4 8 8 8 17 11 15 6 23 11 22 8 25 6 8 3 24 6 26 8 21 6 5 2 17 2 23 5 11 3v1h-8l-3 1-5-2-4-1-5 2v-2h-7l-3 2-4-2-4-1v-2l-3 1-2-2-6 2-8-3-3-4-2-2v2h-2v-2l-4 1v-2l-7-1v-2l-5 2-4-1-6-2-3-2-1-3-9-1-2-1v3l-5-1v-2l-4 1-4-4v2l-7-2-4-2h-5l-3-3-10-3v2l-3 1-8-2-2-1v-2l-5-1-7-3v-2l-8-2-6 2-4-6v-2l-3-1v-2l-4 1-4-2-1-2-8-4-1 3-6-2-10-6-5-4v-2l-4-1-5-4-8-16-1-4 4-11 6-8z" fill="#D2B33A"/>
<path transform="translate(1186,1144)" d="m0 0 3 1-1 8v7l-1 2-1 9-7 16-11 15-5 11-3 5 1 6 4 5 12 5 8 4 5 3 2 4 5 2 2 2-22-1-15-5-10-7-7-4-3-2v-5l4-8 9-12 7-10 10-16 7-19 4-10z" fill="#FBFAF7"/>
<path transform="translate(430,135)" d="m0 0 4 2 3 3 4 11 28 42 9 13 8 9 3 9 4 1 4 5 7 9 18 18 6 2 9-1 3-3h7l2 1 4-1 1-3 7-1 4-2 4-5h11l5-4 8-3 6-4h10l6-4 7-3 13-4 1-1h8v-2l7-4 7-1h4l5-4h7v2l4 1-38 13-24 8-30 11-30 12-16 7-7 2-7-1-8-6-10-10-7-8-16-17-10-13-12-18-12-19-12-17-11-20z" fill="#D5B73A"/>
<path transform="translate(260,462)" d="m0 0 2 2 5 15v9l-7 8-31 31-9 14-16 33-6 26-3 12v45l4 20 4 17 2 9 11 24 1 7-3-1-6-12-2-8v-2h-2v-2l-3-1-2-4 1-11-7-4-1-7v-18l-3-7-1-8 4-11v-8l-3-5-2-4 2-3h2l1-10v-25l4-1 5-1-2-6 1-5 7-7-1-10 6-7 6-10 6-9 8-10 6-8 8-8 7-4 6-8 5-2-2-6-4-7 1-7z" fill="#D1B237"/>
<path transform="translate(1422,1806)" d="m0 0 2 3v7l-3 1-1 6 1 7-4 2v10l2 3 21 7 10 9 8 7 10 10 5 9 3 11v31l-6 11-4 4-2 9h-2v2l-6 3-4 8-11 7-11 3-8 5-3 3h-2v2l-10-1-6 5h-5l-5-2-2 2-4-1h-3l-8-1 4-2 19-4 17-4 15-7 18-10 12-11 4-5 8-17 1-17-2-14-5-13-6-9-3-3v-2h-2l-5-5-8-6-16-7-13-5-3-3 1-5 5-10 4-17z" fill="#D6B737"/>
<path transform="translate(549,955)" d="m0 0h18l4 1 13 1 3 3 7 1 9 6 16 12 4 6 4 7-1 5-2 2-5-1-9-11-10-7-15-10-9-3-9-1-5-2h-9l-8 5-10 1-1 2-5-2-5-3v-4l7-4 4-2z" fill="#FAF9F4"/>
<path transform="translate(1204,843)" d="m0 0h4v2l6 2 1 3-12 4-6 5 1 4 12 8 10 7 15 10 8 7 1 3-8-1-7-4-10-2-9-6-6-2v-2l-9-2-7-3-11-4-6-5 1-4 5-6h2v-2h3v-2l12-6z" fill="#FBFBF8"/>
<path transform="translate(713,993)" d="m0 0h11l18 2 9 2v2l8 2 8 6v2h-5l-6-3-29 1h-8v2l-33 5-8 1-4-4v-7l6-4 9-2 12-4z" fill="#322414"/>
<path transform="translate(697,1122)" d="m0 0 3 1v2l11 1 9 3 8 1 5 4 10 7 12 8v2l4 2 12 12 1 4-4-1-8-5v-2l-10-2-7-5-10-5-18-6-16-4-13-3-5-5v-4l2-2z" fill="#2C1F12"/>
<path transform="translate(830,1294)" d="m0 0 5 1 3 3 4 2 1 3 3 1 7 14 1 4v7l-12 5-17 2h-9l-3-2 1-7 6-12 5-12 4-7z" fill="#AA120D"/>
<path transform="translate(709,1055)" d="m0 0h22l19 7 10 5 2 4 4 2 3 2v2h2v3l-6-1-2-3h-5l-4 2-6-4-9-2-13-1v-2l-12 1-3 1-19 1-2-2v-3h-2l-2-3v-4l9-3z" fill="#2E2113"/>
<path transform="translate(1399,806)" d="m0 0 2 1 2 6-4 9-1 1v5l1 1-1 7-3 3h-2l-2 6-8 16-6 13-3 8-1 2h-2l-6 15v22l3 5 4 2v38l-4 6 1 9-11 23-7 13-6 4-5 3-3 3-2 4 1 10 2 4-6-2-2 1v-8l2-8 7-8 9-9 8-13 7-15 3-15 1-14v-10l-2-13-4-13-4-12v-5l6-8 11-21 9-20 5-11 9-26z" fill="#D2B437"/>
<path transform="translate(1166,544)" d="m0 0 2 2 1 9-10 30-5 7-8 21-5 10h6l6-1 1-3h91l6 2 1 4 2 2-16-1-50-1-24 2-16 3-15 1-1-2 6-14 8-15 5-10 6-8 3-7 1-5 2-5z" fill="#D9BA38"/>
<path transform="translate(1322,1077)" d="m0 0h1l2 10-5 6 1 6 1 4 4 1v2l8-1h7l2 1 8-3 6-3 9 4 10 1 3-1 7 3 7 6 5 5 7 8 1 7-1 5 5 9-1 10 1 8-2 3h-2l-1 6 1 6-5 6-3 3 1 5-9 11-4 2v2h-2l-2 5-7 8-4 1-2 4-5 5-1-3 4-6 5-4 5-5 7-8 8-13 9-15 3-14v-15l-4-16-3-6-6-7-11-7-10-3-7-1h-39l-9-1v-7l6-21z" fill="#D8BA3A"/>
<path transform="translate(833,1061)" d="m0 0h4l3 11 3 6v2h2l1 13 2 3v9l2 4v5h-2l1 14-4 26-4 8-2 2-1 7-5-1 2-20 2-16v-45l-2-13-4-9 1-5z" fill="#FBFBF9"/>
<path transform="translate(257,1220)" d="m0 0h66v4l3 1-35-1h-24l-16 6-14 5-9 1-14 7-11 6-16 15-11 12-10 13-9 10-5 5-3 2-6 2-4 1 1-4 3-1 6-7 7-3 20-28 9-7 6-7 5-6 7-4 7-1 2-5 8-2 5-2 3-2 11 1 8-5 8-4z" fill="#DDBE37"/>
<path transform="translate(1241,1927)" d="m0 0h5 3 2v3l7-1 17 3-3 1-1 3 2 2-22 3-17 3-25 3h-17l3-1v-5l-4-2-2-2-1 3-14 1 4-2 8-3h11l4-2 7 1h7l1-2 6 1h5l-2-4 7-1h9z" fill="#876233"/>
<path transform="translate(1165,223)" d="m0 0h3l4 7 3 10 1 2v15l3 6 3 10 2 5-1 5v8l4 5v29l3 3 1 7-1 6 3 5 1 1v14l-3 3-1 94-4 6-1-3 1-10v-107l-4-41-5-30-10-41z" fill="#D0B137"/>
<path transform="translate(321,623)" d="m0 0 4 3 7 14 10 13 9 10 11 14 12 14 8 10 1 5-11 3-7-1-16-8-11-6-5-6-6-11-6-14-3-13v-19l2-7zm3 14-1 1-1 18 4 10 2 9 4 1 1 3 4 3v8l5 1 5-1v2l11 6 11 7 5-1 1-6-3-5-8-7-7-10-4-6-22-22-1-5-1-4-2-2z" fill="#D3B53C"/>
<path transform="translate(585,901)" d="m0 0 2 2-7 3h-8l-2 4-6 3h-6l-9 8-15 5-1 4h23l8-3 7-1 4 2 5 1 9 3 3 3-2 1-13-2-19-1-18 4-19 7-11 5-9 1v-3l13-13 10-7 33-17 8-4z" fill="#D6B73A"/>
<path transform="translate(1142,760)" d="m0 0 3 1-5 4-7 6-8 4-6 2-4-2-7 1-2 4h-2l-2 4-2 2h-3l-1 2v-2h-7l-6 2-1 5 1 2 2 1 3 12 5 10 4 1v2l5 1v7l5 9 7 10 4 10 5 2 3 1-1 3h-7l-3-3-1-3-3-3-3-6-6-9-6-11-7-12-4-5-10-18-1-5 5-5 19-8 29-11z" fill="#D4B538"/>
<path transform="translate(826,169)" d="m0 0 7 1 2 1 2-1h17l2 2-64 13-68 16-26 6-12 4-7 2 3-8 4-2h7l4 1 3-1 4-4h7l1 1h5l3-7 9-1 2 1 8-2 4 2 5-2 5-3h10l3-3 10-2 2-2h12l11-1 9-6 10-2 2-2z" fill="#DBBD3C"/>
<path transform="translate(494,1978)" d="m0 0 13 1 33 8 28 5 61 8 11 2v2h9l3 2-13 2-6-1-8 1-7-3-5-2-4 2-4-1-5-3-8-1-4 1-9-1-6 1-10-5-5 1-2 1-6-1v-2l-6 2-8-3v-3h-2v-2h-6l-4 1-2-2-6-2-7-1-3 2-5-2-5-1v-2l-4-1z" fill="#D7B837"/>
<path transform="translate(1293,982)" d="m0 0 1 2h3l5 8 5 11 2 7 4 7v25l-3 16-4 17-3 4-3-1-1-3v-14l2-12 4-8 1-15-5-8-3-4-4-18-4-8z" fill="#F9F8F3"/>
<path transform="translate(1092,1568)" d="m0 0 2 1 1 12-2 2-6 1v7l2 4 5 2 7 8v2l7-2 6 5v2l6 1 4 3h6l4-3 7-4 3-3 7-1 7 1 8-7 11-5 7 1 7-1 7 2-3 2-21 6-32 11-10 6-6 3-5-2-11-8-15-9-8-7-8-5-1-4 10-14 3-6z" fill="#D9BB3C"/>
<path transform="translate(474,1193)" d="m0 0 4 1 9 16 4 7v2l4 1 5 6 6 5 1 2 9 5 17 12 8 4 2 3 2 23 4 9 1 4 4 1 9 9 19 9 9 4v1h-7l-5 1-11-6-12-9-2-4-9-7-4-8v-16l-1-3-8-7-7-6-7-5-1-2-6-3-13-11-7-9-5-5-7-10-3-10z" fill="#D5B638"/>
<path transform="translate(726,1690)" d="m0 0h3l-3 11-4 8-1 1v45l3 12 3 16 4 15v8l-1 1-22 1-7 3h-55l-5-1 1-4v3l57 1 1-4 7-3 4-5 15 1-1-6-6-16-1-7 1-7-3-6-1-10v-28l2-8 6-18z" fill="#D6B838"/>
<path transform="translate(64,1509)" d="m0 0 1 3 4 16 8 15 8 17 7 11 11 20 6 9 7 11 3 6 7 9 13 17 15 15 1 5-4-2-8-6-7-8-18-24-11-13-6-15-3-3-11-22v-2h-2v-2l-4-2-4-9-5-15v-2l-4-2-3-5-3-7v-9l-3-2z" fill="#CEB037"/>
<path transform="translate(1300,637)" d="m0 0 7 1 7 6 6 3 9 3 5 5v3l10 1 5 3 12 12 5 8 11 11 7 11 4 5 4 9 7 10v4h-2l2 8 3 5v12l-1 8-2-2-4-23-6-16-10-19-9-13-11-13-7-7-14-10-10-5-15-9-16-8z" fill="#D6B737"/>
<path transform="translate(169,1371)" d="m0 0 27 2 18 4 18 7-3 2-8 1-11-4v-2l-5 1h-5l-1 2-2-1h-21l-24-2-7-2-4-2 11-3z" fill="#876233"/>
<path transform="translate(1142,1283)" d="m0 0 5 4-1 5-3 2v8l-4 4-12 6-8 6-10 5-9 6h-3l-2 4-2 2h-3l2 6-2 5-5 3-1 5-2 4v2h2v4h-3l1 5-3 3-3 1v11l-3 5-4 1-1 3v-7l9-27 8-21 7-11 7-6 18-8 9-6 9-5 4-5z" fill="#D8B939"/>
<path transform="translate(119,1347)" d="m0 0 5 1v2l4-2h3l1 3-3 5-1 3v6l3-1-1 3-14 7-13 9-9 6h-3l1-4 8-13 6-11 7-7z" fill="#876233"/>
<path transform="translate(1039,1594)" d="m0 0 2 1-6 7 2 7 7-2 8 1v1l-9 1-10 4-30 10h-7l-2-2-14-3v-3l24-5 7-3 4-3h8l11-6z" fill="#3E160A"/>
<path transform="translate(473,1319)" d="m0 0 3 1 6 7 4 9 2 9 5 7 2 10 3 5-1 4v7l5 7-1 2 1 9 3 2-1 16 5 7-2 14 24 1v4l-28 4v-22l-7-36-9-32-6-16-8-17z" fill="#D9BA39"/>
<path transform="translate(1221,1587)" d="m0 0h53l7 3 2 2 10 3 10-1 6 3 5 4 2 1v2l8 1 6 3 1 3h2l-1 3-5-1-19-10-14-4-17-4-12-1h-46l-19 1 4-4h11l2-3z" fill="#D9BC3E"/>
<path transform="translate(1225,815)" d="m0 0 5 1-2 5-6 3-32 8-10 6-10 8-6 5-8 10-2 2-7 1-27 1v-1l5-1 1-3 5-1 2-3 5-1 2 4 7 1 4-6 2-2 8-3 7-8 5-2 3-6 3-3 6-3 8-1 4-3h12l1-3 6-1 5-1 1-2z" fill="#D2B338"/>
<path transform="translate(650,886)" d="m0 0 17 1 5 6 3 5 7 8 4 11-1 4-4 3-5 2-23 3-10 2h-7l-6 3h-3l1-3h2l1-3 2-1h8v2l6-1v-3l10-2h18l3-2-1-17h-2l-5-7-2-5-2-1h-33l-7 4h-5l-5-1-14 7-6 2v-2h-8l4-3 18-5 7-3 12-1 7-2z" fill="#C8A938"/>
<path transform="translate(1137,1245)" d="m0 0 7 3 15 7 20 5 24 2 31 2 31 1-1 3-5 2-8-1h-14l-6 1-4-2-1-2h-48l-11-4-10-3-8-4-6-1-1 11 3 5 2 4-4 1-1 7-2-3-3-21z" fill="#BEA03C"/>
<path transform="translate(903,1272)" d="m0 0h7l5 2 1 7-3 16-2 15v10l6 9 8 4 5 2-3 2-7 1-6-4-6-10-4-3 1-5 2-2 1-5v-20l4-10-2-4-7-1-1 3-2 10-8 25-4 4h-1l1-10 6-25 4-8z" fill="#D5B638"/>
<path transform="translate(378,58)" d="m0 0 6 2 7 3 5 5 9 14 16 32 6 11 5 9-1 2-4-1-10-19-12-23-10-18-7-9-2-1h-12l-20 7-12 4-4 1 2-4 5-4 10-4 7-4 7 2 5-2z" fill="#D9BA38"/>
<path transform="translate(137,1305)" d="m0 0 5 1-5 5-15 10-14 11-18 18-12 19-7 10-3 10h-1l-1-13 7-10 12-18 11-11 6-8 10-8 11-9 3-3 9-2z" fill="#DABB37"/>
<path transform="translate(801,1269)" d="m0 0 7 1 7 4-1 7-7 11-3 8h-2l-1-5-3-2-2 5-4 2-7-1-1-4 8-10-3-1 3-6z" fill="#F9FDF7"/>
<path transform="translate(1291 2e3)" d="m0 0h16v4l-14 1-2 4h-7l-6-1-4 1v-2l-9 2-3-1-12 1h-11l-4 4h-7l-1-1h-8l-8 5h-4l-3-4-3-1-15-1v-1l35-3 30-3 28-2z" fill="#D0B13A"/>
<path transform="translate(963,150)" d="m0 0 8 1v2h5v2l-30 3-18 4-68 9h-5l5-7 8-2 9 1 4-1h7l5 1 10-5 10 2 4-2 11 1 3-3 9-1h5l4-4h7l5 1z" fill="#D8B93B"/>
<path transform="translate(222,113)" d="m0 0 7 2v2l2 1-8 2-12 5-20 6-16 5-15 6-24 7h-6l3-3 2-5 4-2 10 3 2-4h3v-2l8 1 2 1 3-8 8-1h6l5-5 9 1v2l5-2 2-2 2-1 3-5 11 1z" fill="#D7B939"/>
<path transform="translate(194,608)" d="m0 0 1 4v45l4 20 4 17 2 9 11 24 1 7-3-1-6-12-2-8v-2h-2v-2l-3-1-2-4 1-11-7-4-1-7v-18l-3-7-1-8 4-11v-8l-3-5-2-4 2-3h2l2-9z" fill="#D0B137"/>
<path transform="translate(1464,1946)" d="m0 0h1l-1 7h-2v2l-6 3-4 8-11 7-11 3-8 5-3 3h-2v2l-10-1-6 5h-5l-5-2-2 2-4-1h-3l-8-1 4-2 19-4 17-4 15-7 18-10 12-11z" fill="#D7B939"/>
<path transform="translate(214,733)" d="m0 0 4 1 10 19 10 13 6 9 8 10 2 1v2l4 2 6 7 13 10-2 4-1-2-3 1-6-4-4-5-4-2-6-4-4-4v-2l-3-1-1-2-3-1-5-7 3-6-6-7-4-6-6-5-7-15zm47 64 1 3v-3z" fill="#D7B837"/>
<path transform="translate(1399,806)" d="m0 0 2 1 2 6-4 9-1 1v5l1 1-1 7-3 3h-2l-2 6-8 16-6 13-3 8-1 2h-2l-6 15v27l-2-2-6-18v-5l6-8 11-21 9-20 5-11 9-26z" fill="#D3B437"/>
<path transform="translate(718,980)" d="m0 0h10l15 4 5 3-1 5-3 2h-4v-2l-19-1-17-1-4 1h-7l-1-5 6-3 9-2z" fill="#FDFEFD"/>
<path transform="translate(229,1753)" d="m0 0h3l4 16 5 17 8 18 6 11 6 9 7 11 10 9 2 6-3 5-3 4-7 1-4 2 7-14v-5l-10-12-6-12-7-10-5-10-4-5-2-9-4-6 1-9-4-8z" fill="#D2B337"/>
<path transform="translate(213,359)" d="m0 0 2 1-3 5-5 3h-4l-2 4-5 4-5-1-10 7-3 1h-2-3v-2l-10 5-1 2-6 2-5-1-3 4-4 1h-4l-3-4 1-2 38-14 21-7z" fill="#DABB3C"/>
<path transform="translate(62,346)" d="m0 0 5 2 9 12 9 11 4 5 6 5 5 7 2 1v2l5 2 7 2 21-6 3 1-4 6-5 2-5-1-1 2-5 3h-6l-10-5-7-6-4-5v-2l-4-2-7-8-4-6-7-9-7-11z" fill="#D6B738"/>
<path transform="translate(403,1955)" d="m0 0 9 1 34 10 5 2 17 2 23 5 11 3v1h-8l-3 1-5-2-4-1-5 2v-2h-7l-3 2-4-2-4-1v-2l-3 1-2-2-6 2-8-3-3-4-2-2v2h-2v-2l-4 1v-2l-7-1v-2l-5 2-4-1-6-2-3-2z" fill="#CDAE37"/>
<path transform="translate(514,1830)" d="m0 0 1 4 4 1 2 9 2-1-2 10h2v3l3 1-3 5-10 4-9 3-5 1 2-5 7-14z" fill="#886233"/>
<path transform="translate(1014,1243)" d="m0 0h6l-5 5-19 7-15 4-10 3-3-1 4-1v-5l7-3-95-1-3 7-1-4 2-5 7-1 16 1h74l26-4z" fill="#2E160D"/>
<path transform="translate(1093,1645)" d="m0 0h1l1 10 3 1-13 10-3 1-4 6-7 6-4 5-5 3-5-1 1-5 9-11 17-16 8-7z" fill="#3F160A"/>
<path transform="translate(702,1510)" d="m0 0 4 1-1 5-5 7h-2l-2 4-7 9 2 6 2 2v38l-4 7 2 9-8 10-4 1 3-8 3-5 2-10 2-7v-24l-3-16v-7l6-9z" fill="#D2B337"/>
<path transform="translate(769,1832)" d="m0 0 9 6 8 5 21 8 5 2-1 7-9 1-24-10-4-2h-4v-2l8-2v-5l-5-2-4-4z" fill="#27160F"/>
<path transform="translate(1187,346)" d="m0 0h1l2 20v92l-4 6-1-3 1-10v-63z" fill="#836636"/>
<path transform="translate(265,1857)" d="m0 0v3l-11 14-1 2v9l4 8 8 8 17 11 8 3-3 1-1 4-6-2-10-6-5-4v-2l-4-1-5-4-8-16-1-4 4-11 6-8z" fill="#CFB037"/>
<path transform="translate(726,1690)" d="m0 0h3l-3 11-4 8-1 1v45l3 12v11l-4 1-2-9 1-7-3-6-1-10v-28l2-8 6-18z" fill="#DEBF37"/>
<path transform="translate(79,1462)" d="m0 0h1l1 5-1 29 6 21 5 13 12 23 8 13 10 19 16 23 13 18 7 8 12 13 5 5-1 2-13-12-6-8-2-1v-2h-2l-7-10-4-5-8-12-7-10-11-17-4-9-5-7-7-14-8-15-10-30-1-5v-10l1-19z" fill="#26160F"/>
<path transform="translate(384,1679)" d="m0 0 1 2-13 8-15 7-16 5-15 4-18 5-30 6-30 5-5-1-3-3 2-1 9 1 30-5 13-3 4 1 5-3 25-6 19-6 9-2 18-8z" fill="#876233"/>
<path transform="translate(1083,795)" d="m0 0 2 1 3 12 5 10 4 1v2l5 1v7l5 9 7 10 4 10 5 2 3 1-1 3h-7l-3-3-1-3-3-3-3-6-6-9-6-11-7-12-4-5-5-9v-5z" fill="#DBBC37"/>
<path transform="translate(818,1860)" d="m0 0 7 1v2l4-1 8 4h10l7 2 3 2 26 1 15 2-2 2-10 1h-12l-21-2-21-4-11-3-1-2-6-3z" fill="#28160E"/>
<path transform="translate(929,1369)" d="m0 0 1 3-2 8-2 10-6 15-8 26-6 16-7 20h-1v-5h-2l3-9 9-25 3-7 4-12 2-11 5-8 1-8-1-5 3-5z" fill="#C3A436"/>
<path transform="translate(1124,147)" d="m0 0 6 2 5 6 4 7 7 8 14 28 3 11 5 4 1 5-1 5h-3l-12-28-10-21-9-13-7-6-9-4 4-3z" fill="#D8B937"/>
<path transform="translate(599,1404)" d="m0 0v3l-6 9-8 10-7 10-4 4-9 1-1-1h-28l-5 2-22 3h-5l1-2 25-4 1-3 37-1 7-1 5-9 8-9 4-4 4-7z" fill="#D1B33C"/>
<path transform="translate(656,1778)" d="m0 0 1 4-4 10 1 10 1 3 4 1 40 1v3h-49l-8-1v-5l4-9 7-15z" fill="#E0C138"/>
<path transform="translate(798,1227)" d="m0 0h4l1 2 3 1-2 4-9 6-27 27v-2l-3-1 2-5 9-10 3-1 2-4z" fill="#FAFAF6"/>
<path transform="translate(474,1736)" d="m0 0 4 2 6 5 1 2 2-1 6 7 12 24-1 4-4-9-8-15-5-6-6-3h-8l2 7 9 12 7 15 2 8 3 6 3 15v19l-1 2-1 11-4 10-6 8v-3l5-9 3-7v-9l2-5v-15l-4-18-3-6-2-8-9-17-8-11-1-7-1-2 5 1z" fill="#24160F"/>
<path transform="translate(835,1582)" d="m0 0 5 5 3 5-1 2 3-1 5 5-1 4h3l1-3 4 2 1 4 8 2 1 4-3 3-10-2-8-4-8-3-7-5 2-1 5 2v-11l-3-6z" fill="#291910"/>
<path transform="translate(560,1795)" d="m0 0h1l1 14v11l-1 3v14h9v1l-10 1-3-9-5-2-2-2-4 13-3 4-2-1 4-7 5-18 1-2 1-11 5-3h2l1 9z" fill="#37160B"/>
<path transform="translate(382,857)" d="m0 0h6l-2 5-15 30-2 5-4 8-5 15-3 10-2-4 2-12 8-24 5-6 3-6 2-9 6-7z" fill="#D5B639"/>
<path transform="translate(667,210)" d="m0 0h7v2l4 1-38 13-24 8-7 2 2-4 5-4 14-4 6-3h8v-2l7-4 7-1h4z" fill="#D4B537"/>
<path transform="translate(945,1876)" d="m0 0h19l5 1-1 5 4-4 3 1-2 5 4 2-15 3-3-1h-8l-5-4-5-2-1-3 6-1-1-1z" fill="#876233"/>
<path transform="translate(131,146)" d="m0 0m-6 1 5 1 2 2-10 5-27 6-18 5-22 5h-5l5-5h9l1-3 6-1 3 1 4-1 4-4 6 1 2 1h4l1-4 12-1 3-4h7v2h2l1-2h2z" fill="#D6B940"/>
<path transform="translate(1333,1223)" d="m0 0h4v6l-10 6-11 4-4 3-20-1v-2l34-13h5v-2z" fill="#FDFDFD"/>
<path transform="translate(401,1636)" d="m0 0h1l3 30v7l-1 3-5 1v-8h-5l-1 4h-2v-4l-2 1v-8l2-4 5-1 2-1v-5l-3-1 1-6 4-1z" fill="#25160F"/>
<path transform="translate(1010,1609)" d="m0 0 3 1 1 7h2l-1 3-12 4h-7l-2-2-14-3v-3l24-5z" fill="#3F160A"/>
<path transform="translate(1171,840)" d="m0 0 4 2-11 9-8 10-2 2-7 1-27 1v-1l5-1 1-3 5-1 2-3 5-1 2 4 7 1 4-6 2-2 8-3 7-8z" fill="#C8A937"/>
<path transform="translate(30,271)" d="m0 0h1l5 17 12 27 6 8 11 21-1 3-3-1-8-16-6-10-10-19-7-15-2-6v-5z" fill="#D1B237"/>
<path transform="translate(515,1499)" d="m0 0 4 2 12 7 2 5 6 4 10 9 7 6v2l-4-1-10-6-12-6-6-2-11-2v-1l9-1 2-1-1-4v-4l-8-6z" fill="#28160E"/>
<path transform="translate(826,169)" d="m0 0 7 1 2 1 2-1h17l2 2-55 11-2-1 7-6 4-2 10-2 2-2z" fill="#D9BB39"/>
<path transform="translate(329,636)" d="m0 0 4 5 9 12 9 10 11 14 12 14 2 4-3 1-5-5-8-9-7-11-23-23-1-5z" fill="#CFB038"/>
<path transform="translate(1184,464)" d="m0 0 3 4-1 9-3 5 1 8-2 6h-2l-1 8 1 4-10 30-2-1 2-9 3-13 4-25 6-24z" fill="#D7B83B"/>
<path transform="translate(1368,1988)" d="m0 0h5l-1 7-6 2-7-1-6 5h-4-2v-2l-11 1-9 1v-2l-8 2-7-1 3-3h8l5-1 14-1 7-2 10-2z" fill="#DBBD39"/>
<path transform="translate(736,1139)" d="m0 0h5l9 7 5 3v2l4 2 12 12 1 4-4-1-8-5v-2l-10-2-4-3v-3h2v-2l-4-2-3-1-5-5z" fill="#211A0E"/>
<path transform="translate(349,841)" d="m0 0h10l17 3 18 2-1 5-4 6-3 1-5-1 1-5h-2v-3l-7 2h-3l-2-3h-3l-1-3h-2l-3 3-3-2-2 1z" fill="#D5B73A"/>
<path transform="translate(427,1688)" d="m0 0 5 2 13 8 3 4 3 1v2h3v2l4 1 5 5 1 3 3 1 9 12 5 5v3l-7-6-8-8-8-6-10-10-11-9-6-4z" fill="#886233"/>
<path transform="translate(640 2e3)" d="m0 0h13l13 2 53 4v1l-8 1h-53l-3-3-3-1v-2l-12-1z" fill="#C8A937"/>
<path transform="translate(201,1248)" d="m0 0 2 1-16 15-11 12-10 13-9 10-5 5-3 2-6 2-4 1 1-4 3-1 6-7 7-3 8-7 9-13 4-6 9-7 10-10z" fill="#856536"/>
<path transform="translate(832,1181)" d="m0 0 1 4-4 8-6 15h-2l-2 6h-2v3l-5-1v-3l7-15 2-8 4-6 2-2z" fill="#F8F6EE"/>
<path transform="translate(262,1318)" d="m0 0 11 2 16 6 11 6-2 1v2h-7l-11-4-7-1-7-5-5-1z" fill="#876233"/>
<path transform="translate(1403,1169)" d="m0 0h1l2 7-1 6-7 6 1 6-9 11-4 2v2h-2l-2 5-7 8-4 1-2 4-5 5-1-3 4-6 5-4 5-5 7-8 8-13 9-15z" fill="#D8BA3C"/>
<path transform="translate(681,1608)" d="m0 0 2 1-8 12-7 7v13l4 7-1 5-3 7-2-4-5-21v-7l15-15 2-4z" fill="#D6B738"/>
<path transform="translate(323,1220)" d="m0 0h19l7 2 2 2h10l3 1 1 5 5 2 1 2-9-1-13-5-21-2-5-2z" fill="#D8B939"/>
<path transform="translate(1092,1568)" d="m0 0 2 1 1 12-2 2-6 1v7l2 4 5 2 7 8-1 3-6-4-7-6-8-5-1-4 10-14 3-6z" fill="#DBBD3E"/>
<path transform="translate(64,1509)" d="m0 0 1 3 4 16 8 15 8 17 7 11-1 2-3-1-1-4h-2v-2l-4-2-4-9-5-15v-2l-4-2-3-5-3-7v-9l-3-2z" fill="#C7A939"/>
<path transform="translate(260,462)" d="m0 0 2 2 5 15v9l-7 8-24 24-1-2 2-4h2l2-4 7-5 2-6 5-5 5-6 4-1-2-6-4-7 1-7z" fill="#D1B237"/>
<path transform="translate(1333,1612)" d="m0 0 18 6 7 7 6 3 5 5 2 5 4 1-1 4-11-8-24-16-8-4z" fill="#D6B739"/>
<path transform="translate(503,1414)" d="m0 0 5 5 1 5-2 11 24 1v4l-28 4z" fill="#DEBF38"/>
<path transform="translate(321,623)" d="m0 0 4 3 4 9-1 4-4-1-1 18 4 10-1 3-3-1-4-13-1-5v-19l2-7z" fill="#D4B538"/>
<path transform="translate(562,565)" d="m0 0h1l1 9 6 2 20 7 20 9 5 3 8 4v1h-22l-1-2h3l1-6-4-1-14-6-19-6-5-4z" fill="#FAFEF8"/>
<path transform="translate(637,777)" d="m0 0 8 1 35 6 9 1 12 2h32l19-3h8v1l-24 4h-51l-5 1-2-2 1-2-10-1-1 1h-7l-5-3h-3v-1l-10-2-6-2z" fill="#2B160F"/>
<path transform="translate(368,1382)" d="m0 0 5 4 10 15 7 12 8 16 3 7 2 3 3 9 6 15 8 28v5l-2-4-6-19-4-13-8-18-9-22-10-17-10-16-3-3z" fill="#886233"/>
<path transform="translate(1177,1594)" d="m0 0 7 1 7-1 7 2-3 2-21 6-14 5h-6l1-2 5-3 8-6z" fill="#DBBC38"/>
<path transform="translate(778,181)" d="m0 0h22l-3 3-31 7-17 4h-2l2-4 4-3h10l3-3 10-2z" fill="#D6B83C"/>
<path transform="translate(706,1046)" d="m0 0 20 1 4 3-1 4h-21l-9 1-2-2v-4z" fill="#FDFEFD"/>
<path transform="translate(1365,924)" d="m0 0 7 4v38l-2 3h-3v-25l-2-13z" fill="#D9BA37"/>
<path transform="translate(1034,1927)" d="m0 0 9 1 13 3 7 3 26 5 35 6 29 2 7 1 11 1v1h-17l-2-1-25-1-21-3-13-3-24-4-11-3-6-3-18-4z" fill="#26160F"/>
<path transform="translate(710,595)" d="m0 0 4 1 3 9 2 3-6 3-14-1-15-2-32-3h-11l-4-1v-2h9l32 3 28 1 6 1-1-8z" fill="#FAFEF8"/>
<path transform="translate(733,1152)" d="m0 0h7l9 5 6 3 2 3v5l-9-1-8-6-7-3-2-4z" fill="#FCFCFA"/>
<path transform="translate(194,608)" d="m0 0 1 4v52l-3-1-3-6-1-8 4-11v-8l-3-5-2-4 2-3h2l2-9z" fill="#856535"/>
<path transform="translate(1358,1909)" d="m0 0 6 1v3l2 1-13 6-10-1-3-2h-7l2-4v-1h11l4-1z" fill="#876233"/>
<path transform="translate(1300,637)" d="m0 0 7 1 7 6 6 3 9 3 5 5v3l9 1v2l-5 1-10-5-15-9-16-8z" fill="#D2B337"/>
<path transform="translate(1314,1254)" d="m0 0h2l-1 4-3 3-6 1-3-1-5 5-3 1-3-3v2h-4-2v-2h-4l-1 3-2-2-5 1-6-2v-1l34-5z" fill="#CAAB37"/>
<path transform="translate(551,1293)" d="m0 0 4 2 8 8 19 9 9 4v1h-7l-5 1-11-6-12-9-2-4-3-2z" fill="#D2B338"/>
<path transform="translate(203,1242)" d="m0 0 5 1v3l-8 4-6 4-11 11-6 4-7 11-8 10-4 3 2-5 6-8 10-14 9-7 6-7 5-6z" fill="#E2C337"/>
<path transform="translate(1299,1594)" d="m0 0 7 1 8 6 2 1v2l8 1 6 3 1 3h2l-1 3-5-1-19-10-14-4-4-2z" fill="#D9BA3A"/>
<path transform="translate(1137,1245)" d="m0 0 14 6 1 3-3 1-6-1-1 11 3 5 2 4-4 1-1 7-2-3-3-21z" fill="#CDAE38"/>
<path transform="translate(963,150)" d="m0 0 8 1v2h5v2l-30 3-8 2h-10l3-4 9-1h5l4-4h7l5 1z" fill="#D8BA3D"/>
<path transform="translate(706,1117)" d="m0 0 11 1 12 4 2 3-8 5-6-1-2-1-1-3-8-3-2-4z" fill="#FDFDFD"/>
<path transform="translate(1165,223)" d="m0 0h3l4 7 3 10 1 2v15l3 6 1 7-2 2-2-2-7-31z" fill="#CFB037"/>
<path transform="translate(336,1867)" d="m0 0 5 2 7 3 9 2 7 3 6 2 5 2h9l5 2 26 1 2 3h7l9-3 17-2-1 2-18 3-9 3-6-1-1-3h-11l-6 1-10-2-2-1-14-1-4-3-11-2-1-3-12-2-7-4z" fill="#231710"/>
<path transform="translate(1186,325)" d="m0 0 4 3 1 7-1 6 3 5 1 1v14l-5 5-2-20-1-2z" fill="#E0C137"/>
<path transform="translate(154,136)" d="m0 0 8 1 2 3-10 4-18 5h-6l3-3 2-5 4-2 10 3 2-4h3z" fill="#D9BA3B"/>
<path transform="translate(704,1135)" d="m0 0h10v2h8l7 5 4 4 5 2v2l-9-2-14-5-10-2v-2h-3z" fill="#20190D"/>
<path transform="translate(893,1563)" d="m0 0h7l9 4v2l15 3 69-1-2 2-67 2-5-2-9-2-2-1v-2l-6-1-9-3z" fill="#231710"/>
<path transform="translate(1255,626)" d="m0 0h18l7 3 9 2 3 2v3l3 1-4 1-25-7-12-3z" fill="#D3B437"/>
<path transform="translate(222,113)" d="m0 0 7 2v2l2 1-8 2-12 5-12 4h-2v-2l5-4 2-1 3-5 11 1z" fill="#D2B337"/>
<path transform="translate(1368,887)" d="m0 0 1 2-4 10v27l-2-2-6-18v-5l6-8 2-4z" fill="#D5B63A"/>
<path transform="translate(1312,1921)" d="m0 0h8l4 4-1 2-18 5-8 1 2-5 4-1 5-5z" fill="#876233"/>
<path transform="translate(930,1338)" d="m0 0 6 1 2 2v8l-4 16h-3l-1-3z" fill="#D0B23C"/>
<path transform="translate(702,1510)" d="m0 0 4 1-1 5-5 7h-2l-2 4-7 9 1 6-3 3-1-13 6-9z" fill="#D1B33C"/>
<path transform="translate(806,1270)" d="m0 0 6 2 3 2-1 7-7 11-2 6h-1v-5h-2l1-5-2-2 3-7 4-2h2l1-2-3-1v-2h-2z" fill="#D9D6C6"/>
<path transform="translate(704,199)" d="m0 0h7l1 3 4 1-21 5-14 5-2-1 3-7 4-2h7l4 1 3-1z" fill="#D8BA3B"/>
<path transform="translate(985,147)" d="m0 0 14 1 5-1 10 1h16v1l-41 4-13 1 2-4z" fill="#C7A837"/>
<path transform="translate(910,1424)" d="m0 0 3 1-1 6-6 16-7 20h-1v-5h-2l3-9 9-25z" fill="#C7A937"/>
<path transform="translate(268,1221)" d="m0 0h55v3l3 1-35-1h-28l2-2z" fill="#846737"/>
<path transform="translate(1322,1077)" d="m0 0h1l2 10-5 6 1 6 1 4 4 1v2l3 1 5 1v1h-10l-9-1v-7l6-21z" fill="#D4B439"/>
<path transform="translate(1401,765)" d="m0 0 4 5 1 1v26l-2 6-4 3z" fill="#CEB037"/>
<path transform="translate(481,1762)" d="m0 0 4 5 6 13 2 8 3 6 3 15v19l-1 2-1 11-4 10-6 8v-3l5-9 3-7v-9l2-5v-15l-4-18-3-6-2-8-8-16z" fill="#231710"/>
<path transform="translate(1226,1264)" d="m0 0 39 1-1 3-5 2-8-1h-14l-6 1-4-2z" fill="#D8B937"/>
<path transform="translate(657,923)" d="m0 0h13l6 2v1l-23 3-10 2h-7l-6 3h-3l1-3h2l1-3 2-1h8v2l6-1v-3z" fill="#D0B13A"/>
<path transform="translate(131,146)" d="m0 0m-6 1 5 1 2 2-10 5-27 6-2-1 2-4 12-1 3-4h7v2h2l1-2h2z" fill="#D4B539"/>
<path transform="translate(671,897)" d="m0 0 4 1 7 8 4 11-1 4-4 3-3 1h-7l4-2 3-2-1-17h-2z" fill="#CAAB37"/>
<path transform="translate(248,500)" d="m0 0h1v5l-9 7-1 2h-2l-2 7-9 10-4 4-2-1 6-10 6-7 6-8 8-8z" fill="#DABB37"/>
<path transform="translate(474,1193)" d="m0 0 4 1 9 16 4 7v2l4 1 4 6-4 1-4-5-5-5-7-10-3-10z" fill="#CDAE39"/>
<path transform="translate(906,1317)" d="m0 0 3 1v4h2l6 9 8 4 5 2-3 2-7 1-6-4-6-10-4-3 1-5z" fill="#D5B739"/>
<path transform="translate(568,1021)" d="m0 0h5l1 1v6l-5 11-5-1v-2h-2l1-6 3-7z" fill="#FCFDFC"/>
<path transform="translate(192,663)" d="m0 0 4 1 2 8 2 14v6l-7-3-1-7z" fill="#DEBF37"/>
<path transform="translate(222,534)" d="m0 0v3l-17 35-1-4 3-5-1-10 6-7 5-8z" fill="#C8A938"/>
<path transform="translate(505,1779)" d="m0 0 2 2 8 27 1 5v12l-4 16-4 12-1-3 2-7v-14l5-6v-8l-2-9-2-4-4-16z" fill="#28160E"/>
<path transform="translate(666,1740)" d="m0 0 2 4-1 8-4 9 2 4-1 7-6 4-4 4 1-5 10-30z" fill="#D0B23C"/>
<path transform="translate(726,1690)" d="m0 0h3l-3 11-4 8-1 1-1 45h-1l-1-47 5-15z" fill="#BB9B38"/>
<path transform="translate(1093,1645)" d="m0 0h1l1 10 3 1-6 5h-3v-2l-2 2v1l-7 1-1-4 13-12z" fill="#26160F"/>
<path transform="translate(1036,1504)" d="m0 0 8 3 6 4-4 5h-11l-1-4h-2l2-6z" fill="#876233"/>
<path transform="translate(495,1378)" d="m0 0 4 2 3 6-1 1 1 9 3 2-1 12-1 7-2-4-5-27z" fill="#CFB03A"/>
<path transform="translate(228,1230)" d="m0 0 5 1 7 2-3 2-9 1-14 7-6 2 2-4 2-5 8-2 5-2z" fill="#CDAE37"/>
<path transform="translate(740,1275)" d="m0 0h5l-1 9-5 3-5 2h-3l-2-1 2-6 7-6z" fill="#FCFBF9"/>
<path transform="translate(686,1060)" d="m0 0h7l2 4h2v-2h2v2h3v2h2v3l-5 1v2h-7l-2-2v-3h-2l-2-3z" fill="#1C160B"/>
<path transform="translate(674,1264)" d="m0 0 3 1-1 5-4 3-9 2h-4l-2-5 9-4 1-1z" fill="#FAF9F7"/>
<path transform="translate(570,926)" d="m0 0 5 2 5 1 9 3 3 3-2 1-13-2-2-1-14-1-2-2 5-3z" fill="#D8BA3C"/>
<path transform="translate(531,1436)" d="m0 0h23v3l-18 1-5 2-22 3h-5l1-2 25-4z" fill="#846737"/>
<path transform="translate(599,233)" d="m0 0h8l2 1-1 3-22 8-7 2 6-7 8-3z" fill="#D6B737"/>
<path transform="translate(412,163)" d="m0 0 9 3 3 2h-22l-14 3-12 5-3 3-2-1 4-4 1-4 6-1 3-1 13-2 6-2z" fill="#2E160D"/>
<path transform="translate(747,1136)" d="m0 0 4 1 12 7 3 3 1 4-5 1-8-6-6-5z" fill="#FEFEFE"/>
<path transform="translate(1215,901)" d="m0 0h6l8 5v5l-1 1h-6l-8-5-1-4z" fill="#FCFCF9"/>
<path transform="translate(1329,1045)" d="m0 0 2 2 1 11-1 4 1 6-1 4-5 3h-2l-1 2 2-10 3-14z" fill="#D4B53A"/>
<path transform="translate(163,1288)" d="m0 0 1 3-7 8-5 5-3 2-6 2-4 1 1-4 3-1 6-7 7-3z" fill="#886A37"/>
<path transform="translate(466,1099)" d="m0 0 6 2 11 6 4 5v2l3 1 1 4h-2v-2l-6-2-8-6-6-5z" fill="#F3F4E8"/>
<path transform="translate(754,1067)" d="m0 0 6 2 4 4 5 2v2h2v3l-6-1-2-3h-5l-4 2-6-4-6-1v-1h11z" fill="#3E3117"/>
<path transform="translate(1422,1806)" d="m0 0 2 3v7l-3 1-1 6 1 7-4 2v2l-2 2-1 5-1-3-2 1 2-5 4-12 2-10z" fill="#C3A537"/>
<path transform="translate(623,1298)" d="m0 0 5 1 5 6 3 1h18v2l3 1-26-1-13-6z" fill="#F2F4E9"/>
<path transform="translate(635,1085)" d="m0 0 4 2-1 4-2 2-3 7-2 2-5-1-1-4 4-4 3-5z" fill="#FAF8F3"/>
<path transform="translate(804,1542)" d="m0 0h1v28l-3 1-2-7v-13l3-8z" fill="#D2B237"/>
<path transform="translate(1204,843)" d="m0 0h4v2h-3l-1 3-7 3-10 6h-6l-2-2h3v-2l12-6z" fill="#E7E3CB"/>
<path transform="translate(1189,399)" d="m0 0h1v59l-3 3v-31l1-7z" fill="#E3C438"/>
<path transform="translate(1327 2e3)" d="m0 0h15v1l-14 1-9 1-7 1v2l-5 1v-3l-21 1v-2l12-1 1-1z" fill="#523B21"/>
<path transform="translate(189,1280)" d="m0 0h6v3l-6 1 2 9-3 1v2l-10 1 2-4 8-11z" fill="#876233"/>
<path transform="translate(396,1617)" d="m0 0h2l1 3 2-2 2 10-2 7-4 3-2-3-1-9v-4l2-2z" fill="#25160F"/>
<path transform="translate(1407,1144)" d="m0 0 3 3-1 10 1 8-2 3h-2l-1 5h-1l1-28z" fill="#DFC037"/>
<path transform="translate(1242,1919)" d="m0 0 7 1 1 4-1 2-18-1-9 2-1-2 4-1v-2l3-1 3 1 1-2 3 2z" fill="#886233"/>
<path transform="translate(1039,1594)" d="m0 0 2 1-6 7 2 7 7-2 8 1v1l-9 1-6 3-5-1v-6h-5l-1-3 8-4z" fill="#23160F"/>
<path transform="translate(1340,1242)" d="m0 0h3l-1 4-10 6-4 3h-5l-4-3 15-7z" fill="#D1B237"/>
<path transform="translate(586,1286)" d="m0 0 15 3 3 4 6 2v3l4 1-2 1-10-4-11-4-7-4z" fill="#ECEAD9"/>
<path transform="translate(444,395)" d="m0 0 2 3 2 10h2l1 4-7-1-4-5-3-9 6 1z" fill="#2C1F12"/>
<path transform="translate(403,1955)" d="m0 0 9 1 13 4-1 4h-2v-2l-5 2-4-1-6-2-3-2z" fill="#CAAA37"/>
<path transform="translate(1355,1868)" d="m0 0 2 1-1 2 3 3 7 1 7-2 5 1-1 2-2-1-19 6-3-1v-2l-2-1 2-8z" fill="#25160F"/>
<path transform="translate(353,1477)" d="m0 0h2l7 14 6 10 4 11v2l-3-1-6-13-3-7-4-4z" fill="#3C160A"/>
<path transform="translate(259,437)" d="m0 0h1v27l-4-2-1-6v-14z" fill="#D7B837"/>
<path transform="translate(79,1550)" d="m0 0 3 4 7 12 3 5-1 2-3-1-1-4h-2v-2l-4-2-4-9v-4z" fill="#C2A337"/>
<path transform="translate(749,999)" d="m0 0 10 2 8 6v2h-5l-6-3-23 1 1-2 15-1-1-1z" fill="#4D3D1D"/>
<path transform="translate(688,1583)" d="m0 0 1 2 2 1-2 5 2 7-8 10-4 1 3-8 3-5 2-10z" fill="#CAAB37"/>
<path transform="translate(674,1332)" d="m0 0h5l1 5 1 4-8 3-3-1-1-5z" fill="#F7FAF4"/>
<path transform="translate(585,901)" d="m0 0 2 2-7 3h-8l-2 4-6 3-6-1v-3l7-3z" fill="#CBAD3B"/>
<path transform="translate(96,1544)" d="m0 0h2l10 17 12 22v2h-2l-6-11-4-8-4-5-7-14z" fill="#2A160E"/>
<path transform="translate(679 1e3)" d="m0 0 4 1-1 3 3 2v2l2 1-5 2h-6l-2-2v-7z" fill="#120E09"/>
<path transform="translate(652 1e3)" d="m0 0 2 3 2 9-3 22-2 10h-1v-17l2-11v-11l-1-3z" fill="#523F1F"/>
<path transform="translate(167,1672)" d="m0 0 4 2 14 14 6 5 4 5 4 2 7 9 3 4-4-2-38-38z" fill="#29160E"/>
<path transform="translate(240,106)" d="m0 0 9 2v3l-16 6-4-1 4-2 1-3 3-3h3z" fill="#D9BB40"/>
<path transform="translate(641,1806)" d="m0 0 1 3 57 1v-2l2-1h7l-3 3-4 1h-55l-5-1z" fill="#846737"/>
<path transform="translate(103,1384)" d="m0 0 4 2-2 6-4-3-5 1-4 4-2 4-4 1v-5l4-8 1 3 9-4z" fill="#2E1F13"/>
<path transform="translate(847,1291)" d="m0 0 5 5v3l-1 3 1 2h-3l1 7-3-3-1-4-4-1-1-3-5-3 3-1 6 4 3-3z" fill="#30150E"/>
<path transform="translate(475,1507)" d="m0 0 1 3-3 19 8-1 2-8 2-5 1 3-3 10-8 6h-5l1-8 3-17z" fill="#26160F"/>
<path transform="translate(315,1707)" d="m0 0 4 1-16 5-7 2-13 1-6 2h-10v-1l32-6z" fill="#AA0D0C"/>
<path transform="translate(550,1817)" d="m0 0h3l1 9 5 1v8h-1l-1-5-5-2-2-2-4 13-3 4-2-1 4-7z" fill="#25160F"/>
<path transform="translate(533,1509)" d="m0 0 5 2v2l4 2 6 5 4 6v2l-4-2-11-10-6-4z" fill="#876233"/>
<path transform="translate(1323,995)" d="m0 0h9l2 4 2 1-3 3-7 1-3-3-1-5z" fill="#F6F7E9"/>
<path transform="translate(1137,855)" d="m0 0 3 2v2l6 2-1 2h-16l-3-3 5-1 2-3z" fill="#E5C638"/>
<path transform="translate(1166,544)" d="m0 0 2 2 1 9-8 25h-2l2-10 2-5z" fill="#C4A73B"/>
<path transform="translate(542,1271)" d="m0 0h1v9h2l4 9 2 4-1 3-6-5-3-7v-12z" fill="#DBBC37"/>
<path transform="translate(1415,1834)" d="m0 0 2 1v7l2 3 3 2v2h-6l-6-3-1-5 4-4 1 3v-5z" fill="#D9BB3C"/>
<path transform="translate(724,1773)" d="m0 0h1l5 22-1 2-3-1-4-11-1-6 3-1z" fill="#BA9B37"/>
<path transform="translate(557,1801)" d="m0 0h2l1 18h-4l-2-5v-11z" fill="#231710"/>
<path transform="translate(362,1693)" d="m0 0 2 1-3 3-8 2-24 7-10 1v-1l25-7z" fill="#AA0D0C"/>
<path transform="translate(1359,1231)" d="m0 0 4 1-5 4-8 8-7-2 4-4z" fill="#D8B93A"/>
<path transform="translate(1193,1117)" d="m0 0 5 1 1 4-6 11h-3l1-8z" fill="#F9F8F6"/>
<path transform="translate(547,1451)" d="m0 0 12 4v1h-6l-7-1-4 1h-26l-1 4-1-2 2-4h13l13-1z" fill="#231710"/>
<path transform="translate(1151,1252)" d="m0 0 6 2 13 4 9 2v1h-8l-4 1-10-3-7-4z" fill="#BDA03B"/>
<path transform="translate(255,496)" d="m0 0 2 3-9 10-8 7-5 4 2-6h2l2-4 7-5 2-6 5-1z" fill="#8C6F37"/>
<path transform="translate(582,242)" d="m0 0m-1 1m-12 1 11 1-1 3-13 5-4-1z" fill="#D9BB3C"/>
<path transform="translate(1074,1374)" d="m0 0h1l1 10-3 5-4 1-1 3v-7l4-10z" fill="#DCBF41"/>
<path transform="translate(607,894)" d="m0 0 5 1-4 3-6 3-6 2v-2h-8l4-3z" fill="#D3B53E"/>
<path transform="translate(245,1723)" d="m0 0 7 2 13 1 1 2-16 2-1 16h-1v-14l1-5-3-1z" fill="#23160F"/>
<path transform="translate(929,1369)" d="m0 0 1 3-2 8-2 10h-2l-1-5-1-8 3-5z" fill="#D2B337"/>
<path transform="translate(627,1275)" d="m0 0h8v5l-3 1h-13v-2h2v-2z" fill="#FDFEFD"/>
<path transform="translate(901,1877)" d="m0 0h26l7 2-3 1-5 2-4 1-3-1v-2l-3 1v-3h-15z" fill="#876233"/>
<path transform="translate(60,1500)" d="m0 0 3 1 1 9-6 4-3-3 1-5 3-2z" fill="#DCBD3A"/>
<path transform="translate(637,777)" d="m0 0 8 1 22 4 2 1-1 3h-7l-5-3h-3v-1l-10-2-6-2z" fill="#28160E"/>
<path transform="translate(296,585)" d="m0 0h2v2l3 1v2h2l2 4v3h-2l-1 2-4-2-2-5z" fill="#F7FBF5"/>
<path transform="translate(742,1311)" d="m0 0h6l-2 5 2 1h-3v2h-4v-2l-5 1v3l-4-2 7-6z" fill="#F6F9F0"/>
<path transform="translate(1179,270)" d="m0 0 4 4 1 4-2 17h-1l-4-24z" fill="#C5A637"/>
<path transform="translate(371,1873)" d="m0 0h2v2l5 1 2 1v4l2 1h-7l-6-3-1-5z" fill="#876233"/>
<path transform="translate(116,1389)" d="m0 0 2 1-4 4h-2l-2 5-4 5-6 8v2l-4 1 2-5 8-11 6-7z" fill="#876233"/>
<path transform="translate(830,1294)" d="m0 0 5 1 3 3 4 2 5 9-1 2-9-11-1-1h-5l-5 8h-2l2-5z" fill="#CD6231"/>
<path transform="translate(1280,1117)" d="m0 0 4 1-2 5-7 9-2-2 2-8z" fill="#FAF9F2"/>
<path transform="translate(910,1424)" d="m0 0 3 1-1 6-5 12h-3l1-7z" fill="#C9AB3A"/>
<path transform="translate(594,1124)" d="m0 0h2l-2 6-4 4-7 2-1-4 7-5 5-1z" fill="#F5F2E6"/>
<path transform="translate(273,525)" d="m0 0h4l4 7v10h-3l-1-8-3-2-2-5z" fill="#F4F6EF"/>
<path transform="translate(1355,1918)" d="m0 0 3 1-4 2-2 3h-8l-2 1-11 1-7 2-4-1 15-4 18-4z" fill="#24160F"/>
<path transform="translate(711,1127)" d="m0 0 6 1 11 2 5 4 2 2-12-1-7-4v-2l-5-1z" fill="#413318"/>
<path transform="translate(1101,1895)" d="m0 0h11l7 3-1 2h-21l2-3h2z" fill="#231710"/>
<path transform="translate(56,1473)" d="m0 0h1v10l4 10 1 7-4-2-3-7v-10z" fill="#C3A236"/>
<path transform="translate(667,210)" d="m0 0h7v2l4 1-14 5h-3l2-4z" fill="#D6B83A"/>
<path transform="translate(1015,1605)" d="m0 0 4 1v7l2 2-4 2h-3l-3-9z" fill="#24160F"/>
<path transform="translate(384,1603)" d="m0 0 2 2 2 6 3 2 1 3h-2l-1 3h-2l-2 4-1-13z" fill="#24160F"/>
<path transform="translate(752,439)" d="m0 0 1 4 1 6v30l-2 4v-31l-1-5h-2v-4h2z" fill="#45341A"/>
<path transform="translate(704,199)" d="m0 0h7l1 3 4 1-19 4 1-3z" fill="#D1B237"/>
<path transform="translate(725,1676)" d="m0 0 3 1 1 12-6 2-1-7z" fill="#CDAE3C"/>
<path transform="translate(741,1072)" d="m0 0 5 2v3l-1 2h-8l-3-3 1-3z" fill="#FDFEFD"/>
<path transform="translate(487,1747)" d="m0 0 5 2 13 26-1 4-4-9-8-15-5-6z" fill="#28160E"/>
<path transform="translate(432,1555)" d="m0 0 2 3 2 12 1 17 1 3v11h-1l-2-13-2-23-1-2z" fill="#886233"/>
<path transform="translate(656,1249)" d="m0 0 9 1 5 2-3 2-5 1h-8z" fill="#F3F0E6"/>
<path transform="translate(1403,1169)" d="m0 0h1l2 7-1 6-9 8v-3l6-12z" fill="#CCAD37"/>
<path transform="translate(1376,871)" d="m0 0 1 3-3 8-1 2h-2l-1 3-4 2 2-6 6-11z" fill="#CEAF37"/>
<path transform="translate(1399,806)" d="m0 0 2 1 2 6-4 9-4 2 2-9z" fill="#CFB037"/>
<path transform="translate(99,1377)" d="m0 0 2 2-1 6-6 4h-3l1-4 4-6z" fill="#896B36"/>
<path transform="translate(682,915)" d="m0 0h3l1 5-5 4-3 1h-7l4-2 3-2v-5z" fill="#D3B540"/>
<path transform="translate(359,909)" d="m0 0 3 1-2 10-3 10-2-4 2-12z" fill="#BFA137"/>
<path transform="translate(150,1629)" d="m0 0 4 2 16 17 4 4-1 2-13-12-6-8-2-1v-2h-2z" fill="#24160F"/>
<path transform="translate(190,643)" d="m0 0 3 3v15h-2l-2-4-1-8z" fill="#E5C63B"/>
<path transform="translate(1164,436)" d="m0 0 1 2-2 11-4 5h-3l1-6 3-4 3-7z" fill="#E3DFC9"/>
<path transform="translate(753,1067)" d="m0 0m-16 1h16l1 4-4 1-11-1-4-2z" fill="#090706"/>
<path transform="translate(790,1877)" d="m0 0 5 2 1 3 5-2 1 4-4 1-3 2h-3l-2-5z" fill="#846838"/>
<path transform="translate(854,1607)" d="m0 0h2l1 2 9-2 1 4-3 3-8-1z" fill="#23160F"/>
<path transform="translate(501,241)" d="m0 0 7 6 7 8 8 7-3 1-8-7-5-6-5-5z" fill="#2B160E"/>
<path transform="translate(1025,143)" d="m0 0 10 2 3 2-3 1h-16l4-4z" fill="#E5C638"/>
<path transform="translate(599,1247)" d="m0 0 9 2 1 4h-11l-2-5z" fill="#FBFBF8"/>
<path transform="translate(826,1880)" d="m0 0h6v2h3l1 3-1 1h-10l-2-1v-2h2z" fill="#886233"/>
<path transform="translate(336,1867)" d="m0 0 5 2 7 3 9 2 7 3 6 2 4 3-5-1-7-2-6-2v-2l-12-2-7-4z" fill="#26160F"/>
<path transform="translate(432,1603)" d="m0 0h2l2 7 3 4-1 7h-2l-2-3-2-9z" fill="#231710"/>
<path transform="translate(174,1270)" d="m0 0 1 2-7 11-9 10v-3l7-10 7-9z" fill="#E5C638"/>
<path transform="translate(252,503)" d="m0 0 1 2-5 7-6 4-13 13v-3l22-22z" fill="#1D130D"/>
<path transform="translate(136,1309)" d="m0 0 3 1-11 7-14 10-4 2 4-5 5-3 4-4 11-7z" fill="#856636"/>
<path transform="translate(1314,1254)" d="m0 0h2l-1 4-3 3-6 1-4-4z" fill="#D3B641"/>
<path transform="translate(1217,1926)" d="m0 0 4 1h-2l-1 4-10 1-4 2-1-2h2l-1-3z" fill="#886233"/>
<path transform="translate(620,1583)" d="m0 0 5 2 7 7-6-2-1 4-5-5-2-4z" fill="#231710"/>
<path transform="translate(495,1378)" d="m0 0 4 2 3 6-3 9-2-4-2-9z" fill="#CEAF37"/>
<path transform="translate(599,933)" d="m0 0 3 1 4 4 5 1-2 2-11-2-6-2 4-2z" fill="#C4A437"/>
<path transform="translate(633,927)" d="m0 0h8v2l5-1v2l-3 1h-7l-6 3h-3l1-3h2l1-3z" fill="#D8BE53"/>
<path transform="translate(1173,515)" d="m0 0 3 1-1 7-5 15-2-1 2-9z" fill="#AE8F36"/>
<path transform="translate(446,1709)" d="m0 0 5 2 2 4v4l-6-1-2-3v-5z" fill="#231710"/>
<path transform="translate(641,1272)" d="m0 0 2 1-5 5h-3v-3h-22l-2-2h29z" fill="#CDC09A"/>
<path transform="translate(1322,1077)" d="m0 0h1l2 10-5 6v2l-3 1 4-16z" fill="#CCAD37"/>
<path transform="translate(1163,948)" d="m0 0 9 2 2 2v7l-4-1-6-8z" fill="#F5F7ED"/>
<path transform="translate(795,776)" d="m0 0 4 1-16 4-10 3h-12v-1l21-4z" fill="#25160F"/>
<path transform="translate(1275 2e3)" d="m0 0h11l-4 2-12 2h-15v-1l14-2z" fill="#231710"/>
<path transform="translate(769,1829)" d="m0 0 7 3 1 4h2v2l4 2 5 3-2 1-13-8-4-4z" fill="#886233"/>
<path transform="translate(915,158)" d="m0 0 18 2v1l-15 2h-6l2-4z" fill="#C4A537"/>
<path transform="translate(131,146)" d="m0 0m-6 1 5 1 2 2-10 5h-4l2-4h2z" fill="#D0B237"/>
<path transform="translate(265,1857)" d="m0 0v3l-6 7-5 3-2-1 5-7z" fill="#D9BB38"/>
<path transform="translate(666,1740)" d="m0 0 2 4-1 8-3 7-4 3 1-5 4-12z" fill="#B89937"/>
<path transform="translate(1372,1219)" d="m0 0 3 1v2l-4 1-2 4-5 5-1-3 4-6z" fill="#C1A337"/>
<path transform="translate(855,1604)" d="m0 0 9 2v2l-8 2v-3h-2l2 5-5-2-3-3z" fill="#3D160A"/>
<path transform="translate(1174,252)" d="m0 0h1l5 15-1 5-3-2-2-9z" fill="#D4B73F"/>
<path transform="translate(1362,1878)" d="m0 0 3 1v4l-5 1 4 3-3 1-4-2-2-5z" fill="#886233"/>
<path transform="translate(1422,1806)" d="m0 0 2 3v7l-3 1-1 3-2-2 2-9z" fill="#D7B93B"/>
<path transform="translate(523,1440)" d="m0 0h7v2l-21 3h-5l1-2z" fill="#856636"/>
<path transform="translate(584,597)" d="m0 0h10l4 2v1l-24 1v-2l9-1z" fill="#FAFEF8"/>
<path transform="translate(64,1509)" d="m0 0 1 3 2 9v5l-1-4h-2l-1 3-1-4v-6l-3-2z" fill="#927437"/>
<path transform="translate(543,1753)" d="m0 0 4 1 2 7 2 3-1 4h-2l-4-9z" fill="#231710"/>
<path transform="translate(1144,933)" d="m0 0 4 2 1 7 5 1-2 1-7-1-1-1z" fill="#E0D9B8"/>
<path transform="translate(1240,904)" d="m0 0 5 3 11 9 1 2-5-1v-2l-5-2-4-5-3-2z" fill="#4C391D"/>
<path transform="translate(336,838)" d="m0 0h7l10 2v1l-7 2-4 1-3-1z" fill="#C6A737"/>
<path transform="translate(413,150)" d="m0 0 2 3v4h-13l5-4 5-1z" fill="#EEF1ED"/>
<path transform="translate(229,1753)" d="m0 0h3l3 16h-2l-4-7z" fill="#C8A837"/>
<path transform="translate(636,1306)" d="m0 0h18v2l3 1-26-1v-1z" fill="#E7DDA7"/>
<path transform="translate(1331,1105)" d="m0 0h10l2 1 6-1-1 2-3 1h-17z" fill="#E6C944"/>
<path transform="translate(616,1106)" d="m0 0h3v5l-9 3-5 5-2-1 9-9z" fill="#F4F1E1"/>
<path transform="translate(349,841)" d="m0 0 9 1 6 1-5 5-3-2-2 1z" fill="#E5C638"/>
<path transform="translate(912,1291)" d="m0 0h1l-1 15-2 16-3-6 3-11z" fill="#8B6C36"/>
<path transform="translate(1332,1228)" d="m0 0 4 2-12 6h-2v-4z" fill="#E8E3C8"/>
<path transform="translate(560,1041)" d="m0 0h7l-1 5-1 2-5-1-1-5z" fill="#FEFEFE"/>
<path transform="translate(355,926)" d="m0 0h1v8l-2 10-2-3v-9z" fill="#CDAE37"/>
<path transform="translate(192,614)" d="m0 0h1v13l-4-2-2-4 2-3h2z" fill="#E5C73C"/>
<path transform="translate(405,353)" d="m0 0h5v4h4v2l-5 1h-3-2l-1-3z" fill="#F5F8EE"/>
<path transform="translate(841,1495)" d="m0 0 2 1-12 12-3 5-4 2 2-5h2l2-4z" fill="#26150D"/>
<path transform="translate(1142,1283)" d="m0 0 5 4-1 5-5 2-1 2z" fill="#D7B837"/>
<path transform="translate(1035,1503)" d="m0 0 6 1 12 7 6 3v2l-5-2-14-8-4-1-2 1z" fill="#26160F"/>
<path transform="translate(695 1e3)" d="m0 0h5v3l3-1 4 2-1 1h-12v-4z" fill="#0A0806"/>
<path transform="translate(1177,888)" d="m0 0 16 2v1l-5 1h-10z" fill="#F2F5F1"/>
<path transform="translate(55,166)" d="m0 0h6l3 3-9 2h-5z" fill="#CBAB44"/>
<path transform="translate(1204,1591)" d="m0 0h7l8 2v1l-19 1z" fill="#D2B337"/>
<path transform="translate(694,1300)" d="m0 0 7 1 1 2-3 2h-8l1-4z" fill="#F1F3EA"/>
<path transform="translate(484,1860)" d="m0 0v3l-3 1v2l-6 2-3 5-8 2v-2l7-2 4-6z" fill="#231710"/>
<path transform="translate(599,1404)" d="m0 0v3l-6 9-2 1 1-5 4-7z" fill="#AD8F37"/>
<path transform="translate(1178,968)" d="m0 0 6 1 2 2v6l-3 1-4-8z" fill="#F5F5E2"/>
<path transform="translate(614,934)" d="m0 0h7v4l-10 1 2-4z" fill="#BEA13C"/>
<path transform="translate(741,606)" d="m0 0h16l-1 2-3 1h-9l-3-1z" fill="#FAFEF8"/>
<path transform="translate(1185,307)" d="m0 0h1l1 9-1 17h-1l-1-11v-10z" fill="#9D7E37"/>
<path transform="translate(948,1909)" d="m0 0h7l4 5h-7l-6-2z" fill="#886233"/>
<path transform="translate(108,1391)" d="m0 0 3 1-2 4-6 8-1-2 2-4 1-6z" fill="#27160F"/>
<path transform="translate(736,991)" d="m0 0 4 1v2l2 1-18-1-4-2h9z" fill="#D1BF80"/>
<path transform="translate(1174,861)" d="m0 0 3 4 2 5-3 1-5-4 1-4z" fill="#E5E3D3"/>
<path transform="translate(198,677)" d="m0 0 2 4 3 13v7l-3-2-1-13z" fill="#997936"/>
<path transform="translate(278,1846)" d="m0 0 2 4-3 5-3 4-7 1-4 2 4-5 5-1 5-4z" fill="#856636"/>
<path transform="translate(708,1807)" d="m0 0h21v1l-18 1-2 2h-8l4-2z" fill="#2B160E"/>
<path transform="translate(1087,1659)" d="m0 0h2l1 3-5 4-3 1-2 2 1-7 5-1z" fill="#33160C"/>
<path transform="translate(546,1524)" d="m0 0 8 6 2 4-4-1-6-4z" fill="#3B160B"/>
<path transform="translate(903,1442)" d="m0 0h3l-1 8-2 3-1-1-2 2 1-7z" fill="#C9AA37"/>
<path transform="translate(890,1315)" d="m0 0 1 3-3 11-2-1v-9z" fill="#DBBD3C"/>
<path transform="translate(201,1248)" d="m0 0 2 1-14 13-2-1 9-10z" fill="#846737"/>
<path transform="translate(376,1524)" d="m0 0 2 3 5 12 1 1v10h-1l-2-9-5-13z" fill="#886233"/>
<path transform="translate(151,1296)" d="m0 0 4 1-5 5h-2l-1 3-3-3z" fill="#E5C638"/>
<path transform="translate(930,1909)" d="m0 0h7l6 2v1h-9l-1 3-3-2z" fill="#876233"/>
<path transform="translate(914,1412)" d="m0 0 2 1v6l-3 6h-2l1-8z" fill="#B49735"/>
<path transform="translate(619,1376)" d="m0 0 1 4v3l-8 7-6 5 2-4 7-7z" fill="#1B100B"/>
<path transform="translate(482,1150)" d="m0 0 1 2h2l2 5 2 6-2 2-4-8z" fill="#EAE7D1"/>
<path transform="translate(837,1057)" d="m0 0 2 2 2 12 2 4-1 3-4-8-1-7z" fill="#DDD5B4"/>
<path transform="translate(617,890)" d="m0 0h11v1l-7 2-10 2-1-2z" fill="#947637"/>
<path transform="translate(1164,560)" d="m0 0h1v8l-4 12h-2l2-10 2-5z" fill="#AD8E37"/>
<path transform="translate(326,329)" d="m0 0 3 2v2l3-1 3 1 1 5h-4l-5-5z" fill="#C46026"/>
<path transform="translate(482,1670)" d="m0 0 3 1v2l4 1v4l-4-1-5-4v-2z" fill="#231710"/>
<path transform="translate(923,1388)" d="m0 0 2 2-1 5-3 7-2-4 1-4z" fill="#B99B3C"/>
<path transform="translate(103,1384)" d="m0 0 4 2-2 6-4-3-5-1 4-3z" fill="#25160F"/>
<path transform="translate(708,1053)" d="m0 0 12 1v1l-21 2 3-1v-2z" fill="#D2C182"/>
<path transform="translate(205,565)" d="m0 0v3l-1 6-5 1 1-5z" fill="#E2C338"/>
<path transform="translate(195,1699)" d="m0 0 4 1 7 9 3 4-4-2-10-10z" fill="#25160F"/>
<path transform="translate(396,1450)" d="m0 0 3 4 5 11-1 5-2-4-4-10z" fill="#886233"/>
<path transform="translate(805,1287)" d="m0 0h4l-3 9-2 2v-5h-2l1-5z" fill="#E4E1CF"/>
<path transform="translate(642,1273)" d="m0 0h6v3l-4 2h-5v-2h2z" fill="#FDFEFD"/>
<path transform="translate(1151,1252)" d="m0 0 6 2 5 2-2 3-4-1-6-3z" fill="#A38537"/>
<path transform="translate(369,1235)" d="m0 0h9l12 5-3 1-7-3-7 1-1-3z" fill="#27160F"/>
<path transform="translate(683,1129)" d="m0 0 6 2 2 1v3l2 1h-7l-1-5h-2z" fill="#1A140B"/>
<path transform="translate(716 1e3)" d="m0 0h10l-3 3-4 1h-10l3-2z" fill="#0C0907"/>
<path transform="translate(829,763)" d="m0 0 2 3v3l-12 3h-7v-1l15-3z" fill="#876334"/>
<path transform="translate(245,507)" d="m0 0m-1 1m-2 1 3 1-6 7-4 3 2-6h2l2-4z" fill="#846636"/>
<path transform="translate(973,1907)" d="m0 0 3 1v3l-2 2 2 2-8-1 3-6z" fill="#886233"/>
<path transform="translate(1011,1897)" d="m0 0 3 1 1 6-5 1-2-4 3-3z" fill="#846838"/>
<path transform="translate(618,1461)" d="m0 0 7 2v2h2v2l4 2-2 1-10-6z" fill="#F2F2E1"/>
<path transform="translate(81,1361)" d="m0 0 1 2-11 16-1-3 7-11z" fill="#856636"/>
<path transform="translate(652,1048)" d="m0 0 4 2-1 4-4 1-2-4h2z" fill="#FEFEFE"/>
<path transform="translate(399,725)" d="m0 0h9l-1 4-5 1-1-3h-2z" fill="#FAFEF8"/>
<path transform="translate(294,1719)" d="m0 0h8v2l-14 2 1-3z" fill="#26160F"/>
<path transform="translate(993,1553)" d="m0 0 2 1-1 4-1 3h-2v-4l-6 1 3-4z" fill="#5D4820"/>
<path transform="translate(398,1267)" d="m0 0 5 2 3 1 1-2 3 3 3 7-3-1-2-5-6-1z" fill="#231710"/>
<path transform="translate(741,1053)" d="m0 0 8 2-1 4-6-1z" fill="#FEFEFE"/>
<path transform="translate(297,673)" d="m0 0 4 2 2 4-1 3h-2v-2h-2l-2-6z" fill="#FAFEF8"/>
<path transform="translate(800,1850)" d="m0 0 7 1 2 2-4 1v2l-4-1z" fill="#421609"/>
<path transform="translate(125,1318)" d="m0 0 2 1-6 8-3 1-1-4z" fill="#401609"/>
<path transform="translate(1193 1e3)" d="m0 0 1 2h3l1 7h-2l-1 4z" fill="#E1D8B2"/>
<path transform="translate(537,1730)" d="m0 0 5 2 1 3-4 3-2-2z" fill="#24160F"/>
<path transform="translate(1197,1104)" d="m0 0 4 1 1 3-1 3-5-1z" fill="#FDFEFD"/>
<path transform="translate(628,890)" d="m0 0h2l-1 3-5 2-4-1-3-2h5z" fill="#E5C73E"/>
<path transform="translate(811,735)" d="m0 0 4 2 7 9 1 5-4-5-6-8z" fill="#CEAF37"/>
<path transform="translate(533,617)" d="m0 0 2 1-12 12h-2v-2l5-5z" fill="#3C2D18"/>
<path transform="translate(1315 2e3)" d="m0 0 8 1v2l-8 1-3-2z" fill="#D4B538"/>
<path transform="translate(784,1872)" d="m0 0 7 1 1 2-5 2-5-2z" fill="#846838"/>
<path transform="translate(437,1603)" d="m0 0h2l2 4 1 8-2 3-3-12z" fill="#886233"/>
<path transform="translate(935,1353)" d="m0 0 1 3-2 9h-3v-6l3-1z" fill="#927336"/>
<path transform="translate(823,1308)" d="m0 0 1 4-3 9h-3l3-9z" fill="#C06A36"/>
<path transform="translate(751,1271)" d="m0 0h5l1 4-4 2-3-5z" fill="#FBFBFB"/>
<path transform="translate(1089,792)" d="m0 0h3l1 5-4 3h-2l1-4z" fill="#E7CB4B"/>
<path transform="translate(1255,1904)" d="m0 0h5v3h-14v2l-2-1v-2z" fill="#886233"/>
<path transform="translate(690,1483)" d="m0 0h2l-1 4-4 4-4 5 1-5z" fill="#F0EDD0"/>
<path transform="translate(554,1436)" d="m0 0h8l2 3h-10z" fill="#AD9038"/>
<path transform="translate(597,1269)" d="m0 0 10 1 1 2h-9l-8-1v-1z" fill="#6F5826"/>
<path transform="translate(545,1740)" d="m0 0 3 4 2 7v3l-3-4-2-3z" fill="#886233"/>
<path transform="translate(868,1302)" d="m0 0h1l-1 8-4 1-2-4 4 1 1-4z" fill="#D0843A"/>
<path transform="translate(666,923)" d="m0 0 10 2v1l-15 1z" fill="#886A37"/>
<path transform="translate(1250,842)" d="m0 0 10 1 4 3h-9v-2h-5z" fill="#DBD4BB"/>
<path transform="translate(1173,515)" d="m0 0 3 1-1 7-1 3h-2z" fill="#B38F36"/>
<path transform="translate(423,1882)" d="m0 0h3v2l3-1 1 3-1 1h-5v-2h-2z" fill="#886233"/>
<path transform="translate(496,1688)" d="m0 0 6 1 1 5-5-1-2-2z" fill="#231710"/>
<path transform="translate(1014,1243)" d="m0 0h6l-5 5-3-1 1-2-2-1z" fill="#451609"/>
<path transform="translate(1379,1213)" d="m0 0 3 1-6 7-2-1 1-4z" fill="#D3B63F"/>
<path transform="translate(689,998)" d="m0 0h6v2l-3 2-6-1v-2z" fill="#0B0807"/>
<path transform="translate(382,857)" d="m0 0h6l-2 5-2 2v-2h-2z" fill="#846737"/>
<path transform="translate(395,167)" d="m0 0h7v1l-14 3h-3l1-3z" fill="#34160C"/>
<path transform="translate(213,142)" d="m0 0h7l1 6-3-1-1-2-5-1z" fill="#BB6027"/>
<path transform="translate(463,168)" d="m0 0 4 1-4 1z" fill="#E5C638"/>
<path transform="translate(1336 2e3)" d="m0 0" fill="#E5C638"/>
<path transform="translate(1082,1365)" d="m0 0" fill="#FAFEF8"/>
<path transform="translate(1332,1045)" d="m0 0" fill="#E5C638"/>
</svg>
