<?xml version="1.0" encoding="UTF-8"?>
<svg version="1.1" viewBox="0 0 1280 1280" width="1280" height="1280" xmlns="http://www.w3.org/2000/svg">
<path transform="translate(443,144)" d="m0 0 9 3 35 10 32 8 40 6 16 3 6 4 5 6 4 10v2l21-2 25-2h32l23 2 23 3 34 7 36 11 22 9 33 16 32 20 26 20 7 7 8 7 17 17 11 12 14 19 13 19 8 14 11 21 11 27 7 21 4 16 5 25 2 20v54l-2 18v10l8 11 8 8 3 6 2 10-1 13-2 7v19l1 5v22l-3 11-5 13-7 11-9 10-12 10-10 7-16 7-14 4-6 1-28 1-5 5-8 6-16 8-28 20-18 11-16 9-21 11-21 8-33 11-13 3-6 3-20 2-14 2-31 3-65-1-21-2-42-10-33-10-15-7-10-4-32-16-9-6-8-5-7-1-11 8-9 4-6 1h-12l-13-4-15-9-11-10-9-12-7-15-5-21-2-16-2-26-5-10-3-12-2-10-10-23-11-33-6-25-2-10-3-30v-37l3-28 3-17 4-17 7-23 7-18 8-18 12-23 11-17 10-14 9-10 7-9 9-10 6-7 8-7 6-7 11-9 15-12 1-4-9-3-18-7-12-6-5-7-1-6v-24l3-17 4-12 6-12 3-3 14-1 5 1h11l4-4 8-13 4-4z"/>
<path transform="translate(636,192)" d="m0 0h32l23 2 23 3 34 7 36 11 22 9 33 16 32 20 26 20 7 7 8 7 17 17 11 12 14 19 13 19 8 14 11 21 11 27 7 21 4 16 5 25 2 20v54l-2 18v10l8 11 8 8 3 6 2 10-1 13-2 7-1 19-2-4 1-21 1-6v-12l-2 17-4 11-2 1-9-5-8-5 1-4-1-4-8 7-16 2-14 5-9 6-12 11-4 5-4 1-7-3v-6l2-7v-13l-3-12v-6l8-10 5-6 15-10 14-6 12-3h7l12 3 9 4-2-5-10-4-7-2-6-12-9-10-9-5-9-3-9-1-17 3-9 4-11 7-4 2-2 4h-2l-2 4-7 9-11-2h-10l-12 2-10 5-7 6-6 10-4 12-2 10-1 35-4 1-1-4-1-15-12-10-15-15-9-11-7-8-8-9 1-4 8-5 7-4 3-3 8-6 4-2 5-5 5-7h2l2-4 8-11 2-4 15-5 8-5 7-12 1-3v-17l13-26 4-11 7-25 4-18 2-24 2-29v-19l-2-19-4-16-6-12-9-11-5-3v-2l-5-2-36-18-8-2-15-4-23-6-15-3-19-2-25-1h-45l-6 1-30 2-23 3-7 1-4-5-18-45 21-2z" fill="#BAA88C"/>
<path transform="translate(401,165)" d="m0 0h7l13 2 3 3v2l5 1-2 5-4 9-6 21-1 8v14l1-16 4-17 5-12 8-11 4 1-7 11-2 1-1 6-4 14-2 11v20l2 10 2 6-5-1-3-5-1-2v5l-2 1-26-10-3-4-1-4v-27l4-19 5-14 2-4h-3l-6 15-5 23v20l1 9 4 6 10 5 21 8 21 6 26 6 12 2 5 6 5 9-1 5-15 8-14 10-8 6-22 22-18 2-14 7-10 9-9 14-7 15-4 14-1 9v30l3 19 6 17 7 12 8 11 10 10 18 10 18 6 28 1 3 4v3h-5l-1-1h-11l-10 2-21 6-13 6-14 9-9 7-13 13-11 15-7 14-5 16-3 20-8 12-6 15-2 7-1 11 2 9 4 8 3 3 1 28 3 19 4 17 8 16 7 9 10 9 13 8 10 4 5 1h13l10-3 7-5 2 1-8 6-9 4-6 1h-12l-13-4-15-9-11-10-9-12-7-15-5-21-2-16-2-26-5-10-3-12-2-10-10-23-11-33-6-25-2-10-3-30v-37l3-28 3-17 4-17 7-23 7-18 8-18 12-23 11-17 10-14 9-10 7-9 9-10 6-7 8-7 6-7 11-9 15-12 1-4-9-3-18-7-12-6-5-7-1-6v-24l3-17 4-12 6-12 3-3z" fill="#BAA88C"/>
<path transform="translate(443,144)" d="m0 0 9 3 35 10 32 8 40 6 16 3 6 4 5 6 12 30 6 14 6 15 2 2 7-1 23-3 30-2 6-1h45l25 1 25 3 36 9 13 4 7 2 24 11 6 4 10 5 3 3 6 5 9 13 5 13 2 10 2 19v19l-4 53-4 18-7 25-6 16-7 13-4 8v17l-6 12-5 6-11 5-10 2-2 6-8 10-2 3h-2l-2 5-5 5h-2l-2 4-7 4-4 3h-2l-2 4-13 7-1 4 11 12 9 11 12 13 4 4v2l4 2 10 8 1 1 1 19 3-1 1-7h1v8l-5 3-5 4-4 5-6-1-14-7-12-9-13-10-15-15-7-9-11-13-6-5 1-5 21-12 14-12 10-11 7-11 2-4 12-4 11-6 6-7 3-8v-18l10-19 5-13 6-19 5-20 2-9 1-12 5-1 4 1-8-8 2-36v-8l-1-6-1-19-5-18-7-14-11-11-11-7-9-6-16-7-18-6-19-5-20-5-10-2-19-2-19-1h-17l-11-1-17 1-28 1-5 1-15 1-15 2-3 1h-7l-6-12-5-14-7-14-6-17-4-8-8-6-19-3-10-2-19-2-42-10-5-2-8-2-7 1-1 2 5 2 1 3-6 10-1-4 5-8-5-1v-2l-3-1v-2l5-2 10-16 4-4z" fill="#5A696B"/>
<path transform="translate(413,629)" d="m0 0h18l13 4 11 4 1-4 9-1h9l12 3 11 6 8 10 4 10 2 17-1 9-5 10-4 5-5-1-10-9-13-9-3-9-2-1v-2l-3-3-3-6 2 10 5 10 14 12 10 9 5 10 1 3v11l-3 10-9 10-8 5-3 1h-17l-11-4-7-7-5-8-6-4 2 6 10 11 10 7 7 2h19l2 4-1 10-6 12-9 8-10 4-5 1h-10l-12-5-9-8-7-11-4-3-1-3-2-1 1 5 6 9 9 10 8 6-1 5-13 8-7 2h-14l-15-6-9-6-15-14-8-16-3-9-4-17-2-18v-15l3-12 7-13 7-10 7-9 14-14 14-11 12-6z" fill="#E5A414"/>
<path transform="translate(640,257)" d="m0 0h41l23 1 21 2 26 6 17 4 24 8 13 6 15 8 11 8 8 9 4 6 1 3v14l-3 9-4 8h-2l-1 5-8 9-5 3-6 7-16 11-17 8-10 4h-2v2l-17 6-16 3-26 6-12 2-52 3h-27l-52-3-25-3-43-9-27-9-19-8-12-8-10-9-6-9-1-3v-7l4-10 11-12 13-13 15-11 11-7 6-3 5 1 8 16 2 5-1 5-17 9-7 6h-2l-2 5-1 1v10l4 6v2l4 2 8 6 16 8 27 9 21 4 29 3 31 1 37-1 29-3 18-3 18-4 36-10 13-5 17-9 15-10 9-10 3-8-1-8-4-6-9-7-11-6-15-6-14-4-30-5-17-2-35-2-30 1-40 5-11 2h-5l-3-5-6-17v-5l11-3 23-3z" fill="#EAE3D0"/>
<path transform="translate(870,584)" d="m0 0h18l12 5 8 6 10 11 6 13 4 13 1 4v14l-3 9-7 8-12 4h-6l-10-5-7-7-6-9-6-18-2-19-1 4v15l3 12 4 9 9 11 10 8 2 1 14 1 11-4 4-4 6 1 6 3-1 6-3 9v9l4 9 4 6 8 6 8 3h14l13-4h2v-2l11-8 5-5h2l1-9-11 12-5 5-10 7-8 2h-12l-12-5-7-8-3-7v-13l6-16 12-13 10-7 15-6 3-1h17l9 4 6 4 5 5 4 10 1 7v17l-4 16-5 10-8 10-9 9-14 10-17 8-21 5h-11l-15-2-16-7-11-6-11-8-9-7-10-10v-2h-2l-14-21-5-11-6-20-1-7v-26l2-12 4-12 7-10 9-6z" fill="#E5A415"/>
<path transform="translate(680,744)" d="m0 0 12 2 5 5 2 12 2 19 4 17 8 17 9 14 14 20 1 4-7 3-15 2h-5v2l-38 4-65-1-21-2-42-10-33-10-15-7-10-4-32-16-9-6-8-5-7-1h-3l7-5h15l3 3 1 10 2 1v-13l14-7 5-5 5-8 4-13 1-9h4l1 5 6 1 20 11 15 6 7 3 20 6 17 3h29l27-4 17-5 19-10 20-12 4-7h-8l-1 5h-3v-12z" fill="#C80906"/>
<path transform="translate(640,286)" d="m0 0h47l31 3 26 4 21 5 11 5 8 3 12 8 6 7 1 2v9l-5 9-3 3h-2l-2 4-11 7-3 2-4-1-5-7-14-7-24-5-11-2h-4l30 6 14 4 6 4 6 7-1 5-8 3h-2v2l-24 8-24 7-29 6-34 4-36 1h-21l-49-5-17-4-21-7-17-8-3-3 2-4 11-7 13-4 3 2 4 12v6l-8-1 9 4 15 3h19l26-4 21-6 11-6 4-5 1-2v-7l-1-2h-2l1 2v6l-4-1-7-13 1-4 3-1 34-1h15l54 2-43-3h-46l-20 1-11-20-5-12v-5l4-2 33-5z" fill="#EAE3D0"/>
<path transform="translate(743,408)" d="m0 0 5 2 2 3 1 5v41l-3 15-5 15-3 6-9 12-2 1-3 5-10 10-14 11-14 8-19 5-11 1h-20l-18-4-12-5-15-10-10-9 1-3 11-4 5-6 3-8 1-6v-12l-17-12-1-4 9-8 5-4v-10l-3-17v-6l3-1 28 1h22l48-3 22-4z" fill="#EAE3D0"/>
<path transform="translate(424,366)" d="m0 0 4 1 12 12 10 7 21 9 27 9 27 6 16 4 2 2 2 23 3 18 7 22 7 17 1 5-1 1-15 1-8 2-2 4-7 7-3 2-5 10-2 7v17l3 11 8 16 1 4-4-1-14-10-10-8-14-12-6-6v-2l-3-1-11-14-8-14-6-11-10-22-6-17-6-19-6-30-4-32-1-15z" fill="#E9E2CF"/>
<path transform="translate(740,498)" d="m0 0 5 1 9 9 9 6 1 5v8l4 8v2l4 2 5 4v2l-10 3-35 4 4 5 2 5 7-7 8-5 16-2 14-2h5l-1 5-7 10-5 6-8 7-4 5-18 13h-4v2l-8 4h-4v-8l7-22-10 27-7 8-5 3-10 1v2l-25 6-6 1h-10l-2-2v-8l4-12-5 13h-2l-1 5-5 5-3 1h-22l-18-2-17-4-15-6-2-4v-7l5-13h2l1-7 12-29 8-5h6l11 5 16 3 29 2 7 3 3 5v7l-4 11 3-7 3-6 10-9 4-2h33l-20-1h-25l-7-1v-3l21-7 14-9 13-11 13-13z" fill="#8B887B"/>
<path transform="translate(707,662)" d="m0 0 4 1 1 3 4 1 10 13 7 7 6 7 8 7 9 8 11 9 15 10 25 13 20 8 21 6 10 8 14 8 8 3 13 1 13-2 5-3 2 1-9 6-16 8-10 8-21 14-17 10-22 12-16 7-13 5-11 3 3-3h2l-2-6-5-6-7-11-11-15-9-19-3-14-2-11-2-22-4-6-6-4-11-1-2-2 1-9 2-15 3-8-1-6-11-13-6-7z" fill="#BAA88C"/>
<path transform="translate(730,923)" d="m0 0h44l5 3 8 12 2 6v6l-24 1-10 1-3 3v5l7 2 16 1 4 5v2h2l2 8v7l-1 2h-22l-6-1v10l6 2h19l4 4 1 3h5l4-8 8-20 9-20 9-21 5-10 4-2h15l5 2 7 10 6 14 12 36 7 16 10 19 1 4-2 2h-14l-12-6-4-8-6-15-11-31-6-10h-2l-4 11-4 7v3l13 2 7 14v2l3 1 1 7-1 1-14 1h-10l-3 3-6 15-5 3h-15l-4-4-7-1-4 4h-41l-7-2-2-3-6-3v-26l1-56 1-11z" fill="#E8A714"/>
<path transform="translate(375,887)" d="m0 0h17l19 5 11 5 8 9 1 8-1 14-5-1-11-5-10-2h-17l-12 3-9 5-8 9-5 10-3 11v25l4 10 8 9 10 5 9 2h10l16-4 13-6 3 1 3 5 3 2 1 8v9l-1 9-5 4-18 6-4 1h-14l-14-3-12-5-11-6-11-9-9-9-8-13-5-14-2-12v-25l3-14 8-16 8-10 10-10 8-5 15-5z" fill="#E9A714"/>
<path transform="translate(651,287)" d="m0 0h16l20 1 7 1h9l16 2 16 3 10 1 3 1 12 3 6 2 16 6 2 1v2l5 1 10 10 2 3v7l-3 10-3 3h-2l-2 4-10 6-6 1-4-6-10-6-10-4-25-5-16-2-42-3h-51l-16 1-8-16-5-13-1-5 7-2 28-4h8l11-2z" fill="#EAE3D0"/>
<path transform="translate(418,339)" d="m0 0 5 1-1 5-2 6v11l2 34-2 3-3 1-2 4h-2l-3 9-1 9v10l3 16 4 9v4l3 1 7 9 9 6 8 5 11 24 4 8-1 4-3 1h-17l-12-3-18-8-12-9-9-10-10-16-6-16-4-20v-30l3-16 6-16 7-12 9-10 5-5 12-7z" fill="#EAE3D0"/>
<path transform="translate(846,339)" d="m0 0 3 1 1 3 1 14v31l-2 21-4 28-7 28-3 8h-2l-1 9-2 4h-2l-3 10-5 8-3 1-13-5-5-1h-11l-10 3h-3l1-6 4-16 2-10-7-8-3-3v-5l12-10 2-7v-10l-3-24-1-7 5-4 16-8 13-9 14-12 9-11z" fill="#E9E2CF"/>
<path transform="translate(707,660)" d="m0 0 4 1 3 3v2h-2l-2-3-3-1 2 5 9 10 8 11-1 7-2 5-3 19v5l1 1 11 1 9 7 2 4 2 22 5 25 9 19 13 18 7 11 4 4v5l-4 2-1 2-26 8-9 2-6 3-20 2h-7v-1l30-5 3-2-2-5-7-9-3-5-4-4-8-14-7-14-5-21-2-14-1-5v-7l-3-7-8-5-11-2-2-2 1-15 4-17 8-21 6-12z" fill="#5A696A"/>
<path transform="translate(898,923)" d="m0 0h13l5 2 2 3 6-1 9-3h15l12 3 10 6 7 6 8 10 6 12 3 13v17l-2 9-5 10-9 10-8 6-13 4h-12l-10-3-6-4-5-1-1 4-2 1h-12l-6-2-4-3-5-2-1-2 1-25 1-67zm43 28-11 4-6 5-1 21v13l4 5 9 3h13l6-3 6-7 4-11v-12l-3-10-5-6-3-2z" fill="#E8A716"/>
<path transform="translate(589,918)" d="m0 0h8l11 4 8 6 8 9 3 9 1 8v19l1 2v10l-4 6-6 5-11 5h-13l-12-3-11-7-3-6-1 4-1 32-1 3-2 1-14-1-3-4-6-3v-90l2-3 3-1h11l5 2 5 1 10-5zm7 26-12 4-11 7-4 6v8l1 2 10 3h13l8-4 4-5 2-8-3-9-3-3z" fill="#E8A716"/>
<path transform="translate(449,922)" d="m0 0 14 1 3 3 5 6 1 61 3 5 4 2h10l8-2 5-4 2-6 1-8v-52l4-4h18l4 4v60l1 3v16l-3 8-7 7-10 5-13 3h-15l-14-5-10-7-6-5-5-8-5-15-2-14v-45l2-7z" fill="#E8A715"/>
<path transform="translate(640,924)" d="m0 0h17l3 4 3 5 1 1v25l3 2h20l3-1 2-34 2-2h15l3 3 5 8 1 13-1 76-1 1h-13l-4-1-4-4-4-2-1-3v-29l-7 1-19 1v35l-1 2-7 1-9-1-4-4-6-3-2-10-1-79 2-4z" fill="#E9A713"/>
<path transform="translate(603,543)" d="m0 0h6l11 5 20 3 21 1 8 2 4 5 1 4-6 16-4 12-1 2-1 8-2 6h-2l-1 5-5 5-3 1h-22l-18-2-17-4-15-6-2-4v-7l5-13h3l1-5 5-11 5-14 3-5z" fill="#EAE3D0"/>
<path transform="translate(984,584)" d="m0 0h7l12 3 6 3v2l6 2 6 4 8 8 3 6 2 10-1 13-2 7-1 19-2-4 1-21 1-6v-12l-2 17-4 11-2 1-9-5-8-5 1-4-1-4-8 7-16 2-14 5-9 6-12 11-4 5-4 1-7-3v-6l2-7v-13l-3-12v-6l8-10 5-6 15-10 14-6z" fill="#E5A415"/>
<path transform="translate(455,571)" d="m0 0h19l16 5 12 6 8 7 9 11 3 6-1 5-9 8-8 10-5 5-6-1-16-5h-12l-13 2h-6l-16-5-12-1-8-7v-8l8-13 10-11 12-9z" fill="#5A696B"/>
<path transform="translate(549,504)" d="m0 0h12l8 4 16 16 7 6 3 7v7l-10 24-1 4h-2l-3 11-4 9-4 5-5 2h-7l-11-7-8-6-1-2-3-1-8-11-6-17-1-5v-11l4-13 6-9 9-9z" fill="#EAE3D0"/>
<path transform="translate(730,923)" d="m0 0h44l5 3 8 12 2 6v6l-24 1-10 1-3 3v5l7 2 16 1 4 5v2h2l2 8v7l-1 2h-22l-6-1v10l6 2h19l4 4 1 3 6 2-3 3-4-2h-3l-3 10-2 2h-42l-1 2-7-4v-26l1-56 1-11z" fill="#E8A715"/>
<path transform="translate(832,666)" d="m0 0h4l6 19 6 12 7 10 7 9 9 10 10 9 18 12 16 9-1 5-7 7-6 3-5 1h-11l-10-3-14-7-9-7-8-9-6-9-6-10-6-16-3-14v-17l3-8z" fill="#E4A415"/>
<path transform="translate(680,744)" d="m0 0 12 2 5 5 2 12 2 19 4 17 8 17 9 14 14 20 1 4-7 3-15 2h-5v2l-38 4-65-1-21-2-42-10-33-10-15-7-10-4-32-16-9-6-8-5-7-1h-3l7-5h15l3 3 1 10 2 1v-13l14-7 5-5 5-8 4-13 1-9h4l1 5 6 1 20 11 15 6 7 3 20 6 17 3h29l27-4 17-5 19-10 20-12 4-7h-8l-1 5h-3v-12zm9 20-5 4-6 3-5 3-5 2-5 3-8 4-2 4-13 1-7 3-7 1-1 1-27 2-1 1h-14l-20-2-16-4-4-2-10-2-7-4-7-3h-7v-2l-9-4-6-5-6-1-4 12-4 4-3 6-6 5-5 3-1 2-4 2-1 10 2 4 13 5 5 2v2l9 3 4 3 20 7 10 5 10 4 17 3 12 3 13 4 16 3h10l3 1h70l13-2 12-1 3-1 11-1 11-2 1-1v-6l-3-1-3-9-6-9-4-5-5-8-6-15-4-16-2-2-1-13-2-4z" fill="#B71F15"/>
<path transform="translate(571,280)" d="m0 0 3 1 8 20 7 16-1 5-6 8-8 7-10 6-7 1v2l-14 4-6 1h-17l-5-5-8-21-3-7 1-5 17-2 18-6 13-7 7-5h2l2-4 4-6h2z" fill="#EAE3D0"/>
<path transform="translate(553,235)" d="m0 0h2l9 21 4 11 1 2v7l-4 6-7 9-4 3h-2v2l-12 7-17 6-6 1h-15l-5-8-10-23 1-4 7-1 18-6 10-5 12-9 10-9 7-9z" fill="#C80906"/>
<path transform="translate(690,555)" d="m0 0h41l4 3-1 15-8 22-7 8-5 3-30 6-16 3-4-1-1-1v-7l3-8 3-12 2-1 4-12 3-8h2l2-4z" fill="#EAE3D0"/>
<path transform="translate(437,175)" d="m0 0 7 1 16 4 9 2 1 1-1 7-5 12-3 9-2 13v21l2 13-1 3-4 1-24-6-6-2-4-9-1-7v-20l3-16 4-12v-4h3l2-5z" fill="#C80906"/>
<path transform="translate(532,195)" d="m0 0h6l4 5 11 26v6l-7 9-9 10-9 7h-4l-1 3-17 7-11 4-10 1-3-3 1-9 6-15 11-18 8-10 9-10 11-10z" fill="#E7E0CD"/>
<path transform="translate(477,184)" d="m0 0 11 1 22 3 18 3 2 1-2 4-13 12-3 1-2 5-7 8-10 15-6 12-1 3h-2l-1 7-3 7-5 1-7-2-4-11-2-18v-9l4-18 5-14 5-10z" fill="#E9E2CF"/>
<path transform="translate(946,553)" d="m0 0 15 1 9 3 9 7 6 9 1 6-7 3-16 5-18 11-10 9-3 3-2 4-4-1-6-11-13-13-6-4 1-6 12-12 7-5 15-7z" fill="#E3A316"/>
<path transform="translate(401,165)" d="m0 0h7l13 2 3 3v2l5 1-2 5-4 9-6 21-1 8v14l1-16 4-17 5-12 8-11 4 1-7 11-2 1-1 6-4 14-2 11v20l2 10 2 6-5-1-3-5-1-2v5l-2 1-26-10-3-4-1-4v-17h2v-11l5-21 5-14h3v-5z" fill="#EAE3D0"/>
<path transform="translate(455,571)" d="m0 0h19l16 5 12 6 8 7 9 11 3 6-1 5-6 3h-16l-6 2h-7l-11-4-18-3-2-1v-2l-4-1-3-5 2-6 10-16 1-2-13 1-5 1 3-3h2v-2z" fill="#B9A78C"/>
<path transform="translate(590,323)" d="m0 0 2 1 2 6 12 22 1 7-11 6-15 4-16 3-15 2h-9l-16-1-3-4-3-11 1-5 6 1 21-3 13-4 14-8 10-9z" fill="#C80906"/>
<path transform="translate(378,618)" d="m0 0h20l8 3 3 3-5 3-14 7-10 7-16 15-9 9-12 18-6 10-1 3-4-1-4-8v-15l5-16 6-12 9-10 10-8 10-5z" fill="#E2A317"/>
<path transform="translate(741,500)" d="m0 0 4 2 8 7 9 6v15h2l3 8 7 5-2 2-9 2-16 1-15 2h-53v-2l11-4 9-4h2v-2h3v-2l8-6 5-3 8-8h2l2-5h2l2-4h2l1-4z" fill="#EAE3D0"/>
<path transform="translate(789,501)" d="m0 0h10l9 2 6 3 4 8v10l-4 9-8 7-9 2h-14l-12-6-4-5-1-2v-14l7-8 11-5z" fill="#C80906"/>
<path transform="translate(640,286)" d="m0 0h47l31 3 26 4 21 5 11 5 8 3 12 8 6 7 1 2v9l-4 7-1-3 2-5v-7l-4-5v-2l-5-2-4-4-3-1v-2l-11-3-7-3-18-5-16-3-24-3-6-1h-8l-7-1-31-1-18 1-8 2h-9l-32 5h-2l4 10 5 12 5 10v2l17-2h50l44 3 14 2 25 5 11 4 1 2 4 2 6 4 2 4h5l-3 3-4-1-5-7-14-7-24-5-11-2h-4l30 6 14 4 6 4 6 7-1 5-6 2 1-3 4-1-2-5-4-4-9-4-10-2-3-1-21-3-4-2-8-1h-15l-30-2h-21l-36 1 2 5 3 7-1-4 1-3 5 1 3 4-1 9-6 8-5 3-16 6-10 3-28 4-14 1-20-4-12-6-2-4 4-1v2h6l-1-6-2-8-5 1-13 5-9 6 2-4 11-7 13-4 3 2 4 12v6l-8-1 9 4 15 3h19l26-4 21-6 11-6 4-5 1-2v-7l-1-2h-2l1 2v6l-4-1-7-13 1-4 3-1 34-1h15l54 2-43-3h-46l-20 1-11-20-5-12v-5l4-2 33-5z" fill="#938E7E"/>
<path transform="translate(932,946)" d="m0 0h12l5 2-1 2h-7v2l-11 4-5 4-1 21v16l1 24h10v2h18l11-4 9-7 1-2h2l2-5 4-5 5-13v-28l3 4 3 12v22l-4 9-6 9-8 8-7 4-11 3h-12l-10-3-6-4-5-1-1 4-2 1h-12l-6-2-2-4 14-1 1-5 1-24v-17l1-20 6-5z" fill="#66716F"/>
<path transform="translate(783,548)" d="m0 0 2 1-1 7-9 11-8 7-4 5-18 13-11 3-3 1 1-8 4-13 5-14 5-3 4-5 9-2h9z" fill="#E7E0CD"/>
<path transform="translate(553,235)" d="m0 0h2l9 21 4 11 1 2v7l-4 6-7 9-4 3h-2v2l-12 7-17 6-6 1h-15l-5-8-10-23 1-4 7-1 18-6 10-5 12-9 10-9 7-9zm-1 11-8 7-4 4v2l-5 1-13 8-10 3-1 2-13 3-2 3 3 10 3 4 5 10 3 3h7l18-5 11-7 8-5 7-9 2-1 1-3v-9l-5-12-2-7-2-2z" fill="#B51311"/>
<path transform="translate(640,257)" d="m0 0h41l23 1 21 2 26 6 17 4 24 8 13 6 15 8 11 8 6 6v2l-4-2-5-5-3-2v-2l-4-1-11-6-1-2-9-3-9-4-10-4-10-3-12-2-3-2-15-4-17-3-23-2h-13l-6-1h-44l-17 1-8 1-13 1-24 3 3 10 3 7 1 6 11-1 9-2 18-2 21-2 7-1h26l46 4 34 6 8 2 6 2 2 1v2l-9-2-17-4-24-4-17-2-35-2-30 1-40 5-11 2h-5l-3-5-6-17v-5l11-3 23-3z" fill="#908C7D"/>
<path transform="translate(498,323)" d="m0 0 5 1 5 12 3 10-3 3-14 5h-2l-1 3-6 5h-5l-5-5-3-4-1-8 4-8 11-8z" fill="#E9E2CF"/>
<path transform="translate(590,323)" d="m0 0 2 1 2 6 12 22 1 7-11 6-15 4-16 3-15 2h-9l-16-1-3-4-3-11 1-5 6 1 21-3 13-4 14-8 10-9zm-1 11-5 5-11 6-12 6-13 3-18 2-1 7 3 6 13 1 16-2 26-4 7-4 7-2 2-4-3-3h-2l-1-9-3-3-3-5z" fill="#B41311"/>
<path transform="translate(421,402)" d="m0 0 2 1 7 38 7 24 2 5-1 5-5-3-9-8-8-16-2-6-1-11-1-4 3-15 4-9z" fill="#5A696B"/>
<path transform="translate(771,298)" d="m0 0 7 1 19 10v2l4 2 2 4h2l3 11-1 7-5 8h-2v2h-2l-2 4-15 11-22 11-18 6-10 3-13 3-1 1h-5v2l-16 2-7 2-17 3-4 1h-10l-18 1-21 1h-19l-19-1-16-2-18-1-13-3-9-2-11-4-13-4-17-9-11-9-3-3 1-4 3 4v2l4 2 8 6 16 8 27 9 21 4 29 3 31 1 37-1 29-3 18-3 18-4 36-10 13-5 17-9 15-10 9-10 3-8-1-8-4-6-9-7-11-6-9-4z" fill="#938E7E"/>
<path transform="translate(437,175)" d="m0 0 7 1 16 4 9 2 1 1-1 7-5 12-3 9-2 13v21l2 13-1 3-4 1-24-6-6-2-4-9-1-7v-20l3-16 4-12v-4h3l2-5zm2 4-5 5-3 8-3 6-1 1-1 10-2 6v28l3 6 13 5 4 2h12v-38l3-12 7-21-2-1-9-1-7-3z" fill="#B51311"/>
<path transform="translate(709,926)" d="m0 0 3 1 5 8 1 13-1 76-1 1h-13l-4-1-4-5 1-1 12-1 1-9h1l1-5h-2v-10h1v-59l1-4h-2z" fill="#B8A78C"/>
<path transform="translate(424,900)" d="m0 0 5 5 2 4-1 19-5-1-11-5-10-2h-17l-12 3-11 5-7 8-6 12-2 7-2 13-3-1-1-4v-9l4-14 6-11 5-5 6-5 11-4 5-1h14l21 5 7 1 1-17z" fill="#5E6B6C"/>
<path transform="translate(789,501)" d="m0 0h10l9 2 6 3 4 8v10l-4 9-8 7-9 2h-14l-12-6-4-5-1-2v-14l7-8 11-5zm3 3-14 6-4 7v9l3 6 6 4 5 1h13l9-6 3-6 1-8-4-8-7-4z" fill="#B41311"/>
<path transform="translate(987,959)" d="m0 0 3 4 3 12v22l-4 9-6 9-8 8-7 4-11 3h-12l-10-3-6-4-5-1v-1h11v2h18l11-4 9-7 1-2h2l2-5 4-5 5-13z" fill="#68726F"/>
<path transform="translate(640,286)" d="m0 0h47l31 3 26 4 21 5 11 5 8 3 12 8 6 7 1 2v9l-4 7-1-3 2-5v-7l-4-5v-2l-5-2-4-4-3-1v-2l-11-3-7-3-18-5-16-3-24-3-6-1h-8l-7-1-31-1-18 1-8 2h-9l-32 5h-2l4 10 5 12 5 10v2l17-2h50l14 1v1l-61 1-20 1-11-20-5-12v-5l4-2 33-5z" fill="#9B9381"/>
<path transform="translate(585,940)" d="m0 0 9 1 1 2-6 2v2l-9 3-7 4-4 6-1 15-1 3-1 46-2 1h-6l-8-4-1-2 9-1 2-8 1-40 2-14 3-5 5-4 8-5z" fill="#5C6A6B"/>
<path transform="translate(846,339)" d="m0 0 3 1 1 3 1 14v31l-2 21-4 28-4 16h-1v-7l3-13 2-16 3-26v-33l-1-14-2 3-7 11-15 15-9 7-5 4h-3v2h-3v2l-18 8 1 9 2 9v28l-5 6-8 7 1 5 8 8 1 5-2 7-4 18h9l-3 2-10 2 1-6 4-16 2-10-7-8-3-3v-5l12-10 2-7v-10l-3-24-1-7 5-4 16-8 13-9 14-12 9-11z" fill="#8B897B"/>
<path transform="translate(331,716)" d="m0 0h1l2 14v7h2l3 16 3 12 8 16 7 9 10 9 13 8 10 4 5 1h13l10-3 7-5 2 1-8 6-9 4-6 1h-12l-13-4-15-9-11-10-9-12-7-15-5-21-2-16v-10z" fill="#B0A38C"/>
<path transform="translate(434,174)" d="m0 0 4 1-7 11-2 1-1 6-4 14-2 11v20l2 10 2 6-5-1-3-5-1-2v5l-2 1-24-9v-1h6l12 5 6 2-1-2-1-10v-24l5-20 2-4h2l-1 5-4 14-1 8v14l1-16 4-17 5-12z" fill="#AA9976"/>
<path transform="translate(754,365)" d="m0 0h6l-3 2-21 7-24 7-29 6-34 4-36 1h-21l-49-5-17-4-21-7-2-2 10 1v2l9 2 18 5 18 2 14 1 18 2h40l13-1 20-1 10-2 11-1 18-4 27-7 7-2z" fill="#948F7E"/>
<path transform="translate(418,339)" d="m0 0 5 1-1 5-2 6v11l2 34-2 3-2-1 1-1v-8l-1-13-1-8 1-20 2-6-9 1-9 4h-2v2h-3v2h-3l-2 4-11 14-9 21-2 9-2 17 1 21 4 20 3 9 6 12 8 12 10 10 3 4-4-2-7-6-8-10-8-13-6-16-4-20v-30l3-16 6-16 7-12 9-10 5-5 12-7z" fill="#8A887B"/>
<path transform="translate(424,1007)" d="m0 0 4 1v26l-6 4-20 6h-14l-10-2v-2l-6-1-5-2v-1l8 1h21l12-3 12-5 2-3 1-14z" fill="#65706E"/>
<path transform="translate(394,166)" d="m0 0h6v5h-3l-1 6-5 15-3 16-1 9h-2v-10l4-19 5-14 2-4h-3l-6 15-5 23v20l1 9 4 6 10 5 19 7v1l-14-1-13-5-7-5-3-5-1-6v-24l3-17 4-12 6-12z" fill="#969080"/>
<path transform="translate(603,541)" d="m0 0h6l11 5 16 3 29 2 7 3 3 5v7l-4 11-1 9-3 12-3 8v7l4 1 16-3 14-3h6l-4 2-21 5-6 1h-10l-2-2v-8l4-12-2 2-1-4 3-7 6-18 2-5-3-6-5-2-4-1-21-1-20-3-11-5h-6l-6 4-7 18-5 11-2 5h-1l1-7 12-29z" fill="#87867A"/>
<path transform="translate(743,408)" d="m0 0 5 2 2 3 1 5v18l-2-3-1-16-1-6-10 1-8 3-10 1-21 4-48 3h-27l-24-2 2 12 2 7v13l-4 5-6 4-4 3 1 5-4-2 1-4 13-11v-10l-3-17v-6l3-1 28 1h22l48-3 22-4z" fill="#928D7E"/>
<path transform="translate(740,498)" d="m0 0 5 1 9 9 9 6 1 5v8l4 8v2l4 2 5 4v2l-10 3-28 3-60 1-7-1v-3l21-7 14-9 13-11 13-13zm1 2-6 7v3l-4 2v2h-2l-2 5-4 2-5 4-3 3-11 8v2h-3v2l-9 3-10 4-3 1v2h53l26-3 9-1 7-2-2-3-5-3-3-8h-2v-15l-9-6-10-9z" fill="#8F8B7D"/>
<path transform="translate(527,996)" d="m0 0 3 3v10l-4 9-7 6-11 4-9 2h-15l-3-1v-2l-4-2 24-3 11-4 9-7 4-6z" fill="#67716F"/>
<path transform="translate(683,329)" d="m0 0 29 2 14 2 25 5 11 4 1 2 4 2 6 4 2 4h5l-3 3-4-1-5-7-14-7-24-5-11-2h-4l30 6 14 4 6 4 6 7-1 5-6 2 1-3 4-1-2-5-4-4-9-4-10-2-3-1-21-3-4-2-8-1h-15l-8-1v-1l25-1-43-3v-1z" fill="#908C7D"/>
<path transform="translate(343,690)" d="m0 0h1v9h-2v31l-1 3 2 1 1 8-1 3h2l1 9 1 3-1 2 2 1-1 2h2l1 8 2 1 6 10 9 11 9 6-1 2-5-2-16-15-8-16-3-9-4-17-2-18v-15l3-12z" fill="#A69A85"/>
<path transform="translate(780,1007)" d="m0 0 5 1 2 1-1 9-2 5-3 3h-41l-7-2v-4l42-1 3-9z" fill="#69726F"/>
<path transform="translate(571,280)" d="m0 0 3 1 8 20 7 16-1 5-2 2v-8l-5-10-6-14-2-7h-4l-2 5-4 6-6 2-1 2-8 4-13 6-18 5-9 1-1 3 3 5 3 9 4 10 2 4 2 1h26l-4 2-6 1h-17l-5-5-8-21-3-7 1-5 17-2 18-6 13-7 7-5h2l2-4 4-6h2z" fill="#8F8B7D"/>
<path transform="translate(756,400)" d="m0 0 4 2-14 3-26 6-21 4-52 3h-27l-52-3v-1h28l23 1h31l39-2 11-1 12-2 16-4 5-1 8-2 7-1 3-1z" fill="#97907F"/>
<path transform="translate(843,999)" d="m0 0 5 2v3l-25 1-2 3-3 12-5 5-3 1h-13l-4-4v-1l14-1 7-14 2-5 1-1z" fill="#5C6A6C"/>
<path transform="translate(712,334)" d="m0 0h7l32 6 12 5 8 6 3 5h5l-2 4-23 11-27 8-12 3-3-1 2-2 32-9 11-4h3v-2l10-4-1-6-8-7-8-3-12-3-26-5z" fill="#010101"/>
<path transform="translate(477,184)" d="m0 0 11 1 22 3 18 3 2 1-2 4-9 8-1-3 4-2 2-6-12-1-9-2-11-1-14-2-4 8-5 13-3 14-1 6v8l3 21v6l-2-3-2-6-2-18v-9l4-18 5-14 5-10z" fill="#8E8A7C"/>
<path transform="translate(670,981)" d="m0 0h15l2 2-3 2h-21l-1 4v35h-11l-5-2v-2l9-1 2-2v-29l2-6z" fill="#5A696B"/>
<path transform="translate(424,366)" d="m0 0 4 1 12 12 10 7 21 9 11 4v1h-6l-12-5-15-6-11-9-8-7-3-3v13l1 15 2 13 4 22 6 24v6l-2-3-5-19-5-25-4-32-1-15z" fill="#918C7D"/>
<path transform="translate(624,976)" d="m0 0h2l1 3v7l-5 8-14 7h-13v-2l-8-1-3-2 20-2 11-6 7-8z" fill="#646F6E"/>
<path transform="translate(485,294)" d="m0 0 5 1 8 16 2 5-1 5-2-1-1-7-7-16-6 1-7 4h-2v2l-9 5-9 7-8 7-5 6-6 5-2 3h-2l-2 6-3 6-1 9 2 1 6 10 4 4 3 1v2l5 2 13 8 3 1v2l-5-1-15-9-11-10-6-9-1-3v-7l4-10 11-12 13-13 15-11 11-7z" fill="#8D8A7C"/>
<path transform="translate(832,666)" d="m0 0h4l-1 4v-2l-4 3-1 2h-2v6h-2l1 16-1 2 2 1-1 4 2 1 1 7 2 5-1 2h2l2 6-1 2 3 1 1 3 5 9v2l3 3 4 5 3 5v3l-7-7-7-10-7-12-6-16-3-14v-17l3-8z" fill="#A39883"/>
<path transform="translate(846,339)" d="m0 0 3 1 1 3 1 14v31l-2 21-4 28-4 16h-1v-7l3-13 2-16 3-26v-33l-1-14-2 3-7 11-10 10-2-1 7-7 7-10z" fill="#908C7D"/>
<path transform="translate(434,798)" d="m0 0h15l3 3 1 10 2 1v-13l4-1 1 17 20 11-2 1-24-12-9-6-8-5-7-1h-3z" fill="#B5A68E"/>
<path transform="translate(531,470)" d="m0 0 8 1-1 5-11 1-12 5h-2l-1 3-5 5h-2l-1 4-3 7-3 6-3-1-1-7 2-5h2v-2l13-13 6-3h2v-2h5l1-3z" fill="#9B9381"/>
<path transform="translate(651,348)" d="m0 0 2 2-1 10-5 9-6 5h-2v2l-12 4-8 1-2-3 4-3 7-1 9-4 6-9 3-7 1-2h2v-3z" fill="#989180"/>
<path transform="translate(349,781)" d="m0 0 4 4 7 8 10 8 14 8 11 3h13l10-3 7-5 2 1-8 6-9 4-6 1h-12l-13-4-15-9-6-7v-2l-8-9-2-2z" fill="#A89E89"/>
<path transform="translate(420,407)" d="m0 0h2l4 21 2 11v4h3l3 11 1 11 1 6-4-2-7-21-2-9-2-14-2-11z" fill="#B2A288"/>
<path transform="translate(610,290)" d="m0 0h11v1l-32 5h-2l4 10 5 12 5 10v2l17-2h50l14 1v1l-61 1-20 1-11-20-5-12v-5l4-2z" fill="#AC9E87"/>
<path transform="translate(991,744)" d="m0 0 2 1-9 6-17 7-17 4-28 1-4 2 2-6 2-2 23 1 11-1 19-6 11-5z" fill="#67716F"/>
<path transform="translate(549,504)" d="m0 0h12l8 4 16 16 7 6-1 2-12-9-1-3-7-6-4-4-7-3-9-1-6 2-3 3h-3l-2 4-5 5-1 2h-2l-1 6h-2l-2 11v14l4 12 5 10 1 3 3 1 1 4h-2l-8-11-6-17-1-5v-11l4-13 6-9 9-9z" fill="#918C7D"/>
<path transform="translate(424,900)" d="m0 0 5 5 2 4-1 19-5-1-11-5-10-2h-22l3-2h27l7 2h3l1-17z" fill="#BDAA8F"/>
<path transform="translate(470,354)" d="m0 0 4 4v2l4 2 8 6 16 8 27 9 21 4 29 3 25 1v1l-23 1-16-2-18-1-13-3-9-2-11-4-13-4-17-9-11-9-3-3z" fill="#8F8B7D"/>
<path transform="translate(641,332)" d="m0 0h15l53 2v1l-33 1-13-1h-21l-36 1 2 5 3 7-1-4 1-3 3 1-1 2 1 2v6l-4-1-7-13 1-4 3-1z" fill="#908C7D"/>
<path transform="translate(630,348)" d="m0 0h1v12l-4 7h-2l-2 5-9 5-10 3-4 1-3-1-7-1 1-3 9-1 8-2h5l10-9 4-8z" fill="#BBA88C"/>
<path transform="translate(365,926)" d="m0 0 2 1-9 10-5 10-3 11v25l2 5-1 3h-2l-2-3-4-12-2-10 1-18 1-2h2l-1 8v9l1 4 2 1 1-13 4-12 7-11z" fill="#C0AC8D"/>
<path transform="translate(876,995)" d="m0 0 2 3 13 25-2 4h-14l-9-5 1-3 2 1h9l4-2-1-6-4-8v-3h-2z" fill="#BCA788"/>
<path transform="translate(532,195)" d="m0 0 3 1h-2l-1 3-7 5h-2l-2 4-5 5h-2l-2 4-4 5-5 7h-2l-2 6h-2l-1 4-4 8-5 12-2 5-1 7 15-3 5-2h5l-3 2-11 4-10 1-3-3 1-9 6-15 11-18 8-10 9-10 11-10z" fill="#989180"/>
<path transform="translate(465,931)" d="m0 0h2l2 3 1 9v20l-1 14v5h-3l-1-1z" fill="#5A696B"/>
<path transform="translate(393,502)" d="m0 0 4 2 10 6 12 6 15 5 28 1 3 4v3h-5l-1-3-17 1 2-2-10-1-17-5-18-10v-2l-5-2z" fill="#A39C8A"/>
<path transform="translate(845,601)" d="m0 0 1 4-2 6h-2l1 8-1 1-1 7v20l1 11 1 5v11l-2-3-3-10-1-7v-26l2-12 4-12z" fill="#9F9682"/>
<path transform="translate(350,632)" d="m0 0 2 1-7 8h-2l-1 6h-2l-1 7-2 1-1 6-3 5-1 11v9l1 3 5 1-2 6-4-1-4-8v-15l5-16 6-12 9-10z" fill="#A59A84"/>
<path transform="translate(463,389)" d="m0 0 8 1 10 4 22 7 24 4v2l9 1 21 3 11 1v2h-10l-26-4-35-8-24-8-10-4z" fill="#8F8B7D"/>
<path transform="translate(946,601)" d="m0 0 2 1-6 5-3 5-4 4v12l1 5v7h2v7h-2l1 7h-2l1 4-1 5h6l1 2-4 1-7-3v-6l2-7v-13l-3-12v-6l8-10 5-6z" fill="#948E7E"/>
<path transform="translate(754,365)" d="m0 0h6l-3 2-21 7-24 7-29 6-15 2h-6l3-3 19-2 18-4 27-7 7-2z" fill="#999280"/>
<path transform="translate(756,269)" d="m0 0h8l23 7 17 7 19 11 9 7 5 5v2l-4-2-5-5-3-2v-2l-4-1-11-6-1-2-9-3-9-4-10-4-10-3-12-2z" fill="#9C9381"/>
<path transform="translate(687,982)" d="m0 0 4 2 1 2-28 2v35l-1 2-7 1-9-1-4-4-3-2 3-1h12v-5h2l1 5-3 2h-9v2l16 2-1-38 2-2h21z" fill="#BBA88C"/>
<path transform="translate(685,335)" d="m0 0h26l19 3 23 5 10 4 7 7 1 6-5 3h-2l1-3 4-1-2-5-4-4-9-4-10-2-3-1-21-3-4-2-8-1h-15l-8-1z" fill="#A59A84"/>
<path transform="translate(613,341)" d="m0 0 4 2 2 4-1 8-6 8-5 3-16 6-10 3-28 4-14 1v-2l11-1 16-3 17-3 17-5 11-6 4-5 1-2v-7z" fill="#A59A84"/>
<path transform="translate(464,926)" d="m0 0h2l5 6 1 64h-3l-1-4-4-5-1-11 2 1 2 5h1v-11l1-8v-20l-1-9-4-6z" fill="#BBA88C"/>
<path transform="translate(669,283)" d="m0 0h30l22 2 34 6 8 2 6 2 2 1v2l-9-2-17-4-24-4-17-2-35-2z" fill="#8C897C"/>
<path transform="translate(659,928)" d="m0 0 4 5 1 1v26l-4 1-2-1 1-7h-2v-10l1-9v-5z" fill="#BCA88B"/>
<path transform="translate(764,530)" d="m0 0 4 5v2l4 2 5 4v2l-10 3-28 3h-52v-1l45-1 26-3 9-1 6-2-6-4-3-5z" fill="#A29883"/>
<path transform="translate(1021,599)" d="m0 0 7 6 4 7 2 10-1 13-2 7-1 19-2-4 1-21 1-6v-12l-1 12h-1l-1-16-4-11z" fill="#737973"/>
<path transform="translate(359,412)" d="m0 0h1l1 17 1 8v7l2 7 3 11 5 12 3 5v2h2l1 6-5-1-1-4-5-12-2-4-1-8-2-1-2-7-2-23z" fill="#EBE4D1"/>
<path transform="translate(568,414)" d="m0 0h28l23 1h19l29 1v1l-20 1h-27l-52-3z" fill="#908C7D"/>
<path transform="translate(488,275)" d="m0 0 4 1 3 9 11 24-4 1-5-8-10-23z" fill="#AE9A70"/>
<path transform="translate(367,422)" d="m0 0h1l1 15 4 20 3 9 6 12 8 12 10 10 3 4-4-2-7-6-8-10-8-13-6-16-3-15z" fill="#97907F"/>
<path transform="translate(658,391)" d="m0 0h15l-1 2-4 1h-10l-18 1-21 1h-19l-14-1v-1l61-2z" fill="#9C9481"/>
<path transform="translate(482,400)" d="m0 0 10 2 18 5 29 6 4 3 1 22h-2l-1-7-1-15-16-3-32-8-10-3z" fill="#96907F"/>
<path transform="translate(851,932)" d="m0 0 4 4 6 14 10 30-1 3-3-1-3-8-2-7-1-4 1-3h-2l-3-6-3-9v-6l-3-5z" fill="#BEA783"/>
<path transform="translate(498,323)" d="m0 0 5 1 5 12 3 10-3 3-6 1v-2l7-1-6-17-2-4-6 1-8 5h-3v2l-7 5-3 6 1 10h2l2 5h-2l-5-7-1-8 4-8 11-8z" fill="#979180"/>
<path transform="translate(777,969)" d="m0 0 4 4 1 6v8l-13-1-10-2-2-2 2-1h9l8 1v-12z" fill="#5B6A6B"/>
<path transform="translate(581,948)" d="m0 0 3 1-11 7-3 5v10h5l-3 5v11h-2l-1-2-1 4-1 32h-1v-43l1-3 1-15 4-6 5-4z" fill="#BBA88C"/>
<path transform="translate(355,718)" d="m0 0 4 1 2 3 2 10 7 15-4 1-4-5-6-13-1-5z"/>
<path transform="translate(394,166)" d="m0 0h6v5h-3l-1 6-5 15-3 16-1 9h-2v-10l4-19 5-14 2-4h-3l-6 15h-1l1-9 6-9z" fill="#8C897C"/>
<path transform="translate(784,941)" d="m0 0 4 4v4l-3 1h-14l-18-3v-1l5-1 25-2z" fill="#5D6B6C"/>
<path transform="translate(424,366)" d="m0 0 4 1 12 12 10 7 21 9 11 4v1h-6l-12-5-15-6-11-9-8-7-3-3-1 3-1 11h-1l-1-15z" fill="#8F8B7D"/>
<path transform="translate(381,228)" d="m0 0h1l1 9 4 6 10 5 19 7v1l-14-1-13-5-7-5-2-3z" fill="#ACA38F"/>
<path transform="translate(420,189)" d="m0 0h2l-1 5-4 14-2 10v28h2v5l-2 1-24-9v-1h6l12 5 6 2-1-2-1-10v-24l5-20z" fill="#BBA88C"/>
<path transform="translate(389,500)" d="m0 0 4 2 4 4 5 4 17 9 21 5h10v1l-6 1h-12l-16-5-10-5-6-4-11-8z" fill="#EBE4D1"/>
<path transform="translate(504,314)" d="m0 0h12l-2 2h-7l1 5 3 7 5 12 3 7 2 1h26l-4 2-6 1h-17l-5-5-8-21-3-7z" fill="#9D9481"/>
<path transform="translate(751,982)" d="m0 0h6l6 2 12 2v1h-15l-6-1v10l1 2-2 2-6-4v-10z" fill="#BDAA8E"/>
<path transform="translate(376,698)" d="m0 0 5 1 3 13 7 9 1 4-5-1-7-9-4-9z" fill="#010000"/>
<path transform="translate(603,541)" d="m0 0h6l11 5 11 3v1h-7l-13-5-2-1h-6l-6 4-7 18-5 11-2 5h-1l1-7 12-29z" fill="#999280"/>
<path transform="translate(587,609)" d="m0 0 11 1 7 2 19 3h29l-1 2-3 1h-22l-18-2-17-4-5-2z" fill="#8F8B7D"/>
<path transform="translate(775,506)" d="m0 0h2l-2 4h-2l-2 9v8l4 8 3 4-6-2-5-6-1-2v-14l7-8z" fill="#A09374"/>
<path transform="translate(599,532)" d="m0 0 6 2 10 5 13 4 10 2h35l-4 2-11 1h-20l-18-4-12-5-9-6z" fill="#96907F"/>
<path transform="translate(597,475)" d="m0 0 4 1 5 3 1 2v15l-4 12-2 3h-2l-2 4-8 4h-3l5 5v2l-4-2-4-4 1-3 11-4 5-6 3-8 1-6v-12l-7-5z" fill="#8C897C"/>
<path transform="translate(824,368)" d="m0 0 3 1-8 7-10 8h-3v2h-3v2l-18 8 1 9 1 5-1 4-2-4-2-10 1-5 8-5 14-7 12-9z" fill="#8E8A7C"/>
<path transform="translate(599,419)" d="m0 0 20 1v1h-20l2 12 2 7v13l-4 5-6 4-4 3 1 5-4-2 1-4 13-11v-10l-3-17v-6z" fill="#87867A"/>
<path transform="translate(714,526)" d="m0 0 2 1-5 5-5 4h-2v2h-3v2l-18 8h-4v2l5-1 4 2v1h-9l-7-1v-3l21-7 14-9z" fill="#908C7D"/>
<path transform="translate(765,299)" d="m0 0 5 1 14 6 12 8 6 7 1 2v9l-4 7-1-3 2-5v-7l-4-5v-2l-5-2-4-4-3-1v-2l-11-3-7-3z" fill="#999280"/>
<path transform="translate(644,281)" d="m0 0h31l11 1v1l-47 2-18 2h-5v-2l25-3z" fill="#9D9481"/>
<path transform="translate(529,971)" d="m0 0h1l1 17 1 3v16l-3 8-2 1 2-7v-10l-1-2-3 9-1 2h-2l3-10 1-10h2z" fill="#BCAA8E"/>
<path transform="translate(400,677)" d="m0 0 5 3 4 11 7 10-4 1-7-8-6-12z"/>
<path transform="translate(707,662)" d="m0 0 4 1 1 3 4 1 7 9 2 5 3 4-1 2-9-8-9-11-2-2z" fill="#C8BFAB"/>
<path transform="translate(429,343)" d="m0 0v3l-2 12 2 1 6 10 4 4 3 1v2l5 2 13 8 3 1v2l-5-1-15-9-11-10-6-9-1-3v-7l2-6z" fill="#918C7D"/>
<path transform="translate(668,589)" d="m0 0 1 3-4 12-1 2v7l4 1 16-3 14-3h6l-4 2-21 5-6 1h-10l-2-2v-8l6-15z" fill="#89877B"/>
<path transform="translate(712,999)" d="m0 0h1l2 10v15h-10l-4-2v-2l10-1v-19z" fill="#5A696B"/>
<path transform="translate(485,756)" d="m0 0 3 1 1 6-4 13-6 9-3 1 2-5 5-15 1-9z" fill="#9C8F6C"/>
<path transform="translate(449,486)" d="m0 0 4 4 5 12 11 20v2h2l4 7 2 5h2l3 3 2 5-3-1-11-14-8-14-6-11-7-16z" fill="#938E7E"/>
<path transform="translate(922,757)" d="m0 0 19 1 1 2h14v1l-6 1-28 1-4 2 2-6z" fill="#A19885"/>
<path transform="translate(534,387)" d="m0 0 45 5 25 1v1l-23 1-16-2-18-1-13-3z" fill="#89877B"/>
<path transform="translate(640,286)" d="m0 0h47v1l-32 1-17 1-8 2h-8l-7-1v-1z" fill="#89887B"/>
<path transform="translate(771,298)" d="m0 0 7 1 19 10v2l4 2 2 4h2l3 11-1 7-3 4-2-1 3-8-1-8-4-6-9-7-11-6-9-4z" fill="#938E7E"/>
<path transform="translate(456,798)" d="m0 0h3l1 17 20 11-2 1-24-12-2-4 3 1v-13z" fill="#B09862"/>
<path transform="translate(849,690)" d="m0 0 4 2 6 9 5 6 1 3 5 5 6 7-1 3-10-10v-2h-2l-14-21z" fill="#9F9682"/>
<path transform="translate(444,487)" d="m0 0 3 4 11 23-1 4-3 1h-17l-9-2v-1h28l-12-25z" fill="#89877B"/>
<path transform="translate(801,339)" d="m0 0h2l-1 4h-2v2h-2l-2 4-15 11-12 6-5 3-3-1 4-3 13-7 15-10z" fill="#9A9381"/>
<path transform="translate(350,632)" d="m0 0 2 1-7 8h-2l-1 6h-2l-1 7-2 1-1 6-6 10-1-3 4-12 6-12 9-10z" fill="#A39984"/>
<path transform="translate(503,374)" d="m0 0 10 1v2l9 2 18 5 17 2v2l-14-1-17-4-21-7z" fill="#8E8B7C"/>
<path transform="translate(641,332)" d="m0 0h15l53 2v1l-33 1-13-1h-14v-2h-8z" fill="#8A887B"/>
<path transform="translate(375,375)" d="m0 0h1l-1 7-4 12-1 9-1 6-1 7-1 21h-1v-30l3-16z" fill="#767B74"/>
<path transform="translate(393,502)" d="m0 0 4 2 10 6 12 6 15 5v2l-7-1-10-3-18-10v-2l-5-2z" fill="#989180"/>
<path transform="translate(683,329)" d="m0 0 29 2 9 1 2 1v2h-8l-4 1-1-2-43-3v-1z" fill="#8C897C"/>
<path transform="translate(700,380)" d="m0 0h12v1l-29 6-15 2h-6l3-3 19-2z" fill="#8F8B7D"/>
<path transform="translate(711,523)" d="m0 0 3 1-9 8-13 8-7 3-12 2v-2l14-4 9-5 10-7 5-2z" fill="#96907F"/>
<path transform="translate(748,947)" d="m0 0h9l14 2v1l-16 2-3 3v5l-4-2-1-3z" fill="#BDAB90"/>
<path transform="translate(740,562)" d="m0 0 1 2-6 16-3 11v4l4-2h5l-4 3-4 2h-4v-8l7-22z" fill="#9E9582"/>
<path transform="translate(846,339)" d="m0 0 3 1 1 3v12h-2l-1-11-2 3-7 11-10 10-2-1 7-7 7-10z" fill="#8F8C7D"/>
<path transform="translate(425,906)" d="m0 0 3 1 1 2v17l-5-1-1-3z" fill="#5A696B"/>
<path transform="translate(558,386)" d="m0 0 14 1 18 2 21 1v1h-28l-23-2-3-2z" fill="#A39984"/>
<path transform="translate(333,701)" d="m0 0h1l1 36h-1l-2-16-2-2-1-6v-10h2l1 2z" fill="#626E6D"/>
<path transform="translate(463,389)" d="m0 0 8 1 10 4 22 7 11 2v1h-9l-21-6-21-8z" fill="#97907F"/>
<path transform="translate(592,532)" d="m0 0 2 2 1 3v7l-10 24-1 4h-2l-2 4 1-6 6-14 5-13z" fill="#948E7E"/>
<path transform="translate(783,468)" d="m0 0 2 2-2 10-4 18h9l-3 2-10 2 1-6 4-16z" fill="#9D9582"/>
<path transform="translate(884,1019)" d="m0 0 4 2 1 4-1 1h-12l-5-3-1-2 13-1z" fill="#5A696B"/>
<path transform="translate(771,963)" d="m0 0 5 1 3 4v2h2l2 8v7h-1l-2-12-3-3-1 12h-5l-1-3 3-4 1-10-3-1z" fill="#BCA789"/>
<path transform="translate(520,556)" d="m0 0h1l3 10 7 13 1 4-4-1-11-8 2-1 3 1v2h3l-2-5-3-9z" fill="#8A887B"/>
<path transform="translate(363,436)" d="m0 0h1l3 19 6 17 4 7v2h-2l-5-9-4-10-4-16z" fill="#8E8B7C"/>
<path transform="translate(756,400)" d="m0 0 4 2-14 3-22 5h-7l2-2 12-2 6-2 11-2 3-1z" fill="#948F7F"/>
<path transform="translate(630,348)" d="m0 0h1v7l-4 9-1 2h-2l-2 4-7 5-5 1 4-4 8-7 5-9z"/>
<path transform="translate(357,1030)" d="m0 0 9 3 8 2 15 2v1h-14-3l6 2-4 1-12-5-6-3z" fill="#BBA78A"/>
<path transform="translate(488,249)" d="m0 0h1v6l-4 9-1 7 15-3 5-2h5l-3 2-11 4-10 1-3-3 1-9z" fill="#8B897B"/>
<path transform="translate(520,353)" d="m0 0 4 2 3 12v6l-4-2-4-13z" fill="#A59572"/>
<path transform="translate(459,268)" d="m0 0 13 1 6 2 4 5 5 9-1 5-3 1 1-6-4-7-2-5-16-2-3-1z" fill="#8C897C"/>
<path transform="translate(984,949)" d="m0 0 4 5 4 10 2 10v17h-1l-1-16-3-12-2-2h-2l-2-7z" fill="#BBA78A"/>
<path transform="translate(801,283)" d="m0 0 4 1 15 8 11 8 6 6v2l-4-2-5-5-3-2v-2l-4-1-11-6-1-2-7-2z" fill="#8E8A7C"/>
<path transform="translate(421,402)" d="m0 0 2 1 7 38v2h-2l-3-15-2-9-1-12h-2l-1 3v-7z" fill="#88877A"/>
<path transform="translate(844,991)" d="m0 0 2 3v2l3 1 1 7-1 1-14 1h-10l-5 5 1-5 2-2h25v-3l-7-1-1-2 4-1z" fill="#BCAA8E"/>
<path transform="translate(823,494)" d="m0 0h2l-2 6-4 5-9-3-11-3-11-1v-1h19l10 5 3-3z" fill="#928D7E"/>
<path transform="translate(455,269)" d="m0 0 7 1 11 1 5 2 5 9 2 3-1 4h-3l-3-12h-2v-3h-7l-12-3z" fill="#EBE4D1"/>
<path transform="translate(377,913)" d="m0 0h18l12 2v2l-13-2h-14l-13 4-7 4-6 4 1-3 8-6 10-4z" fill="#BDA786"/>
<path transform="translate(519,475)" d="m0 0 3 1-11 7-7 7-6 12-2-1 2-9 13-13z" fill="#020202"/>
<path transform="translate(628,420)" d="m0 0 36 1v1l-23 1h-18l-12-1v-1z" fill="#BBA88C"/>
<path transform="translate(837,308)" d="m0 0 5 5 2 5v14l-3 9-4 8-1-3 5-12v-16l-4-7z" fill="#8F8B7D"/>
<path transform="translate(510,164)" d="m0 0 16 2 39 6v1h-9l-16-3-22-2-8-3z" fill="#BEAC91"/>
<path transform="translate(418,360)" d="m0 0 2 2 2 34-2 3-2-1 1-1v-8l-1-13-1-8z" fill="#8E8B7C"/>
<path transform="translate(709,1008)" d="m0 0 2 1v10l-2 1h-8v2l14 2v1h-12l-4-1-4-5 1-1 12-1z" fill="#BBA88C"/>
<path transform="translate(557,504)" d="m0 0 7 1 8 6 13 13 7 6-1 2-12-9-1-3-7-6-4-4-7-3-3-1z" fill="#8A887B"/>
<path transform="translate(375,650)" d="m0 0h2l-1 4-5 3-3 5-4 3-5 5-6 8-1-2 8-11z" fill="#9D906F"/>
<path transform="translate(934,640)" d="m0 0h1l2 14h-2l1 4-1 5h6l1 2-4 1-7-3v-6l2-7z" fill="#9A9178"/>
<path transform="translate(420,407)" d="m0 0h2l4 21 3 16-1 4-2-5-4-19z" fill="#EBE4D1"/>
<path transform="translate(546,302)" d="m0 0h2l-1 3-18 7-12 3-12-1v-1l17-2 18-6z" fill="#8E8A7C"/>
<path transform="translate(610,290)" d="m0 0h11v1l-32 5h-2l-1 4h-1v-5l4-2z" fill="#989180"/>
<path transform="translate(938,683)" d="m0 0 2 4 1 6h1l2 9 4 4 1 3 6 3-3 1-6-4-6-8-2-5z" fill="#898675"/>
<path transform="translate(732,570)" d="m0 0h2l-2 9-7 18-6 5 1-4 3-1 1-5 7-19z" fill="#999280"/>
<path transform="translate(365,462)" d="m0 0h2l5 12 3 5v2h2l1 6-5-1-1-4-5-12-2-4z" fill="#E9E2CF"/>
<path transform="translate(424,366)" d="m0 0 4 1 16 16-5-2-10-9-2-2-1 3-1 11h-1l-1-15z" fill="#8D8A7C"/>
<path transform="translate(555,482)" d="m0 0 2 3 6 13-1 4-15 1-4 1 1-3 11-2 5 1-3-10-2-4z" fill="#8F8B7D"/>
<path transform="translate(781,931)" d="m0 0 5 5 3 8v6l-4-1h3l-3-7-2 2h-5l3-1-1-10z" fill="#BBA78A"/>
<path transform="translate(689,554)" d="m0 0 2 1-10 8-1 2h-2l-1 6-3 8-3 7-1-3 4-13 3-6 10-9z" fill="#9E9582"/>
<path transform="translate(417,461)" d="m0 0 5 5 6 7 14 8 2 3v3h-2l-1-5-6-2-5-2v-2h-3l-5-5-1-4-3-1z" fill="#908C7D"/>
<path transform="translate(457,312)" d="m0 0 3 1-9 7-12 12-4 5h-2l-2 6-3 1 2-5 9-10 14-14z" fill="#8D8A7C"/>
<path transform="translate(510,190)" d="m0 0h12l8 2-2 4-9 8-1-3 4-2 2-6-12-1z" fill="#999281"/>
<path transform="translate(422,1017)" d="m0 0h1v9l-5 5-16 6h-7l1-2 9-2 10-4 5-3z" fill="#BFA781"/>
<path transform="translate(466,1020)" d="m0 0 9 2 7 1 3-1h7l-2 2-11 2 2 2-9-2-7-4z" fill="#BCA788"/>
<path transform="translate(978 1e3)" d="m0 0 1 3-3 5h-2l-2 4-10 7-9 3h-5l1-2 12-3 9-7 3-3h2l2-5z" fill="#BDA786"/>
<path transform="translate(407,417)" d="m0 0h2v15l3 16 1 5h-2l-4-16-1-5v-12z" fill="#938E7E"/>
<path transform="translate(498,323)" d="m0 0 5 1 5 12 3 10-3 3-6 1v-2l7-1-6-17-2-4h-5v-2z" fill="#8E8A7C"/>
<path transform="translate(1021,599)" d="m0 0 7 6 4 7-1 4-1-2-1 16h-1l-1-16-4-11z" fill="#757B74"/>
<path transform="translate(500,377)" d="m0 0 8 1 21 7 5 2-3 2-10-4-14-4-7-3z" fill="#9A9381"/>
<path transform="translate(783,546)" d="m0 0h5l-1 5-3 3v-5l-18 3-2-2 5-2z" fill="#948E7E"/>
<path transform="translate(553,235)" d="m0 0h2v5l-10 9-4 4h-3v-2l7-6 7-9z" fill="#A08D5A"/>
<path transform="translate(434,174)" d="m0 0 4 1-7 11-6 5-1-2 6-10z" fill="#A4936A"/>
<path transform="translate(637,545)" d="m0 0h36l-4 2-11 1h-20z" fill="#89887B"/>
<path transform="translate(590,323)" d="m0 0 2 1-1 4-6 7-4 3h-3l2-4z" fill="#B19658"/>
<path transform="translate(626,968)" d="m0 0h1l2 7v10l-4 6v-3l1-2v-10h-2l-2 5-3 2 2-6 4-2z" fill="#BBA88C"/>
<path transform="translate(991,744)" d="m0 0 2 1-9 6-11 5h-3l2-4 13-5z" fill="#787C75"/>
<path transform="translate(764,530)" d="m0 0 4 5v2l4 2 5 4v2l-5 2h-9l4-2 6-2-6-4-3-5z" fill="#958F7F"/>
<path transform="translate(846,418)" d="m0 0h1l-1 13-4 19-2 3v-7l3-13 1-10z" fill="#8C897C"/>
<path transform="translate(697,385)" d="m0 0h5v2l-9 2-10 2-10 1-4-2 25-4z" fill="#908C7D"/>
<path transform="translate(649,353)" d="m0 0h1l-1 9-6 8-5 4-5 1 4-5 5-3 4-7z" fill="#010101"/>
<path transform="translate(629,344)" d="m0 0h3v10h-1l-1-5-3 10-6 8-1-3 4-5 2-7 1-5z" fill="#908C7D"/>
<path transform="translate(922,602)" d="m0 0 6 5 5-1v3l-3 5-4-1-5-10z" fill="#9A917A"/>
<path transform="translate(379,475)" d="m0 0 4 4 7 11 10 10 3 4-4-2-7-6-8-10-5-8z" fill="#918D7D"/>
<path transform="translate(743,408)" d="m0 0 5 2 2 3 1 5v18l-2-3-1-16-1-6-9-1v-1z" fill="#88867A"/>
<path transform="translate(479,329)" d="m0 0 3 1-7 6h-2l-2 5-1 1v12h-2l-1-2v-9l2-5 8-8z" fill="#989180"/>
<path transform="translate(680,744)" d="m0 0 3 1-1 12-3 3-1-1v-12z" fill="#9E9276"/>
<path transform="translate(848,391)" d="m0 0h2v11l-2 16h-2l-1 4 1-15z" fill="#AA9D86"/>
<path transform="translate(425,373)" d="m0 0h1l3 30 1 8h-2l-2-9-1-9z" fill="#A19783"/>
<path transform="translate(753,550)" d="m0 0h11v1l-12 2-5 5-6 4-4 5-1-2v-6l2 3 7-7z" fill="#7F8177"/>
<path transform="translate(425,804)" d="m0 0 2 1-8 6-6 3h-19l-4-2h18l10-3z" fill="#6A7370"/>
<path transform="translate(630,355)" d="m0 0h1l-1 8-3 4h-2l-2 5-9 5h-7l2-3 3 1 6-3 5-4 1-2h2l2-5z" fill="#88877A"/>
<path transform="translate(420,999)" d="m0 0 3 1 3 5 3 2 1 8v9l-1 9h-1v-25h-5l-1-1v-5h-2z" fill="#C0AB89"/>
<path transform="translate(629,373)" d="m0 0 2 2-5 2h7l-3 2-8 2-4-1v-3l4-2z" fill="#BBA88C"/>
<path transform="translate(603,335)" d="m0 0 3 1 2 5 3 7-1-4 1-3 3 1-1 2 1 2v6l-4-1-7-13z" fill="#8A887B"/>
<path transform="translate(767,722)" d="m0 0 4 1 10 7 10 5-4 1-12-6-7-6z" fill="#EBE4D1"/>
<path transform="translate(914,567)" d="m0 0 2 1-7 7-3 6-1 6-4-2 1-6z" fill="#9B8D65"/>
<path transform="translate(484,544)" d="m0 0h2l6 7 3 3 5 3 8 7 1 3-4-2-9-8-8-7-4-4z" fill="#89877B"/>
<path transform="translate(691,553)" d="m0 0h13l20 1v1l-27 1h-6z" fill="#848479"/>
<path transform="translate(802,378)" d="m0 0 4 1-7 5-17 8h-2v-2l7-2v-2l11-5 4-1z" fill="#948E7E"/>
<path transform="translate(723,333)" d="m0 0 11 2 20 4v1h-9l-21-4z" fill="#999280"/>
<path transform="translate(523,556)" d="m0 0 2 1 4 9 3 7 2 5 3 1 1 4h-2l-8-11-5-13z" fill="#8F8C7D"/>
<path transform="translate(765,299)" d="m0 0 5 1 14 6 8 5-3 1-5-2v-2l-11-3-7-3z" fill="#918D7D"/>
<path transform="translate(667,287)" d="m0 0h30l6 1-1 2h-8l-7-1-20-1z" fill="#AA9D86"/>
<path transform="translate(464,662)" d="m0 0 3 1 5 12 6 10-5-2-3-9-2-1v-2l-3-3z" fill="#5A696B"/>
<path transform="translate(504,586)" d="m0 0 4 2 5 5 6 7 2 6h-3l-3-7-9-9v-2h-2z" fill="#938E7E"/>
<path transform="translate(669,578)" d="m0 0 2 2-2 9-2 5h-2l-2 2-1-4 3-6 3-1z" fill="#606661"/>
<path transform="translate(403,504)" d="m0 0 6 1 2 1v2l7 2 6 3 4 1v2l-6-1-16-8z" fill="#938E7E"/>
<path transform="translate(531,470)" d="m0 0 8 1-1 5-11 1-5 1 1-2 8-2h6v-2l-13 1 1-2z" fill="#BBA88C"/>
<path transform="translate(666,419)" d="m0 0h17l-2 2-17 1-14-1v-1z" fill="#7D8077"/>
<path transform="translate(391,242)" d="m0 0h6l12 5 5 2 2 1 1-4v5l-2 1-24-9z" fill="#86867A"/>
<path transform="translate(501,586)" d="m0 0h3v2h2l5 6 5 5 2 3-1 4-4-6v-2h-2l-4-5-5-4z" fill="#EBE4D1"/>
<path transform="translate(762,576)" d="m0 0 3 1-10 8-10 7h-2v-3l6-3h2v-2l5-3h2l1-3h3z" fill="#908C7D"/>
<path transform="translate(591,555)" d="m0 0h1v6l-4 10-5 11h-1l1-7z" fill="#948E7E"/>
<path transform="translate(719,380)" d="m0 0h7l-3 2-6 2h-5v2l-9 1-1-2z" fill="#9B9381"/>
<path transform="translate(613,341)" d="m0 0 4 2 2 4-1 8-6 8h-4l5-5 3-5v-7z" fill="#989180"/>
<path transform="translate(787,1019)" d="m0 0h5l3 4v2h15l4-2 3-3-2 5-4 2h-15l-4-4-7-2z" fill="#BBA88C"/>
<path transform="translate(359,785)" d="m0 0 4 2 4 5 9 6-1 2-5-2-12-11z" fill="#968F7C"/>
<path transform="translate(387,357)" d="m0 0h2l-2 4-6 8-3 7-2 2 1-7 8-12z" fill="#9B9381"/>
<path transform="translate(518,532)" d="m0 0h2v24l-3-3-1-13z" fill="#918D7D"/>
<path transform="translate(442,376)" d="m0 0 5 2 13 8 3 1v2l-5-1-15-9z" fill="#938E7E"/>
<path transform="translate(824,368)" d="m0 0 3 1-8 7-10 8-2-1 5-5z" fill="#999280"/>
<path transform="translate(464,236)" d="m0 0h1l3 21v6l-2-3-2-6z" fill="#A09682"/>
<path transform="translate(515,1014)" d="m0 0 2 1-9 6-7 2h-8v-1l12-3 2-2z" fill="#BCA789"/>
<path transform="translate(580,582)" d="m0 0h2l-2 9-2 4v8l1 3h-2l-2-4v-7z" fill="#8E8B7C"/>
<path transform="translate(549,504)" d="m0 0h8v1l-12 3-3 3h-3l-2 4-4 1 6-7 7-4z" fill="#999280"/>
<path transform="translate(759,346)" d="m0 0 5 2 7 8-1 5-6 2 1-3 4-1-2-5-4-4-3-1z" fill="#8A887B"/>
<path transform="translate(770,721)" d="m0 0 5 2 9 6 6 3-1 2-5-2-7-4-7-5z" fill="#928D7E"/>
<path transform="translate(440,463)" d="m0 0h2l4 10 3 9-1 4-7-17z" fill="#8D8A7C"/>
<path transform="translate(498,225)" d="m0 0h2l-2 4-7 11-2 5h-1l1-7 7-11z" fill="#8F8C7D"/>
<path transform="translate(420,189)" d="m0 0h2l-1 5-4 14-1 8h-1v-10l3-13z" fill="#89877B"/>
<path transform="translate(915,1016)" d="m0 0 1 4-1 1-16 1-3-2 3-1h11z" fill="#BFA780"/>
<path transform="translate(840,739)" d="m0 0 6 3v2l4 4 3 5v3l-7-7-6-8z" fill="#8E8B7D"/>
<path transform="translate(843,674)" d="m0 0 4 1 1 5 1 2-1 2 2 1-1 5-3-4-3-9z" fill="#999280"/>
<path transform="translate(482,254)" d="m0 0h2l-3 11-2 2-9-1-2-1v-2l11 2 1-7z" fill="#918C7D"/>
<path transform="translate(756,269)" d="m0 0h8l11 3v1h-13l-6-3z" fill="#9E9683"/>
<path transform="translate(389,195)" d="m0 0 1 4-2 9-1 9h-2v-10l2-10z" fill="#928D7E"/>
<path transform="translate(775,969)" d="m0 0h1v13h-5l-1-3 3-4 1-5z" fill="#BBA88C"/>
<path transform="translate(673,563)" d="m0 0h1l-1 7-5 15-3-1 4-10z" fill="#A19783"/>
<path transform="translate(377,481)" d="m0 0 4 4 4 6v2h-3l-1-2-2 1-1-4-3-1 2-2z" fill="#A09784"/>
<path transform="translate(711,331)" d="m0 0 10 1 2 1v2h-8l-4 1-1-2-10-1v-1z" fill="#7E8177"/>
<path transform="translate(564,291)" d="m0 0 1 3-4 3-4 1-1 2-6 3h-2v-2l11-7z" fill="#9A9381"/>
<path transform="translate(865,970)" d="m0 0 3 2 3 8-1 3-3-1-3-10z" fill="#C0A77D"/>
<path transform="translate(347,784)" d="m0 0 4 1 9 10-4 1-9-11z" fill="#E5DCC8"/>
<path transform="translate(490,693)" d="m0 0 9 6 1-2 3 1-2 4-5-1-7-6z" fill="#908C7D"/>
<path transform="translate(527,472)" d="m0 0h10v2l-16 3-2-3z" fill="#4A5758"/>
<path transform="translate(812,1006)" d="m0 0h2l-1 5-5 9-5 1 6-8z" fill="#BDA785"/>
<path transform="translate(788,497)" d="m0 0h19l5 3-4 1-9-2-11-1z" fill="#8C8A7C"/>
<path transform="translate(846,339)" d="m0 0 3 1 1 3v12h-2l-1-11h-2z" fill="#88867A"/>
<path transform="translate(471,198)" d="m0 0 1 2-5 15-1 6h-1v-9l4-12z" fill="#999180"/>
<path transform="translate(373,914)" d="m0 0h2v2l-12 5-9 6 1-3 8-6z" fill="#BBA88C"/>
<path transform="translate(350,632)" d="m0 0 2 1-7 8h-2l-1 6-5 2 2-5 9-10z" fill="#948C74"/>
<path transform="translate(591,515)" d="m0 0 4 1-6 3h-3l5 5v2l-4-2-4-4 1-3z" fill="#8B897B"/>
<path transform="translate(726,509)" d="m0 0h2l-2 4-10 10h-2v-2h2l2-4z" fill="#958F7F"/>
<path transform="translate(628,420)" d="m0 0h8l-1 2-5 1-19-1v-1z" fill="#A79B85"/>
<path transform="translate(685,418)" d="m0 0h18l-4 2-18 1z" fill="#9D9481"/>
<path transform="translate(741,341)" d="m0 0 8 1 10 3 1 3-12-3-7-2z" fill="#9A9381"/>
<path transform="translate(614,285)" d="m0 0 2 2-2 1-9 1h-10l3-2 8-1z" fill="#9F9682"/>
<path transform="translate(391,813)" d="m0 0 19 1v1l-6 1h-12l-5-1z" fill="#C8B99F"/>
<path transform="translate(754,510)" d="m0 0 4 1 5 3 1 5v11h-2l-1-13 1-2-5-2z" fill="#8A887B"/>
<path transform="translate(777,492)" d="m0 0h1l1 6h9l-3 2-10 2 1-6z" fill="#8B8A7D"/>
<path transform="translate(434,458)" d="m0 0 2 4 3 8-1 5-4-2v-2h2l-2-6z" fill="#8A887B"/>
<path transform="translate(509,210)" d="m0 0 3 1-11 14-1-4h2l2-5 3-4h2z" fill="#948F7E"/>
<path transform="translate(780 1e3)" d="m0 0h3l1 3 6 2-3 3-4-2h-5l1-4z" fill="#BBA88C"/>
<path transform="translate(911,770)" d="m0 0 2 1-9 6h-7l-4-2 13-2z" fill="#6E7672"/>
<path transform="translate(727,514)" d="m0 0h2l-2 5-8 6-2 3-2-1 7-8z" fill="#9B9381"/>
<path transform="translate(832,351)" d="m0 0h3l-2 4-7 8-3 1v-3l5-5h2l1-4z" fill="#918C7D"/>
<path transform="translate(582,303)" d="m0 0 2 3 5 11-1 5-2 2v-8l-4-7z" fill="#89877B"/>
<path transform="translate(536,195)" d="m0 0 4 2 6 12v3h-2l-1-6h-2l-3-9h-2z" fill="#8E8B7C"/>
<path transform="translate(837,729)" d="m0 0 4 5 2 5-2 1-3-3-3-5v-2z" fill="#A89B85"/>
<path transform="translate(668,589)" d="m0 0 1 3-4 12-2 9h-1v-9l5-13z" fill="#A29883"/>
<path transform="translate(674,547)" d="m0 0 4 1-3 1h9l4 2v1h-9l-7-1v-3z" fill="#747A74"/>
<path transform="translate(430,452)" d="m0 0 2 3v3h2l2 9-1 4-4-9z" fill="#E7DFCB"/>
<path transform="translate(459,268)" d="m0 0 13 1 4 3-14-1-3-1z" fill="#A29883"/>
<path transform="translate(427,262)" d="m0 0 7 1 10 2 2 3-14-2-5-3z" fill="#EBE4D1"/>
<path transform="translate(385,223)" d="m0 0 2 1 1 12 3 6-4-2-2-6z" fill="#87867A"/>
<path transform="translate(424,900)" d="m0 0 5 5 1 5-5-4v4h-2v-7z" fill="#BCA788"/>
<path transform="translate(865,713)" d="m0 0 5 2 6 7-1 3-10-10z" fill="#999280"/>
<path transform="translate(746,706)" d="m0 0 4 1 7 4 2 5-5-2-8-7z" fill="#E9E2CF"/>
<path transform="translate(504,314)" d="m0 0h12l-2 2h-7l1 5v3l-2-1-2-5z" fill="#A79B85"/>
<path transform="translate(477,184)" d="m0 0h5l-4 1-2 6-3 7-3 1 3-9z" fill="#89877B"/>
<path transform="translate(830,719)" d="m0 0 4 2 1 2-1 2 3 1-1 4h-2l-4-8z" fill="#A2977F"/>
<path transform="translate(551,593)" d="m0 0h4v2l14 2-3 2h-7l-8-5z" fill="#87867A"/>
<path transform="translate(520,556)" d="m0 0h1l3 10 3 6v2l-3-1-4-10z" fill="#938E7E"/>
<path transform="translate(522,537)" d="m0 0 2 2v17l-2-1-1-5v-11z" fill="#958F7F"/>
<path transform="translate(393,502)" d="m0 0 4 2 10 6 1 3-6-2-3-2v-2l-5-2z" fill="#9B9381"/>
<path transform="translate(421,402)" d="m0 0 2 1 1 4v11h-1l-1-11h-2l-1 3v-7z" fill="#9B9381"/>
<path transform="translate(486,365)" d="m0 0 9 3 8 4v2l-5-1-11-6z" fill="#8D8A7C"/>
<path transform="translate(473,343)" d="m0 0 1 2 1 10h2l2 5h-2l-5-7-1-8z" fill="#8D8A7C"/>
<path transform="translate(582,287)" d="m0 0 1 2 12-1 4 2-11 2h-5z" fill="#958F7F"/>
<path transform="translate(411,1031)" d="m0 0 1 2-10 4h-7l1-2 9-2z" fill="#BBA88C"/>
<path transform="translate(845,601)" d="m0 0 1 4-2 6h-2v5l-3 3 2-10z" fill="#89877B"/>
<path transform="translate(685,544)" d="m0 0h5l-4 3-7 1v2h-5l1-2h3v-2z" fill="#A39884"/>
<path transform="translate(546,452)" d="m0 0h1l4 14v4h-2l-4-14z" fill="#8E8B7D"/>
<path transform="translate(482,400)" d="m0 0 10 2 7 3-4 1-13-4z" fill="#948F7F"/>
<path transform="translate(782,396)" d="m0 0h2l3 12v6l-3-4-2-10z" fill="#979180"/>
<path transform="translate(775,360)" d="m0 0 2 1-3 3-9 4h-4l4-3z" fill="#979180"/>
<path transform="translate(498,354)" d="m0 0h3v2l-8 4-8 5 2-4z" fill="#89877B"/>
<path transform="translate(522,311)" d="m0 0h7l-4 2-8 2-12-1v-1z" fill="#838379"/>
<path transform="translate(622,288)" d="m0 0h10l-2 1v2h-8l-7-1v-1z" fill="#8B897C"/>
<path transform="translate(547,236)" d="m0 0h2l-2 4-8 9-1-3 5-6h2z" fill="#948F7F"/>
<path transform="translate(401,759)" d="m0 0 8 6 2 5-4-2-1-3-2-1-2 2-2-6z" fill="#9E2827"/>
<path transform="translate(1006,687)" d="m0 0 5 2-2 6-4 4 1-9z" fill="#B21513"/>
<path transform="translate(519,477)" d="m0 0h3v2l-9 3-1 3-4 3-2-1 9-8z" fill="#908C7D"/>
<path transform="translate(595,457)" d="m0 0h2v2l-8 6 1 5-4-2 1-4z" fill="#8D8A7C"/>
<path transform="translate(542,384)" d="m0 0 15 2v2l-14-1-2-2z" fill="#96907F"/>
<path transform="translate(584,324)" d="m0 0 2 1-7 8-3 3h-2l1-3h2l2-4z" fill="#96907F"/>
<path transform="translate(425,260)" d="m0 0 9 1 9 2-4 2-7-1-7-3z" fill="#938E7E"/>
<path transform="translate(866,1019)" d="m0 0 10 6 11 1v1h-12l-9-5z" fill="#BBA88C"/>
<path transform="translate(356,717)" d="m0 0 5 1 1 1 1 9 2 5-1 3-3-7-2-9z" fill="#774D4D"/>
<path transform="translate(558,386)" d="m0 0 12 1 1 2h-11l-3-2z" fill="#9E9582"/>
<path transform="translate(758,292)" d="m0 0 9 2 4 2v2l-9-2-5-2z" fill="#989180"/>
<path transform="translate(424,171)" d="m0 0h5l2 4-6 10-1-4 5-8-5-1z" fill="#928D7E"/>
<path transform="translate(980,749)" d="m0 0m-2 1h2v3l-7 3h-3l2-4z" fill="#737973"/>
<path transform="translate(730,593)" d="m0 0 2 2 4-2h5l-4 3-4 2h-4z" fill="#908C7D"/>
<path transform="translate(577,581)" d="m0 0h2l-3 10-4 4v-4h2v-5z" fill="#948E7E"/>
<path transform="translate(472,530)" d="m0 0 4 2 1 4h2l3 3 2 5-3-1-9-11z" fill="#848479"/>
<path transform="translate(728,406)" d="m0 0h4v2l-8 2h-7l2-2z" fill="#A19783"/>
<path transform="translate(848,391)" d="m0 0h2v11l-1 7h-1l-1-9z" fill="#808278"/>
<path transform="translate(570,336)" d="m0 0 4 1-10 6-5 1v-2l8-4z" fill="#908C7D"/>
<path transform="translate(488,249)" d="m0 0h1v6l-4 9h-2l1-6z" fill="#908C7D"/>
<path transform="translate(854,762)" d="m0 0 4 1 8 5v2l-5-2-7-4z" fill="#9C9481"/>
<path transform="translate(723,678)" d="m0 0 7 6 3 3v2l-4-1-6-8z" fill="#8C897C"/>
<path transform="translate(587,609)" d="m0 0 11 1 5 2v2l-11-2-5-2z" fill="#8C897C"/>
<path transform="translate(689,554)" d="m0 0 2 1-10 8-1 2-3-1 10-9z" fill="#928D7E"/>
<path transform="translate(701,536)" d="m0 0 2 1-4 4-7 3-4-1 12-6z" fill="#8C897C"/>
<path transform="translate(599,532)" d="m0 0 6 2 9 5v2l-6-2-9-6z" fill="#8F8B7D"/>
<path transform="translate(542,416)" d="m0 0h1l1 22h-2l-1-4z" fill="#747A74"/>
<path transform="translate(634,371)" d="m0 0 3 1-3 2 1 2-9 2-4-1 9-2v-2z" fill="#6E7671"/>
<path transform="translate(790,345)" d="m0 0 3 1-10 7-3 1v-2h2v-2z" fill="#999280"/>
<path transform="translate(801,339)" d="m0 0h2l-1 4h-2v2h-2l-2 4-4 1 6-7z" fill="#999280"/>
<path transform="translate(841,334)" d="m0 0h2l-1 5-5 10-1-3z" fill="#928D7E"/>
<path transform="translate(801,283)" d="m0 0 4 1 8 4 1 3-5-1v-2l-7-2z" fill="#928D7E"/>
<path transform="translate(776,1010)" d="m0 0h2l-1 8-2 2h-5l3-3h2z" fill="#BCA787"/>
<path transform="translate(1011,586)" d="m0 0 4 4 3 4-1 2-8-4 3-1z" fill="#727873"/>
<path transform="translate(764,530)" d="m0 0 4 5v2l4 2v2l-4-1-4-6z" fill="#918D7D"/>
<path transform="translate(743,481)" d="m0 0h2l-1 5-4 9-2 1v-4h2z" fill="#918D7D"/>
<path transform="translate(368,398)" d="m0 0 2 1-2 17h-1v-16z" fill="#A99C86"/>
<path transform="translate(737,375)" d="m0 0 3 1-12 5-5-1 4-2z" fill="#8D8A7C"/>
<path transform="translate(372,370)" d="m0 0 1 4-4 9-2-4v-2h2l2-6z" fill="#948F7F"/>
<path transform="translate(488,355)" d="m0 0 4 1-7 6h-5l-1-2 9-3z" fill="#948F7F"/>
<path transform="translate(606,329)" d="m0 0 15 1v1l-20 1v-2z" fill="#757B74"/>
<path transform="translate(507,323)" d="m0 0 3 1 3 9 1 4-2 1-5-13z" fill="#948F7F"/>
<path transform="translate(471,302)" d="m0 0 2 1-6 5-6 4-3-1z" fill="#87867A"/>
<path transform="translate(378,227)" d="m0 0 3 1v9l-2 3z" fill="#CFC1A9"/>
<path transform="translate(434,798)" d="m0 0h7l5 1v1h-11l-6 4-2-1z" fill="#6B7471"/>
<path transform="translate(832,666)" d="m0 0h4l-1 4v-2l-4 3-1 2-4 1 2-4z" fill="#7D8077"/>
<path transform="translate(934,640)" d="m0 0h1l2 14-4 1z" fill="#8C897C"/>
<path transform="translate(536,506)" d="m0 0 3 1-9 9-1-3z" fill="#97907F"/>
<path transform="translate(370,466)" d="m0 0 2 3 5 10v2h-2l-5-9z" fill="#8F8C7D"/>
<path transform="translate(517,364)" d="m0 0h1v6l-10-1-1-3 8 1z" fill="#7A7E76"/>
<path transform="translate(535,348)" d="m0 0h12l-4 2-13 1 3-2z" fill="#88877A"/>
<path transform="translate(543,1016)" d="m0 0 6 3 5 3 2 2h-6l-3-4-5-2z" fill="#BCAA8E"/>
<path transform="translate(876,995)" d="m0 0 2 3 3 5-1 4-3-3v-3h-2z" fill="#CDA75D"/>
<path transform="translate(577,993)" d="m0 0 5 1 5 3 8 2v1l-9-1-6-3z" fill="#BBA88C"/>
<path transform="translate(604,612)" d="m0 0 9 1 1 3-11-1z" fill="#918D7E"/>
<path transform="translate(732,570)" d="m0 0h2l-2 9-2 3-1-4z" fill="#918D7E"/>
<path transform="translate(603,504)" d="m0 0 1 2-3 5h-2l-2 4-4-1 6-5 1-2h2z" fill="#9D9481"/>
<path transform="translate(736,496)" d="m0 0h2l-2 4-5 7-1-3 3-5h2z" fill="#958F7F"/>
<path transform="translate(378,490)" d="m0 0h3l1 3h3v3l2 1-2 1-3-1-1-4h-3z" fill="#E9E1CE"/>
<path transform="translate(443,383)" d="m0 0 4 1 8 4-1 2-5-1-6-5z" fill="#A09783"/>
<path transform="translate(566,374)" d="m0 0h5l-4 3h-14v-1z" fill="#7B7E76"/>
<path transform="translate(494,320)" d="m0 0 3 2-10 5h-2l1-3z" fill="#958F7F"/>
<path transform="translate(381,228)" d="m0 0h1l1 9 2 5-5-1z" fill="#838378"/>
</svg>
