<?xml version="1.0" encoding="UTF-8"?>
<svg version="1.1" viewBox="0 0 2048 1365" width="612" height="408" xmlns="http://www.w3.org/2000/svg">
<path transform="translate(844,324)" d="m0 0h29l13 4 19 8 13 9 8 8 10 8 15 14 9 10 2 4v-41l3-7 3-2h65l6 5 2 5v10h15l2 1 1 44 1 23v13l53-1 1-91 3-6 5-3h35l17 1 7 4 2 15 16 1 1 1v14l-1 43 1 22v66l-1 18-1 33-1 55-3 2h-19l-31-2-4-3-24-2-5-2-2-7 1-26 2-20 2-41-4 1-35 2h-16l-3 1v74l-1 23-1 2h-40l-13-1-2-4-24-1-6-3-3-4-1-8-2-84-11 13-10 10-13 8-15 7-14 3-21 1-18-2-33-7-27-8-2-1-1 46-1 32-1 1h-50l-2-5h-25l-6-5-1-3v-56l-4 21-4 12-7 11-10 11-16 12-15 7-26 6-25 4h-25l-25-6-18-3-17-6-17-8-14-10-9-10-10-18-10-26-6-22-3-29-1-14v-46l1-53 2-33 4-5h66l3 5v13l18 1v97l1 53 2 18 5 15 3 3 5 1h13l18-3 16-7 5-5 4-18 2-15 1-21v-123l1-7 4-3 8-2h56l7 3 4 4 1 4v9h14v-12l3-7 3-2 44-1h17l3 2 2 6 11-6 14-7 19-6zm16 79-14 5-21 13-11 9-6 7-5 9v14l18 10 9 3h27l11-4 8-6 7-8 4-11v-17l-5-12-6-8-6-4z" fill="#23201D"/>
<path transform="translate(1216,338)" d="m0 0h125l12 1 5 6 4 11 1 1 10 1 3 2 13 37 4 16-2 1-75 2h-15v11l-1 18 9-1h33l8 1 3 3 1 3 1 12 17 1 1 1v13l-1 22-2 6-3 6-69 1v26h69l5 3 1 1v8l-4 7h9l5-13 20-50 12-28 12-29 16-37 24-56 5-3 14-2h26l21 2 9 3 5 6 3 9 9 2 5 3 4 8 11 30 5 16 13 36 11 32 15 36 11 24 12 28 5 12 2-44 2-84v-112l6-7 2-1 30-1h28l5 5 2 9 16-7 30-6h17l27 4 12 3 21 9 11 7 10 9 11 9 9 9 10 8 10 13 8 15 5 14 5 18 3 17 1 11v30l-2 15-5 15-7 16-12 19-12 14-10 10-18 11-14 6-15 4-11 2h-22l-20-4-6-2-18-3-10-3-6-2-2 4-13 1h-20l-24-1-2-4-23-2 1 6-1 1h-62l-2-4-25-1-3-1-4-9-10-28-5-13h-74l-2 9-11 28-8 17-7 2h-51l-2-3v-3l-6 1h-16l-3-1-1 4h-66l-59-2h-9l-2-2v-3h-13l-13-1-4-2-2-3v-19l2-31 1-24 2-171 1-12 6-7zm575 80-17 5-12 6-12 8-2 5-1 27v68l13 6 17 5 16 1 13-2 9-5 6-5 9-13 9-21 3-11v-16l-5-20-6-15-12-14-11-9zm-277 50-5 12-3 6v2l14 1 2 4 5 14 3 1-3-11-6-17-6-12z" fill="#23211D"/>
<path transform="translate(282,242)" d="m0 0h40l13 2 23 6 17 5 17 7 9 3 11 6 6 7 3 6 9 3 5 4 1 2v33l-1 33-2 4-7-6-7-5-3-1-2 4-3 3-6-1-13-10-20-9-9-3-13-2h-29l-15 2-20 7-14 7-11 9-10 9-12 18-10 21-7 25-2 10-1 21 3 29 7 27 12 21 7 9 18 12 10 3 20 4h25l29-6 23-10 14-7 14-8 8-1 4 5 1 3 1 11v9l10-5 4-3 3 1 1 19v43l-1 15-9 8-14 7-19 7-25 6-17 3h-19l-23-3-29-6-14-3-30-9-16-8-19-12-13-9-15-13-7-8-12-15-11-17-9-19-7-21-6-28-4-28-1-26 2-28 5-24 6-21 13-27 8-13 10-14 9-12 12-13 8-7 12-10 17-11 15-6 26-7 15-3z" fill="#FEFEFE"/>
<path transform="translate(1687,345)" d="m0 0h29l3 1 1 3 1 14 7-1 8-6 21-7 13-2h27l19 3 18 5 16 8 6 4 14 12 11 11 8 13 8 16 5 14 5 24 2 23v18l-3 21-6 18-6 12-10 16-7 9-14 15-15 11-14 7-21 6-10 1h-18l-21-3-19-6-5-4-1-3 1-45 1-9 7 1 24 8 6 1h24l11-4 8-4 11-13 11-23 4-13 1-5v-15l-5-23-5-13-5-8v-2h-2l-7-8-9-8-8-5-15-4h-26l-21 7-14 8-6 5-2 10-1 101-2 65-3 3h-43l-11-1-3-3-1-11 2-82 1-27v-133l4-2z" fill="#FEFEFE"/>
<path transform="translate(465,344)" d="m0 0h25l28 1 1 3v138l2 17 4 20 7 14 6 7 10 5 10 2h15l24-4 15-8 4-2 2-4 3-7 3-16 1-14 1-43v-101l1-4 11-1 53 1 2 4v68l-2 63-2 28-5 35-3 11-4 10-7 9-5 6-11 9-13 9-14 6-30 6-19 2h-18l-16-2-27-9-16-9-10-9-6-7-8-14-9-23-4-13-4-21-2-19-1-18v-36l1-66 2-22z" fill="#FEFEFE"/>
<path transform="translate(843,332)" d="m0 0h31l13 4 14 6 10 7 15 14 7 8 8 13 4 11 4 14 3 17v25l-4 18-7 20-6 11-11 12-7 7-14 9-15 7-15 3h-28l-18-4-23-7-4-2v-15l1-12 1-29 4 1 19 8 8 2h23l12-4 8-4 10-9 5-10 2-9v-17l-4-13-6-9-6-5-14-7-11-2h-12l-14 3-15 8-12 8-11 9-8 11-1 2-1 11-5 126-2 28-2 2h-48l-2-2v-22l1-52-1-17v-29l2-120 1-10 1-1 22-1h29l3 1 2 13 6-1 9-8 14-8 19-7z" fill="#FEFEFE"/>
<path transform="translate(972,346)" d="m0 0 61 1 1 17 1 71v10l3 2h21l59-1 2-5 1-90 2-4 10-1 37 1 4 1v75l1 9v54l-1 19-2 56-1 38-5 3-28-1-18-1-3-1v-24l2-21 2-54h-43l-39 1-8 1-1 93-2 6-3 1h-20l-26-1-5-2-1-3-1-11-1-32-1-107v-99z" fill="#FEFEFE"/>
<path transform="translate(1492,347)" d="m0 0 39 1 5 2 4 5 7 17 6 17 5 16 15 42 12 34 9 20 5 13 7 15 8 18 10 24 11 24 3 7v3l-5 1h-58l-3-5-8-26-9-25-6-13-11-29-7-19-8-21-6-16-10-25-4 1-3 3-7 17-12 26-6 15 1 4 2 1 35 1 4 4 8 20 6 21v7l-1 1-34 1h-44l-2 9-4 9-5 14-8 18-3 5-5 2h-35l-18-1 1-9 8-24 9-24 5-13 12-31 9-21 5-11 14-35 8-17 11-27 12-27 7-16 2-2z" fill="#FEFEFE"/>
<path transform="translate(1218,345)" d="m0 0h130l4 2 5 19 7 21 3 10v4l-13 1-48 1-28 1-2 1-2 30v13l2 2 68 1 3 2v29l-1 16-7 2h-67v47l42-1h34l14 1 2 4-4 12-15 39-1 1h-71l-42-1-20-1-2-2v-11l2-30 1-28 1-71 1-25 1-81 2-7z" fill="#FEFEFE"/>
<path transform="translate(282,242)" d="m0 0h40l13 2 23 6 17 5 17 7 9 3 11 6 6 7 3 6 9 3 5 4 1 2v33l-1 33-2 4-7-6-7-5-3-1-2 4-3 3-6-1-13-10-20-9-9-3-13-2h-29l-15 2-20 7-14 7-11 9-10 9-12 18-10 21-7 25-2 10-1 21 3 29 7 27 12 21 7 9 18 12 10 3 20 4h25l29-6 23-10 14-7 14-8 8-1 4 5 1 3 1 11v9l10-5 4-3 3 1 1 19v43l-1 15-9 8-14 7-19 7-25 6-17 3h-19l-23-3-29-6-14-3-30-9-16-8-19-12-13-9-15-13-7-8-12-15-11-17-9-19-7-21-6-28-4-28-1-26 2-28 5-24 6-21 13-27 8-13 10-14 9-12 12-13 8-7 12-10 17-11 15-6 26-7 15-3zm4 8-17 1-20 4-31 10-13 9-11 9-10 9-11 11-7 9-11 15-12 20-10 21-5 16-3 11-3 27-1 11 1 33 3 28 5 21 7 23 11 23 9 12 10 13 11 12 7 7 17 12 18 11 17 8 22 7 22 5 14 2 25 1 18-2 25-6 16-6 19-9 9-8 1-4v-63l-1-9-4-1-8 5-11 6-17 8-21 7-24 5h-27l-21-4-13-5-11-6-19-14-7-7-9-13-9-16-8-25-2-9-1-11v-36l3-16 9-27 13-23 12-14 14-11 16-8 18-6 17-2h34l18 3 24 7 13 5 12 6 8 6h3l1-6v-63l-4-4-21-8-19-7-23-7-13-2-12-1z" fill="#24211D"/>
<path transform="translate(457,338)" d="m0 0h66l3 5v13l18 1v97l1 53 2 18 5 15 3 3 5 1h13l18-3 16-7 5-5 4-18 2-15 1-21v-123l1-7 4-3 8-2h56l7 3 4 4 1 4v9h14v-12l3-7 3-2 44-1h17l3 2 3 7 6 2v3l-10 8-5-1-1-13h-32l-22 1-1 10-2 120v29l1 27-1 42-1 21-2-1-1-11 1-8v-7l-4-5-1-21-4 21-4 12-7 11-10 11-16 12-15 7-26 6-25 4h-25l-25-6-18-3-17-6-17-8-14-10-9-10-10-18-10-26-6-22-3-29-1-14v-46l1-53 2-33zm8 6-5 2-2 22-1 66v36l2 28 3 21 5 19 8 21 8 16 6 8 9 9 17 10 19 7 15 4 11 1h18l19-2 30-6 16-7 12-9 13-11 9-12 6-16 4-27 3-24 1-17 2-63v-68l-2-4-58-1-6 1-1 4v109l-1 35-2 21-3 12-4 6v2l-4 2-15 8-24 4h-15l-10-2-10-5-8-10-5-11-4-20-2-17v-140l-1-1-28-1z" fill="#22201D"/>
<path transform="translate(1173,712)" d="m0 0h23l1 1 1 65v39l34-1 1 1v19l-1 1-33 2-33 1-14 1-7 1-3-9-5-11h-12l-20 1-6 23-1 1-25 3-5 2-40 7-10 1v-26l1-35v-62l6-2 39-8 9-2v13l-1 9-6 2-18 4h-4v19l-1 8 21-4h5v21l-5 2-20 3v25l-1 7 28-6 2 2v15l-1 2h2l1-4 7-24 9-32 9-31 8-26 3-9 4-2 14-2 4 9 10 30 15 43 12 35v2h2l-1-3v-94l1-26zm-53 57-3 7-5 24 1 1h16l1-4-7-24-2-4z" fill="#24211D"/>
<path transform="translate(512,737)" d="m0 0 26 1 26 4 12 4 12 6 11 9 8 9 6 10 6 18 2 14-1 30-4 15-7 14-8 11-7 7-10 6-12 5-13 3-8 1h-37l-1-1-1-10-1-39v-116zm27 32 1 105 1 1h9l16-4 9-6 5-4 7-11 4-13v-31l-5-14-6-11-9-7-10-4-7-1z" fill="#24211D"/>
<path transform="translate(907,712)" d="m0 0h14l28 3 19 5 9 4 11 7 12 12 10 15 3 8 2 16v23l-3 21-4 10-9 17-9 9-13 9-13 5-15 3h-34l-8-1-1-7v-141zm27 32-1 1v27l1 76 1 2h11l11-3 14-8 5-4 5-10 4-18v-23l-4-18-6-9-8-7-10-4-14-2z" fill="#24211E"/>
<path transform="translate(1118,881)" d="m0 0 28 1 17 2 17 5 13 5 13 10 8 11 7 15 4 13 2 12v20l-3 17-7 17-6 10-9 10-9 7-8 4-17 4-17 2h-14l-14-1-5-1zm29 31-1 1v105l2 1 10-1 13-5 10-7 7-7 6-11 2-10v-32l-4-11-7-11-6-5-18-5z" fill="#23201D"/>
<path transform="translate(409,277)" d="m0 0 6 3 2 2 2-1 2 3 9 3 5 4 1 2v33l-1 33-2 4-7-6-7-5-3-1-2 4-3 3-6-1-13-10-20-9-9-3-13-2h-29l-15 2-20 7-14 7-11 9-10 9-12 18-10 21-7 25-2 10-1 21 3 29 7 27 12 21 3 4 1 7 4 1 2 4 4 2 4 3 5 3 14 4 4 2 9 1 7 2h22l14-3 20-5 19-8 21-10 9-3-3 3-24 13-14 6-20 6-20 4h-27l-21-4-13-5-11-6-19-14-8-8-9-13-9-16-8-25-2-9-1-11v-36l3-16 9-27 13-23 12-14 12-10 10-6 17-7 10-3 17-2h34l18 3 24 7 13 5 12 6 8 6 3 1z" fill="#23201D"/>
<path transform="translate(1236,686)" d="m0 0h8l2 7 6 25 10 38 4 17v3h2l7-21 12-27 5-13 1-2h2l15 43 6 19v3l2-1 4-18 8-31 7-28 3-10 2-1 21 4 1 2-9 30-13 50-7 25-8 27-8 24h-3l-6-14-11-30-5-15-2-7-2 1-5 15-11 26-5 13-3 5-3-3-7-28-6-20-9-29-6-25-8-26-6-20-2-7z" fill="#23211E"/>
<path transform="translate(457,338)" d="m0 0h66l3 5v13l18 1v97l1 53 2 18 5 15 3 3 5 1h13l18-3 16-7 5-5 4-18 2-15 1-21v-123l1-7 4-3 8-2h56l7 3 4 4 1 5-1 8-4 1-2-12-60-1h-6v113l-1 35-2 21-3 12-5 8-11 7-8 4-24 4h-15l-10-2-10-5-9-11-5-11-4-20-2-17v-140l-28-1h-25l-4 1-2 22-1 66v36l2 28 3 21 5 19v4l1 6 9 22 1 4 4 4 2 3 3 9h2l4 6-5-2-9-10-10-18-10-26-6-22-3-29-1-14v-46l1-53 2-33z" fill="#22201D"/>
<path transform="translate(774,785)" d="m0 0h18l1 13v25l-1 85h-19l-11-23-6-15-13-29-1 1v71l-25 1-1-1v-124l1-1h23l4 4 15 33 8 17 3 5-1-55 1-6z" fill="#23211D"/>
<path transform="translate(662,786)" d="m0 0h10l16 5 9 7 7 11 4 11 2 9v36l-4 20-4 9-9 13-11 7-8 3-5 1h-11l-10-3-10-6-7-9-5-10-4-15-2-12v-18l3-19 5-16 7-10 7-7 8-4zm-4 29-6 4-5 8-2 9-1 19 2 19 4 11 4 5 7 4h13l6-4 4-8 4-19v-22l-5-16-5-7-7-3z" fill="#23211D"/>
<path transform="translate(1468,736)" d="m0 0 10 1 13 3 1 2v42l6 1 17 6v-40l4-1 21 8 1 1v120l-7-1-19-6-1-1 1-57-8-3-14-5 1 59-2 1-25-8v-27z" fill="#24221E"/>
<path transform="translate(1317,906)" d="m0 0 3 1 4 15 11 37 4 8 6-19 7-18 7-22 14 1 16 3-11 29-6 18-7 17-8 23-11 27-4 7h-10l-4-4-10-30-10-35-4-15-7-24-6-18z" fill="#23211D"/>
<path transform="translate(1276,907)" d="m0 0h12l1 1v20l-30 2-1 23h29l1 1v24l-1 1h-28l-1 30h27l2 4v19l-2 1-34 1-20 1-1-1v-37l2-74v-14l1-1z" fill="#25221F"/>
<path transform="translate(1032,967)" d="m0 0h5v36l-1 38-1 20-5 2-16 4h-3v-41l-18 4-1 41-21 6-2-1v-21l2-72 2-3 20-5 1 3-1 30 19-4 1-25 1-7z" fill="#23211D"/>
<path transform="translate(1427,918)" d="m0 0 18 2 10 2v85l-1 12 21 4 2 1v29l-8-1-20-6-25-5v-34l2-88z" fill="#24211D"/>
<path transform="translate(865,769)" d="m0 0h4l1 21-5 2-14 3-1 71-1 30-1 1-18 3-7 2v-25l2-77-18 3h-4v-21l12-3 37-7z" fill="#24211D"/>
<path transform="translate(1395,721)" d="m0 0 10 1 48 9 9 2 1 1v17l-2 1-19-4 1 39v66l-2 1-23-5-1-82 1-21-13-2-10-3-1-19z" fill="#23201C"/>
<path transform="translate(1090,951)" d="m0 0h6v14l-1 9-6 2-12 3-1 10 17-1 1 1v18l-1 2-17 2-1 22 22-1-1 19-9 2-28 5-12 2v-25l3-47 1-25 12-5 17-5z" fill="#23211D"/>
<path transform="translate(964,962)" d="m0 0h4l1 6v13l-2 2-17 5-2 96-18 5h-6v-23l1-35v-36l-15 4h-6v-19l5-3 19-5z" fill="#24211E"/>
<path transform="translate(1353,347)" d="m0 0 1 3 2 5 3 2 14 1 3 2 13 37 4 16-2 1-75 2h-15v11l-1 18h8v1l8 1v1l14 1h13l1 2h-68l-3-3v-13l2-30 3-2 28-1 61-1-8-27-6-18-1-8z" fill="#24221E"/>
<path transform="translate(1367,720)" d="m0 0 22 2 1 1 2 125h-14l-9-1-1-1-1-8-1-34v-83z" fill="#23211D"/>
<path transform="translate(1391,912)" d="m0 0 22 4 2 1v15l-1 36-1 71-11-1-11-2-2-2v-65l1-56z" fill="#26231F"/>
<path transform="translate(1693,338)" d="m0 0h28l5 5 2 9 16-7 30-6h17l27 4 12 3 21 9 11 7 10 9 11 9 9 9 10 8 10 13v2l-3-1v-3l-4-2-1-3-4-2-8-8-5-2-3-4h-3l-9-11-11-6v-2l-9-3-16-8-15-5-15-3-9-1h-27l-17 3-17 6-10 7h-5l-1-1-1-17h-32l-21 1-5 1v54l-1 12 1 10v56l-1 4v29l-1 15-2-4-2-6-1-10 1-49v-112l6-7 2-1z" fill="#31200B"/>
<path transform="translate(1023,340)" d="m0 0h12l5 6 1 3v10h15l2 1 1 44 1 23v13h47v1l-44 1 14 1v1h37l-1 3-54 1h-21l-4-3v-20l-1-61-1-17-22-1h-20l-3-2 5-2 22-1z" fill="#23211D"/>
<path transform="translate(282,242)" d="m0 0h40l13 2 23 6 17 5 17 7 9 3 11 6 6 7v5l-20-12-9-4-7-3-7-2-8-3-23-6-10-2-7-2-9-2-20-1-12 2-30 3-7 1-7 3-15 5-9 4-7 4-4 1-5 5-4 3-3 1-2 4-6 4-5 5-8 7-2 4-7 8-3 4h-2l-1 6-3 4h-2l-1 4-3 1-2 4-2 3h-2l-1 5-7 14-2 6h-2v5l-3 9-1 6h-2v7l-5 18-2 7-1 35-1 11-2 1-1-20-1-5 2-24 5-24 6-21 13-27 8-13 10-14 9-12 12-13 8-7 12-10 17-11 15-6 26-7 15-3z" fill="#3C3012"/>
<path transform="translate(632,340)" d="m0 0h56l7 3 4 4 1 5-1 8-4 1-2-12-60-1h-6l-1 97-1 1v32l-2 22-2 12v9l-3 7-2 1-2-1 1-11 3-21 1-21v-123l1-7 4-3z" fill="#25221C"/>
<path transform="translate(1122,339)" d="m0 0h35l17 1 7 4 1 4v11l-4-1v-12l-2-1v3l-49-1-4 1-1 3-1 90-2 5-1 1h-5l-1-2h-42v-1l-7-1-1-2 45-1 6-1 1-91 3-6z" fill="#22201C"/>
<path transform="translate(1216,338)" d="m0 0h125l12 1 5 6 4 11v2l-4-1-3-2-2-7-5-2h-130l-2 7-2 19-1 1v45l-1 7h-1l-1-14-2-9-1-11v-33l1-12 6-7z" fill="#22201C"/>
<path transform="translate(453,344)" d="m0 0h2l1 6v16l-1 5v5h1v28h-1v48l3 18 2 28 3 21 5 19v4l1 6 9 22 1 4 4 4 2 3 3 9h2l4 6-5-2-9-10-10-18-10-26-6-22-3-29-1-14v-46l1-53z" fill="#24211B"/>
<path transform="translate(1693,338)" d="m0 0h23l3 1-1 4-49 1-7 1-1 25v32l-1 12 1 10v56l-1 4v29l-1 15-2-4-2-6-1-10 1-49v-112l6-7 2-1z" fill="#3B2F12"/>
<path transform="translate(1214,361)" d="m0 0h1v73l-1 25-1 71-1 28-2 3h-2l-1-18 2-6 1-34-1-4-2 21h-1v-77l1-52h1l2 15 2 12v-45l1-1z" fill="#22201D"/>
<path transform="translate(298,245)" d="m0 0 20 1 15 3 1 1 14 3 26 7 3 2 10 3 16 8-3 1-12-5-25-9-20-6-13-2-12-1h-32l-17 1-20 4-31 10-13 9-11 9-10 9-10 10-7 9-11 15-12 20-10 21-5 16-4 1 1-5h1l3-11 2-8h2l1-6 5-9 4-10h2l2-4 5-5 1-3h2l2-6 2-4 3-3 1-2 6-5 3-5 6-7 6-4 5-5 7-6v-2l8-4 2-3 10-4 4-3 30-10 22-3 20-2z" fill="#22201D"/>
<path transform="translate(282,242)" d="m0 0h40l13 2 23 6 17 5 17 7 9 3 11 6 6 7v5l-20-12-9-4-7-3-7-2-8-3-23-6-10-2-7-2-9-2-20-1-12 2-33 3-1-4 19-4z" fill="#372A0B"/>
<path transform="translate(474,759)" d="m0 0h5l7 14 10 18 7 13-1 5-8 5-4-2-12-20-12-24 1-5z" fill="#26231E"/>
<path transform="translate(619,352)" d="m0 0h1l1 21 2 1v-7l2 2v109l-2 22-2 12v9l-3 7-2 1-2-1 1-11 3-21 1-21z" fill="#3B2E11"/>
<path transform="translate(799,744)" d="m0 0 8 1 5 4 3 5v11l-9 14-9 6h-5l1-6 3-6-5-2-5-7v-10l4-6 5-3z" fill="#26231E"/>
<path transform="translate(404,535)" d="m0 0 4 2-3 5-20 9-12 6-19 8-27 7-7 1h-22l-7-2-9-1-9-3-11-4-8-5-5-4-1-3-3-1-1-6 7 6 15 10 10 3 20 4h25l29-6 23-10 14-7 14-8z" fill="#3E3114"/>
<path transform="translate(460,766)" d="m0 0 3 1 13 25 9 16 4 5-1 3-10 4-4-2-8-16-13-24-2-4 1-4z" fill="#27241E"/>
<path transform="translate(1498,911)" d="m0 0 6 2 5 3-1 6-18 32-5 9-6-1-4-2 1-6 16-31z" fill="#27231E"/>
<path transform="translate(1216,338)" d="m0 0h125l12 1 5 6 4 11v2l-4-1-3-2-2-7-1-3-11-2h-13l-25 1-3-1h-51l-32-1-2-3z" fill="#413416"/>
<path transform="translate(1513,919)" d="m0 0 4 1 7 4-1 5-7 12-8 16-8 14-6-2-5-5 8-15 10-17z" fill="#24221E"/>
<path transform="translate(453,344)" d="m0 0h2l1 6v16l-1 5v5h1v28h-1v48l1 11v21l-1 18 1 3v7l-3-2-3-35v-46l1-53z" fill="#372A0C"/>
<path transform="translate(196,618)" d="m0 0 4 2 10 6 9 5 5 2 10 5 9 3 8 2 6 2 15 3 7 3 8 1 2 2 13 1 9 2 17 1 8 2 1 3-8 1-23-3-29-6-14-3-30-9-16-8-19-12z" fill="#35250F"/>
<path transform="translate(1103,508)" d="m0 0h12l3 4-1 15 1 10-3 48v14l1 3 3 2 17 2 1 2h-11l-14-2-3-8 1-26 2-20 2-41-4 1h-21l1-2z" fill="#3B2E10"/>
<path transform="translate(844,324)" d="m0 0h29l13 4 8 4v3h-6l-9-4-13-2h-12l-20 3-17 5-16 6-5 5-3 2-6-2v-2l15-9 12-5 20-6z" fill="#36290A"/>
<path transform="translate(454,342)" d="m0 0 61 1 3 2h-53l-4 1-2 22-1 66-1 29h-1l-2-11v-60h1v-5h-1v-19l1-2v-16l-1-4 1-2-2-1z" fill="#22201C"/>
<path transform="translate(542,376)" d="m0 0h1l1 38v40l1 53 1 19-2-2-3-18-1-25v-104z" fill="#493C21"/>
<path transform="translate(219,262)" d="m0 0m-1 1m-1 1v3l-15 10-9 8-8 7-11 11-7 9-11 15-12 20-10 21-5 16-4 1 1-5h1l3-11 2-8h2l1-6 5-9 4-10h2l2-4 5-5 1-3h2l2-6 2-4 3-3 1-2 6-5 3-5 6-7 6-4 5-5 7-6v-2l8-4 2-3z" fill="#221F1C"/>
<path transform="translate(1717,338)" d="m0 0 6 1 2 4-2 5-1 2v6l1 3 3 1 9-6 7-2 2-3 13-2 1-1 16-1h29l20 5-7 1-19-3h-27l-17 3-17 6-10 7h-5l-1-1-1-17h-32l-21 1-4 1v-3l7-2h49l1-4z" fill="#22201D"/>
<path transform="translate(1122,339)" d="m0 0h35l17 1 7 4 1 4v11l-4-1v-12l-2-1v3l-9-2h-45l-3 1v-6z" fill="#35280C"/>
<path transform="translate(1826,529)" d="m0 0 1 2h2l-2 5-4 6-6 5-13 5-5 1h-17l-12-3-7-1-12-5-3-3-1-3 7 1 12 5 11 3 16 1 13-2 9-5 5-4z" fill="#3F3214"/>
<path transform="translate(457,338)" d="m0 0h66l3 5v9l-5-3-2-4-6-1-58-1v-3z" fill="#342607"/>
<path transform="translate(1818,423)" d="m0 0 8 6 7 6 1 2v6h2l4 9 5 15 2 7-1 23-5 6h-2l2-11v-16l-5-20-6-15-12-14-2-3z" fill="#382B0D"/>
<path transform="translate(1842,352)" d="m0 0 9 3 11 7 10 9 11 9 9 9 10 8 10 13v2l-3-1v-3l-4-2-1-3-4-2-8-8-5-2-3-4h-3l-9-11-11-6v-2l-7-2-1-4-5-1-6-7z" fill="#3A2D0F"/>
<path transform="translate(251,247)" d="m0 0 2 3v2l-5 1-18 6-11 4-8 5-4 1-5 5-4 3-3 1-2 4-5 2v-2h-2l2-4 13-10 16-10 13-5z" fill="#3E3113"/>
<path transform="translate(1661,348)" d="m0 0h1l1 75v58l-1 27-1 5h-1l-1-9v-20l1-7v-54l-1-10 1-11v-35z" fill="#22201D"/>
<path transform="translate(622,450)" d="m0 0h1l2 28-2 22-2 12v9l-3 7-2 1-2-1 1-11 3-21 2-36z" fill="#34240D"/>
<path transform="translate(808,462)" d="m0 0 15 8 7 2h27l11-4 5-2 1 4-5 4-9 3-7 2h-20l-3-2-12-4v-2l-6-2-4-3z" fill="#3C2F12"/>
<path transform="translate(457,525)" d="m0 0 3 1 1 3v7l4 1v2l2 1-1 2 2 1 1 5 9 22 1 4 4 4 2 3 3 9h2l4 6-5-2-9-10-10-18-10-26-3-10z" fill="#3F3215"/>
<path transform="translate(1210,352)" d="m0 0 3 1 1 7v12l-1 1v45l-1 7h-1l-1-14-2-9-1-11v-33l1-5z" fill="#36290A"/>
<path transform="translate(713,564)" d="m0 0 3 2 2 4v11l-1 6 1 12 3 1 20 1-1 3 2 1-1 1h-24l-4-4-1-3v-29z" fill="#392C0E"/>
<path transform="translate(185,281)" d="m0 0 3 1-1 4-5 5-8 7-2 4-7 8-3 4h-2l-1 6-3 4h-2l-1 4-3 1-2 4-3 3v-6l6-10 10-13 6-8 11-12z" fill="#322206"/>
<path transform="translate(1054,516)" d="m0 0h1l1 33v40l-1 23h-3v-77l1-18z" fill="#504427"/>
<path transform="translate(1693,338)" d="m0 0h23l3 1-1 4-49 1-8 3-6 2 2-5 6-5z" fill="#43361A"/>
<path transform="translate(1687,611)" d="m0 0 19 1h12l11 1 8-1h10l-3 5-13 1h-20l-24-1-1-5z" fill="#352511"/>
<path transform="translate(901,335)" d="m0 0 6 2 12 9 7 7 10 8 15 14 3 3-1 2-3-2v-2l-4-2-9-7v2l-3-1-11-11-8-6-3-3v-2l-4-2v-2l-4-1-5-3v-2z" fill="#3D3012"/>
<path transform="translate(690,341)" d="m0 0 5 2 4 4 1 5-1 8-4 1-2-12-47-1v-2h16v-1l6-1v-2z" fill="#2C2310"/>
<path transform="translate(632,340)" d="m0 0h56l2 2-21 1-1 2-5 1-4 1h-19l-9-1-4-3v-2z" fill="#403417"/>
<path transform="translate(802,532)" d="m0 0h8v2l3-1 1 1 9 1 3 1v2l3-1 10 2 4 2 7 1 2 3h15l7 1 4 2v2h-11l-25-5-21-5-17-5-2-1z" fill="#33220D"/>
<path transform="translate(1551,561)" d="m0 0 4 2-1 3 5 2 2 7 6 14 5 13 1 1v5h2v2l9 1-3 2h-8l-3-1-4-9-10-28z" fill="#392C0D"/>
<path transform="translate(1208,495)" d="m0 0 2 4 1 4-1 34-2 6v18l-1 7-3-1v-14l1-24z" fill="#3C3013"/>
<path transform="translate(603,536)" d="m0 0h3l-1 5-10 3v2h-8l-1 2-15 1-4-1-1 1-15-2-1-4-2-1 1-5 5 5 6 2h13l18-3z" fill="#3D3012"/>
<path transform="translate(764,338)" d="m0 0h17l3 2 2 8-4-1-10-4h-37v-3h-5v-1z" fill="#493C1F"/>
<path transform="translate(1321,612)" d="m0 0h14l14 1h21v3h-66l-20-1v-2z" fill="#34230D"/>
<path transform="translate(1758,342)" d="m0 0v3l-8 4-6 1-2 3-9 3-7 5-1-2h-2l-2-4v-8l2-1 1-3h2l2 9 16-7z" fill="#35270A"/>
<path transform="translate(746,605)" d="m0 0h9l15 3 6 1 19-1 1-2v6h-50l-2-3v-3z" fill="#2C1B09"/>
<path transform="translate(1115,345)" d="m0 0 4 4 1 26v11l-1 5h-2l-1 6h-1l-1-16v-33z" fill="#4A3A27"/>
<path transform="translate(282,242)" d="m0 0h14v1l8 1v1l-18 3-33 3-1-4 19-4z" fill="#37290B"/>
<path transform="translate(1427,439)" d="m0 0 2 1-1 11-6 12-9 21-2 3-1 5-4-1 1-5 15-36z" fill="#2C210D"/>
<path transform="translate(1486,340)" d="m0 0h26l12 1v1l-8 2-3 1-38 1-4 1v3l-5 2v-2l5-5h2v-3z" fill="#311F09"/>
<path transform="translate(1504,951)" d="m0 0 5 1-1 5-8 14-6-2-5-5 5-10 4 1z" fill="#31200A"/>
<path transform="translate(1309,444)" d="m0 0h33l7 1-1 2 1 7-3-3-4-1h-12l-22-1-3-3z" fill="#42371C"/>
<path transform="translate(1023,340)" d="m0 0h12l1 5-3 1h-43l-3-2 5-2 22-1z" fill="#342506"/>
<path transform="translate(115,465)" d="m0 0 3 3 3 8-1 10 1 10 3 3 1 4v7l2 1 1 7v10h-2l-7-29-4-26z" fill="#3E2F18"/>
<path transform="translate(1518,342)" d="m0 0h15l9 3 5 6 2 10-6-2-2-3-5-5-6-3v-2l-17-1 3-2z" fill="#362817"/>
<path transform="translate(121,400)" d="m0 0 1 3-3 10-1 35-1 11-2 1-1-20-1-5 2-24 2-10z" fill="#382812"/>
<path transform="translate(1113,435)" d="m0 0 1 3h2v5l-7 2h-39v-1l-7-1-1-2 45-1 6-1z" fill="#3D3011"/>
<path transform="translate(1402,502)" d="m0 0h2l-1 6h-2l1 4-3 6-1 5-8 18-3 3-3 4-1-3 14-35 3-6z" fill="#362510"/>
<path transform="translate(1717,338)" d="m0 0 6 1 2 4-2 5-3 2-1-4h-32l-21 1-4 1v-3l7-2h49l1-4z" fill="#292723"/>
<path transform="translate(1367,508)" d="m0 0 1 3-1 1h-67l2-2 13-1h41z" fill="#312106"/>
<path transform="translate(130,535)" d="m0 0 5 5v2l2 1-1 3h2l2 7 1 3h2l1 6 3 2 5 10 6 4 1 4 1 5h-2l-12-16-9-16-7-16z" fill="#403317"/>
<path transform="translate(1746,446)" d="m0 0h1l1 23v23l-1 40-2-4v-78z" fill="#372909"/>
<path transform="translate(1118,341)" d="m0 0 2 1-1 5 3-2h45l7 2-4 1-43-1-4 1-1 3-1 24h-1l-1-6-1-19-2-4 1-4z" fill="#221F1C"/>
<path transform="translate(878,407)" d="m0 0 3 1v2l4 1 5 11 1 21-5 6-1-2 1-3v-17l-5-12-2-4z" fill="#32200B"/>
<path transform="translate(1769,340)" d="m0 0h16v2l6 2v1l-33 2-7 2v-2l7-3 1-2z" fill="#32200B"/>
<path transform="translate(1654,511)" d="m0 0h1l2 12 1 1v20l-2 21-2 4z" fill="#2D1C07"/>
<path transform="translate(1114,381)" d="m0 0h1l1 14 2-4v24l-2 20h-2z" fill="#312307"/>
<path transform="translate(1491,807)" d="m0 0 2 2 1 56-2 1-10-4v-1l9-1z" fill="#382A0A"/>
<path transform="translate(398,264)" d="m0 0 14 7 6 7v5l-20-12-5-2v-1h5l-1-3z" fill="#2D1D09"/>
<path transform="translate(1017,339)" d="m0 0h16v1l-19 2-22 1-5 2-9 1-7-1-1-3 6-1 5 1 1-1v-1z" fill="#2A2215"/>
<path transform="translate(715,598)" d="m0 0 6 2 20 1-1 3 2 1-1 1h-24l-3-3z" fill="#2E1C06"/>
<path transform="translate(355,330)" d="m0 0 11 2 17 5 4 3 5 2 2 4-6-1-19-8-15-4z" fill="#31220B"/>
<path transform="translate(1442,787)" d="m0 0h1v66l-2 1-14-3-1-3 8-1h4l3-1z" fill="#7E746A"/>
<path transform="translate(963,345)" d="m0 0 4 2v27l-1 9h-1v-11l-3-1v-23z" fill="#3E3216"/>
<path transform="translate(513,897)" d="m0 0 1 3 34 1h14l-3 2-8 1h-37l-1-1z" fill="#2E1B06"/>
<path transform="translate(966,577)" d="m0 0h1v5h3l2 19v2l4 2 7 1-2 2-9-1-5-4-1-2z" fill="#352608"/>
<path transform="translate(496,594)" d="m0 0 9 6 12 7 7 2v2l7 1 2 3-2 1-15-6-16-8-5-4z" fill="#35250F"/>
<path transform="translate(1750,612)" d="m0 0h9l2 1v2l4-1 9 1v2l13 2 6 3v1h-7l-6-2-18-3-10-3-2-1z" fill="#34250F"/>
<path transform="translate(970,1063)" d="m0 0 1 4 5 2 10-1 4-1 1-2 1 6-21 6-2-2z" fill="#2F1E09"/>
<path transform="translate(1367,799)" d="m0 0 2 3v14l1 23 5 5v2h4l-1 2-9-1-1-1-1-8z" fill="#332607"/>
<path transform="translate(1481,944)" d="m0 0h2l-1 8 2 4 4-1-1 5-2 3-6-1-4-2 1-6z" fill="#2F2108"/>
<path transform="translate(797,558)" d="m0 0h1v21l-1 32h-1l-2-13 1-36z" fill="#352817"/>
<path transform="translate(1103,508)" d="m0 0h12l3 4-1 9-3 2v-12l-4 1h-21l1-2z" fill="#31200A"/>
<path transform="translate(1208,495)" d="m0 0 2 4 1 4v11l-1 12-3 9h-1v-15z" fill="#332406"/>
<path transform="translate(1457,369)" d="m0 0h2v2h2l-2 6-2 5h-2v5l-5 8-4-2 9-20z" fill="#36260E"/>
<path transform="translate(538,822)" d="m0 0h1l1 15v27l-1 7h-1l-1-14v-33z" fill="#665C43"/>
<path transform="translate(622,450)" d="m0 0h1l2 28-2 4h-3v-22z" fill="#2F1D06"/>
<path transform="translate(1883,381)" d="m0 0 7 6 13 11 9 12v2l-3-1v-3l-4-2-1-3-4-2-8-8-5-2-1-5-3-3z" fill="#433619"/>
<path transform="translate(619,475)" d="m0 0h1v7l4-1-1 19-3 5-3-1 1-8z" fill="#413418"/>
<path transform="translate(1821,351)" d="m0 0h21l2 6 4 2v2l5 1 1 3-5-2-15-7-13-4z" fill="#281E12"/>
<path transform="translate(946,1076)" d="m0 0 2 4v4l-18 5h-6l1-10 4 5 11-1z" fill="#2D1C08"/>
<path transform="translate(1818,423)" d="m0 0 8 6 7 6 1 2v8h-2l-6-9-10-11z" fill="#332406"/>
<path transform="translate(1348,339)" d="m0 0h5l5 6 4 11v2l-4-1-3-2-2-7-2-4-3-3z" fill="#35260B"/>
<path transform="translate(1427,439)" d="m0 0 2 1-1 11-6 12h-3l-1 2-2-1 10-24z" fill="#3F3316"/>
<path transform="translate(901,335)" d="m0 0 6 2 11 8 1 6h-3l-4-3v-2l-4-2v-2l-4-1-5-3v-2z" fill="#2E2009"/>
<path transform="translate(690,341)" d="m0 0 5 2 4 4 1 5-1 8-4 1-2-10-3-6z" fill="#2F200F"/>
<path transform="translate(1518,342)" d="m0 0h15l7 2-1 4-8 1-1-3-17-1 3-2z" fill="#2E1D08"/>
<path transform="translate(296,242)" d="m0 0h26l3 3-5 1h-16v-2h-9z" fill="#312009"/>
<path transform="translate(1349,445)" d="m0 0 4 3 1 3v12l-5 1-1-15-1-3z" fill="#2D1C07"/>
<path transform="translate(603,536)" d="m0 0h3l-1 5-10 3v2h-7l-2-3 10-4z" fill="#3B2C12"/>
<path transform="translate(1816,343)" d="m0 0 14 3 10 4 1 2h-11l-5-2-3-3-6-1z" fill="#372A0C"/>
<path transform="translate(620,346)" d="m0 0 2 1 2 12v8l-1 7-3-1z" fill="#2E1B06"/>
<path transform="translate(1826,529)" d="m0 0 1 2h2l-2 5-4 6-5 4-2-2 1-5 5-5z" fill="#3A2A13"/>
<path transform="translate(1133,340)" d="m0 0h34l2 2-4 1h-22l-10-1z" fill="#2D1B07"/>
<path transform="translate(115,465)" d="m0 0 3 3 3 8-1 13-1-2h-2l-2-14z" fill="#33230E"/>
<path transform="translate(1720,350)" d="m0 0h2v6l1 3 3 1 9-6h3v2l-12 8h-5l-1-1z" fill="#23201B"/>
<path transform="translate(1283,1009)" d="m0 0 3 1 1 3v19l-3 1-1-3v-17l-1-3z" fill="#6C624B"/>
<path transform="translate(335,328)" d="m0 0h10l7 1-2 1v2h-26v-2l9-1z" fill="#2F1E07"/>
<path transform="translate(795,606)" d="m0 0h1v6h-27v-1l7-2 19-1z" fill="#301F06"/>
<path transform="translate(1763,341)" d="m0 0h8v5l-13 1-7 2v-2l7-3 1-2z" fill="#31200A"/>
<path transform="translate(434,348)" d="m0 0h1v11l-2 4-7-6 1-4 6-2z" fill="#41321C"/>
<path transform="translate(668,342)" d="m0 0h22v1l-8 1v2h-20v-1l6-1z" fill="#2E1B06"/>
<path transform="translate(155,318)" d="m0 0 1 2-3 8-3 1-2 4-3 3v-6l5-8z" fill="#32210A"/>
<path transform="translate(161,307)" d="m0 0 1 4 2 1-4 2-1 6-3 4h-2l1-5-4 3 2-5z" fill="#342606"/>
<path transform="translate(457,525)" d="m0 0 3 1 1 3v7l4 1v2l2 1-4 4-2-1-4-13z" fill="#34250E"/>
<path transform="translate(549,901)" d="m0 0h13l-3 2-8 1h-34v-2h31z" fill="#352706"/>
<path transform="translate(720,339)" d="m0 0h10l5 1v3l-8 1-4-1-4 1-1 3-1-2z" fill="#2E1E08"/>
<path transform="translate(431,575)" d="m0 0h2v28l-2 2-1-29z" fill="#7A725F"/>
<path transform="translate(116,434)" d="m0 0h2v14l-1 11-2 1-1-21z" fill="#2E1B06"/>
<path transform="translate(1048,1030)" d="m0 0h1v27h4v2l-6 1v-25z" fill="#3B2D19"/>
<path transform="translate(1758,342)" d="m0 0v3l-8 4-8 2-1-5z" fill="#35230E"/>
<path transform="translate(157,579)" d="m0 0 3 2 4 7 8 8v2l-5-1-8-9-1-6z" fill="#36270D"/>
<path transform="translate(1445,397)" d="m0 0h3l-1 8-3 7-5-1 5-13z" fill="#403216"/>
<path transform="translate(1055,360)" d="m0 0h3v25l-2-2-1-13z" fill="#31250F"/>
<path transform="translate(399,346)" d="m0 0 5 1 5 6h-4v3l-4-2-3-3-1-4z" fill="#301F06"/>
<path transform="translate(421,285)" d="m0 0 7 1 7 5 1 2v20h-1l-1-14-1-7-12-6z" fill="#3F3017"/>
<path transform="translate(185,281)" d="m0 0 3 1-1 4-5 5-3 2-4-1z" fill="#302007"/>
<path transform="translate(1502,340)" d="m0 0h10l12 1v1l-8 2-6 1-9-1 3-2z" fill="#594E35"/>
<path transform="translate(798,339)" d="m0 0 2 1-3 7-4 3-6-2v-2z" fill="#3A2D0F"/>
<path transform="translate(645,911)" d="m0 0 10 3 15 2-1 2h-11l-10-3-4-3z" fill="#463B23"/>
<path transform="translate(1206,577)" d="m0 0h2v10h-1l-1 8-3-1v-13h2z" fill="#322206"/>
<path transform="translate(398,264)" d="m0 0 10 5-1 3-9-1-5-2v-1h5l-1-3z" fill="#342606"/>
<path transform="translate(719,599)" d="m0 0 2 1 20 1-1 2-17 1-4-2z" fill="#342606"/>
<path transform="translate(128,521)" d="m0 0 2 4 5 12 1 5-8-8-1-6z" fill="#32200B"/>
<path transform="translate(887,432)" d="m0 0h3l1 3v8l-5 6-1-2 1-3z" fill="#443523"/>
<path transform="translate(1788,416)" d="m0 0h14v1h-12v2l-14 4-3-2 10-4z" fill="#2D1D08"/>
<path transform="translate(1579,408)" d="m0 0 2 2 7 21-4-2-5-13z" fill="#3D2E19"/>
<path transform="translate(1814,343)" d="m0 0h2v3h6l3 2v2l5 1-4 1-5-1-2-1-10-2z" fill="#332306"/>
<path transform="translate(1513,919)" d="m0 0 4 1 7 4-1 5-2 2v-2h-2l-2-4-4-2z" fill="#3F311A"/>
<path transform="translate(1113,601)" d="m0 0 5 2 7 2 11 1 1 2h-11l-9-1v-2l-4-1z" fill="#31200D"/>
<path transform="translate(1894,394)" d="m0 0 10 5 8 11v2l-3-1v-3l-4-2-1-3-4-2z" fill="#3F3019"/>
<path transform="translate(1498,911)" d="m0 0 6 2 3 5-4 2-4-3h-3z" fill="#392C11"/>
<path transform="translate(1116,414)" d="m0 0 2 1-2 20h-2v-17z" fill="#352706"/>
<path transform="translate(196,618)" d="m0 0 4 2 10 6 2 3-3 1-11-7z" fill="#33220C"/>
<path transform="translate(228,521)" d="m0 0 4 2 9 16 2 5-4-3v-2h-2l-3-5v-5h-2l-3-6z" fill="#42361C"/>
<path transform="translate(125,510)" d="m0 0 2 1 1 7v10h-2l-3-12v-4h2z" fill="#3A2D11"/>
<path transform="translate(522,339)" d="m0 0 3 1 1 3v9l-5-3-1-6z" fill="#2F1E07"/>
<path transform="translate(1367,837)" d="m0 0 3 1 5 6v2h4l-1 2-9-1-1-1z" fill="#403316"/>
<path transform="translate(1198,369)" d="m0 0 2 4-1 20h-2v-23z" fill="#42371E"/>
<path transform="translate(1320,840)" d="m0 0h2l-3 11h-3l-2-4v-3z" fill="#35280E"/>
<path transform="translate(1367,720)" d="m0 0h2l-1 10-1 27h-1v-36z" fill="#332406"/>
<path transform="translate(882,415)" d="m0 0 4 1 3 8v8h-2l-4-13z" fill="#372A0D"/>
<path transform="translate(1268,833)" d="m0 0h2l-1 7-3 5-3-3v-5l5-1z" fill="#2D1D08"/>
<path transform="translate(1540,348)" d="m0 0 3 3v2h2v3h3l1 5-6-2-2-3-3-6h2z" fill="#382B0B"/>
<path transform="translate(1330,1028)" d="m0 0 13 2-1 3h-10l-3-2z" fill="#2D1E0A"/>
<path transform="translate(1419,462)" d="m0 0 2 1-1 5-4 5-2 4h-1v-6l3-6h2z" fill="#2C1D0A"/>
<path transform="translate(698,349)" d="m0 0 2 3-1 8-4 1-2-11 5 1z" fill="#392B0B"/>
<path transform="translate(1122,339)" d="m0 0h7l1 2h-3l-1 3-5 3h-2v-6z" fill="#2E1C07"/>
<path transform="translate(453,344)" d="m0 0h2l1 12-2 10h-1z" fill="#2F1D06"/>
<path transform="translate(1348,339)" d="m0 0h5l4 4v5l-3-1-2 1-2-5z" fill="#362814"/>
<path transform="translate(865,769)" d="m0 0h4v6l-7-1-6 1 1-3z" fill="#2E1E08"/>
<path transform="translate(355,657)" d="m0 0h7l4 1-1 3-12 1z" fill="#2C1C09"/>
<path transform="translate(808,462)" d="m0 0 13 7-1 3-7-2-5-4z" fill="#4C3C27"/>
<path transform="translate(1203,902)" d="m0 0 5 5 6 8 1 5-7-7v-4h-2l-3-5z" fill="#4F442A"/>
<path transform="translate(1065,776)" d="m0 0h4v21l-2-2v-16h-2z" fill="#5C523C"/>
<path transform="translate(1407,612)" d="m0 0 5 3 2 3h-12l2-2v-3z" fill="#2F1E06"/>
<path transform="translate(1607,488)" d="m0 0 2 1 5 12v3l-3-1-5-12z" fill="#3D2F18"/>
<path transform="translate(1457,369)" d="m0 0h2v2h2l-2 6-6 3 3-10z" fill="#3B2C12"/>
<path transform="translate(1373,609)" d="m0 0h13l-3 2 7 1v1h-16l-2-2z" fill="#776E59"/>
<path transform="translate(970,599)" d="m0 0 2 4 4 2 7 1-2 2-9-1-3-2z" fill="#32220E"/>
<path transform="translate(1486,340)" d="m0 0h14l2 2-17 1-4-1z" fill="#786E58"/>
<path transform="translate(964,962)" d="m0 0h4v12h-1v-5l-5-2v-4z" fill="#2F1E06"/>
<path transform="translate(1402,502)" d="m0 0h2l-1 6h-2l-1 5-4 2 1-5 3-6z" fill="#2E1C07"/>
<path transform="translate(1881,379)" d="m0 0 2 1 3 5 2 4-6-2-5-5v-2z" fill="#2F1F07"/>
<path transform="translate(282,242)" d="m0 0h14l-1 3h-14z" fill="#372815"/>
<path transform="translate(1479,954)" d="m0 0h2v4h4l-1 4-3 1-4-2 1-6z" fill="#2D1B07"/>
<path transform="translate(774,785)" d="m0 0 7 1v1h-8v3h-2l-1 16h-1v-14l1-6z" fill="#7F7664"/>
<path transform="translate(1455,612)" d="m0 0h2l-2 5h-15l3-2 10-2z" fill="#2D1C07"/>
<path transform="translate(1572,606)" d="m0 0 1 2h2v2l9 1-3 2h-8l-2-1-1-5z" fill="#382914"/>
<path transform="translate(1401,510)" d="m0 0 1 2-4 7-5 5-1-2 3-7 4-2z" fill="#3B2C13"/>
<path transform="translate(1404,493)" d="m0 0 1 2h3l-2 6-6 3 3-9z" fill="#392A15"/>
<path transform="translate(1353,452)" d="m0 0h1v11l-5 1-1-10h2v3h2z" fill="#342607"/>
<path transform="translate(982,340)" d="m0 0 26 1v1l-16 1-8 1z" fill="#2E1B06"/>
<path transform="translate(946,1076)" d="m0 0 2 4v4l-8 1 2-4z" fill="#33230E"/>
<path transform="translate(905,991)" d="m0 0 2 1v2l6 1-3 4h-6z" fill="#2E1D07"/>
<path transform="translate(431,605)" d="m0 0h1l1 13-1 7-2-1v-18z" fill="#3A2C0C"/>
<path transform="translate(1818,423)" d="m0 0 7 5 1 6-4-2-6-8z" fill="#2D1D09"/>
<path transform="translate(1178,349)" d="m0 0h4v10l-4-1z" fill="#312207"/>
<path transform="translate(770,339)" d="m0 0h12l1 6-4-1-3-3-2 1-4-1z" fill="#2E1B06"/>
<path transform="translate(1430,434)" d="m0 0 3 1v3h-2l-2 10-2 1 1-9-1-2z" fill="#2F1E06"/>
<path transform="translate(1114,381)" d="m0 0h1l1 14 1 4-1 4-2 2z" fill="#23201B"/>
<path transform="translate(452,355)" d="m0 0h1l1 7 1-6h1v10l-3 5h-1z" fill="#42371F"/>
<path transform="translate(1242,686)" d="m0 0 3 1 2 10-1 4-5-12-1-2z" fill="#2F2008"/>
<path transform="translate(1551,561)" d="m0 0 4 2-1 3h2l3 9-1 3-2-3z" fill="#524531"/>
<path transform="translate(1746,475)" d="m0 0h1l1 17h-3v-16z" fill="#42361D"/>
<path transform="translate(131,371)" d="m0 0 1 2-3 11-4 1 1-5h1l2-7z" fill="#251F17"/>
<path transform="translate(1472,342)" d="m0 0 1 3-5 5h-2l-1 5-1 2-2-1 6-12z" fill="#50452B"/>
<path transform="translate(178,287)" d="m0 0 2 1-7 7v-3zm-7 8 1 3-8 6 2-4z" fill="#453826"/>
<path transform="translate(408,275)" d="m0 0 6 1h3l1 7-10-6z" fill="#312407"/>
<path transform="translate(1359,908)" d="m0 0 14 1 4 2h-15l-3-1z" fill="#3F3316"/>
<path transform="translate(1491,859)" d="m0 0h1v6l-6-1-4-2v-1z" fill="#392915"/>
<path transform="translate(689,792)" d="m0 0 8 6 4 6-1 2-4-4v-2h-2l-5-6z" fill="#574C33"/>
<path transform="translate(1462,743)" d="m0 0h1v8l-2 1-7-3v-1l7-1z" fill="#655948"/>
<path transform="translate(496,594)" d="m0 0 6 4 2 6-9-6z" fill="#45391D"/>
<path transform="translate(1116,510)" d="m0 0 2 2-1 9-3 2v-10z" fill="#332607"/>
<path transform="translate(542,364)" d="m0 0 2 1v7l-2 6-2-1 1-12z" fill="#342606"/>
<path transform="translate(1816,343)" d="m0 0 14 3-1 2-9-1-4-1z" fill="#453725"/>
<path transform="translate(1774,339)" d="m0 0h17l-1 4h-5l-1-2-10-1z" fill="#2E2D2A"/>
<path transform="translate(1261,829)" d="m0 0h2l5 5v2l-4 1-2 2z" fill="#3E3317"/>
<path transform="translate(1369,541)" d="m0 0 4 2v8l-3 1-1-7z" fill="#36260E"/>
<path transform="translate(933,534)" d="m0 0 3 2-13 7-3-1 9-6h3z" fill="#2E1F09"/>
<path transform="translate(1774,342)" d="m0 0 10 1 7 1v1l-20 1 2-1z" fill="#352706"/>
<path transform="translate(1502,341)" d="m0 0 5 1 3 3h-13l-2-1v-2z" fill="#2E1C06"/>
<path transform="translate(782,339)" d="m0 0 2 1 2 8-4-1-7-4 1-2 3 1v2h3z" fill="#463A1D"/>
<path transform="translate(1282,953)" d="m0 0h5v22h-1l-1-19-4-2z" fill="#301F06"/>
<path transform="translate(513,897)" d="m0 0 1 3 13 1-1 2-9-1v2l-4-1z" fill="#2D1C08"/>
<path transform="translate(1758,342)" d="m0 0v3l-4 2h-6v-3z" fill="#473A1D"/>
<path transform="translate(901,335)" d="m0 0 6 2v5l-8-4v-2z" fill="#2E1C06"/>
<path transform="translate(1481,952)" d="m0 0 3 4 4-1-1 5-2 3-3-1h2l1-4h-4l-1-5z" fill="#332607"/>
<path transform="translate(1207,517)" d="m0 0h1l1 10-2 8h-1v-15z" fill="#2E1C06"/>
<path transform="translate(1417,470)" d="m0 0 1 3-4 9-4-3 2-5 2 2z" fill="#392B0E"/>
<path transform="translate(1198,427)" d="m0 0h1l1 19-2-1-1-3z" fill="#2E240E"/>
<path transform="translate(1293,713)" d="m0 0h2l3 8-1 4-3-6-3-2z" fill="#433621"/>
<path transform="translate(453,496)" d="m0 0h1l2 9v7l-3-2z" fill="#2D1C09"/>
<path transform="translate(549,901)" d="m0 0h13l-3 2-13 1z" fill="#3A2D1B"/>
<path transform="translate(521,610)" d="m0 0 10 2 2 3-2 1-9-4z" fill="#3B2C19"/>
<path transform="translate(457,525)" d="m0 0 3 1 1 9-3-1z" fill="#3D2D18"/>
<path transform="translate(1143,836)" d="m0 0h2l2 2 6 1-1 2-7 1z" fill="#554A34"/>
<path transform="translate(701,805)" d="m0 0 3 4 3 9h-2l-3-6-2-3z" fill="#2F210A"/>
<path transform="translate(790,748)" d="m0 0 3 4h-2v4l-4 1 1-7z" fill="#302006"/>
<path transform="translate(1397,519)" d="m0 0 2 2-4 9-3 4 2-9z" fill="#352706"/>
<path transform="translate(1600,471)" d="m0 0h2l5 14h-2v-2h-2l-2-7z" fill="#473A21"/>
<path transform="translate(1735,614)" d="m0 0h9v3h-7l-3-2z" fill="#352706"/>
<path transform="translate(1386,609)" d="m0 0 5 1v2l-16-1v-1z" fill="#301E06"/>
<path transform="translate(875,463)" d="m0 0 4 1-1 4-4 1-1-4z" fill="#2E1E07"/>
<path transform="translate(888,446)" d="m0 0 1 3-2 5h-2l-3 3 2-7z" fill="#2E1E08"/>
<path transform="translate(1439,411)" d="m0 0h3l-1 5-5 5 1-6z" fill="#2D1D08"/>
<path transform="translate(1376,367)" d="m0 0 3 1 3 11-3-1z" fill="#2E1F09"/>
<path transform="translate(393,343)" d="m0 0 5 2v3l-1 3-5-5z" fill="#4B3E21"/>
<path transform="translate(161,307)" d="m0 0v3zm-2 3m-1 1 2 2-4 2zm-3 4 2 1v2l-6 4 2-5z" fill="#473B24"/>
<path transform="translate(1389,1029)" d="m0 0 5 2v2l3 1-6 2-2-2z" fill="#3A2E12"/>
<path transform="translate(803,796)" d="m0 0 7 5-3 2h-4z" fill="#3B2E11"/>
<path transform="translate(1781,619)" d="m0 0h6l6 3v1h-7l-5-3z" fill="#2C1C09"/>
<path transform="translate(157,579)" d="m0 0 3 2 4 7 3 2-1 2-7-4-1-6z" fill="#2E1C06"/>
<path transform="translate(546,527)" d="m0 0 2 2 2 8-1 5h-1l-2-9z" fill="#2E1E08"/>
<path transform="translate(907,338)" d="m0 0 6 3v2h-2l1 3-4-2z" fill="#3C2F10"/>
<path transform="translate(398,264)" d="m0 0 3 1-1 6-7-2v-1h5l-1-3z" fill="#2E1C06"/>
</svg>
