<?xml version="1.0" encoding="UTF-8"?>
<svg version="1.1" viewBox="0 0 1680 1680" width="420" height="420" xmlns="http://www.w3.org/2000/svg">
<path transform="translate(297,15)" d="m0 0h10l9 1 5 4 16 5 15 4 20 7 12 5 24 13 10 6 17 10 14 10 9 8 8 6 8 8 7 6 14 16 5 8 5 3 5-1 5 2 13 2 31 9 10 3 6 4 4-2 10-9 6-5 4-5 5-4h2v-2h2l2-4 8-9 7-4 5-6 9-3 11-4 8-3 13-2 3-2h28l16 6 12 7 11 8 10 10 8 14 2 8v18l-4 12-6 11-12 12-16 9-16 8-11 4-24 8-18 7-6 2 3 10 3 12 4 13v17l-4 16-5 16-2 5 1 7 5 13 4 5 1 16v25l-4 10v6l6 5 6 9 7 6 6 3 4-2 7-8 6-4 5-4 17-8 9-1-1-4v-8l2-5 2-15 8-27 2-13 5-12 6-18 2-4 2-8 8-16 8-12 9-12 9-10 7-6 14-6 18-5 16-2 2-1 52-1h42l28 1 17 2 36 3 49 7 49 10 38 9 16 4 41 10 21 5 10 4 14-27 12-22 7-14 12-20 12-18 9-12 8-10 8-8 7-8 40-40 14-8 7-2h14l17 4 13 5 12 8 6 5 7 8 8 7 10 13 11 12 10 14 5 10 1 11-3 8-6 10-10 12-6 8-10 12-7 8-8 10-9 9-16 22-9 14-7 11-5 10h-2l-3 12-6 8-1 4 12 8 16 12 7 7 6 11v5l-2 3 1 12v14l-2 17-1 9 8 5 9 6 12 11 5 4 7 8 13 14 13 20 7 12 8 18 3 12 3 8 2 15v36l-3 31-4 15-6 15-7 12-5 8-7 10-3 4h-2l-2 4-9 10-9 9-8 7-12 9-13 9-19 9-21 7 8 6 14 14 12 20 9 19 3 12 1 2v32l-4 11-7 16-5 13-7 12-12 15-6 10-12 13-7 8-10 9-10 10-5 3-5 7-13 9-14 10-7 6h-2l-2 4-10 4-1 5 1 12-2 13-6 10-17 17-10 6-19 9-7 2h-14l-12 13-8 11-7 6-11 8-8 5-19 10-5 2-3 10-3 11-13 14-8 5-5 1 6 11 9 12 7 13 8 14 5 12 7 14 8 19 3 9 7 14 6 17 3 9 5 19 20 2 15 6 12 8 12 11 9 10 7 14 1 9 3 5-3 6-1 4 9-6 9-7 13-6 17-7 15-5 7-1 9-3 7-2 16-1h21l15 2 18 4 14 4 16 6 11 6 13 10 6 5 7 10 4 4 7 12 6 10 8 18 4 11 3 17 2 13v26l-3 13-8 16-6 10h-2l1 5 5 12v19l-3 12-6 8-8 7-9 1-49 3-50 1-10 1-2-1-35 1-4 1-144 1-42 2-4 1-19 1h-20l-21-1-2-1-25-1-7-2-10-3-12-7-6-5-4-6-1-10 1-14 4-22 1-3-9-13-8-14-8-18-1-17-2-6 1-7 2-16 1-13 8-14 6-10-1-5-5-7-4-11v-21l4-10 10-13 6-6h2v-2l10-7 6-3h13l-3-16-11-31-7-17-1-6-3-1-12-26-9-20-9-16-4-5-7 2-4 1-14 2-3 1h-10l-6 1h-16l-14-3-12-4-3-4-4-12-2-18h-17l-1 1h-34l-14-2 1 5-2 9-2 2-4 13-6 10-6 5-5 2-16 3-2 4-2 17-1 7v18l1 4 1 13 3 7 1 2v11l3 7 2 7h25l15 4 10 6 13 10 11 11 4 8 4 14 1 7v19l4 4 9 7 11 12 8 16 5 14 5 15 1 5 1 15 2 6-2 2 1 7 1 4-2 3-3 15-7 20-5 13-5 5 1 11-1 9 2 4v20l-3 11-4 3-13 2-47 4-61 3-1 1h-120l-7-1-11 1-4-1-101-3-8-1h-57l-3 1h-45l-2-1-43-2-3-9-6-17 1-5 5-10 3-9 12-12-1-5-8-21-3-16-2-9v-19l6-31 10-23 9-11 11-12 11-10 13-9 14-8 14-5 18-5 7-2 20-1 3-2h26l7 2 14 2 16 4 36 12 19 9-2-4 1-6 8-16 4-6 11-12 12-6-1-15-1-4-1-23v-32l-3-2v-6l2-4 3-38 4-15 1-5-12-5-16-8-12-9-7-17-2-8 1-7 4-14 4-18 9-24 11-32 3-8v-14l-4-10-5-30-1-23v-24l2-17 4-20 10-22 3-8 18-5 3-8 5-22 8-26 8-20 5-15 15-30 10-15 10-14 5-6-1-4-11-16-10-15-10-16-27-40-10-13-8-10-26-32-8-10-10-12-9-11-9-10-7-8-17-17-7-8-10-10-7-8-4-5-8-7-9-11-3-1-14 4-10 1h-20l-13-5-16-9-12-11-8-11-6-12-4-21-10-1-16-2-20-7-11-7-18-10-21-21-9-11-7-11-4-10-5-14-9-20-8-11-8-6-15-5-35-11-31-8-25-9-15-8-11-11-9-15-4-11-3-12v-22l6-11 9-13v-4l-4-2-7-8-4-6-1-8-3-9-1-10v-14l3-9 6-10 13-13 15-8 11-3 4-2 11-1 4-2 9-1 5 1 3-10 6-8 10-9 16-8 11-4 8-4h9zm1110 544-9 20-8 21-12 25-8 15v3l2 1 9 1 5 1 16-8 8-8 7-11 6-16 1-10v-11l-4-11-9-10zm-186 278-4 1-20 2-26 8-29 12-15 7-12 5-2 2 19 4 17 6 11 6 26 14 7-4 9-2 16-1 13 2 19 7 11 9 4-1 10-8 7-9 6-13 1-5v-11l-5-10-5-5-6-5-12-5-18-4-17-2z" fill="#030202"/>
<path transform="translate(902,232)" d="m0 0h42l24 1 31 3 37 4 3 1 16 2 25 4 16 4v2l-21 10-15 10-5 5h-2v2h-2l-2 4-7 7-12 16-8 11-12 23-8 16-5 13-7 19-4 18-1 2v39l3 13 3 16 1 3 2 1-1 4 9 16 7 11 6 8 17 17 13 7 18 10 10 3h14l3 1 15-2 8-4 19-9 10-8 8-5 6-7 5-4 4-7 10-13 6-11 5-8 9-19 6-14 1-1 2-9 4-10 4-16 2-18 1-2 1-10v-17l-1-8-1-13-1-7v-6l-13-25-9-16-6-9-6-6v-2l10 1 28 6 20 7 9 2 43 15 27 11 19 8 7 3 16 8 16 9 12 6 20 13 9 9 9 7 3 3v14l-1 9 1 5-2 4-3 16-1 19-4 14v6l-5 15-2 12-3 11-2 12-6 19-8 20-8 17-6 15-7 13-3 7-6 11-3 9-12 22-15 27-12 14-9 11-6 8-15 15-36 1v2l-20 1 1-3 6-4 19-14 12-12 6-5 6-9 7-8 10-21 3-3 5-23 1-13v-9l-3-9-2-10-10-15-9-11-10-8-10-3-15-2-17 1-30 9-4 2-8 2-10 6-11 8-22 14-13 9-15 10-22 14-26 12-3 2-34 10-14 2-13 5-16 9-8 7-10 15-4 8-1 10 3 13 3 10 9 14 12 13 10 7 23 11 20 6 18 2h6l-5 5-12 8-6 5h-12l-19 6-25 1-3-1-14-1-4-3-8 1v-2l-3 1-5-4h-6l-22-8-21-8-8-3-22-12-15-10-18-13-11-8-15-14-20-20-18-22-10-12-8-13-9-16-4-10v-5l7 1 9 2h10l5 2 15 2h38l22-5 17-5 10-5 5-3 6-3 5-5 12-8 11-11 8-17 4-10 1-7 3-11v-30l-2-10v-2h-2l1-4-7-16-8-10-6-7-13-10-4-4-8-5 1-5 6-10 2-10 3-3 3-10 5-10 4-16 3-17 3-10 2-23 1-5v-11l-1-3-2-17-3-9-2-9-7-13-8-10-7-7-2-1v-2l-4-2-2-3z" fill="#D8DBDA"/>
<path transform="translate(286,34)" d="m0 0h25l19 5 16 4 25 10 30 15 20 11 11 8 12 9 10 10 10 8 14 15 5 5 1 2-3 4-1 5 22 3 6 2 11 1 13 4 30 10 15 7 8 3 5-1-1-11 15-15 5-3 6-8 7-6 11-9 10-6 13-6 22-4h21l14 5 11 6 13 11 5 8 2 7v20l-2 6-6 9-11 7-13 7-17 9-24 7-12 5-14 7-11 8-6 9-2 4 8-1 3 1 1 2 2 16 2 8v21l-4 10-3 11-2 2-4-1-8-4-11-5-16-4-12-1-7-1-5 2-14 3-12 4-17 9h-3l-5-10-12-19-7-9-3-3v-2l-4-2v-2l-4-2-8-6-13-8-11-6-5-1 2 4 17 10 16 12 8 10 8 12 6 11 5 10 1 6-5 6-8 7-11 10h-2l-2 4-8 7-12 13h-2l-1 5-6 8-5 10-3 13v16l-1 4h-14l-22-8-14-6-10-7-8-6-10-9-9-9-10-13-5-9-7-20-11-25-6-8-8-7-17-8-36-11-34-10-33-11-8-6-8-9-5-11-3-10-2-3v-17l8-14 9-10 11-7 11-4h21l5 1 16 1 10 3 17 4 13 5 29 12 14 9 18 13 4 2-2-5-4-2-5-6v-2l-4-2-10-8-17-9-12-5-19-7-8-3-15-5-9-2-13-1-4-1-16-1-3-2-9 2-2 1-12 1-6 5-4-1-7-8-5-8-4-10-1-9v-15l3-7 7-9 8-8 16-8 9-1 11-3h13l21 1 25 6 17 5 24 10 28 15 11 7 9 6 8 7 9 7 21 21-2-4-10-14-16-17-8-7-15-10-27-15-28-13-33-10-18-3-2-1 1-6 6-11 10-6 10-5z" fill="#FAC745"/>
<path transform="translate(1212,1375)" d="m0 0 12 3 14 9 11 9 9 10 5 10v23l-8 11-8 7-14 10-8 5-1 3 8-1 21-7-1 6-10 18-2 8 5-2 16-23 8-10 12-12 15-11 14-8 18-7 16-6 22-5h12l7-1h16l15 2 2 1 13 2 16 5 16 8 11 7 10 9 9 11 10 17 7 16 5 16 4 26v11l-4 18-9 21-7 11-5 4-8 4-1 1h-16l-14-2h-43l-36 3-25 3-19 2-44 5-43 3-21 1h-53l-18-1-40-5-27-5-16-6-11-8-10-10-10-13-7-14-4-14-2-10v-13l2-17v-8l5-8 5-9 1-5 4 1 14 7h7l4-1-5-5-10-5-9-7-5-6-6-10v-24l6-10 6-8 5-4 15-7 8-1 1 2 1 12 6 12 5 4 14 5 21 5 14 1h11l19-4 30-10 7-4 6-10 1-4-1-3v-20z" fill="#916E40"/>
<path transform="translate(817,1371)" d="m0 0h13l13 2 10 4 9 7 7 7 6 9 1 9 3 9v8l-3 9-2 9-9 10-7 7-12 9-4 4 14-5 12-7 9-5 8-7 2-4 5 2 11 10 8 14 6 12 1 9 5 9v13l2 3v20l-2 6-2 10-7 22-6 9-11 10-10 7-10 5-16 5-19 3-22 2h-51l-65-1-39-3-81-9-47-6-29-3-29-4h-16l-25 2-15 2-3-5v-2h-2l-4-8-5-17-3-9 1-33 4-13 1-9 8-17 6-9 10-10 7-8 11-9 12-6 19-9 19-5 20-2 3-1h16l15 1 30 7 19 7 13 5 16 8 13 11 9 9 9 14 8 11 10 12 7 10 3 3-3-6-3-10-6-10-1-2v-6l6 2 11 1v-2l-5-2-13-10-13-12-9-15v-15l2-9 5-10 10-12 5-3 5 1 11 32 5 8 8 7 12 4 11 2 11 1h27l15-4 22-9 10-7 8-9 7-11 2-3-1-6-8-13-8-16z" fill="#916E40"/>
<path transform="translate(742,924)" d="m0 0h7l10 2h2v-2h25l63 4 36 5 42 7 12 3-2 6-10 21-7 20-3 15-2 8-2 28v18l2 24 6 28 7 14 3 8 13 17 19 19 9 7 12 7 9 6 12 6 11 5 19 5 18 4 17 2-2 4-8 4-37 8-25 4-14 2-4 1-17 1h-17l-9-4-4-4-5-12-2-11 4-3 15-6 11-5 4-2 1-3-32 6-20 2h-50l-3 1h-10l-2-2-12-1-6-1-9-2-36-10-19-7-12-5-6-2 3 5 10 7 19 9 34 10 12 5 9 3v7l-5 16-6 11-8 3h-51l-11-1-13-1-33-7-22-6-14-6-8-6-6-9-3-9 1-6 3-8 1-13 4-11 5-11 3-12 6-13 2-6h2l8 24 5 5v2h3l-2-21-3-10-1-18-4-7-2-13-2-7-5-38v-50l3-16 6-18 6-8 7-6 14-5 5-1 24-2z" fill="#1287DD"/>
<path transform="translate(1053,881)" d="m0 0 27 1 29 5 9 3 15 6 13 5 20 11 1 5-6 8-6 7-9 12-5 6-2 9-3 5-4 21v6l1 6-2 7 1 7 3 10 4 15 5 9 6 8v2h2l9 11 9 8 10 8 14 8 17 5 1 4-9 11-13 13-10 7-11 7-9 5-9 2-5 2-11 2h-21l-25-1-18-3-12-5-4-2 5 6 17 9 9 3 20 3h41v7l-9 12-8 6-13 7-27 7-7 1h-14l-23-3-22-5-16-7-17-10-15-10-14-11-8-8-10-15-8-15-4-11-6-27-1-25v-17l1-19 8-27 6-16 13-26 12-16 8-10 7-8 15-11 12-6 19-8 14-4z" fill="#FAC744"/>
<path transform="translate(759,408)" d="m0 0h28l34 6 23 8 18 8 11 6 11 8 12 9 10 9 6 5 10 14 4 10 4 16v29l-5 14-2 10-3 5-3 7-6 10-8 7-15 10-10 6-14 6-21 6-10 2h-9l-4 1h-15l-13-2v-2l-14-1-18-4-21-10-12-6-12-8-13-12-7-7-8-10-6-7-12-24v-11l-1-5-2-8-1-6 3-12 1-1v-10l3-7 4-5 4-7 6-8 3-6 7-8 11-9 11-6 9-5 15-3 14-1z" fill="#1287DE"/>
<path transform="translate(1112,257)" d="m0 0h9l23 5 11 4 6 4 8 8 8 7 10 15 14 26 2 3 4 23-1 3-8-11-8-10-8-6-16-8h-11l-16 8-9 7-8 9-6 11-6 9-7 14-1 8 3 6 6 8 3 5v2h2l5 6 11 21v4l-13 6-12 5-18 6-3 9-1 11-2 7v25l1 17 5 13 3 5 1 5-1 2-15 1v-2l-5-2-6 1-22-13-10-7-14-14-13-20-8-17-3-12-2-12v-45l5-21 10-25 12-25 9-15 10-15 11-15 7-7 13-10 15-9 7-3 10-2 4 1z" fill="#FCFCFC"/>
<path transform="translate(1433,453)" d="m0 0h6l8 5 5 5v2l4 2 6 6v2h2l14 16 11 15 9 16 6 16 5 15 1 1v12l1 2v28l-1 27-4 19-5 13-8 15-8 10-7 9-11 12-7 8-10 9-13 10-13 8-12 5-14 4-16 3h-12l-13-7-18-9-15-3-14-2 1-5 12-13 5-6 8-10 6-7 8-12 6-12 3-4 7 1 6 2 16 1 6-2 9-2 8-5 14-14 8-16 3-9 3-10v-25l-4-10-6-9-14-13v-2l-3-1 3-12 5-18 3-14 2-7 2-11 3-11v-10z" fill="#D8DBDA"/>
<path transform="translate(1119,1206)" d="m0 0 5 5 11 18 11 19 13 28 5 12 6 15 7 16 3 8 4 12 2 10 5 18 5 19v15l1 6-5 4-11 5-15 4-13 4-6 1h-26l-6-2-12-2-8-4-7-7-4-16-2-15-2-3-1-7-1-1-2-10-7-16-3-10-9-20-6-10-14-30-5-10-5-12-4-8v-2l36-8 15-5 24-11 16-8z" fill="#D8DBDA"/>
<path transform="translate(695,1242)" d="m0 0 6 1 34 7 13 2 47 1-3 15-2 13-1 4-1 21 2 5 2 3v15l3 10 2 4h-2l9 27 13 27 5 15-1 5-7 8-11 9-16 8-16 5h-8l-3 1h-13l-10-1-16-2-8-6-6-8-5-11-3-13-2-4-5-21-1-14-3-13v-88l3-9 2-9z" fill="#D8DBDA"/>
<path transform="translate(463,1597)" d="m0 0h22l42 6 89 11 65 7 16 1 31 1h82l25-2 26-4 22-5 16-6h5l2 12 1 7v11l-4 3-16 3-40 4-32 2-26 1-49 1h-20l-3-1-86-1-5-1-66-1-42-1-49 1h-49l-16-1-2-1v-18l4-13 6-7 14-5 18-3z" fill="#916E40"/>
<path transform="translate(578,305)" d="m0 0h20l12 4 11 7 7 7 7 11 3 9 5 14-1 25-4 8-4-1-9-9-13-9-14-7h-13l-15 5-6 3-6 2-9 7-8 6-7 7-12 18-7 10-1 9-2 4v11l2 5 2 8 7 8 5 6 10 8-1 4-10 3h-22l-15-8-11-8-7-8-8-14-3-13-2-12v-24l8-18 5-8 4-5 4-7 22-22 9-7 9-8 29-15 9-4h8z" fill="#F9C644"/>
<path transform="translate(1048,1602)" d="m0 0 16 7 13 4 24 5 50 6 16 1h60l66-5 40-5 13-2 51-5 13-1h43l40 3 12 2 2 6v10l-3 9-6 5-10 2-48 2-56 1-18 1-141 1-22 2-67 3h-48l-3-1-14-1-15-5-8-5-1-2v-37z" fill="#916E40"/>
<path transform="translate(1360,145)" d="m0 0h12l12 2 13 5 14 8 12 9 12 11 9 10 9 14 7 14-1 4-9 11-9 10-11 14-10 15-6 8-5 7-3 1-6-7-7-11-9-10-10-9-15-11-8-5-26-11-18-6-14-3-1-3 10-15 19-28 12-14 8-6 10-3z" fill="#1287DE"/>
<path transform="translate(1216,909)" d="m0 0 16 3 9 3 11 4 2 2-1 5-7 5-12 6-13 9-11 8-5 6-3 8-1 6v13l4 18 11 23 8 11 11 8 8 5 16-1 12-4 15-8h5v11l-3 7-8 10-8 7-14 9-13 5-4 1h-19l-12-2-16-6-10-6-8-7v-2h-2l-7-8-9-10-7-11-4-10-4-18-1-2-1-14 1-2 1-10 2-8 2-9 5-10 9-14 9-10 9-8 12-7 12-4z" fill="#F9C544"/>
<path transform="translate(841,238)" d="m0 0h24l16 8 10 8 8 8 5 10 5 14-1 2-7-7-12-7-7-3-11-1-12 2-8 6-11 11-4 8-1 7-6 9-4 11 2 7 11 12 8 9 5 6 1 6-6 5-7 2-4 2-7 2-20 9-8 9 1 10-7-1-10-2-4-1h-35l1-10v-9l8-30 10-35 5-16 8-18 3-6h2l2-4 12-16 11-9 16-5 11-1z" fill="#FCFCFC"/>
<path transform="translate(1275,650)" d="m0 0h14l2 1-1 5-4 6-3 6-10 14-9 11-14 14-12 9-6 5-16 9-35 9-20 6-18 6-30 11-24 8h-4v-11l8-19 13-18 7-8 13-9 16-9 18-8 27-7h2l-2 5-13 15-7 10v3l5-4 7-8 12-13 10-10 14-10 23-12 18-5z" fill="#DE3E1C"/>
<path transform="translate(1287,224)" d="m0 0 18 1 16 5 20 8 17 9 10 9 14 11 8 10 8 13 3 5-1 5-6 11-6 9-5 8-5-1-40-20-29-11-21-8-11-4-14-4-1-3 5-11 11-23 5-11z" fill="#FCFCFC"/>
<path transform="translate(1397,98)" d="m0 0 14 1 15 5 10 5 12 11 16 16 7 8 7 9 9 12 4 6v6l-9 15-9 12-6 7h-2l-9-17-9-12-9-10-14-12-10-7-19-10-13-4-8-1h-13l-9 1 2-4 13-13 7-8 9-8 10-7z" fill="#FCFCFC"/>
<path transform="translate(760,452)" d="m0 0h26l13 3 15 6 7 4 1 5-4 18-5 10-6-1-19-3-10-1-42-1-2-4 2-16 5-10 7-6z" fill="#FBFBFB"/>
<path transform="translate(180,180)" d="m0 0 3 1-1 6-4 7-2 14-1 11 5 2 6 11 8 11 10 6 12 6 7 1 3 3 5 2 3 2 7 3 4 1 9 1 2 3 10 1h8l31 10 9 4 6 4 10 11 1 6 3 1 1 8 3 1 2 9 1 2v6l-3-4-9-21-6-8-8-7-17-8-36-11-34-10-33-11-8-6-8-9-5-11-3-10-2-3v-17l8-14z" fill="#F5CB4C"/>
<path transform="translate(1227,913)" d="m0 0h7l16 5 4 3-1 5-7 5-12 6-13 9-11 8-5 6-3 8-1 6v13l4 18 11 23 8 11 11 8 4 2 1 5 3 1h-8l-9-5-5-4-4-5v-2l-3-1-10-16-2-3-3-9-5-16v-24l2-7 7-11 8-7h2l1-3 18-12h3l1-9-4-2-6-2z" fill="#F1C74B"/>
<path transform="translate(1019,890)" d="m0 0h5v6l-5 3-6 3-5 1-3 3h-3v2l-5 3-4 3h-2l-1 3h-3l-1 4h-2l-2 4-4 5h-2v2h-2v2h-2l-2 5-3 4h-2v2l-5 5-4 7h-2l-2 5-4 8-3 7-3 6-3 1 1 7-3 7-3 1-2 8h-2l-1 4-1-2 6-21 6-16 13-26 12-16 8-10 7-8 15-11 12-6z" fill="#F4C94B"/>
<path transform="translate(1053,881)" d="m0 0 27 1 29 5 9 3 15 6 13 5 20 11 1 5-6 8-4 1 1-5-2-5-7-4-17-9-6-2-8-2-9-4-6-1-7-3-26-3h-26l-7-2v-1l10-2z" fill="#F3C84B"/>
<path transform="translate(741,162)" d="m0 0h1v7l-6 9-11 7-13 7-17 9-24 7-12 5-14 7-11 8-6 9-3-1 4-9 7-8 6-5 15-7 16-6 4-2 9-2 13-5 9-6 6-2v-2l12-5 4-1v-2h2l2-6 3-5z" fill="#F3C94B"/>
<path transform="translate(937,1114)" d="m0 0 6 2 4 8 3 5 4 5 5 5 5 6 7 6 9 5v2l5 2 12 7 9 5 5 4 14 7 6 4 1 3h-8l-16-7-17-10-15-10-14-11-8-8-10-15-7-13z" fill="#F5CA4C"/>
<path transform="translate(330,40)" d="m0 0 13 2 26 10 32 16 20 11 10 7-1 3h-2l-4-4-7 1-10-6-3-3-10-4-7-4-4-1v-2l-10-3-17-8v-3l-12-2-11-4 1-4z" fill="#EEC44A"/>
<path transform="translate(228,264)" d="m0 0h10l4 3h9l3 1 2 3 10 1h8l31 10 9 4 6 4 10 11 1 6 3 1 1 8 3 1 2 9 1 2v6l-3-4-9-21-6-8-8-7-17-8-36-11-34-10z" fill="#EEC44A"/>
<path transform="translate(307,95)" d="m0 0h9l23 12 17 10 8 6 6 4 16 14 6 7-5-1-1-3-9-3v-2l-5-1-5-5-7-5v-2l-5-1-5-3v-2h-2l-2-3-3-1v-2l-10-2-5-5-8-3-8-5v-2l-5-1z" fill="#EBC14A"/>
<path transform="translate(591,360)" d="m0 0m-11 0 17 2v1l-12 1-15 5-6 3-6 2-9 7-8 6-7 7-12 18-7 10-1 7h-1v-6h-2l1-5 4-8 6-6 3-7 7-8 8-7h2v-2l8-5 9-6 8-3 7-3 2-2z" fill="#EAC14A"/>
<path transform="translate(1141,1158)" d="m0 0h6v7l-9 12-8 6-13 7-27 7-4-1 5-3v-1h8v-2l10-4 4-3 9-3 12-8h2v-7l2-4h3v2l4-1 1-3-4 1h-33v-1z" fill="#E5BC49"/>
<path transform="translate(1202,1100)" d="m0 0 6 1-1 4-7 8-10 10-10 7-11 7-9 5-9 2-5 2h-8l4-2 2-2 10-4 2-2 9-3 7-6 14-9 10-9 2-1z" fill="#F0C54A"/>
<path transform="translate(1074,1063)" d="m0 0h15l2 2v4l-14 3-24 8-10 3-12 1 3-3 18-8 14-7z" fill="#010101"/>
<path transform="translate(469,447)" d="m0 0 3 1 4 8v2l3 1 7 8 8 7 12 6v2l3 1v2l-4 1-8-2-16-10-9-10-6-10v-3h2z" fill="#F5CC4C"/>
<path transform="translate(437,93)" d="m0 0 6 2 11 11 10 8 7 8 1 4h-9l-5-4-3-3v-3h-2v-2h-2v-2l-5-2-9-8v-2h-2l-1-4z" fill="#F4CB4C"/>
<path transform="translate(1059 1e3)" d="m0 0h14l9 1 2 1v5l-3 2-8-1h-30l-1 1-9 1h-9v-2l10-4 14-2z" fill="#010101"/>
<path transform="translate(511,433)" d="m0 0 1 2v11l2 5 2 8 7 8 5 6 10 8-1 4-4 1h-7l-4-5-1-7h-2v-3h-2l-1-5-4-1-3-9-2-10h3v-12z" fill="#ECC24A"/>
<path transform="translate(1134,1021)" d="m0 0h1l4 15 5 9 6 8v2h2l9 11 9 8 8 7 1 3h-2l-1 2-11-7-5-6v-3l-8-7-5-5-4-3-3-9-2-2v-7l-4-2v-4h-2v-5h2z" fill="#ECC24A"/>
<path transform="translate(218,74)" d="m0 0h13l1 1 16 1 7 2v1l-16 2h-29l-3 3-8 1-5-2 2-3 10-1 1-2z" fill="#F6CB4B"/>
<path transform="translate(1060,939)" d="m0 0h19l11 1 6 2 1 5-1 1-13-1-11-2-23-1-6-2v-2z" fill="#010101"/>
<path transform="translate(286,34)" d="m0 0h25l15 4v5l-5 1-10-2-15-1h-10l-4-2v-4z" fill="#EFC54B"/>
<path transform="translate(1276,1061)" d="m0 0h6l-6 7-3 5-13 9-12 5h-9l1-3 12-6 11-6 11-10z" fill="#F6CC4C"/>
<path transform="translate(180,180)" d="m0 0 3 1-1 6-4 7-2 14-1 11 1 4-1 5-2-3-3-9-1-1v-17l8-14z" fill="#EFC44A"/>
<path transform="translate(262,42)" d="m0 0 2 1-2 4-2 3h-2l-1 8 5 6 7 4 2 2-10-2-14-2-2-1 1-6 6-11z" fill="#ECC24B"/>
<path transform="translate(493,335)" d="m0 0 3 1-5 5h-2l-2 4-8 7-12 13h-2l-1 5-6 8-5 10-2 8h-1l-2-7 1-6 6-9h2l2-6 18-18 2-4 8-7z" fill="#E7BD4A"/>
<path transform="translate(859,746)" d="m0 0 7 3 8 4v2h3v2h2v2h3v2l5 1 2 1v2l5 2 18 8v3l-10-2-26-14-10-7-4-3v-3l-3-1z" fill="#F5F6F6"/>
<path transform="translate(678,106)" d="m0 0h21l14 5 11 6 6 5-4 2h-3l-7-2-9-6-11-6v-2l-18-1z" fill="#E9C04A"/>
<path transform="translate(287,72)" d="m0 0 2 1v2h9l1 3h11l9 5 6 2 4 4 6 3v3h2v2l-5-2-29-14-18-6v-2z" fill="#E1B748"/>
<path transform="translate(615,139)" d="m0 0 1 4-1 4-3 4-3 3h-4v2l-5 5-3 4-3 6-1 6h-1l-1-14 14-14 7-8z" fill="#FAD04D"/>
<path transform="translate(170,142)" d="m0 0 1 2h5l2 2 1 2 5 2 1 4h17v-2l5-2 3 1-1 2-6 2-12 1-6 5-4-1-7-8-4-6z" fill="#EEC34A"/>
<path transform="translate(1165,1053)" d="m0 0 11 5v2l4 2 6 6 2 6 4-1 3 3-1 2-7-1-8-7-3-2v-2h-2l-7-8-2-2z" fill="#F5CA4B"/>
<path transform="translate(475,374)" d="m0 0 1 4h-2v2l-2 1-1 7-4 8-3 13h-2l-1 8h-1v-19l10-21z" fill="#F4CA4B"/>
<path transform="translate(556,165)" d="m0 0 10 2 14 6 1 5-8 1-10-6-7-3z" fill="#F6CB4C"/>
<path transform="translate(1179,272)" d="m0 0 10 1 9 2 2 4-7 2-1 1 1 6 2 5h-2l-7-12-7-7z" fill="#F4F5F5"/>
<path transform="translate(518,298)" d="m0 0 1 2 4 1 4 2h12l3 2-15 8h-3l-5-10z" fill="#ECC24B"/>
<path transform="translate(1261,717)" d="m0 0 3 1 3-1 7 2 2 4-9 1-13 1-8-1 4-2 1-3 6 1 3-1z" fill="#FDFDFD"/>
<path transform="translate(826,720)" d="m0 0 5 2 6 3 7 6 3 5-1 2-7-2-9-8v-3l-3-1z" fill="#F9F9F9"/>
<path transform="translate(619,373)" d="m0 0 10 3 5 2 5 4v6l-1 2-4-1-9-9-6-5z" fill="#EDC34C"/>
<path transform="translate(891,235)" d="m0 0h15v2l-2 1-2 8h-5l-7-6v-2h-2v-2z" fill="#FAFAFA"/>
<path transform="translate(325,194)" d="m0 0 5 2 17 12 3 2-1 3-4-1-11-7-3-3-4-1-4-4v-2z" fill="#E6BC49"/>
<path transform="translate(897,423)" d="m0 0 2 1-1 5v6l2 6-1 1-7-1-3-2 1-5z" fill="#F7F7F7"/>
<path transform="translate(1467,482)" d="m0 0 7 6 5 5 3 8h-3-2l-4-5v-2h-2v-2h-2l-2-5-1-4z" fill="#F9FAFA"/>
<path transform="translate(938,984)" d="m0 0 2 4-1 7-2 3-3 1-2 8h-2l-1 4-1-2 6-21z" fill="#E9BF49"/>
<path transform="translate(181,89)" d="m0 0h1v5l-8 10-5 6-2-1 1-5 3-6 8-7z" fill="#FED44D"/>
<path transform="translate(1064,780)" d="m0 0h6l-5 5-10 7-4-1v-2l3-2-1-4 4-2 5 1z" fill="#F6F7F7"/>
<path transform="translate(591,360)" d="m0 0m-11 0 17 2v1l-12 1-16 5 1-4 6-4z" fill="#DFB649"/>
<path transform="translate(514,152)" d="m0 0h7l4 2v2l4 1h-2l-1 2h-9l-5-3v-2h2z" fill="#F9CE4C"/>
<path transform="translate(914,776)" d="m0 0 6 2 8 3 10 4-1 2-13-3-10-4z" fill="#F3F3F3"/>
<path transform="translate(480,266)" d="m0 0 5 1 7 8-1 4-6-2-5-8z" fill="#EFC54B"/>
<path transform="translate(593,359)" d="m0 0h7l8 4 4 7-5-2-10-5-6-1z" fill="#ECC24A"/>
<path transform="translate(1154,929)" d="m0 0 1 3-9 12-5 6-1-4 7-11z" fill="#E2B949"/>
<path transform="translate(1054,539)" d="m0 0 5 1 7 4h8l5 3h11v-7l2 2 1 5-1 2-15 1v-2l-5-2-6 1-12-7z" fill="#D8DBDA"/>
<path transform="translate(525,154)" d="m0 0 11 2 5 2 1 3-3 1h-7l-4-3 1-3h-4z" fill="#EAC04A"/>
<path transform="translate(1276,675)" d="m0 0v3l-11 14-15 15-2-1 13-13 7-8z" fill="#916E40"/>
<path transform="translate(342,337)" d="m0 0 2 1v2l3 1 1 5 2 4 3 8-5-1-6-18z" fill="#EEC34A"/>
<path transform="translate(228,264)" d="m0 0h10l4 3h9l3 1 1 3h-7l-20-6z" fill="#F1C64A"/>
<path transform="translate(395,400)" d="m0 0 5 2 4 4v2l4-1 6 3 1 3-9-3-8-4-3-4z" fill="#DFB648"/>
<path transform="translate(1128,1010)" d="m0 0 4 1 1 11-1 3h-2v-3h-2l-1-4z" fill="#FAD04D"/>
<path transform="translate(332,313)" d="m0 0 3 1v2l3 1 2 9 1 2v6l-3-4-6-15z" fill="#DCB247"/>
<path transform="translate(1069,1062)" d="m0 0h20v1l-15 1-13 5-2-1 4-4z" fill="#C9A248"/>
<path transform="translate(1139,950)" d="m0 0h1v7l-4 7-2 4-1-7 2-6z" fill="#DFB648"/>
<path transform="translate(1134,1021)" d="m0 0h1l4 15 1 4h-2v-3l-4-2v-4h-2v-5h2z" fill="#D7AE47"/>
<path transform="translate(1132,966)" d="m0 0 2 3v7l-2 9h-1l-1-9-1-5z" fill="#DEB549"/>
<path transform="translate(1058,1066)" d="m0 0h2l-1 4-12 6 1-4 6-5z" fill="#ECC24A"/>
<path transform="translate(937,1114)" d="m0 0 6 2 3 5-1 4-4-1-4-8z" fill="#E6BD4A"/>
<path transform="translate(1088,1158)" d="m0 0 21 1 8 1v1l-12 1-1-1-13-1z" fill="#FED34C"/>
<path transform="translate(511,423)" d="m0 0h2l1 8-3 3-2 4v-11z" fill="#F9CD4B"/>
<path transform="translate(476,132)" d="m0 0 3 1 2 2 1 4-5 2-3-4z" fill="#F9CF4D"/>
<path transform="translate(364,377)" d="m0 0 4 1 4 2 3 2 1 5h-3l-9-9z" fill="#E1B849"/>
<path transform="translate(632,303)" d="m0 0m-1 1m-3 0 5 3h2l-2 4-4-1-4-2 1-3z" fill="#E8BD48"/>
<path transform="translate(1086,1142)" d="m0 0 22 3v1l-6 1-3-1-15-1-3-2z" fill="#FED44D"/>
<path transform="translate(1203,336)" d="m0 0h1l3 16-1 3-5-7v-2l2-1z" fill="#D8DBDA"/>
<path transform="translate(495,150)" d="m0 0h9l3 3-4 2-7-2z" fill="#FFD54E"/>
<path transform="translate(1149,1140)" d="m0 0h3l1 3-7 3h-8l4-2 2-2z" fill="#DAB148"/>
<path transform="translate(943,787)" d="m0 0 9 2 4 3-7 1-3-1v-2l-3-1z" fill="#F9F9F9"/>
<path transform="translate(1217,281)" d="m0 0 9 1 8 4-4 1-4-1-4-2-5-2z" fill="#F2F3F2"/>
<path transform="translate(265,66)" d="m0 0h7l5 2v2l4 1h-9l-7-4z" fill="#F9CE4C"/>
<path transform="translate(730,124)" d="m0 0 4 1 4 5-6 1-5-6z" fill="#ECC149"/>
<path transform="translate(232,75)" d="m0 0h20l8 2v1h-9l-3-1-16-1z" fill="#A88241"/>
<path transform="translate(378,389)" d="m0 0 4 1v2h2v2l4 2v3l-6-4-5-5z" fill="#E5BB49"/>
<path transform="translate(505,324)" d="m0 0 3 1-10 10-2-1 2-4z" fill="#DBB046"/>
<path transform="translate(250,154)" d="m0 0 5 1v2h5l1 2-11-2-13-1v-1z" fill="#C59D44"/>
<path transform="translate(1236,725)" d="m0 0 17 2v1l-20 1 1-3z" fill="#A3865B"/>
<path transform="translate(215,149)" d="m0 0h12l2 2-1 1h-12z" fill="#FFD54E"/>
<path transform="translate(1099,1190)" d="m0 0 2 1-2 1zm-8 2h8l-4 4-9 1z" fill="#E3BA49"/>
<path transform="translate(567,366)" d="m0 0h2l-1 4-4 2-5-1 2-3z" fill="#F0C64A"/>
<path transform="translate(402,153)" d="m0 0 5 5 2 4-3 1-6-5 1-2 4 3-3-4z" fill="#916E40"/>
<path transform="translate(198,78)" d="m0 0h9l-1 2-10 1-5 3-4-1z" fill="#C69C43"/>
<path transform="translate(272,37)" d="m0 0h5l-3 1-1 3-2 1h-7l3-3z" fill="#D3AA46"/>
<path transform="translate(1153,953)" d="m0 0 1 2-1 5h-2l-1 5-3 1 3-9z" fill="#D9AE46"/>
<path transform="translate(493,335)" d="m0 0 3 1-5 5h-2l-1 3-3-2z" fill="#E0B647"/>
<path transform="translate(501,290)" d="m0 0 4 4 3 5-1 2-4-2-2-5z" fill="#D9B047"/>
<path transform="translate(461,252)" d="m0 0 5 2 5 4-4 1-7-5z" fill="#DDB348"/>
<path transform="translate(1238,712)" d="m0 0 4 1-8 7h-2l2-6z" fill="#D7A843"/>
<path transform="translate(342,337)" d="m0 0 2 1v2l3 1v9l-3-4z" fill="#DCB147"/>
<path transform="translate(228,264)" d="m0 0h10l5 5-12-3z" fill="#D4AA46"/>
<path transform="translate(1085,251)" d="m0 0h11v2l-4 2h-6l1-2z" fill="#F2F3F3"/>
<path transform="translate(312,175)" d="m0 0 8 2 2 4h-6z" fill="#F3C94B"/>
<path transform="translate(959,792)" d="m0 0 6 2 3 3-5 1-4-4z" fill="#F3F4F3"/>
<path transform="translate(1504,550)" d="m0 0h2l2 6-1 6-2-3-2-5z" fill="#FDFDFD"/>
<path transform="translate(350,359)" d="m0 0h3l5 5v5l-5-5z" fill="#E1B748"/>
<path transform="translate(1282,1061)" d="m0 0 2 1-7 8h-3l6-7z" fill="#D6A843"/>
<path transform="translate(1130,985)" d="m0 0h1l2 8-1 6-2 1z" fill="#C79F45"/>
<path transform="translate(966,705)" d="m0 0 2 3 2 6v5l-3-3z" fill="#FDFDFD"/>
<path transform="translate(1506,1447)" d="m0 0" fill="#916E40"/>
</svg>
